G04 #@! TF.GenerationSoftware,KiCad,Pcbnew,(6.0.11-0)*
G04 #@! TF.CreationDate,2023-05-22T16:43:52+12:00*
G04 #@! TF.ProjectId,head-interface,68656164-2d69-46e7-9465-72666163652e,rev?*
G04 #@! TF.SameCoordinates,PX5f5e100PY5f5e100*
G04 #@! TF.FileFunction,Copper,L1,Top*
G04 #@! TF.FilePolarity,Positive*
%FSLAX46Y46*%
G04 Gerber Fmt 4.6, Leading zero omitted, Abs format (unit mm)*
G04 Created by KiCad (PCBNEW (6.0.11-0)) date 2023-05-22 16:43:52*
%MOMM*%
%LPD*%
G01*
G04 APERTURE LIST*
G04 Aperture macros list*
%AMRoundRect*
0 Rectangle with rounded corners*
0 $1 Rounding radius*
0 $2 $3 $4 $5 $6 $7 $8 $9 X,Y pos of 4 corners*
0 Add a 4 corners polygon primitive as box body*
4,1,4,$2,$3,$4,$5,$6,$7,$8,$9,$2,$3,0*
0 Add four circle primitives for the rounded corners*
1,1,$1+$1,$2,$3*
1,1,$1+$1,$4,$5*
1,1,$1+$1,$6,$7*
1,1,$1+$1,$8,$9*
0 Add four rect primitives between the rounded corners*
20,1,$1+$1,$2,$3,$4,$5,0*
20,1,$1+$1,$4,$5,$6,$7,0*
20,1,$1+$1,$6,$7,$8,$9,0*
20,1,$1+$1,$8,$9,$2,$3,0*%
G04 Aperture macros list end*
G04 #@! TA.AperFunction,ComponentPad*
%ADD10RoundRect,0.250000X-0.350000X-0.625000X0.350000X-0.625000X0.350000X0.625000X-0.350000X0.625000X0*%
G04 #@! TD*
G04 #@! TA.AperFunction,ComponentPad*
%ADD11O,1.200000X1.750000*%
G04 #@! TD*
G04 #@! TA.AperFunction,ComponentPad*
%ADD12RoundRect,0.250000X0.600000X0.725000X-0.600000X0.725000X-0.600000X-0.725000X0.600000X-0.725000X0*%
G04 #@! TD*
G04 #@! TA.AperFunction,ComponentPad*
%ADD13O,1.700000X1.950000*%
G04 #@! TD*
G04 #@! TA.AperFunction,ComponentPad*
%ADD14RoundRect,0.316176X0.758824X0.758824X-0.758824X0.758824X-0.758824X-0.758824X0.758824X-0.758824X0*%
G04 #@! TD*
G04 #@! TA.AperFunction,ComponentPad*
%ADD15O,2.000000X2.300000*%
G04 #@! TD*
G04 #@! TA.AperFunction,ComponentPad*
%ADD16C,6.000000*%
G04 #@! TD*
G04 #@! TA.AperFunction,ComponentPad*
%ADD17R,2.400000X2.400000*%
G04 #@! TD*
G04 #@! TA.AperFunction,ComponentPad*
%ADD18C,2.400000*%
G04 #@! TD*
G04 #@! TA.AperFunction,ViaPad*
%ADD19C,0.800000*%
G04 #@! TD*
G04 APERTURE END LIST*
D10*
G04 #@! TO.P,J9,1,Pin_1*
G04 #@! TO.N,Net-(J2-Pad2)*
X3800000Y18140000D03*
D11*
G04 #@! TO.P,J9,2,Pin_2*
G04 #@! TO.N,Net-(J2-Pad1)*
X5800000Y18140000D03*
G04 #@! TD*
D12*
G04 #@! TO.P,J3,1,Pin_1*
G04 #@! TO.N,Net-(J3-Pad1)*
X10825000Y7150000D03*
D13*
G04 #@! TO.P,J3,2,Pin_2*
G04 #@! TO.N,Net-(J3-Pad2)*
X8325000Y7150000D03*
G04 #@! TO.P,J3,3,Pin_3*
G04 #@! TO.N,Net-(J3-Pad3)*
X5825000Y7150000D03*
G04 #@! TO.P,J3,4,Pin_4*
G04 #@! TO.N,Net-(J3-Pad4)*
X3325000Y7150000D03*
G04 #@! TD*
D14*
G04 #@! TO.P,J1,1,Pin_1*
G04 #@! TO.N,Net-(J1-Pad1)*
X-3200000Y7150000D03*
D15*
G04 #@! TO.P,J1,2,Pin_2*
G04 #@! TO.N,Net-(J1-Pad2)*
X-5700000Y7150000D03*
D13*
G04 #@! TO.P,J1,3,Pin_3*
G04 #@! TO.N,Net-(J1-Pad3)*
X-8200000Y7150000D03*
G04 #@! TO.P,J1,4,Pin_4*
G04 #@! TO.N,Net-(J1-Pad4)*
X-10700000Y7150000D03*
G04 #@! TD*
D12*
G04 #@! TO.P,J8,1,Pin_1*
G04 #@! TO.N,Net-(J3-Pad1)*
X19100000Y23200000D03*
D13*
G04 #@! TO.P,J8,2,Pin_2*
G04 #@! TO.N,Net-(J3-Pad2)*
X16600000Y23200000D03*
G04 #@! TO.P,J8,3,Pin_3*
G04 #@! TO.N,Net-(J3-Pad3)*
X14100000Y23200000D03*
G04 #@! TO.P,J8,4,Pin_4*
G04 #@! TO.N,Net-(J3-Pad4)*
X11600000Y23200000D03*
G04 #@! TD*
D10*
G04 #@! TO.P,J6,1,Pin_1*
G04 #@! TO.N,Net-(J2-Pad2)*
X3800000Y23700000D03*
D11*
G04 #@! TO.P,J6,2,Pin_2*
G04 #@! TO.N,Net-(J2-Pad1)*
X5800000Y23700000D03*
G04 #@! TD*
D16*
G04 #@! TO.P,H2,1,1*
G04 #@! TO.N,GND*
X22000000Y15100000D03*
G04 #@! TD*
D10*
G04 #@! TO.P,J7,1,Pin_1*
G04 #@! TO.N,Net-(J2-Pad4)*
X-3400000Y23700000D03*
D11*
G04 #@! TO.P,J7,2,Pin_2*
G04 #@! TO.N,Net-(J2-Pad3)*
X-1400000Y23700000D03*
G04 #@! TD*
D17*
G04 #@! TO.P,J5,1,Pin_1*
G04 #@! TO.N,Net-(J1-Pad1)*
X-8700000Y20900000D03*
D18*
G04 #@! TO.P,J5,2,Pin_2*
G04 #@! TO.N,Net-(J1-Pad2)*
X-12200000Y20900000D03*
G04 #@! TD*
D10*
G04 #@! TO.P,J4,1,Pin_1*
G04 #@! TO.N,Net-(J1-Pad4)*
X-19400000Y23600000D03*
D11*
G04 #@! TO.P,J4,2,Pin_2*
G04 #@! TO.N,Net-(J1-Pad3)*
X-17400000Y23600000D03*
G04 #@! TD*
D16*
G04 #@! TO.P,H1,1,1*
G04 #@! TO.N,GND*
X-22000000Y15100000D03*
G04 #@! TD*
D12*
G04 #@! TO.P,J2,1,Pin_1*
G04 #@! TO.N,Net-(J2-Pad1)*
X4200000Y12100000D03*
D13*
G04 #@! TO.P,J2,2,Pin_2*
G04 #@! TO.N,Net-(J2-Pad2)*
X1700000Y12100000D03*
G04 #@! TO.P,J2,3,Pin_3*
G04 #@! TO.N,Net-(J2-Pad3)*
X-800000Y12100000D03*
G04 #@! TO.P,J2,4,Pin_4*
G04 #@! TO.N,Net-(J2-Pad4)*
X-3300000Y12100000D03*
G04 #@! TD*
D19*
G04 #@! TO.N,GND*
X-200000Y19900000D03*
X3400000Y9950000D03*
X21250000Y24775000D03*
X-7100000Y15400000D03*
X-14300000Y6150000D03*
X12850000Y8700000D03*
X14300000Y6150000D03*
X-14550000Y24775000D03*
X6250000Y13500000D03*
X-15300000Y18800000D03*
X-16500000Y14700000D03*
X-2400000Y10050000D03*
X-13650000Y17050000D03*
X8425000Y24775000D03*
X450000Y13700000D03*
X9500000Y16500000D03*
X2450000Y15950000D03*
X-12700000Y10900000D03*
X100000Y6150000D03*
X-20950000Y24775000D03*
X-6200000Y24775000D03*
X-5400000Y13600000D03*
G04 #@! TD*
G04 #@! TA.AperFunction,Conductor*
G04 #@! TO.N,GND*
G36*
X21269323Y25589929D02*
G01*
X21291869Y25586335D01*
X21300769Y25587466D01*
X21300772Y25587466D01*
X21303847Y25587857D01*
X21331740Y25588288D01*
X21446549Y25577296D01*
X21469251Y25572994D01*
X21601407Y25535114D01*
X21622933Y25526739D01*
X21745936Y25465362D01*
X21765579Y25453192D01*
X21875303Y25370379D01*
X21892388Y25354829D01*
X21985139Y25253369D01*
X21999098Y25234959D01*
X22035428Y25176609D01*
X22071755Y25118264D01*
X22082120Y25097606D01*
X22091834Y25072797D01*
X22113858Y25016550D01*
X22121709Y24996498D01*
X22125715Y24980810D01*
X22126242Y24980955D01*
X22128629Y24972299D01*
X22129765Y24963399D01*
X22133352Y24955176D01*
X22133353Y24955174D01*
X22145093Y24928264D01*
X22149919Y24915303D01*
X24804306Y16381570D01*
X24807597Y16368595D01*
X24813511Y16338692D01*
X24813514Y16338683D01*
X24815255Y16329881D01*
X24823514Y16314009D01*
X24824094Y16312894D01*
X24832731Y16291840D01*
X24927698Y15983546D01*
X24930842Y15971122D01*
X24999665Y15626250D01*
X25001531Y15613561D01*
X25034935Y15263496D01*
X25035502Y15250682D01*
X25033143Y14899027D01*
X25032404Y14886222D01*
X24994309Y14536642D01*
X24992273Y14523978D01*
X24918829Y14180061D01*
X24915515Y14167671D01*
X24807493Y13833014D01*
X24802941Y13821032D01*
X24664235Y13505416D01*
X24661454Y13499088D01*
X24655703Y13487624D01*
X24594988Y13380568D01*
X24518746Y13246135D01*
X24482214Y13181721D01*
X24475337Y13170917D01*
X24271955Y12884671D01*
X24271654Y12884247D01*
X24263703Y12874183D01*
X24031921Y12609695D01*
X24022987Y12600492D01*
X24006542Y12585191D01*
X23765529Y12360948D01*
X23755722Y12352714D01*
X23724574Y12329156D01*
X23475236Y12140580D01*
X23464626Y12133374D01*
X23195159Y11969757D01*
X23171819Y11958684D01*
X23161609Y11955069D01*
X23154331Y11949820D01*
X23154327Y11949818D01*
X23133601Y11934870D01*
X23132758Y11934306D01*
X23131590Y11933702D01*
X23128762Y11931632D01*
X23128758Y11931629D01*
X23106124Y11915060D01*
X23105399Y11914533D01*
X23051255Y11875485D01*
X23043469Y11869870D01*
X23042475Y11868593D01*
X23041284Y11867591D01*
X18754526Y8729342D01*
X14630811Y5710453D01*
X14629435Y5709446D01*
X14612915Y5699210D01*
X14599568Y5692303D01*
X14599566Y5692301D01*
X14591592Y5688175D01*
X14582020Y5679040D01*
X14560635Y5662619D01*
X14469761Y5607198D01*
X14450767Y5597710D01*
X14330261Y5549727D01*
X14309941Y5543562D01*
X14183099Y5516499D01*
X14162040Y5513833D01*
X14062729Y5509710D01*
X14046071Y5511012D01*
X14046054Y5510695D01*
X14037090Y5511190D01*
X14028287Y5512950D01*
X14019347Y5512169D01*
X14019343Y5512169D01*
X13982829Y5508978D01*
X13971861Y5508500D01*
X11828490Y5508500D01*
X11760369Y5528502D01*
X11713876Y5582158D01*
X11703772Y5652432D01*
X11733266Y5717012D01*
X11762187Y5741644D01*
X11762375Y5741760D01*
X11899348Y5826522D01*
X12024305Y5951697D01*
X12056462Y6003865D01*
X12113275Y6096032D01*
X12113276Y6096034D01*
X12117115Y6102262D01*
X12167031Y6252755D01*
X12170632Y6263611D01*
X12170632Y6263613D01*
X12172797Y6270139D01*
X12173664Y6278595D01*
X12178110Y6321991D01*
X12183500Y6374600D01*
X12183500Y7925400D01*
X12180680Y7952583D01*
X12173238Y8024308D01*
X12173237Y8024312D01*
X12172526Y8031166D01*
X12168710Y8042606D01*
X12118868Y8191998D01*
X12116550Y8198946D01*
X12023478Y8349348D01*
X11898303Y8474305D01*
X11872700Y8490087D01*
X11753968Y8563275D01*
X11753966Y8563276D01*
X11747738Y8567115D01*
X11638351Y8603397D01*
X11586389Y8620632D01*
X11586387Y8620632D01*
X11579861Y8622797D01*
X11573025Y8623497D01*
X11573022Y8623498D01*
X11529969Y8627909D01*
X11475400Y8633500D01*
X10174600Y8633500D01*
X10171354Y8633163D01*
X10171350Y8633163D01*
X10075692Y8623238D01*
X10075688Y8623237D01*
X10068834Y8622526D01*
X10062298Y8620345D01*
X10062296Y8620345D01*
X9947369Y8582002D01*
X9901054Y8566550D01*
X9750652Y8473478D01*
X9625695Y8348303D01*
X9552170Y8229023D01*
X9535920Y8202661D01*
X9483148Y8155168D01*
X9413076Y8143744D01*
X9347952Y8172018D01*
X9337490Y8181805D01*
X9232103Y8292278D01*
X9228424Y8296135D01*
X9043458Y8433754D01*
X9038707Y8436170D01*
X9038703Y8436172D01*
X8916731Y8498185D01*
X8837949Y8538240D01*
X8832855Y8539822D01*
X8832852Y8539823D01*
X8622871Y8605024D01*
X8617773Y8606607D01*
X8586861Y8610704D01*
X8394511Y8636198D01*
X8394506Y8636198D01*
X8389226Y8636898D01*
X8383897Y8636698D01*
X8383895Y8636698D01*
X8274034Y8632574D01*
X8158842Y8628249D01*
X8153623Y8627154D01*
X8131566Y8622526D01*
X7933209Y8580907D01*
X7928250Y8578949D01*
X7928248Y8578948D01*
X7723744Y8498185D01*
X7723742Y8498184D01*
X7718779Y8496224D01*
X7714220Y8493457D01*
X7714217Y8493456D01*
X7619648Y8436070D01*
X7521683Y8376623D01*
X7517653Y8373126D01*
X7424484Y8292278D01*
X7347555Y8225523D01*
X7328809Y8202661D01*
X7204760Y8051373D01*
X7204756Y8051367D01*
X7201376Y8047245D01*
X7183448Y8015750D01*
X7132368Y7966445D01*
X7062738Y7952583D01*
X6996667Y7978566D01*
X6969427Y8007716D01*
X6890539Y8124892D01*
X6887559Y8129319D01*
X6728424Y8296135D01*
X6543458Y8433754D01*
X6538707Y8436170D01*
X6538703Y8436172D01*
X6416731Y8498185D01*
X6337949Y8538240D01*
X6332855Y8539822D01*
X6332852Y8539823D01*
X6122871Y8605024D01*
X6117773Y8606607D01*
X6086861Y8610704D01*
X5894511Y8636198D01*
X5894506Y8636198D01*
X5889226Y8636898D01*
X5883897Y8636698D01*
X5883895Y8636698D01*
X5774034Y8632574D01*
X5658842Y8628249D01*
X5653623Y8627154D01*
X5631566Y8622526D01*
X5433209Y8580907D01*
X5428250Y8578949D01*
X5428248Y8578948D01*
X5223744Y8498185D01*
X5223742Y8498184D01*
X5218779Y8496224D01*
X5214220Y8493457D01*
X5214217Y8493456D01*
X5119648Y8436070D01*
X5021683Y8376623D01*
X5017653Y8373126D01*
X4924484Y8292278D01*
X4847555Y8225523D01*
X4828809Y8202661D01*
X4704760Y8051373D01*
X4704756Y8051367D01*
X4701376Y8047245D01*
X4683448Y8015750D01*
X4632368Y7966445D01*
X4562738Y7952583D01*
X4496667Y7978566D01*
X4469427Y8007716D01*
X4390539Y8124892D01*
X4387559Y8129319D01*
X4228424Y8296135D01*
X4043458Y8433754D01*
X4038707Y8436170D01*
X4038703Y8436172D01*
X3916731Y8498185D01*
X3837949Y8538240D01*
X3832855Y8539822D01*
X3832852Y8539823D01*
X3622871Y8605024D01*
X3617773Y8606607D01*
X3586861Y8610704D01*
X3394511Y8636198D01*
X3394506Y8636198D01*
X3389226Y8636898D01*
X3383897Y8636698D01*
X3383895Y8636698D01*
X3274034Y8632574D01*
X3158842Y8628249D01*
X3153623Y8627154D01*
X3131566Y8622526D01*
X2933209Y8580907D01*
X2928250Y8578949D01*
X2928248Y8578948D01*
X2723744Y8498185D01*
X2723742Y8498184D01*
X2718779Y8496224D01*
X2714220Y8493457D01*
X2714217Y8493456D01*
X2619648Y8436070D01*
X2521683Y8376623D01*
X2517653Y8373126D01*
X2424484Y8292278D01*
X2347555Y8225523D01*
X2328809Y8202661D01*
X2204760Y8051373D01*
X2204756Y8051367D01*
X2201376Y8047245D01*
X2198738Y8042610D01*
X2198735Y8042606D01*
X2161963Y7978006D01*
X2087325Y7846886D01*
X2008663Y7630175D01*
X2007714Y7624926D01*
X2007713Y7624923D01*
X1968377Y7407392D01*
X1968376Y7407385D01*
X1967639Y7403308D01*
X1966500Y7379156D01*
X1966500Y6967110D01*
X1981080Y6795280D01*
X1982418Y6790125D01*
X1982419Y6790119D01*
X2037657Y6577297D01*
X2038999Y6572128D01*
X2133688Y6361925D01*
X2262441Y6170681D01*
X2266120Y6166824D01*
X2266122Y6166822D01*
X2325348Y6104738D01*
X2421576Y6003865D01*
X2606542Y5866246D01*
X2611293Y5863830D01*
X2611297Y5863828D01*
X2684673Y5826522D01*
X2812051Y5761760D01*
X2834364Y5754831D01*
X2893487Y5715530D01*
X2921978Y5650501D01*
X2910788Y5580391D01*
X2863471Y5527461D01*
X2796998Y5508500D01*
X-1865085Y5508500D01*
X-1933206Y5528502D01*
X-1979699Y5582158D01*
X-1989803Y5652432D01*
X-1960309Y5717012D01*
X-1944037Y5732697D01*
X-1859915Y5800332D01*
X-1854603Y5804603D01*
X-1840733Y5821854D01*
X-1746603Y5938929D01*
X-1746602Y5938930D01*
X-1742329Y5944245D01*
X-1666981Y6096032D01*
X-1665692Y6098628D01*
X-1662659Y6104738D01*
X-1619312Y6278595D01*
X-1616500Y6319843D01*
X-1616501Y7980156D01*
X-1619312Y8021405D01*
X-1662659Y8195262D01*
X-1742329Y8355755D01*
X-1756295Y8373126D01*
X-1850332Y8490085D01*
X-1850334Y8490087D01*
X-1854603Y8495397D01*
X-1913479Y8542734D01*
X-1988929Y8603397D01*
X-1988930Y8603398D01*
X-1994245Y8607671D01*
X-2154738Y8687341D01*
X-2328595Y8730688D01*
X-2349001Y8732079D01*
X-2367696Y8733354D01*
X-2367707Y8733354D01*
X-2369843Y8733500D01*
X-3199613Y8733500D01*
X-4030156Y8733499D01*
X-4061191Y8731384D01*
X-4065859Y8731066D01*
X-4065860Y8731066D01*
X-4071405Y8730688D01*
X-4245262Y8687341D01*
X-4405755Y8607671D01*
X-4411070Y8603398D01*
X-4411071Y8603397D01*
X-4486521Y8542734D01*
X-4545397Y8495397D01*
X-4558213Y8479456D01*
X-4558387Y8479240D01*
X-4616660Y8438684D01*
X-4687608Y8436070D01*
X-4736561Y8460826D01*
X-4832372Y8539526D01*
X-4832375Y8539528D01*
X-4836278Y8542734D01*
X-4965663Y8618038D01*
X-5041710Y8662299D01*
X-5041712Y8662300D01*
X-5046078Y8664841D01*
X-5050801Y8666654D01*
X-5267978Y8750020D01*
X-5267982Y8750021D01*
X-5272702Y8751833D01*
X-5277652Y8752867D01*
X-5277655Y8752868D01*
X-5505369Y8800440D01*
X-5505373Y8800440D01*
X-5510320Y8801474D01*
X-5752817Y8812486D01*
X-5757837Y8811905D01*
X-5757841Y8811905D01*
X-5988929Y8785167D01*
X-5988933Y8785166D01*
X-5993956Y8784585D01*
X-5998820Y8783209D01*
X-5998823Y8783208D01*
X-6106042Y8752868D01*
X-6227532Y8718490D01*
X-6232108Y8716356D01*
X-6232114Y8716354D01*
X-6442954Y8618038D01*
X-6442958Y8618036D01*
X-6447536Y8615901D01*
X-6648307Y8479456D01*
X-6824681Y8312668D01*
X-6827759Y8308642D01*
X-6827760Y8308641D01*
X-6952116Y8145990D01*
X-7009381Y8104022D01*
X-7080244Y8099677D01*
X-7143382Y8135547D01*
X-7292897Y8292278D01*
X-7296576Y8296135D01*
X-7481542Y8433754D01*
X-7486293Y8436170D01*
X-7486297Y8436172D01*
X-7608269Y8498185D01*
X-7687051Y8538240D01*
X-7692145Y8539822D01*
X-7692148Y8539823D01*
X-7902129Y8605024D01*
X-7907227Y8606607D01*
X-7938139Y8610704D01*
X-8130489Y8636198D01*
X-8130494Y8636198D01*
X-8135774Y8636898D01*
X-8141103Y8636698D01*
X-8141105Y8636698D01*
X-8250966Y8632574D01*
X-8366158Y8628249D01*
X-8371377Y8627154D01*
X-8393434Y8622526D01*
X-8591791Y8580907D01*
X-8596750Y8578949D01*
X-8596752Y8578948D01*
X-8801256Y8498185D01*
X-8801258Y8498184D01*
X-8806221Y8496224D01*
X-8810780Y8493457D01*
X-8810783Y8493456D01*
X-8905352Y8436070D01*
X-9003317Y8376623D01*
X-9007347Y8373126D01*
X-9100516Y8292278D01*
X-9177445Y8225523D01*
X-9196191Y8202661D01*
X-9320240Y8051373D01*
X-9320244Y8051367D01*
X-9323624Y8047245D01*
X-9341552Y8015750D01*
X-9392632Y7966445D01*
X-9462262Y7952583D01*
X-9528333Y7978566D01*
X-9555573Y8007716D01*
X-9634461Y8124892D01*
X-9637441Y8129319D01*
X-9796576Y8296135D01*
X-9981542Y8433754D01*
X-9986293Y8436170D01*
X-9986297Y8436172D01*
X-10108269Y8498185D01*
X-10187051Y8538240D01*
X-10192145Y8539822D01*
X-10192148Y8539823D01*
X-10402129Y8605024D01*
X-10407227Y8606607D01*
X-10438139Y8610704D01*
X-10630489Y8636198D01*
X-10630494Y8636198D01*
X-10635774Y8636898D01*
X-10641103Y8636698D01*
X-10641105Y8636698D01*
X-10750966Y8632574D01*
X-10866158Y8628249D01*
X-10871377Y8627154D01*
X-10893434Y8622526D01*
X-11091791Y8580907D01*
X-11096750Y8578949D01*
X-11096752Y8578948D01*
X-11301256Y8498185D01*
X-11301258Y8498184D01*
X-11306221Y8496224D01*
X-11310780Y8493457D01*
X-11310783Y8493456D01*
X-11405352Y8436070D01*
X-11503317Y8376623D01*
X-11507347Y8373126D01*
X-11600516Y8292278D01*
X-11677445Y8225523D01*
X-11696191Y8202661D01*
X-11820240Y8051373D01*
X-11820244Y8051367D01*
X-11823624Y8047245D01*
X-11826262Y8042610D01*
X-11826265Y8042606D01*
X-11863037Y7978006D01*
X-11937675Y7846886D01*
X-12016337Y7630175D01*
X-12017286Y7624926D01*
X-12017287Y7624923D01*
X-12056623Y7407392D01*
X-12056624Y7407385D01*
X-12057361Y7403308D01*
X-12058500Y7379156D01*
X-12058500Y6967110D01*
X-12043920Y6795280D01*
X-12042582Y6790125D01*
X-12042581Y6790119D01*
X-11987343Y6577297D01*
X-11986001Y6572128D01*
X-11891312Y6361925D01*
X-11762559Y6170681D01*
X-11758880Y6166824D01*
X-11758878Y6166822D01*
X-11699652Y6104738D01*
X-11603424Y6003865D01*
X-11418458Y5866246D01*
X-11413707Y5863830D01*
X-11413703Y5863828D01*
X-11340327Y5826522D01*
X-11212949Y5761760D01*
X-11190636Y5754831D01*
X-11131513Y5715530D01*
X-11103022Y5650501D01*
X-11114212Y5580391D01*
X-11161529Y5527461D01*
X-11228002Y5508500D01*
X-13954809Y5508500D01*
X-13972554Y5509756D01*
X-13983060Y5511250D01*
X-13991596Y5512465D01*
X-13991597Y5512465D01*
X-14000482Y5513729D01*
X-14009368Y5512448D01*
X-14009371Y5512448D01*
X-14014785Y5511668D01*
X-14040787Y5510635D01*
X-14128716Y5516249D01*
X-14154518Y5517896D01*
X-14173688Y5520611D01*
X-14308857Y5550497D01*
X-14327379Y5556116D01*
X-14456355Y5606355D01*
X-14473806Y5614749D01*
X-14566226Y5668316D01*
X-14579916Y5678529D01*
X-14579982Y5678436D01*
X-14587316Y5683610D01*
X-14593844Y5689773D01*
X-14613693Y5699910D01*
X-14630811Y5710453D01*
X-23091089Y11904052D01*
X-23093994Y11906244D01*
X-23107971Y11917110D01*
X-4658500Y11917110D01*
X-4654298Y11867591D01*
X-4645987Y11769643D01*
X-4643920Y11745280D01*
X-4642582Y11740125D01*
X-4642581Y11740119D01*
X-4587343Y11527297D01*
X-4586001Y11522128D01*
X-4583809Y11517262D01*
X-4583808Y11517259D01*
X-4548967Y11439915D01*
X-4491312Y11311925D01*
X-4362559Y11120681D01*
X-4358880Y11116824D01*
X-4358878Y11116822D01*
X-4301768Y11056956D01*
X-4203424Y10953865D01*
X-4018458Y10816246D01*
X-4013707Y10813830D01*
X-4013703Y10813828D01*
X-3950519Y10781704D01*
X-3812949Y10711760D01*
X-3807855Y10710178D01*
X-3807852Y10710177D01*
X-3607980Y10648115D01*
X-3592773Y10643393D01*
X-3587484Y10642692D01*
X-3369511Y10613802D01*
X-3369506Y10613802D01*
X-3364226Y10613102D01*
X-3358897Y10613302D01*
X-3358895Y10613302D01*
X-3249034Y10617426D01*
X-3133842Y10621751D01*
X-3111198Y10626502D01*
X-2913428Y10667998D01*
X-2908209Y10669093D01*
X-2903250Y10671051D01*
X-2903248Y10671052D01*
X-2698744Y10751815D01*
X-2698742Y10751816D01*
X-2693779Y10753776D01*
X-2657657Y10775695D01*
X-2501243Y10870610D01*
X-2501244Y10870610D01*
X-2496683Y10873377D01*
X-2456866Y10907928D01*
X-2326588Y11020977D01*
X-2326586Y11020979D01*
X-2322555Y11024477D01*
X-2258952Y11102046D01*
X-2179760Y11198627D01*
X-2179756Y11198633D01*
X-2176376Y11202755D01*
X-2158448Y11234250D01*
X-2107368Y11283555D01*
X-2037738Y11297417D01*
X-1971667Y11271434D01*
X-1944427Y11242284D01*
X-1862559Y11120681D01*
X-1858880Y11116824D01*
X-1858878Y11116822D01*
X-1801768Y11056956D01*
X-1703424Y10953865D01*
X-1518458Y10816246D01*
X-1513707Y10813830D01*
X-1513703Y10813828D01*
X-1450519Y10781704D01*
X-1312949Y10711760D01*
X-1307855Y10710178D01*
X-1307852Y10710177D01*
X-1107980Y10648115D01*
X-1092773Y10643393D01*
X-1087484Y10642692D01*
X-869511Y10613802D01*
X-869506Y10613802D01*
X-864226Y10613102D01*
X-858897Y10613302D01*
X-858895Y10613302D01*
X-749034Y10617426D01*
X-633842Y10621751D01*
X-611198Y10626502D01*
X-413428Y10667998D01*
X-408209Y10669093D01*
X-403250Y10671051D01*
X-403248Y10671052D01*
X-198744Y10751815D01*
X-198742Y10751816D01*
X-193779Y10753776D01*
X-157657Y10775695D01*
X-1243Y10870610D01*
X-1244Y10870610D01*
X3317Y10873377D01*
X43134Y10907928D01*
X173412Y11020977D01*
X173414Y11020979D01*
X177445Y11024477D01*
X241048Y11102046D01*
X320240Y11198627D01*
X320244Y11198633D01*
X323624Y11202755D01*
X341552Y11234250D01*
X392632Y11283555D01*
X462262Y11297417D01*
X528333Y11271434D01*
X555573Y11242284D01*
X637441Y11120681D01*
X641120Y11116824D01*
X641122Y11116822D01*
X698232Y11056956D01*
X796576Y10953865D01*
X981542Y10816246D01*
X986293Y10813830D01*
X986297Y10813828D01*
X1049481Y10781704D01*
X1187051Y10711760D01*
X1192145Y10710178D01*
X1192148Y10710177D01*
X1392020Y10648115D01*
X1407227Y10643393D01*
X1412516Y10642692D01*
X1630489Y10613802D01*
X1630494Y10613802D01*
X1635774Y10613102D01*
X1641103Y10613302D01*
X1641105Y10613302D01*
X1750966Y10617426D01*
X1866158Y10621751D01*
X1888802Y10626502D01*
X2086572Y10667998D01*
X2091791Y10669093D01*
X2096750Y10671051D01*
X2096752Y10671052D01*
X2301256Y10751815D01*
X2301258Y10751816D01*
X2306221Y10753776D01*
X2342343Y10775695D01*
X2498757Y10870610D01*
X2498756Y10870610D01*
X2503317Y10873377D01*
X2543134Y10907928D01*
X2673412Y11020977D01*
X2673414Y11020979D01*
X2677445Y11024477D01*
X2706670Y11060120D01*
X2765329Y11100114D01*
X2836299Y11102046D01*
X2897048Y11065302D01*
X2911248Y11046532D01*
X2922340Y11028608D01*
X3001522Y10900652D01*
X3126697Y10775695D01*
X3132927Y10771855D01*
X3132928Y10771854D01*
X3270090Y10687306D01*
X3277262Y10682885D01*
X3312938Y10671052D01*
X3438611Y10629368D01*
X3438613Y10629368D01*
X3445139Y10627203D01*
X3451975Y10626503D01*
X3451978Y10626502D01*
X3487663Y10622846D01*
X3549600Y10616500D01*
X4850400Y10616500D01*
X4853646Y10616837D01*
X4853650Y10616837D01*
X4949308Y10626762D01*
X4949312Y10626763D01*
X4956166Y10627474D01*
X4962702Y10629655D01*
X4962704Y10629655D01*
X5094806Y10673728D01*
X5123946Y10683450D01*
X5274348Y10776522D01*
X5399305Y10901697D01*
X5431462Y10953865D01*
X5488275Y11046032D01*
X5488276Y11046034D01*
X5492115Y11052262D01*
X5542031Y11202755D01*
X5545632Y11213611D01*
X5545632Y11213613D01*
X5547797Y11220139D01*
X5552379Y11264854D01*
X5553053Y11271434D01*
X5558500Y11324600D01*
X5558500Y12875400D01*
X5557185Y12888075D01*
X5548238Y12974308D01*
X5548237Y12974312D01*
X5547526Y12981166D01*
X5543710Y12992606D01*
X5493868Y13141998D01*
X5491550Y13148946D01*
X5398478Y13299348D01*
X5273303Y13424305D01*
X5267072Y13428146D01*
X5128968Y13513275D01*
X5128966Y13513276D01*
X5122738Y13517115D01*
X5042995Y13543564D01*
X4961389Y13570632D01*
X4961387Y13570632D01*
X4954861Y13572797D01*
X4948025Y13573497D01*
X4948022Y13573498D01*
X4904969Y13577909D01*
X4850400Y13583500D01*
X3549600Y13583500D01*
X3546354Y13583163D01*
X3546350Y13583163D01*
X3450692Y13573238D01*
X3450688Y13573237D01*
X3443834Y13572526D01*
X3437298Y13570345D01*
X3437296Y13570345D01*
X3398220Y13557308D01*
X3276054Y13516550D01*
X3125652Y13423478D01*
X3000695Y13298303D01*
X2922163Y13170900D01*
X2910920Y13152661D01*
X2858148Y13105168D01*
X2788076Y13093744D01*
X2722952Y13122018D01*
X2712490Y13131805D01*
X2607103Y13242278D01*
X2603424Y13246135D01*
X2418458Y13383754D01*
X2413707Y13386170D01*
X2413703Y13386172D01*
X2248189Y13470323D01*
X2212949Y13488240D01*
X2207855Y13489822D01*
X2207852Y13489823D01*
X1997871Y13555024D01*
X1992773Y13556607D01*
X1987484Y13557308D01*
X1769511Y13586198D01*
X1769506Y13586198D01*
X1764226Y13586898D01*
X1758897Y13586698D01*
X1758895Y13586698D01*
X1649034Y13582573D01*
X1533842Y13578249D01*
X1528623Y13577154D01*
X1506566Y13572526D01*
X1308209Y13530907D01*
X1303250Y13528949D01*
X1303248Y13528948D01*
X1098744Y13448185D01*
X1098742Y13448184D01*
X1093779Y13446224D01*
X1089220Y13443457D01*
X1089217Y13443456D01*
X990832Y13383754D01*
X896683Y13326623D01*
X892653Y13323126D01*
X729698Y13181721D01*
X722555Y13175523D01*
X703809Y13152661D01*
X579760Y13001373D01*
X579756Y13001367D01*
X576376Y12997245D01*
X558448Y12965750D01*
X507368Y12916445D01*
X437738Y12902583D01*
X371667Y12928566D01*
X344427Y12957716D01*
X265539Y13074892D01*
X262559Y13079319D01*
X103424Y13246135D01*
X-81542Y13383754D01*
X-86293Y13386170D01*
X-86297Y13386172D01*
X-251811Y13470323D01*
X-287051Y13488240D01*
X-292145Y13489822D01*
X-292148Y13489823D01*
X-502129Y13555024D01*
X-507227Y13556607D01*
X-512516Y13557308D01*
X-730489Y13586198D01*
X-730494Y13586198D01*
X-735774Y13586898D01*
X-741103Y13586698D01*
X-741105Y13586698D01*
X-850966Y13582573D01*
X-966158Y13578249D01*
X-971377Y13577154D01*
X-993434Y13572526D01*
X-1191791Y13530907D01*
X-1196750Y13528949D01*
X-1196752Y13528948D01*
X-1401256Y13448185D01*
X-1401258Y13448184D01*
X-1406221Y13446224D01*
X-1410780Y13443457D01*
X-1410783Y13443456D01*
X-1509168Y13383754D01*
X-1603317Y13326623D01*
X-1607347Y13323126D01*
X-1770302Y13181721D01*
X-1777445Y13175523D01*
X-1796191Y13152661D01*
X-1920240Y13001373D01*
X-1920244Y13001367D01*
X-1923624Y12997245D01*
X-1941552Y12965750D01*
X-1992632Y12916445D01*
X-2062262Y12902583D01*
X-2128333Y12928566D01*
X-2155573Y12957716D01*
X-2234461Y13074892D01*
X-2237441Y13079319D01*
X-2396576Y13246135D01*
X-2581542Y13383754D01*
X-2586293Y13386170D01*
X-2586297Y13386172D01*
X-2751811Y13470323D01*
X-2787051Y13488240D01*
X-2792145Y13489822D01*
X-2792148Y13489823D01*
X-3002129Y13555024D01*
X-3007227Y13556607D01*
X-3012516Y13557308D01*
X-3230489Y13586198D01*
X-3230494Y13586198D01*
X-3235774Y13586898D01*
X-3241103Y13586698D01*
X-3241105Y13586698D01*
X-3350966Y13582573D01*
X-3466158Y13578249D01*
X-3471377Y13577154D01*
X-3493434Y13572526D01*
X-3691791Y13530907D01*
X-3696750Y13528949D01*
X-3696752Y13528948D01*
X-3901256Y13448185D01*
X-3901258Y13448184D01*
X-3906221Y13446224D01*
X-3910780Y13443457D01*
X-3910783Y13443456D01*
X-4009168Y13383754D01*
X-4103317Y13326623D01*
X-4107347Y13323126D01*
X-4270302Y13181721D01*
X-4277445Y13175523D01*
X-4296191Y13152661D01*
X-4420240Y13001373D01*
X-4420244Y13001367D01*
X-4423624Y12997245D01*
X-4426262Y12992610D01*
X-4426265Y12992606D01*
X-4485767Y12888075D01*
X-4537675Y12796886D01*
X-4616337Y12580175D01*
X-4617286Y12574926D01*
X-4617287Y12574923D01*
X-4656623Y12357392D01*
X-4656624Y12357385D01*
X-4657361Y12353308D01*
X-4658500Y12329156D01*
X-4658500Y11917110D01*
X-23107971Y11917110D01*
X-23138286Y11940677D01*
X-23145376Y11946189D01*
X-23163342Y11953289D01*
X-23183575Y11963475D01*
X-23457247Y12133701D01*
X-23467611Y12140891D01*
X-23746060Y12355497D01*
X-23755656Y12363691D01*
X-24011233Y12605061D01*
X-24019961Y12614173D01*
X-24182239Y12801529D01*
X-24250118Y12879898D01*
X-24257888Y12889833D01*
X-24266867Y12902583D01*
X-24460314Y13177247D01*
X-24467054Y13187914D01*
X-24497708Y13242278D01*
X-24639720Y13494135D01*
X-24645356Y13505416D01*
X-24650485Y13517115D01*
X-24786528Y13827371D01*
X-24791009Y13839162D01*
X-24795612Y13853384D01*
X-24899271Y14173619D01*
X-24902551Y14185802D01*
X-24976817Y14529405D01*
X-24978862Y14541856D01*
X-25018391Y14891170D01*
X-25019180Y14903764D01*
X-25023572Y15255272D01*
X-25023098Y15267881D01*
X-24992311Y15618074D01*
X-24990578Y15630572D01*
X-24924919Y15975930D01*
X-24921944Y15988193D01*
X-24832454Y16290215D01*
X-24822664Y16314009D01*
X-24821728Y16315752D01*
X-24821726Y16315757D01*
X-24817482Y16323664D01*
X-24808473Y16366325D01*
X-24805506Y16377714D01*
X-24467434Y17464600D01*
X2691500Y17464600D01*
X2702474Y17358834D01*
X2704655Y17352298D01*
X2704655Y17352296D01*
X2735135Y17260936D01*
X2758450Y17191054D01*
X2851522Y17040652D01*
X2976697Y16915695D01*
X2982927Y16911855D01*
X2982928Y16911854D01*
X3120090Y16827306D01*
X3127262Y16822885D01*
X3152217Y16814608D01*
X3288611Y16769368D01*
X3288613Y16769368D01*
X3295139Y16767203D01*
X3301975Y16766503D01*
X3301978Y16766502D01*
X3340386Y16762567D01*
X3399600Y16756500D01*
X4200400Y16756500D01*
X4203646Y16756837D01*
X4203650Y16756837D01*
X4299308Y16766762D01*
X4299312Y16766763D01*
X4306166Y16767474D01*
X4312702Y16769655D01*
X4312704Y16769655D01*
X4447443Y16814608D01*
X4473946Y16823450D01*
X4624348Y16916522D01*
X4749305Y17041697D01*
X4781075Y17093236D01*
X4833846Y17140729D01*
X4903918Y17152153D01*
X4969042Y17123879D01*
X4987418Y17104955D01*
X4993604Y17097080D01*
X4998135Y17093148D01*
X4998138Y17093145D01*
X5084058Y17018588D01*
X5153363Y16958448D01*
X5158549Y16955448D01*
X5158553Y16955445D01*
X5254957Y16899674D01*
X5336454Y16852527D01*
X5536271Y16783139D01*
X5542206Y16782278D01*
X5542208Y16782278D01*
X5739664Y16753648D01*
X5739667Y16753648D01*
X5745604Y16752787D01*
X5956899Y16762567D01*
X6088077Y16794181D01*
X6156701Y16810719D01*
X6156703Y16810720D01*
X6162534Y16812125D01*
X6167992Y16814607D01*
X6167996Y16814608D01*
X6283041Y16866916D01*
X6355087Y16899674D01*
X6527611Y17022054D01*
X6673881Y17174850D01*
X6788620Y17352548D01*
X6867686Y17548737D01*
X6908228Y17756337D01*
X6908500Y17761899D01*
X6908500Y18467846D01*
X6893452Y18625566D01*
X6833908Y18828534D01*
X6786872Y18919861D01*
X6739804Y19011249D01*
X6739802Y19011252D01*
X6737058Y19016580D01*
X6606396Y19182920D01*
X6601865Y19186852D01*
X6601862Y19186855D01*
X6451167Y19317621D01*
X6446637Y19321552D01*
X6441451Y19324552D01*
X6441447Y19324555D01*
X6268742Y19424467D01*
X6263546Y19427473D01*
X6063729Y19496861D01*
X6057794Y19497722D01*
X6057792Y19497722D01*
X5860336Y19526352D01*
X5860333Y19526352D01*
X5854396Y19527213D01*
X5643101Y19517433D01*
X5511923Y19485819D01*
X5443299Y19469281D01*
X5443297Y19469280D01*
X5437466Y19467875D01*
X5432008Y19465393D01*
X5432004Y19465392D01*
X5316959Y19413084D01*
X5244913Y19380326D01*
X5072389Y19257946D01*
X5068247Y19253619D01*
X5068241Y19253614D01*
X4981194Y19162683D01*
X4919639Y19127306D01*
X4848730Y19130825D01*
X4790979Y19172121D01*
X4783032Y19183509D01*
X4748478Y19239348D01*
X4738424Y19249385D01*
X4628483Y19359134D01*
X4623303Y19364305D01*
X4600367Y19378443D01*
X4478968Y19453275D01*
X4478966Y19453276D01*
X4472738Y19457115D01*
X4312254Y19510345D01*
X4311389Y19510632D01*
X4311387Y19510632D01*
X4304861Y19512797D01*
X4298025Y19513497D01*
X4298022Y19513498D01*
X4254969Y19517909D01*
X4200400Y19523500D01*
X3399600Y19523500D01*
X3396354Y19523163D01*
X3396350Y19523163D01*
X3300692Y19513238D01*
X3300688Y19513237D01*
X3293834Y19512526D01*
X3287298Y19510345D01*
X3287296Y19510345D01*
X3164213Y19469281D01*
X3126054Y19456550D01*
X2975652Y19363478D01*
X2850695Y19238303D01*
X2846855Y19232073D01*
X2846854Y19232072D01*
X2809900Y19172121D01*
X2757885Y19087738D01*
X2702203Y18919861D01*
X2691500Y18815400D01*
X2691500Y17464600D01*
X-24467434Y17464600D01*
X-23748487Y19775980D01*
X-23384914Y20944849D01*
X-13912704Y20944849D01*
X-13900520Y20691202D01*
X-13850979Y20442143D01*
X-13849400Y20437745D01*
X-13849398Y20437738D01*
X-13766752Y20207551D01*
X-13765169Y20203142D01*
X-13644975Y19979449D01*
X-13642180Y19975706D01*
X-13642178Y19975703D01*
X-13495829Y19779718D01*
X-13495824Y19779712D01*
X-13493037Y19775980D01*
X-13489728Y19772700D01*
X-13489723Y19772694D01*
X-13316010Y19600491D01*
X-13312693Y19597203D01*
X-13308931Y19594445D01*
X-13308928Y19594442D01*
X-13127894Y19461703D01*
X-13107906Y19447047D01*
X-13103771Y19444871D01*
X-13103767Y19444869D01*
X-13064989Y19424467D01*
X-12883173Y19328809D01*
X-12643432Y19245088D01*
X-12393950Y19197722D01*
X-12273468Y19192989D01*
X-12144875Y19187936D01*
X-12144870Y19187936D01*
X-12140207Y19187753D01*
X-12041226Y19198593D01*
X-11892431Y19214888D01*
X-11892425Y19214889D01*
X-11887778Y19215398D01*
X-11781104Y19243483D01*
X-11646727Y19278862D01*
X-11642207Y19280052D01*
X-11493551Y19343919D01*
X-11413193Y19378443D01*
X-11413190Y19378445D01*
X-11408890Y19380292D01*
X-11404910Y19382755D01*
X-11404906Y19382757D01*
X-11196936Y19511453D01*
X-11196934Y19511455D01*
X-11192953Y19513918D01*
X-11178265Y19526352D01*
X-11002711Y19674969D01*
X-11002709Y19674971D01*
X-10999138Y19677994D01*
X-10831705Y19868916D01*
X-10694331Y20082488D01*
X-10649382Y20182271D01*
X-10603166Y20236165D01*
X-10535150Y20256518D01*
X-10466927Y20236868D01*
X-10420158Y20183453D01*
X-10408500Y20130520D01*
X-10408500Y19651866D01*
X-10401745Y19589684D01*
X-10350615Y19453295D01*
X-10263261Y19336739D01*
X-10146705Y19249385D01*
X-10010316Y19198255D01*
X-9948134Y19191500D01*
X-7451866Y19191500D01*
X-7389684Y19198255D01*
X-7253295Y19249385D01*
X-7136739Y19336739D01*
X-7049385Y19453295D01*
X-6998255Y19589684D01*
X-6991500Y19651866D01*
X-6991500Y22148134D01*
X-6998255Y22210316D01*
X-7049385Y22346705D01*
X-7136739Y22463261D01*
X-7253295Y22550615D01*
X-7389684Y22601745D01*
X-7445560Y22607815D01*
X-7448469Y22608131D01*
X-7451866Y22608500D01*
X-9948134Y22608500D01*
X-9951531Y22608131D01*
X-9954440Y22607815D01*
X-10010316Y22601745D01*
X-10146705Y22550615D01*
X-10263261Y22463261D01*
X-10350615Y22346705D01*
X-10401745Y22210316D01*
X-10408500Y22148134D01*
X-10408500Y21678948D01*
X-10428502Y21610827D01*
X-10482158Y21564334D01*
X-10552432Y21554230D01*
X-10617012Y21583724D01*
X-10649171Y21629361D01*
X-10649901Y21629013D01*
X-10651916Y21633238D01*
X-10653609Y21637591D01*
X-10674134Y21673502D01*
X-10777298Y21854003D01*
X-10777300Y21854005D01*
X-10779617Y21858060D01*
X-10936829Y22057483D01*
X-11036805Y22151531D01*
X-11118390Y22228278D01*
X-11118392Y22228280D01*
X-11121791Y22231477D01*
X-11192574Y22280581D01*
X-11326607Y22373563D01*
X-11326610Y22373565D01*
X-11330439Y22376221D01*
X-11334616Y22378281D01*
X-11334623Y22378285D01*
X-11554004Y22486472D01*
X-11554008Y22486473D01*
X-11558190Y22488536D01*
X-11800040Y22565953D01*
X-11804645Y22566703D01*
X-12046065Y22606020D01*
X-12046066Y22606020D01*
X-12050677Y22606771D01*
X-12177635Y22608433D01*
X-12299917Y22610034D01*
X-12299920Y22610034D01*
X-12304594Y22610095D01*
X-12556213Y22575851D01*
X-12560699Y22574543D01*
X-12560701Y22574543D01*
X-12595054Y22564530D01*
X-12800007Y22504792D01*
X-12804260Y22502832D01*
X-12804261Y22502831D01*
X-12832182Y22489959D01*
X-13030620Y22398478D01*
X-13057077Y22381132D01*
X-13239072Y22261811D01*
X-13239077Y22261807D01*
X-13242985Y22259245D01*
X-13290499Y22216837D01*
X-13397901Y22120977D01*
X-13432438Y22090152D01*
X-13594817Y21894913D01*
X-13726553Y21677818D01*
X-13824754Y21443635D01*
X-13887262Y21197510D01*
X-13912704Y20944849D01*
X-23384914Y20944849D01*
X-22769120Y22924600D01*
X-20508500Y22924600D01*
X-20508163Y22921354D01*
X-20508163Y22921350D01*
X-20499734Y22840119D01*
X-20497526Y22818834D01*
X-20495345Y22812298D01*
X-20495345Y22812296D01*
X-20469507Y22734850D01*
X-20441550Y22651054D01*
X-20348478Y22500652D01*
X-20343296Y22495479D01*
X-20326376Y22478588D01*
X-20223303Y22375695D01*
X-20217073Y22371855D01*
X-20217072Y22371854D01*
X-20079910Y22287306D01*
X-20072738Y22282885D01*
X-20047783Y22274608D01*
X-19911389Y22229368D01*
X-19911387Y22229368D01*
X-19904861Y22227203D01*
X-19898025Y22226503D01*
X-19898022Y22226502D01*
X-19859614Y22222567D01*
X-19800400Y22216500D01*
X-18999600Y22216500D01*
X-18996354Y22216837D01*
X-18996350Y22216837D01*
X-18900692Y22226762D01*
X-18900688Y22226763D01*
X-18893834Y22227474D01*
X-18887298Y22229655D01*
X-18887296Y22229655D01*
X-18752557Y22274608D01*
X-18726054Y22283450D01*
X-18575652Y22376522D01*
X-18450695Y22501697D01*
X-18442220Y22515445D01*
X-18427137Y22539915D01*
X-18418925Y22553236D01*
X-18366154Y22600729D01*
X-18296082Y22612153D01*
X-18230958Y22583879D01*
X-18212582Y22564955D01*
X-18206396Y22557080D01*
X-18201865Y22553148D01*
X-18201862Y22553145D01*
X-18098279Y22463261D01*
X-18046637Y22418448D01*
X-18041451Y22415448D01*
X-18041447Y22415445D01*
X-17908091Y22338297D01*
X-17863546Y22312527D01*
X-17663729Y22243139D01*
X-17657794Y22242278D01*
X-17657792Y22242278D01*
X-17460336Y22213648D01*
X-17460333Y22213648D01*
X-17454396Y22212787D01*
X-17243101Y22222567D01*
X-17090910Y22259245D01*
X-17043299Y22270719D01*
X-17043297Y22270720D01*
X-17037466Y22272125D01*
X-17032008Y22274607D01*
X-17032004Y22274608D01*
X-16891929Y22338297D01*
X-16844913Y22359674D01*
X-16685621Y22472668D01*
X-16677275Y22478588D01*
X-16677274Y22478589D01*
X-16672389Y22482054D01*
X-16526119Y22634850D01*
X-16411380Y22812548D01*
X-16332314Y23008737D01*
X-16329216Y23024600D01*
X-4508500Y23024600D01*
X-4508163Y23021354D01*
X-4508163Y23021350D01*
X-4498463Y22927866D01*
X-4497526Y22918834D01*
X-4495345Y22912298D01*
X-4495345Y22912296D01*
X-4474758Y22850591D01*
X-4441550Y22751054D01*
X-4348478Y22600652D01*
X-4223303Y22475695D01*
X-4217073Y22471855D01*
X-4217072Y22471854D01*
X-4079910Y22387306D01*
X-4072738Y22382885D01*
X-4040297Y22372125D01*
X-3911389Y22329368D01*
X-3911387Y22329368D01*
X-3904861Y22327203D01*
X-3898025Y22326503D01*
X-3898022Y22326502D01*
X-3859614Y22322567D01*
X-3800400Y22316500D01*
X-2999600Y22316500D01*
X-2996354Y22316837D01*
X-2996350Y22316837D01*
X-2900692Y22326762D01*
X-2900688Y22326763D01*
X-2893834Y22327474D01*
X-2887298Y22329655D01*
X-2887296Y22329655D01*
X-2752557Y22374608D01*
X-2726054Y22383450D01*
X-2575652Y22476522D01*
X-2450695Y22601697D01*
X-2446501Y22608500D01*
X-2430259Y22634850D01*
X-2418925Y22653236D01*
X-2366154Y22700729D01*
X-2296082Y22712153D01*
X-2230958Y22683879D01*
X-2212582Y22664955D01*
X-2206396Y22657080D01*
X-2201865Y22653148D01*
X-2201862Y22653145D01*
X-2065198Y22534554D01*
X-2046637Y22518448D01*
X-2041451Y22515448D01*
X-2041447Y22515445D01*
X-1945043Y22459674D01*
X-1863546Y22412527D01*
X-1663729Y22343139D01*
X-1657794Y22342278D01*
X-1657792Y22342278D01*
X-1460336Y22313648D01*
X-1460333Y22313648D01*
X-1454396Y22312787D01*
X-1243101Y22322567D01*
X-1089130Y22359674D01*
X-1043299Y22370719D01*
X-1043297Y22370720D01*
X-1037466Y22372125D01*
X-1032008Y22374607D01*
X-1032004Y22374608D01*
X-914978Y22427817D01*
X-844913Y22459674D01*
X-694030Y22566703D01*
X-677275Y22578588D01*
X-677274Y22578589D01*
X-672389Y22582054D01*
X-526119Y22734850D01*
X-411380Y22912548D01*
X-370241Y23014627D01*
X-366222Y23024600D01*
X2691500Y23024600D01*
X2691837Y23021354D01*
X2691837Y23021350D01*
X2701537Y22927866D01*
X2702474Y22918834D01*
X2704655Y22912298D01*
X2704655Y22912296D01*
X2725242Y22850591D01*
X2758450Y22751054D01*
X2851522Y22600652D01*
X2976697Y22475695D01*
X2982927Y22471855D01*
X2982928Y22471854D01*
X3120090Y22387306D01*
X3127262Y22382885D01*
X3159703Y22372125D01*
X3288611Y22329368D01*
X3288613Y22329368D01*
X3295139Y22327203D01*
X3301975Y22326503D01*
X3301978Y22326502D01*
X3340386Y22322567D01*
X3399600Y22316500D01*
X4200400Y22316500D01*
X4203646Y22316837D01*
X4203650Y22316837D01*
X4299308Y22326762D01*
X4299312Y22326763D01*
X4306166Y22327474D01*
X4312702Y22329655D01*
X4312704Y22329655D01*
X4447443Y22374608D01*
X4473946Y22383450D01*
X4624348Y22476522D01*
X4749305Y22601697D01*
X4753499Y22608500D01*
X4769741Y22634850D01*
X4781075Y22653236D01*
X4833846Y22700729D01*
X4903918Y22712153D01*
X4969042Y22683879D01*
X4987418Y22664955D01*
X4993604Y22657080D01*
X4998135Y22653148D01*
X4998138Y22653145D01*
X5134802Y22534554D01*
X5153363Y22518448D01*
X5158549Y22515448D01*
X5158553Y22515445D01*
X5254957Y22459674D01*
X5336454Y22412527D01*
X5536271Y22343139D01*
X5542206Y22342278D01*
X5542208Y22342278D01*
X5739664Y22313648D01*
X5739667Y22313648D01*
X5745604Y22312787D01*
X5956899Y22322567D01*
X6110870Y22359674D01*
X6156701Y22370719D01*
X6156703Y22370720D01*
X6162534Y22372125D01*
X6167992Y22374607D01*
X6167996Y22374608D01*
X6285022Y22427817D01*
X6355087Y22459674D01*
X6505970Y22566703D01*
X6522725Y22578588D01*
X6522726Y22578589D01*
X6527611Y22582054D01*
X6673881Y22734850D01*
X6788620Y22912548D01*
X6829759Y23014627D01*
X6830760Y23017110D01*
X10241500Y23017110D01*
X10242683Y23003168D01*
X10250800Y22907511D01*
X10256080Y22845280D01*
X10257418Y22840125D01*
X10257419Y22840119D01*
X10312657Y22627297D01*
X10313999Y22622128D01*
X10316191Y22617262D01*
X10316192Y22617259D01*
X10323181Y22601745D01*
X10408688Y22411925D01*
X10537441Y22220681D01*
X10541117Y22216828D01*
X10541122Y22216822D01*
X10602710Y22152262D01*
X10696576Y22053865D01*
X10881542Y21916246D01*
X10886293Y21913830D01*
X10886297Y21913828D01*
X10931362Y21890916D01*
X11087051Y21811760D01*
X11092145Y21810178D01*
X11092148Y21810177D01*
X11292020Y21748115D01*
X11307227Y21743393D01*
X11312516Y21742692D01*
X11530489Y21713802D01*
X11530494Y21713802D01*
X11535774Y21713102D01*
X11541103Y21713302D01*
X11541105Y21713302D01*
X11650966Y21717427D01*
X11766158Y21721751D01*
X11788802Y21726502D01*
X11986572Y21767998D01*
X11991791Y21769093D01*
X11996750Y21771051D01*
X11996752Y21771052D01*
X12201256Y21851815D01*
X12201258Y21851816D01*
X12206221Y21853776D01*
X12219326Y21861728D01*
X12398757Y21970610D01*
X12398756Y21970610D01*
X12403317Y21973377D01*
X12443134Y22007928D01*
X12573412Y22120977D01*
X12573414Y22120979D01*
X12577445Y22124477D01*
X12650561Y22213648D01*
X12720240Y22298627D01*
X12720244Y22298633D01*
X12723624Y22302755D01*
X12741552Y22334250D01*
X12792632Y22383555D01*
X12862262Y22397417D01*
X12928333Y22371434D01*
X12955573Y22342284D01*
X13037441Y22220681D01*
X13041117Y22216828D01*
X13041122Y22216822D01*
X13102710Y22152262D01*
X13196576Y22053865D01*
X13381542Y21916246D01*
X13386293Y21913830D01*
X13386297Y21913828D01*
X13431362Y21890916D01*
X13587051Y21811760D01*
X13592145Y21810178D01*
X13592148Y21810177D01*
X13792020Y21748115D01*
X13807227Y21743393D01*
X13812516Y21742692D01*
X14030489Y21713802D01*
X14030494Y21713802D01*
X14035774Y21713102D01*
X14041103Y21713302D01*
X14041105Y21713302D01*
X14150966Y21717427D01*
X14266158Y21721751D01*
X14288802Y21726502D01*
X14486572Y21767998D01*
X14491791Y21769093D01*
X14496750Y21771051D01*
X14496752Y21771052D01*
X14701256Y21851815D01*
X14701258Y21851816D01*
X14706221Y21853776D01*
X14719326Y21861728D01*
X14898757Y21970610D01*
X14898756Y21970610D01*
X14903317Y21973377D01*
X14943134Y22007928D01*
X15073412Y22120977D01*
X15073414Y22120979D01*
X15077445Y22124477D01*
X15150561Y22213648D01*
X15220240Y22298627D01*
X15220244Y22298633D01*
X15223624Y22302755D01*
X15241552Y22334250D01*
X15292632Y22383555D01*
X15362262Y22397417D01*
X15428333Y22371434D01*
X15455573Y22342284D01*
X15537441Y22220681D01*
X15541117Y22216828D01*
X15541122Y22216822D01*
X15602710Y22152262D01*
X15696576Y22053865D01*
X15881542Y21916246D01*
X15886293Y21913830D01*
X15886297Y21913828D01*
X15931362Y21890916D01*
X16087051Y21811760D01*
X16092145Y21810178D01*
X16092148Y21810177D01*
X16292020Y21748115D01*
X16307227Y21743393D01*
X16312516Y21742692D01*
X16530489Y21713802D01*
X16530494Y21713802D01*
X16535774Y21713102D01*
X16541103Y21713302D01*
X16541105Y21713302D01*
X16650966Y21717427D01*
X16766158Y21721751D01*
X16788802Y21726502D01*
X16986572Y21767998D01*
X16991791Y21769093D01*
X16996750Y21771051D01*
X16996752Y21771052D01*
X17201256Y21851815D01*
X17201258Y21851816D01*
X17206221Y21853776D01*
X17219326Y21861728D01*
X17398757Y21970610D01*
X17398756Y21970610D01*
X17403317Y21973377D01*
X17443134Y22007928D01*
X17573412Y22120977D01*
X17573414Y22120979D01*
X17577445Y22124477D01*
X17606670Y22160120D01*
X17665329Y22200114D01*
X17736299Y22202046D01*
X17797048Y22165302D01*
X17811248Y22146532D01*
X17870562Y22050682D01*
X17901522Y22000652D01*
X18026697Y21875695D01*
X18032927Y21871855D01*
X18032928Y21871854D01*
X18170090Y21787306D01*
X18177262Y21782885D01*
X18212938Y21771052D01*
X18338611Y21729368D01*
X18338613Y21729368D01*
X18345139Y21727203D01*
X18351975Y21726503D01*
X18351978Y21726502D01*
X18387663Y21722846D01*
X18449600Y21716500D01*
X19750400Y21716500D01*
X19753646Y21716837D01*
X19753650Y21716837D01*
X19849308Y21726762D01*
X19849312Y21726763D01*
X19856166Y21727474D01*
X19862702Y21729655D01*
X19862704Y21729655D01*
X19994806Y21773728D01*
X20023946Y21783450D01*
X20174348Y21876522D01*
X20299305Y22001697D01*
X20333692Y22057483D01*
X20388275Y22146032D01*
X20388276Y22146034D01*
X20392115Y22152262D01*
X20426566Y22256128D01*
X20445632Y22313611D01*
X20445632Y22313613D01*
X20447797Y22320139D01*
X20449658Y22338297D01*
X20454284Y22383450D01*
X20458500Y22424600D01*
X20458500Y23975400D01*
X20455680Y24002583D01*
X20448238Y24074308D01*
X20448237Y24074312D01*
X20447526Y24081166D01*
X20444138Y24091323D01*
X20393868Y24241998D01*
X20391550Y24248946D01*
X20298478Y24399348D01*
X20173303Y24524305D01*
X20146558Y24540791D01*
X20028968Y24613275D01*
X20028966Y24613276D01*
X20022738Y24617115D01*
X19911629Y24653968D01*
X19861389Y24670632D01*
X19861387Y24670632D01*
X19854861Y24672797D01*
X19848025Y24673497D01*
X19848022Y24673498D01*
X19804969Y24677909D01*
X19750400Y24683500D01*
X18449600Y24683500D01*
X18446354Y24683163D01*
X18446350Y24683163D01*
X18350692Y24673238D01*
X18350688Y24673237D01*
X18343834Y24672526D01*
X18337298Y24670345D01*
X18337296Y24670345D01*
X18255094Y24642920D01*
X18176054Y24616550D01*
X18025652Y24523478D01*
X17900695Y24398303D01*
X17896855Y24392073D01*
X17896854Y24392072D01*
X17884594Y24372183D01*
X17822954Y24272183D01*
X17810920Y24252661D01*
X17758148Y24205168D01*
X17688076Y24193744D01*
X17622952Y24222018D01*
X17612490Y24231805D01*
X17507103Y24342278D01*
X17503424Y24346135D01*
X17318458Y24483754D01*
X17313707Y24486170D01*
X17313703Y24486172D01*
X17195588Y24546224D01*
X17112949Y24588240D01*
X17107855Y24589822D01*
X17107852Y24589823D01*
X16897871Y24655024D01*
X16892773Y24656607D01*
X16887484Y24657308D01*
X16669511Y24686198D01*
X16669506Y24686198D01*
X16664226Y24686898D01*
X16658897Y24686698D01*
X16658895Y24686698D01*
X16549034Y24682573D01*
X16433842Y24678249D01*
X16428623Y24677154D01*
X16406566Y24672526D01*
X16208209Y24630907D01*
X16203250Y24628949D01*
X16203248Y24628948D01*
X15998744Y24548185D01*
X15998742Y24548184D01*
X15993779Y24546224D01*
X15989220Y24543457D01*
X15989217Y24543456D01*
X15885581Y24480568D01*
X15796683Y24426623D01*
X15792653Y24423126D01*
X15630925Y24282786D01*
X15622555Y24275523D01*
X15603809Y24252661D01*
X15479760Y24101373D01*
X15479756Y24101367D01*
X15476376Y24097245D01*
X15458448Y24065750D01*
X15407368Y24016445D01*
X15337738Y24002583D01*
X15271667Y24028566D01*
X15244427Y24057716D01*
X15165539Y24174892D01*
X15162559Y24179319D01*
X15003424Y24346135D01*
X14818458Y24483754D01*
X14813707Y24486170D01*
X14813703Y24486172D01*
X14695588Y24546224D01*
X14612949Y24588240D01*
X14607855Y24589822D01*
X14607852Y24589823D01*
X14397871Y24655024D01*
X14392773Y24656607D01*
X14387484Y24657308D01*
X14169511Y24686198D01*
X14169506Y24686198D01*
X14164226Y24686898D01*
X14158897Y24686698D01*
X14158895Y24686698D01*
X14049034Y24682573D01*
X13933842Y24678249D01*
X13928623Y24677154D01*
X13906566Y24672526D01*
X13708209Y24630907D01*
X13703250Y24628949D01*
X13703248Y24628948D01*
X13498744Y24548185D01*
X13498742Y24548184D01*
X13493779Y24546224D01*
X13489220Y24543457D01*
X13489217Y24543456D01*
X13385581Y24480568D01*
X13296683Y24426623D01*
X13292653Y24423126D01*
X13130925Y24282786D01*
X13122555Y24275523D01*
X13103809Y24252661D01*
X12979760Y24101373D01*
X12979756Y24101367D01*
X12976376Y24097245D01*
X12958448Y24065750D01*
X12907368Y24016445D01*
X12837738Y24002583D01*
X12771667Y24028566D01*
X12744427Y24057716D01*
X12665539Y24174892D01*
X12662559Y24179319D01*
X12503424Y24346135D01*
X12318458Y24483754D01*
X12313707Y24486170D01*
X12313703Y24486172D01*
X12195588Y24546224D01*
X12112949Y24588240D01*
X12107855Y24589822D01*
X12107852Y24589823D01*
X11897871Y24655024D01*
X11892773Y24656607D01*
X11887484Y24657308D01*
X11669511Y24686198D01*
X11669506Y24686198D01*
X11664226Y24686898D01*
X11658897Y24686698D01*
X11658895Y24686698D01*
X11549034Y24682573D01*
X11433842Y24678249D01*
X11428623Y24677154D01*
X11406566Y24672526D01*
X11208209Y24630907D01*
X11203250Y24628949D01*
X11203248Y24628948D01*
X10998744Y24548185D01*
X10998742Y24548184D01*
X10993779Y24546224D01*
X10989220Y24543457D01*
X10989217Y24543456D01*
X10885581Y24480568D01*
X10796683Y24426623D01*
X10792653Y24423126D01*
X10630925Y24282786D01*
X10622555Y24275523D01*
X10603809Y24252661D01*
X10479760Y24101373D01*
X10479756Y24101367D01*
X10476376Y24097245D01*
X10473738Y24092610D01*
X10473735Y24092606D01*
X10436872Y24027846D01*
X10362325Y23896886D01*
X10283663Y23680175D01*
X10282714Y23674926D01*
X10282713Y23674923D01*
X10243377Y23457392D01*
X10243376Y23457385D01*
X10242639Y23453308D01*
X10241500Y23429156D01*
X10241500Y23017110D01*
X6830760Y23017110D01*
X6865442Y23103168D01*
X6865443Y23103171D01*
X6867686Y23108737D01*
X6908228Y23316337D01*
X6908500Y23321899D01*
X6908500Y24027846D01*
X6893452Y24185566D01*
X6833908Y24388534D01*
X6828877Y24398303D01*
X6739804Y24571249D01*
X6739802Y24571252D01*
X6737058Y24576580D01*
X6606396Y24742920D01*
X6601865Y24746852D01*
X6601862Y24746855D01*
X6451167Y24877621D01*
X6446637Y24881552D01*
X6441451Y24884552D01*
X6441447Y24884555D01*
X6270996Y24983163D01*
X6263546Y24987473D01*
X6063729Y25056861D01*
X6057794Y25057722D01*
X6057792Y25057722D01*
X5860336Y25086352D01*
X5860333Y25086352D01*
X5854396Y25087213D01*
X5643101Y25077433D01*
X5511923Y25045819D01*
X5443299Y25029281D01*
X5443297Y25029280D01*
X5437466Y25027875D01*
X5432008Y25025393D01*
X5432004Y25025392D01*
X5336515Y24981975D01*
X5244913Y24940326D01*
X5162057Y24881552D01*
X5081354Y24824305D01*
X5072389Y24817946D01*
X5068247Y24813619D01*
X5068241Y24813614D01*
X4981194Y24722683D01*
X4919639Y24687306D01*
X4848730Y24690825D01*
X4790979Y24732121D01*
X4783032Y24743509D01*
X4748478Y24799348D01*
X4728658Y24819134D01*
X4666131Y24881552D01*
X4623303Y24924305D01*
X4617072Y24928146D01*
X4478968Y25013275D01*
X4478966Y25013276D01*
X4472738Y25017115D01*
X4312254Y25070345D01*
X4311389Y25070632D01*
X4311387Y25070632D01*
X4304861Y25072797D01*
X4298025Y25073497D01*
X4298022Y25073498D01*
X4254969Y25077909D01*
X4200400Y25083500D01*
X3399600Y25083500D01*
X3396354Y25083163D01*
X3396350Y25083163D01*
X3300692Y25073238D01*
X3300688Y25073237D01*
X3293834Y25072526D01*
X3287298Y25070345D01*
X3287296Y25070345D01*
X3164213Y25029281D01*
X3126054Y25016550D01*
X2975652Y24923478D01*
X2850695Y24798303D01*
X2846855Y24792073D01*
X2846854Y24792072D01*
X2773165Y24672526D01*
X2757885Y24647738D01*
X2702203Y24479861D01*
X2701503Y24473025D01*
X2701502Y24473022D01*
X2697091Y24429969D01*
X2691500Y24375400D01*
X2691500Y23024600D01*
X-366222Y23024600D01*
X-334558Y23103168D01*
X-334557Y23103171D01*
X-332314Y23108737D01*
X-291772Y23316337D01*
X-291500Y23321899D01*
X-291500Y24027846D01*
X-306548Y24185566D01*
X-366092Y24388534D01*
X-371123Y24398303D01*
X-460196Y24571249D01*
X-460198Y24571252D01*
X-462942Y24576580D01*
X-593604Y24742920D01*
X-598135Y24746852D01*
X-598138Y24746855D01*
X-748833Y24877621D01*
X-753363Y24881552D01*
X-758549Y24884552D01*
X-758553Y24884555D01*
X-929004Y24983163D01*
X-936454Y24987473D01*
X-1136271Y25056861D01*
X-1142206Y25057722D01*
X-1142208Y25057722D01*
X-1339664Y25086352D01*
X-1339667Y25086352D01*
X-1345604Y25087213D01*
X-1556899Y25077433D01*
X-1688077Y25045819D01*
X-1756701Y25029281D01*
X-1756703Y25029280D01*
X-1762534Y25027875D01*
X-1767992Y25025393D01*
X-1767996Y25025392D01*
X-1863485Y24981975D01*
X-1955087Y24940326D01*
X-2037943Y24881552D01*
X-2118646Y24824305D01*
X-2127611Y24817946D01*
X-2131753Y24813619D01*
X-2131759Y24813614D01*
X-2218806Y24722683D01*
X-2280361Y24687306D01*
X-2351270Y24690825D01*
X-2409021Y24732121D01*
X-2416968Y24743509D01*
X-2451522Y24799348D01*
X-2471342Y24819134D01*
X-2533869Y24881552D01*
X-2576697Y24924305D01*
X-2582928Y24928146D01*
X-2721032Y25013275D01*
X-2721034Y25013276D01*
X-2727262Y25017115D01*
X-2887746Y25070345D01*
X-2888611Y25070632D01*
X-2888613Y25070632D01*
X-2895139Y25072797D01*
X-2901975Y25073497D01*
X-2901978Y25073498D01*
X-2945031Y25077909D01*
X-2999600Y25083500D01*
X-3800400Y25083500D01*
X-3803646Y25083163D01*
X-3803650Y25083163D01*
X-3899308Y25073238D01*
X-3899312Y25073237D01*
X-3906166Y25072526D01*
X-3912702Y25070345D01*
X-3912704Y25070345D01*
X-4035787Y25029281D01*
X-4073946Y25016550D01*
X-4224348Y24923478D01*
X-4349305Y24798303D01*
X-4353145Y24792073D01*
X-4353146Y24792072D01*
X-4426835Y24672526D01*
X-4442115Y24647738D01*
X-4497797Y24479861D01*
X-4498497Y24473025D01*
X-4498498Y24473022D01*
X-4502909Y24429969D01*
X-4508500Y24375400D01*
X-4508500Y23024600D01*
X-16329216Y23024600D01*
X-16291772Y23216337D01*
X-16291500Y23221899D01*
X-16291500Y23927846D01*
X-16306548Y24085566D01*
X-16366092Y24288534D01*
X-16414635Y24382786D01*
X-16460196Y24471249D01*
X-16460198Y24471252D01*
X-16462942Y24476580D01*
X-16593604Y24642920D01*
X-16598135Y24646852D01*
X-16598138Y24646855D01*
X-16748833Y24777621D01*
X-16753363Y24781552D01*
X-16758549Y24784552D01*
X-16758553Y24784555D01*
X-16931258Y24884467D01*
X-16936454Y24887473D01*
X-17136271Y24956861D01*
X-17142206Y24957722D01*
X-17142208Y24957722D01*
X-17339664Y24986352D01*
X-17339667Y24986352D01*
X-17345604Y24987213D01*
X-17556899Y24977433D01*
X-17688077Y24945819D01*
X-17756701Y24929281D01*
X-17756703Y24929280D01*
X-17762534Y24927875D01*
X-17767992Y24925393D01*
X-17767996Y24925392D01*
X-17864416Y24881552D01*
X-17955087Y24840326D01*
X-18127611Y24717946D01*
X-18131753Y24713619D01*
X-18131759Y24713614D01*
X-18218806Y24622683D01*
X-18280361Y24587306D01*
X-18351270Y24590825D01*
X-18409021Y24632121D01*
X-18416968Y24643509D01*
X-18451522Y24699348D01*
X-18576697Y24824305D01*
X-18679174Y24887473D01*
X-18721032Y24913275D01*
X-18721034Y24913276D01*
X-18727262Y24917115D01*
X-18849689Y24957722D01*
X-18888611Y24970632D01*
X-18888613Y24970632D01*
X-18895139Y24972797D01*
X-18901975Y24973497D01*
X-18901978Y24973498D01*
X-18945031Y24977909D01*
X-18999600Y24983500D01*
X-19800400Y24983500D01*
X-19803646Y24983163D01*
X-19803650Y24983163D01*
X-19899308Y24973238D01*
X-19899312Y24973237D01*
X-19906166Y24972526D01*
X-19912702Y24970345D01*
X-19912704Y24970345D01*
X-20002681Y24940326D01*
X-20073946Y24916550D01*
X-20224348Y24823478D01*
X-20349305Y24698303D01*
X-20353145Y24692073D01*
X-20353146Y24692072D01*
X-20424336Y24576580D01*
X-20442115Y24547738D01*
X-20451602Y24519134D01*
X-20494920Y24388534D01*
X-20497797Y24379861D01*
X-20498497Y24373025D01*
X-20498498Y24373022D01*
X-20501253Y24346135D01*
X-20508500Y24275400D01*
X-20508500Y22924600D01*
X-22769120Y22924600D01*
X-22151053Y24911655D01*
X-22145610Y24926007D01*
X-22131461Y24957392D01*
X-22129826Y24969075D01*
X-22122846Y24996315D01*
X-22082379Y25102958D01*
X-22072005Y25124093D01*
X-22000976Y25239976D01*
X-21986843Y25258819D01*
X-21980752Y25265528D01*
X-21895492Y25359449D01*
X-21878101Y25375332D01*
X-21769612Y25457208D01*
X-21749567Y25469577D01*
X-21627744Y25529826D01*
X-21605747Y25538249D01*
X-21474835Y25574772D01*
X-21451655Y25578954D01*
X-21344663Y25588056D01*
X-21328611Y25587428D01*
X-21328598Y25588029D01*
X-21319616Y25587841D01*
X-21310763Y25586383D01*
X-21276379Y25590574D01*
X-21261135Y25591500D01*
X21249488Y25591500D01*
X21269323Y25589929D01*
G37*
G04 #@! TD.AperFunction*
G04 #@! TD*
M02*
