%TF.GenerationSoftware,KiCad,Pcbnew,(6.0.11-0)*%
%TF.CreationDate,2023-05-17T22:42:15+12:00*%
%TF.ProjectId,head-interface,68656164-2d69-46e7-9465-72666163652e,rev?*%
%TF.SameCoordinates,PX3135a80PY23aadc0*%
%TF.FileFunction,Legend,Bot*%
%TF.FilePolarity,Positive*%
%FSLAX46Y46*%
G04 Gerber Fmt 4.6, Leading zero omitted, Abs format (unit mm)*
G04 Created by KiCad (PCBNEW (6.0.11-0)) date 2023-05-17 22:42:15*
%MOMM*%
%LPD*%
G01*
G04 APERTURE LIST*
%ADD10C,0.150000*%
G04 APERTURE END LIST*
D10*
X19819047Y-15252380D02*
X19819047Y-15966666D01*
X19866666Y-16109523D01*
X19961904Y-16204761D01*
X20104761Y-16252380D01*
X20200000Y-16252380D01*
X18866666Y-16252380D02*
X19342857Y-16252380D01*
X19342857Y-15252380D01*
X17961904Y-16157142D02*
X18009523Y-16204761D01*
X18152380Y-16252380D01*
X18247619Y-16252380D01*
X18390476Y-16204761D01*
X18485714Y-16109523D01*
X18533333Y-16014285D01*
X18580952Y-15823809D01*
X18580952Y-15680952D01*
X18533333Y-15490476D01*
X18485714Y-15395238D01*
X18390476Y-15300000D01*
X18247619Y-15252380D01*
X18152380Y-15252380D01*
X18009523Y-15300000D01*
X17961904Y-15347619D01*
X17247619Y-15252380D02*
X17247619Y-15966666D01*
X17295238Y-16109523D01*
X17390476Y-16204761D01*
X17533333Y-16252380D01*
X17628571Y-16252380D01*
X16295238Y-16252380D02*
X16771428Y-16252380D01*
X16771428Y-15252380D01*
X15390476Y-16157142D02*
X15438095Y-16204761D01*
X15580952Y-16252380D01*
X15676190Y-16252380D01*
X15819047Y-16204761D01*
X15914285Y-16109523D01*
X15961904Y-16014285D01*
X16009523Y-15823809D01*
X16009523Y-15680952D01*
X15961904Y-15490476D01*
X15914285Y-15395238D01*
X15819047Y-15300000D01*
X15676190Y-15252380D01*
X15580952Y-15252380D01*
X15438095Y-15300000D01*
X15390476Y-15347619D01*
X14676190Y-15252380D02*
X14676190Y-15966666D01*
X14723809Y-16109523D01*
X14819047Y-16204761D01*
X14961904Y-16252380D01*
X15057142Y-16252380D01*
X13723809Y-16252380D02*
X14200000Y-16252380D01*
X14200000Y-15252380D01*
X12819047Y-16157142D02*
X12866666Y-16204761D01*
X13009523Y-16252380D01*
X13104761Y-16252380D01*
X13247619Y-16204761D01*
X13342857Y-16109523D01*
X13390476Y-16014285D01*
X13438095Y-15823809D01*
X13438095Y-15680952D01*
X13390476Y-15490476D01*
X13342857Y-15395238D01*
X13247619Y-15300000D01*
X13104761Y-15252380D01*
X13009523Y-15252380D01*
X12866666Y-15300000D01*
X12819047Y-15347619D01*
X12104761Y-15252380D02*
X12104761Y-15966666D01*
X12152380Y-16109523D01*
X12247619Y-16204761D01*
X12390476Y-16252380D01*
X12485714Y-16252380D01*
X11152380Y-16252380D02*
X11628571Y-16252380D01*
X11628571Y-15252380D01*
X10247619Y-16157142D02*
X10295238Y-16204761D01*
X10438095Y-16252380D01*
X10533333Y-16252380D01*
X10676190Y-16204761D01*
X10771428Y-16109523D01*
X10819047Y-16014285D01*
X10866666Y-15823809D01*
X10866666Y-15680952D01*
X10819047Y-15490476D01*
X10771428Y-15395238D01*
X10676190Y-15300000D01*
X10533333Y-15252380D01*
X10438095Y-15252380D01*
X10295238Y-15300000D01*
X10247619Y-15347619D01*
M02*
