M48
; DRILL file {KiCad (6.0.11-0)} date Monday, 22 May 2023 at 09:08:58 pm
; FORMAT={-:-/ absolute / metric / decimal}
; #@! TF.CreationDate,2023-05-22T21:08:58+12:00
; #@! TF.GenerationSoftware,Kicad,Pcbnew,(6.0.11-0)
; #@! TF.FileFunction,MixedPlating,1,2
FMAT,2
METRIC
; #@! TA.AperFunction,Plated,PTH,ViaDrill
T1C0.400
; #@! TA.AperFunction,Plated,PTH,ComponentDrill
T2C0.750
; #@! TA.AperFunction,Plated,PTH,ComponentDrill
T3C0.950
; #@! TA.AperFunction,Plated,PTH,ComponentDrill
T4C1.200
; #@! TA.AperFunction,Plated,PTH,ComponentDrill
T5C3.200
; #@! TA.AperFunction,NonPlated,NPTH,ComponentDrill
T6C5.000
%
G90
G05
T1
X-20.9Y25.925
X-16.45Y15.85
X-15.25Y19.95
X-14.5Y25.925
X-14.25Y7.3
X-13.6Y18.2
X-12.65Y12.05
X-7.05Y16.55
X-6.15Y25.925
X-5.35Y14.75
X-2.35Y11.2
X-0.15Y21.05
X0.15Y7.3
X0.5Y14.85
X2.5Y17.1
X3.45Y11.1
X6.3Y14.65
X8.475Y25.925
X9.55Y17.65
X12.9Y9.85
X14.35Y7.3
X21.3Y25.925
T2
X-19.35Y24.75
X-17.35Y24.75
X-3.35Y24.85
X-1.35Y24.85
X3.85Y24.85
X3.85Y19.29
X5.85Y24.85
X5.85Y19.29
T3
X-10.65Y8.3
X-8.15Y8.3
X-3.25Y13.25
X-0.75Y13.25
X1.75Y13.25
X3.375Y8.3
X4.25Y13.25
X5.875Y8.3
X8.375Y8.3
X10.875Y8.3
X11.65Y24.35
X14.15Y24.35
X16.65Y24.35
X19.15Y24.35
T4
X-12.15Y22.05
X-8.65Y22.05
X-5.65Y8.3
X-3.15Y8.3
T5
X-21.95Y16.25
X22.05Y16.25
T6
X0.0Y32.6
X0.0Y0.0
T0
M30
