G04 #@! TF.GenerationSoftware,KiCad,Pcbnew,(6.0.11-0)*
G04 #@! TF.CreationDate,2023-05-22T16:43:52+12:00*
G04 #@! TF.ProjectId,head-interface,68656164-2d69-46e7-9465-72666163652e,rev?*
G04 #@! TF.SameCoordinates,PX5f5e100PY5f5e100*
G04 #@! TF.FileFunction,Copper,L2,Bot*
G04 #@! TF.FilePolarity,Positive*
%FSLAX46Y46*%
G04 Gerber Fmt 4.6, Leading zero omitted, Abs format (unit mm)*
G04 Created by KiCad (PCBNEW (6.0.11-0)) date 2023-05-22 16:43:52*
%MOMM*%
%LPD*%
G01*
G04 APERTURE LIST*
G04 Aperture macros list*
%AMRoundRect*
0 Rectangle with rounded corners*
0 $1 Rounding radius*
0 $2 $3 $4 $5 $6 $7 $8 $9 X,Y pos of 4 corners*
0 Add a 4 corners polygon primitive as box body*
4,1,4,$2,$3,$4,$5,$6,$7,$8,$9,$2,$3,0*
0 Add four circle primitives for the rounded corners*
1,1,$1+$1,$2,$3*
1,1,$1+$1,$4,$5*
1,1,$1+$1,$6,$7*
1,1,$1+$1,$8,$9*
0 Add four rect primitives between the rounded corners*
20,1,$1+$1,$2,$3,$4,$5,0*
20,1,$1+$1,$4,$5,$6,$7,0*
20,1,$1+$1,$6,$7,$8,$9,0*
20,1,$1+$1,$8,$9,$2,$3,0*%
G04 Aperture macros list end*
G04 #@! TA.AperFunction,ComponentPad*
%ADD10RoundRect,0.250000X-0.350000X-0.625000X0.350000X-0.625000X0.350000X0.625000X-0.350000X0.625000X0*%
G04 #@! TD*
G04 #@! TA.AperFunction,ComponentPad*
%ADD11O,1.200000X1.750000*%
G04 #@! TD*
G04 #@! TA.AperFunction,ComponentPad*
%ADD12RoundRect,0.250000X0.600000X0.725000X-0.600000X0.725000X-0.600000X-0.725000X0.600000X-0.725000X0*%
G04 #@! TD*
G04 #@! TA.AperFunction,ComponentPad*
%ADD13O,1.700000X1.950000*%
G04 #@! TD*
G04 #@! TA.AperFunction,ComponentPad*
%ADD14RoundRect,0.316176X0.758824X0.758824X-0.758824X0.758824X-0.758824X-0.758824X0.758824X-0.758824X0*%
G04 #@! TD*
G04 #@! TA.AperFunction,ComponentPad*
%ADD15O,2.000000X2.300000*%
G04 #@! TD*
G04 #@! TA.AperFunction,ComponentPad*
%ADD16C,6.000000*%
G04 #@! TD*
G04 #@! TA.AperFunction,ComponentPad*
%ADD17R,2.400000X2.400000*%
G04 #@! TD*
G04 #@! TA.AperFunction,ComponentPad*
%ADD18C,2.400000*%
G04 #@! TD*
G04 #@! TA.AperFunction,ViaPad*
%ADD19C,0.800000*%
G04 #@! TD*
G04 #@! TA.AperFunction,Conductor*
%ADD20C,0.500000*%
G04 #@! TD*
G04 #@! TA.AperFunction,Conductor*
%ADD21C,1.000000*%
G04 #@! TD*
G04 APERTURE END LIST*
D10*
G04 #@! TO.P,J9,1,Pin_1*
G04 #@! TO.N,Net-(J2-Pad2)*
X3800000Y18140000D03*
D11*
G04 #@! TO.P,J9,2,Pin_2*
G04 #@! TO.N,Net-(J2-Pad1)*
X5800000Y18140000D03*
G04 #@! TD*
D12*
G04 #@! TO.P,J3,1,Pin_1*
G04 #@! TO.N,Net-(J3-Pad1)*
X10825000Y7150000D03*
D13*
G04 #@! TO.P,J3,2,Pin_2*
G04 #@! TO.N,Net-(J3-Pad2)*
X8325000Y7150000D03*
G04 #@! TO.P,J3,3,Pin_3*
G04 #@! TO.N,Net-(J3-Pad3)*
X5825000Y7150000D03*
G04 #@! TO.P,J3,4,Pin_4*
G04 #@! TO.N,Net-(J3-Pad4)*
X3325000Y7150000D03*
G04 #@! TD*
D14*
G04 #@! TO.P,J1,1,Pin_1*
G04 #@! TO.N,Net-(J1-Pad1)*
X-3200000Y7150000D03*
D15*
G04 #@! TO.P,J1,2,Pin_2*
G04 #@! TO.N,Net-(J1-Pad2)*
X-5700000Y7150000D03*
D13*
G04 #@! TO.P,J1,3,Pin_3*
G04 #@! TO.N,Net-(J1-Pad3)*
X-8200000Y7150000D03*
G04 #@! TO.P,J1,4,Pin_4*
G04 #@! TO.N,Net-(J1-Pad4)*
X-10700000Y7150000D03*
G04 #@! TD*
D12*
G04 #@! TO.P,J8,1,Pin_1*
G04 #@! TO.N,Net-(J3-Pad1)*
X19100000Y23200000D03*
D13*
G04 #@! TO.P,J8,2,Pin_2*
G04 #@! TO.N,Net-(J3-Pad2)*
X16600000Y23200000D03*
G04 #@! TO.P,J8,3,Pin_3*
G04 #@! TO.N,Net-(J3-Pad3)*
X14100000Y23200000D03*
G04 #@! TO.P,J8,4,Pin_4*
G04 #@! TO.N,Net-(J3-Pad4)*
X11600000Y23200000D03*
G04 #@! TD*
D10*
G04 #@! TO.P,J6,1,Pin_1*
G04 #@! TO.N,Net-(J2-Pad2)*
X3800000Y23700000D03*
D11*
G04 #@! TO.P,J6,2,Pin_2*
G04 #@! TO.N,Net-(J2-Pad1)*
X5800000Y23700000D03*
G04 #@! TD*
D16*
G04 #@! TO.P,H2,1,1*
G04 #@! TO.N,GND*
X22000000Y15100000D03*
G04 #@! TD*
D10*
G04 #@! TO.P,J7,1,Pin_1*
G04 #@! TO.N,Net-(J2-Pad4)*
X-3400000Y23700000D03*
D11*
G04 #@! TO.P,J7,2,Pin_2*
G04 #@! TO.N,Net-(J2-Pad3)*
X-1400000Y23700000D03*
G04 #@! TD*
D17*
G04 #@! TO.P,J5,1,Pin_1*
G04 #@! TO.N,Net-(J1-Pad1)*
X-8700000Y20900000D03*
D18*
G04 #@! TO.P,J5,2,Pin_2*
G04 #@! TO.N,Net-(J1-Pad2)*
X-12200000Y20900000D03*
G04 #@! TD*
D10*
G04 #@! TO.P,J4,1,Pin_1*
G04 #@! TO.N,Net-(J1-Pad4)*
X-19400000Y23600000D03*
D11*
G04 #@! TO.P,J4,2,Pin_2*
G04 #@! TO.N,Net-(J1-Pad3)*
X-17400000Y23600000D03*
G04 #@! TD*
D16*
G04 #@! TO.P,H1,1,1*
G04 #@! TO.N,GND*
X-22000000Y15100000D03*
G04 #@! TD*
D12*
G04 #@! TO.P,J2,1,Pin_1*
G04 #@! TO.N,Net-(J2-Pad1)*
X4200000Y12100000D03*
D13*
G04 #@! TO.P,J2,2,Pin_2*
G04 #@! TO.N,Net-(J2-Pad2)*
X1700000Y12100000D03*
G04 #@! TO.P,J2,3,Pin_3*
G04 #@! TO.N,Net-(J2-Pad3)*
X-800000Y12100000D03*
G04 #@! TO.P,J2,4,Pin_4*
G04 #@! TO.N,Net-(J2-Pad4)*
X-3300000Y12100000D03*
G04 #@! TD*
D19*
G04 #@! TO.N,GND*
X-200000Y19900000D03*
X3400000Y9950000D03*
X21250000Y24775000D03*
X-7100000Y15400000D03*
X-14300000Y6150000D03*
X12850000Y8700000D03*
X14300000Y6150000D03*
X-14550000Y24775000D03*
X6250000Y13500000D03*
X-15300000Y18800000D03*
X-16500000Y14700000D03*
X-2400000Y10050000D03*
X-13650000Y17050000D03*
X8425000Y24775000D03*
X450000Y13700000D03*
X9500000Y16500000D03*
X2450000Y15950000D03*
X-12700000Y10900000D03*
X100000Y6150000D03*
X-20950000Y24775000D03*
X-6200000Y24775000D03*
X-5400000Y13600000D03*
G04 #@! TD*
D20*
G04 #@! TO.N,Net-(J2-Pad4)*
X-3400000Y23700000D02*
X-3350000Y23650000D01*
X-3350000Y23650000D02*
X-3350000Y12150000D01*
X-3350000Y12150000D02*
X-3300000Y12100000D01*
G04 #@! TO.N,Net-(J2-Pad3)*
X-1400000Y23700000D02*
X-1450000Y23650000D01*
X-1450000Y23650000D02*
X-1450000Y12750000D01*
X-1450000Y12750000D02*
X-800000Y12100000D01*
D21*
G04 #@! TO.N,Net-(J3-Pad1)*
X10825000Y7150000D02*
X10825000Y9425000D01*
X18550000Y17150000D02*
X18550000Y22650000D01*
X18550000Y22650000D02*
X19100000Y23200000D01*
X10825000Y9425000D02*
X18550000Y17150000D01*
G04 #@! TO.N,Net-(J3-Pad2)*
X8325000Y7150000D02*
X8325000Y8875000D01*
X8325000Y8875000D02*
X16600000Y17150000D01*
X16600000Y17150000D02*
X16600000Y23200000D01*
G04 #@! TO.N,Net-(J3-Pad3)*
X5825000Y7150000D02*
X5825000Y8375000D01*
X5825000Y8375000D02*
X14100000Y16650000D01*
X14100000Y16650000D02*
X14100000Y23200000D01*
G04 #@! TO.N,Net-(J3-Pad4)*
X3325000Y7150000D02*
X3325000Y7825000D01*
X11600000Y16100000D02*
X11600000Y23200000D01*
X3325000Y7825000D02*
X11600000Y16100000D01*
D20*
G04 #@! TO.N,Net-(J2-Pad1)*
X4200000Y12100000D02*
X4200000Y13300000D01*
X4200000Y13300000D02*
X5800000Y14900000D01*
X5800000Y14900000D02*
X5800000Y23700000D01*
G04 #@! TO.N,Net-(J2-Pad2)*
X1700000Y12100000D02*
X1700000Y12700000D01*
X3800000Y14800000D02*
X3800000Y23700000D01*
X1700000Y12700000D02*
X3800000Y14800000D01*
D21*
G04 #@! TO.N,Net-(J1-Pad1)*
X-3200000Y7150000D02*
X-3200000Y9100000D01*
X-8700000Y14600000D02*
X-8700000Y20900000D01*
X-3200000Y9100000D02*
X-8700000Y14600000D01*
G04 #@! TO.N,Net-(J1-Pad2)*
X-5700000Y7150000D02*
X-5700000Y9400000D01*
X-5700000Y9400000D02*
X-12200000Y15900000D01*
X-12200000Y15900000D02*
X-12200000Y20900000D01*
D20*
G04 #@! TO.N,Net-(J1-Pad3)*
X-8200000Y7150000D02*
X-8200000Y9900000D01*
X-8200000Y9900000D02*
X-17400000Y19100000D01*
X-17400000Y19100000D02*
X-17400000Y23600000D01*
G04 #@! TO.N,Net-(J1-Pad4)*
X-10700000Y7150000D02*
X-10700000Y10900000D01*
X-10700000Y10900000D02*
X-19400000Y19600000D01*
X-19400000Y19600000D02*
X-19400000Y23600000D01*
G04 #@! TD*
G04 #@! TA.AperFunction,Conductor*
G04 #@! TO.N,GND*
G36*
X528333Y11271434D02*
G01*
X555573Y11242284D01*
X637441Y11120681D01*
X796576Y10953865D01*
X981542Y10816246D01*
X986293Y10813830D01*
X986297Y10813828D01*
X1051129Y10780866D01*
X1187051Y10711760D01*
X1192145Y10710178D01*
X1192148Y10710177D01*
X1392020Y10648115D01*
X1407227Y10643393D01*
X1412516Y10642692D01*
X1630489Y10613802D01*
X1630494Y10613802D01*
X1635774Y10613102D01*
X1641103Y10613302D01*
X1641105Y10613302D01*
X1750966Y10617426D01*
X1866158Y10621751D01*
X1888802Y10626502D01*
X2086572Y10667998D01*
X2091791Y10669093D01*
X2096750Y10671051D01*
X2096752Y10671052D01*
X2301256Y10751815D01*
X2301258Y10751816D01*
X2306221Y10753776D01*
X2342343Y10775695D01*
X2498757Y10870610D01*
X2498756Y10870610D01*
X2503317Y10873377D01*
X2541926Y10906880D01*
X2673412Y11020977D01*
X2673414Y11020979D01*
X2677445Y11024477D01*
X2706670Y11060120D01*
X2765329Y11100114D01*
X2836299Y11102046D01*
X2897048Y11065302D01*
X2911248Y11046532D01*
X3001522Y10900652D01*
X3126697Y10775695D01*
X3132927Y10771855D01*
X3132928Y10771854D01*
X3226496Y10714178D01*
X3277262Y10682885D01*
X3312938Y10671052D01*
X3438611Y10629368D01*
X3438613Y10629368D01*
X3445139Y10627203D01*
X3451975Y10626503D01*
X3451978Y10626502D01*
X3487663Y10622846D01*
X3549600Y10616500D01*
X4386076Y10616500D01*
X4454197Y10596498D01*
X4500690Y10542842D01*
X4510794Y10472568D01*
X4481300Y10407988D01*
X4475171Y10401405D01*
X2655621Y8581855D01*
X2645478Y8572753D01*
X2615975Y8549032D01*
X2612008Y8544304D01*
X2583709Y8510579D01*
X2580528Y8506931D01*
X2578885Y8505119D01*
X2576691Y8502925D01*
X2549358Y8469651D01*
X2548696Y8468853D01*
X2488846Y8397526D01*
X2486278Y8392856D01*
X2482897Y8388739D01*
X2447952Y8323566D01*
X2419492Y8287946D01*
X2347555Y8225523D01*
X2327752Y8201372D01*
X2204760Y8051373D01*
X2204756Y8051367D01*
X2201376Y8047245D01*
X2198738Y8042610D01*
X2198735Y8042606D01*
X2161963Y7978006D01*
X2087325Y7846886D01*
X2008663Y7630175D01*
X2007714Y7624926D01*
X2007713Y7624923D01*
X1968377Y7407392D01*
X1968376Y7407385D01*
X1967639Y7403308D01*
X1966500Y7379156D01*
X1966500Y6967110D01*
X1981080Y6795280D01*
X1982418Y6790125D01*
X1982419Y6790119D01*
X2037657Y6577297D01*
X2038999Y6572128D01*
X2133688Y6361925D01*
X2262441Y6170681D01*
X2266120Y6166824D01*
X2266122Y6166822D01*
X2325348Y6104738D01*
X2421576Y6003865D01*
X2606542Y5866246D01*
X2611293Y5863830D01*
X2611297Y5863828D01*
X2684673Y5826522D01*
X2812051Y5761760D01*
X2834364Y5754831D01*
X2893487Y5715530D01*
X2921978Y5650501D01*
X2910788Y5580391D01*
X2863471Y5527461D01*
X2796998Y5508500D01*
X-1865085Y5508500D01*
X-1933206Y5528502D01*
X-1979699Y5582158D01*
X-1989803Y5652432D01*
X-1960309Y5717012D01*
X-1944037Y5732697D01*
X-1859915Y5800332D01*
X-1854603Y5804603D01*
X-1840733Y5821854D01*
X-1746603Y5938929D01*
X-1746602Y5938930D01*
X-1742329Y5944245D01*
X-1666981Y6096032D01*
X-1665692Y6098628D01*
X-1662659Y6104738D01*
X-1619312Y6278595D01*
X-1616500Y6319843D01*
X-1616501Y7980156D01*
X-1619312Y8021405D01*
X-1662659Y8195262D01*
X-1742329Y8355755D01*
X-1759835Y8377529D01*
X-1850332Y8490085D01*
X-1854603Y8495397D01*
X-1868569Y8506626D01*
X-1988929Y8603397D01*
X-1988930Y8603398D01*
X-1994245Y8607671D01*
X-2121525Y8670854D01*
X-2173647Y8719058D01*
X-2191500Y8783713D01*
X-2191500Y9038150D01*
X-2190763Y9051758D01*
X-2187341Y9083261D01*
X-2186675Y9089388D01*
X-2191053Y9139430D01*
X-2191379Y9144212D01*
X-2191500Y9146690D01*
X-2191500Y9149769D01*
X-2191799Y9152823D01*
X-2191800Y9152834D01*
X-2195687Y9192471D01*
X-2195809Y9193785D01*
X-2203377Y9280282D01*
X-2203913Y9286413D01*
X-2205400Y9291532D01*
X-2205920Y9296833D01*
X-2232791Y9385834D01*
X-2233126Y9386967D01*
X-2257370Y9470414D01*
X-2257372Y9470418D01*
X-2259091Y9476336D01*
X-2261544Y9481068D01*
X-2263084Y9486169D01*
X-2270529Y9500171D01*
X-2306731Y9568260D01*
X-2307343Y9569426D01*
X-2347271Y9646453D01*
X-2350108Y9651926D01*
X-2353431Y9656089D01*
X-2355934Y9660796D01*
X-2414739Y9732898D01*
X-2415567Y9733925D01*
X-2444531Y9770208D01*
X-2444536Y9770213D01*
X-2446738Y9772972D01*
X-2449239Y9775473D01*
X-2449881Y9776191D01*
X-2453594Y9780539D01*
X-2461358Y9790059D01*
X-2480935Y9814062D01*
X-2485677Y9817985D01*
X-2485679Y9817987D01*
X-2516273Y9843297D01*
X-2525053Y9851287D01*
X-3102870Y10429104D01*
X-3136896Y10491416D01*
X-3131831Y10562231D01*
X-3089284Y10619067D01*
X-3039649Y10641514D01*
X-2913428Y10667998D01*
X-2908209Y10669093D01*
X-2903250Y10671051D01*
X-2903248Y10671052D01*
X-2698744Y10751815D01*
X-2698742Y10751816D01*
X-2693779Y10753776D01*
X-2657657Y10775695D01*
X-2501243Y10870610D01*
X-2501244Y10870610D01*
X-2496683Y10873377D01*
X-2458074Y10906880D01*
X-2326588Y11020977D01*
X-2326586Y11020979D01*
X-2322555Y11024477D01*
X-2258952Y11102046D01*
X-2179760Y11198627D01*
X-2179756Y11198633D01*
X-2176376Y11202755D01*
X-2158448Y11234250D01*
X-2107368Y11283555D01*
X-2037738Y11297417D01*
X-1971667Y11271434D01*
X-1944427Y11242284D01*
X-1862559Y11120681D01*
X-1703424Y10953865D01*
X-1518458Y10816246D01*
X-1513707Y10813830D01*
X-1513703Y10813828D01*
X-1448871Y10780866D01*
X-1312949Y10711760D01*
X-1307855Y10710178D01*
X-1307852Y10710177D01*
X-1107980Y10648115D01*
X-1092773Y10643393D01*
X-1087484Y10642692D01*
X-869511Y10613802D01*
X-869506Y10613802D01*
X-864226Y10613102D01*
X-858897Y10613302D01*
X-858895Y10613302D01*
X-749034Y10617426D01*
X-633842Y10621751D01*
X-611198Y10626502D01*
X-413428Y10667998D01*
X-408209Y10669093D01*
X-403250Y10671051D01*
X-403248Y10671052D01*
X-198744Y10751815D01*
X-198742Y10751816D01*
X-193779Y10753776D01*
X-157657Y10775695D01*
X-1243Y10870610D01*
X-1244Y10870610D01*
X3317Y10873377D01*
X41926Y10906880D01*
X173412Y11020977D01*
X173414Y11020979D01*
X177445Y11024477D01*
X241048Y11102046D01*
X320240Y11198627D01*
X320244Y11198633D01*
X323624Y11202755D01*
X341552Y11234250D01*
X392632Y11283555D01*
X462262Y11297417D01*
X528333Y11271434D01*
G37*
G04 #@! TD.AperFunction*
G04 #@! TA.AperFunction,Conductor*
G36*
X21269323Y25589929D02*
G01*
X21291869Y25586335D01*
X21300769Y25587466D01*
X21300772Y25587466D01*
X21303847Y25587857D01*
X21331740Y25588288D01*
X21446549Y25577296D01*
X21469251Y25572994D01*
X21601407Y25535114D01*
X21622933Y25526739D01*
X21745936Y25465362D01*
X21765579Y25453192D01*
X21875303Y25370379D01*
X21892388Y25354829D01*
X21985139Y25253369D01*
X21999098Y25234959D01*
X22035428Y25176609D01*
X22071755Y25118264D01*
X22082120Y25097606D01*
X22091834Y25072797D01*
X22113858Y25016550D01*
X22121709Y24996498D01*
X22125715Y24980810D01*
X22126242Y24980955D01*
X22128629Y24972299D01*
X22129765Y24963399D01*
X22133352Y24955176D01*
X22133353Y24955174D01*
X22145093Y24928264D01*
X22149919Y24915303D01*
X24804306Y16381570D01*
X24807597Y16368595D01*
X24813511Y16338692D01*
X24813514Y16338683D01*
X24815255Y16329881D01*
X24823514Y16314009D01*
X24824094Y16312894D01*
X24832731Y16291840D01*
X24927698Y15983546D01*
X24930842Y15971122D01*
X24999665Y15626250D01*
X25001531Y15613561D01*
X25034935Y15263496D01*
X25035502Y15250682D01*
X25033143Y14899027D01*
X25032404Y14886222D01*
X24997811Y14568775D01*
X24994309Y14536642D01*
X24992274Y14523985D01*
X24969484Y14417266D01*
X24918829Y14180061D01*
X24915515Y14167671D01*
X24807493Y13833014D01*
X24802941Y13821032D01*
X24675919Y13532003D01*
X24661454Y13499088D01*
X24655703Y13487624D01*
X24594988Y13380568D01*
X24518746Y13246135D01*
X24482214Y13181721D01*
X24475337Y13170917D01*
X24271955Y12884671D01*
X24271654Y12884247D01*
X24263703Y12874183D01*
X24031921Y12609695D01*
X24022987Y12600492D01*
X24006542Y12585191D01*
X23765529Y12360948D01*
X23755722Y12352714D01*
X23581308Y12220803D01*
X23475236Y12140580D01*
X23464626Y12133374D01*
X23195159Y11969757D01*
X23171819Y11958684D01*
X23161609Y11955069D01*
X23154331Y11949820D01*
X23154327Y11949818D01*
X23133601Y11934870D01*
X23132758Y11934306D01*
X23131590Y11933702D01*
X23128762Y11931632D01*
X23128758Y11931629D01*
X23106124Y11915060D01*
X23105399Y11914533D01*
X23051255Y11875485D01*
X23043469Y11869870D01*
X23042475Y11868593D01*
X23041284Y11867591D01*
X19521496Y9290825D01*
X14630811Y5710453D01*
X14629435Y5709446D01*
X14612915Y5699210D01*
X14599568Y5692303D01*
X14599566Y5692301D01*
X14591592Y5688175D01*
X14582020Y5679040D01*
X14560635Y5662619D01*
X14469761Y5607198D01*
X14450767Y5597710D01*
X14330261Y5549727D01*
X14309941Y5543562D01*
X14183099Y5516499D01*
X14162040Y5513833D01*
X14062729Y5509710D01*
X14046071Y5511012D01*
X14046054Y5510695D01*
X14037090Y5511190D01*
X14028287Y5512950D01*
X14019347Y5512169D01*
X14019343Y5512169D01*
X13982829Y5508978D01*
X13971861Y5508500D01*
X11828490Y5508500D01*
X11760369Y5528502D01*
X11713876Y5582158D01*
X11703772Y5652432D01*
X11733266Y5717012D01*
X11762187Y5741644D01*
X11762375Y5741760D01*
X11899348Y5826522D01*
X12024305Y5951697D01*
X12056462Y6003865D01*
X12113275Y6096032D01*
X12113276Y6096034D01*
X12117115Y6102262D01*
X12167031Y6252755D01*
X12170632Y6263611D01*
X12170632Y6263613D01*
X12172797Y6270139D01*
X12173664Y6278595D01*
X12178110Y6321991D01*
X12183500Y6374600D01*
X12183500Y7925400D01*
X12180680Y7952583D01*
X12173238Y8024308D01*
X12173237Y8024312D01*
X12172526Y8031166D01*
X12168710Y8042606D01*
X12118868Y8191998D01*
X12116550Y8198946D01*
X12023478Y8349348D01*
X11898303Y8474305D01*
X11892072Y8478146D01*
X11886327Y8482683D01*
X11887377Y8484013D01*
X11845892Y8530107D01*
X11833500Y8584597D01*
X11833500Y8955075D01*
X11853502Y9023196D01*
X11870405Y9044170D01*
X19219379Y16393145D01*
X19229522Y16402247D01*
X19254218Y16422103D01*
X19259025Y16425968D01*
X19291292Y16464422D01*
X19294472Y16468069D01*
X19296115Y16469881D01*
X19298309Y16472075D01*
X19325642Y16505349D01*
X19326348Y16506200D01*
X19382195Y16572756D01*
X19386154Y16577474D01*
X19388722Y16582144D01*
X19392103Y16586261D01*
X19436015Y16668158D01*
X19436624Y16669280D01*
X19478466Y16745389D01*
X19478468Y16745394D01*
X19481433Y16750787D01*
X19483044Y16755865D01*
X19485563Y16760563D01*
X19512753Y16849498D01*
X19513136Y16850728D01*
X19522402Y16879936D01*
X19541235Y16939306D01*
X19541828Y16944597D01*
X19543388Y16949698D01*
X19552795Y17042311D01*
X19552915Y17043431D01*
X19558500Y17093227D01*
X19558500Y17096756D01*
X19558555Y17097739D01*
X19559004Y17103444D01*
X19562752Y17140336D01*
X19562752Y17140339D01*
X19563374Y17146463D01*
X19559059Y17192112D01*
X19558500Y17203969D01*
X19558500Y21590500D01*
X19578502Y21658621D01*
X19632158Y21705114D01*
X19684500Y21716500D01*
X19750400Y21716500D01*
X19753646Y21716837D01*
X19753650Y21716837D01*
X19849308Y21726762D01*
X19849312Y21726763D01*
X19856166Y21727474D01*
X19862702Y21729655D01*
X19862704Y21729655D01*
X20016998Y21781132D01*
X20023946Y21783450D01*
X20174348Y21876522D01*
X20299305Y22001697D01*
X20355751Y22093269D01*
X20388275Y22146032D01*
X20388276Y22146034D01*
X20392115Y22152262D01*
X20426566Y22256128D01*
X20445632Y22313611D01*
X20445632Y22313613D01*
X20447797Y22320139D01*
X20449397Y22335750D01*
X20454105Y22381704D01*
X20458500Y22424600D01*
X20458500Y23975400D01*
X20455680Y24002583D01*
X20448238Y24074308D01*
X20448237Y24074312D01*
X20447526Y24081166D01*
X20444138Y24091323D01*
X20393868Y24241998D01*
X20391550Y24248946D01*
X20298478Y24399348D01*
X20173303Y24524305D01*
X20146558Y24540791D01*
X20028968Y24613275D01*
X20028966Y24613276D01*
X20022738Y24617115D01*
X19911629Y24653968D01*
X19861389Y24670632D01*
X19861387Y24670632D01*
X19854861Y24672797D01*
X19848025Y24673497D01*
X19848022Y24673498D01*
X19804969Y24677909D01*
X19750400Y24683500D01*
X18449600Y24683500D01*
X18446354Y24683163D01*
X18446350Y24683163D01*
X18350692Y24673238D01*
X18350688Y24673237D01*
X18343834Y24672526D01*
X18337298Y24670345D01*
X18337296Y24670345D01*
X18255094Y24642920D01*
X18176054Y24616550D01*
X18025652Y24523478D01*
X17900695Y24398303D01*
X17896855Y24392073D01*
X17896854Y24392072D01*
X17884594Y24372183D01*
X17822954Y24272183D01*
X17810920Y24252661D01*
X17758148Y24205168D01*
X17688076Y24193744D01*
X17622952Y24222018D01*
X17612490Y24231805D01*
X17507103Y24342278D01*
X17503424Y24346135D01*
X17318458Y24483754D01*
X17313707Y24486170D01*
X17313703Y24486172D01*
X17195588Y24546224D01*
X17112949Y24588240D01*
X17107855Y24589822D01*
X17107852Y24589823D01*
X16897871Y24655024D01*
X16892773Y24656607D01*
X16887484Y24657308D01*
X16669511Y24686198D01*
X16669506Y24686198D01*
X16664226Y24686898D01*
X16658897Y24686698D01*
X16658895Y24686698D01*
X16549034Y24682573D01*
X16433842Y24678249D01*
X16428623Y24677154D01*
X16406566Y24672526D01*
X16208209Y24630907D01*
X16203250Y24628949D01*
X16203248Y24628948D01*
X15998744Y24548185D01*
X15998742Y24548184D01*
X15993779Y24546224D01*
X15989220Y24543457D01*
X15989217Y24543456D01*
X15885581Y24480568D01*
X15796683Y24426623D01*
X15792653Y24423126D01*
X15630925Y24282786D01*
X15622555Y24275523D01*
X15603809Y24252661D01*
X15479760Y24101373D01*
X15479756Y24101367D01*
X15476376Y24097245D01*
X15458448Y24065750D01*
X15407368Y24016445D01*
X15337738Y24002583D01*
X15271667Y24028566D01*
X15244427Y24057716D01*
X15165539Y24174892D01*
X15162559Y24179319D01*
X15003424Y24346135D01*
X14818458Y24483754D01*
X14813707Y24486170D01*
X14813703Y24486172D01*
X14695588Y24546224D01*
X14612949Y24588240D01*
X14607855Y24589822D01*
X14607852Y24589823D01*
X14397871Y24655024D01*
X14392773Y24656607D01*
X14387484Y24657308D01*
X14169511Y24686198D01*
X14169506Y24686198D01*
X14164226Y24686898D01*
X14158897Y24686698D01*
X14158895Y24686698D01*
X14049034Y24682573D01*
X13933842Y24678249D01*
X13928623Y24677154D01*
X13906566Y24672526D01*
X13708209Y24630907D01*
X13703250Y24628949D01*
X13703248Y24628948D01*
X13498744Y24548185D01*
X13498742Y24548184D01*
X13493779Y24546224D01*
X13489220Y24543457D01*
X13489217Y24543456D01*
X13385581Y24480568D01*
X13296683Y24426623D01*
X13292653Y24423126D01*
X13130925Y24282786D01*
X13122555Y24275523D01*
X13103809Y24252661D01*
X12979760Y24101373D01*
X12979756Y24101367D01*
X12976376Y24097245D01*
X12958448Y24065750D01*
X12907368Y24016445D01*
X12837738Y24002583D01*
X12771667Y24028566D01*
X12744427Y24057716D01*
X12665539Y24174892D01*
X12662559Y24179319D01*
X12503424Y24346135D01*
X12318458Y24483754D01*
X12313707Y24486170D01*
X12313703Y24486172D01*
X12195588Y24546224D01*
X12112949Y24588240D01*
X12107855Y24589822D01*
X12107852Y24589823D01*
X11897871Y24655024D01*
X11892773Y24656607D01*
X11887484Y24657308D01*
X11669511Y24686198D01*
X11669506Y24686198D01*
X11664226Y24686898D01*
X11658897Y24686698D01*
X11658895Y24686698D01*
X11549034Y24682573D01*
X11433842Y24678249D01*
X11428623Y24677154D01*
X11406566Y24672526D01*
X11208209Y24630907D01*
X11203250Y24628949D01*
X11203248Y24628948D01*
X10998744Y24548185D01*
X10998742Y24548184D01*
X10993779Y24546224D01*
X10989220Y24543457D01*
X10989217Y24543456D01*
X10885581Y24480568D01*
X10796683Y24426623D01*
X10792653Y24423126D01*
X10630925Y24282786D01*
X10622555Y24275523D01*
X10603809Y24252661D01*
X10479760Y24101373D01*
X10479756Y24101367D01*
X10476376Y24097245D01*
X10473738Y24092610D01*
X10473735Y24092606D01*
X10436872Y24027846D01*
X10362325Y23896886D01*
X10283663Y23680175D01*
X10282714Y23674926D01*
X10282713Y23674923D01*
X10243377Y23457392D01*
X10243376Y23457385D01*
X10242639Y23453308D01*
X10241500Y23429156D01*
X10241500Y23017110D01*
X10242683Y23003168D01*
X10250800Y22907511D01*
X10256080Y22845280D01*
X10257418Y22840125D01*
X10257419Y22840119D01*
X10312657Y22627297D01*
X10313999Y22622128D01*
X10316191Y22617262D01*
X10316192Y22617259D01*
X10331229Y22583879D01*
X10408688Y22411925D01*
X10447759Y22353891D01*
X10534458Y22225111D01*
X10534461Y22225107D01*
X10537441Y22220681D01*
X10541128Y22216816D01*
X10556669Y22200525D01*
X10589217Y22137429D01*
X10591500Y22113553D01*
X10591500Y16569925D01*
X10571498Y16501804D01*
X10554595Y16480830D01*
X5773595Y11699829D01*
X5711283Y11665803D01*
X5640468Y11670868D01*
X5583632Y11713415D01*
X5558821Y11779935D01*
X5558500Y11788924D01*
X5558500Y12875400D01*
X5557185Y12888075D01*
X5548238Y12974308D01*
X5548237Y12974312D01*
X5547526Y12981166D01*
X5543710Y12992606D01*
X5493868Y13141998D01*
X5491550Y13148946D01*
X5433729Y13242384D01*
X5402645Y13292615D01*
X5383807Y13361067D01*
X5404968Y13428837D01*
X5420694Y13448013D01*
X6288911Y14316230D01*
X6303323Y14328616D01*
X6314918Y14337149D01*
X6314923Y14337154D01*
X6320818Y14341492D01*
X6325557Y14347070D01*
X6325560Y14347073D01*
X6355035Y14381768D01*
X6361965Y14389284D01*
X6367661Y14394980D01*
X6369924Y14397841D01*
X6369929Y14397846D01*
X6385293Y14417266D01*
X6388082Y14420667D01*
X6389743Y14422622D01*
X6435333Y14476285D01*
X6438659Y14482798D01*
X6442020Y14487837D01*
X6445196Y14492979D01*
X6449734Y14498716D01*
X6480655Y14564875D01*
X6482561Y14568775D01*
X6515769Y14633808D01*
X6517508Y14640917D01*
X6519604Y14646551D01*
X6521523Y14652321D01*
X6524622Y14658950D01*
X6539491Y14730435D01*
X6540461Y14734718D01*
X6556473Y14800156D01*
X6557808Y14805610D01*
X6558500Y14816764D01*
X6558535Y14816762D01*
X6558775Y14820734D01*
X6559152Y14824955D01*
X6560641Y14832115D01*
X6558546Y14909542D01*
X6558500Y14912950D01*
X6558500Y17003734D01*
X6578502Y17071855D01*
X6593477Y17090858D01*
X6673881Y17174850D01*
X6788620Y17352548D01*
X6835094Y17467866D01*
X6865442Y17543168D01*
X6865443Y17543171D01*
X6867686Y17548737D01*
X6908228Y17756337D01*
X6908500Y17761899D01*
X6908500Y18467846D01*
X6893452Y18625566D01*
X6833908Y18828534D01*
X6786872Y18919861D01*
X6739804Y19011249D01*
X6739802Y19011252D01*
X6737058Y19016580D01*
X6606396Y19182920D01*
X6601865Y19186852D01*
X6597730Y19191194D01*
X6598582Y19192006D01*
X6563579Y19246557D01*
X6558500Y19281970D01*
X6558500Y22563734D01*
X6578502Y22631855D01*
X6593477Y22650858D01*
X6673881Y22734850D01*
X6788620Y22912548D01*
X6829759Y23014627D01*
X6865442Y23103168D01*
X6865443Y23103171D01*
X6867686Y23108737D01*
X6908228Y23316337D01*
X6908500Y23321899D01*
X6908500Y24027846D01*
X6893452Y24185566D01*
X6833908Y24388534D01*
X6828877Y24398303D01*
X6739804Y24571249D01*
X6739802Y24571252D01*
X6737058Y24576580D01*
X6606396Y24742920D01*
X6601865Y24746852D01*
X6601862Y24746855D01*
X6451167Y24877621D01*
X6446637Y24881552D01*
X6441451Y24884552D01*
X6441447Y24884555D01*
X6270996Y24983163D01*
X6263546Y24987473D01*
X6063729Y25056861D01*
X6057794Y25057722D01*
X6057792Y25057722D01*
X5860336Y25086352D01*
X5860333Y25086352D01*
X5854396Y25087213D01*
X5643101Y25077433D01*
X5511923Y25045819D01*
X5443299Y25029281D01*
X5443297Y25029280D01*
X5437466Y25027875D01*
X5432008Y25025393D01*
X5432004Y25025392D01*
X5336515Y24981975D01*
X5244913Y24940326D01*
X5162057Y24881552D01*
X5081354Y24824305D01*
X5072389Y24817946D01*
X5068247Y24813619D01*
X5068241Y24813614D01*
X4981194Y24722683D01*
X4919639Y24687306D01*
X4848730Y24690825D01*
X4790979Y24732121D01*
X4783032Y24743509D01*
X4748478Y24799348D01*
X4728658Y24819134D01*
X4666131Y24881552D01*
X4623303Y24924305D01*
X4617072Y24928146D01*
X4478968Y25013275D01*
X4478966Y25013276D01*
X4472738Y25017115D01*
X4312254Y25070345D01*
X4311389Y25070632D01*
X4311387Y25070632D01*
X4304861Y25072797D01*
X4298025Y25073497D01*
X4298022Y25073498D01*
X4254969Y25077909D01*
X4200400Y25083500D01*
X3399600Y25083500D01*
X3396354Y25083163D01*
X3396350Y25083163D01*
X3300692Y25073238D01*
X3300688Y25073237D01*
X3293834Y25072526D01*
X3287298Y25070345D01*
X3287296Y25070345D01*
X3164213Y25029281D01*
X3126054Y25016550D01*
X2975652Y24923478D01*
X2850695Y24798303D01*
X2846855Y24792073D01*
X2846854Y24792072D01*
X2773165Y24672526D01*
X2757885Y24647738D01*
X2702203Y24479861D01*
X2701503Y24473025D01*
X2701502Y24473022D01*
X2697091Y24429969D01*
X2691500Y24375400D01*
X2691500Y23024600D01*
X2691837Y23021354D01*
X2691837Y23021350D01*
X2701537Y22927866D01*
X2702474Y22918834D01*
X2704655Y22912298D01*
X2704655Y22912296D01*
X2725242Y22850591D01*
X2758450Y22751054D01*
X2851522Y22600652D01*
X2976697Y22475695D01*
X2982928Y22471854D01*
X2988673Y22467317D01*
X2987623Y22465987D01*
X3029108Y22419893D01*
X3041500Y22365403D01*
X3041500Y19474428D01*
X3021498Y19406307D01*
X2987112Y19372505D01*
X2987612Y19371875D01*
X2981880Y19367332D01*
X2975652Y19363478D01*
X2850695Y19238303D01*
X2846855Y19232073D01*
X2846854Y19232072D01*
X2779323Y19122516D01*
X2757885Y19087738D01*
X2702203Y18919861D01*
X2691500Y18815400D01*
X2691500Y17464600D01*
X2691837Y17461354D01*
X2691837Y17461350D01*
X2700285Y17379936D01*
X2702474Y17358834D01*
X2704655Y17352298D01*
X2704655Y17352296D01*
X2733511Y17265804D01*
X2758450Y17191054D01*
X2851522Y17040652D01*
X2976697Y16915695D01*
X2982928Y16911854D01*
X2988673Y16907317D01*
X2987623Y16905987D01*
X3029108Y16859893D01*
X3041500Y16805403D01*
X3041500Y15166371D01*
X3021498Y15098250D01*
X3004595Y15077276D01*
X1524579Y13597260D01*
X1461357Y13563040D01*
X1313430Y13532003D01*
X1313424Y13532001D01*
X1308209Y13530907D01*
X1303250Y13528949D01*
X1303248Y13528948D01*
X1098744Y13448185D01*
X1098742Y13448184D01*
X1093779Y13446224D01*
X1089220Y13443457D01*
X1089217Y13443456D01*
X990832Y13383754D01*
X896683Y13326623D01*
X892653Y13323126D01*
X729698Y13181721D01*
X722555Y13175523D01*
X705872Y13155177D01*
X579760Y13001373D01*
X579756Y13001367D01*
X576376Y12997245D01*
X558448Y12965750D01*
X507368Y12916445D01*
X437738Y12902583D01*
X371667Y12928566D01*
X344427Y12957716D01*
X265539Y13074892D01*
X262559Y13079319D01*
X103424Y13246135D01*
X-81542Y13383754D01*
X-86293Y13386170D01*
X-86297Y13386172D01*
X-208269Y13448185D01*
X-287051Y13488240D01*
X-292145Y13489822D01*
X-292148Y13489823D01*
X-502129Y13555024D01*
X-507227Y13556607D01*
X-582055Y13566524D01*
X-646956Y13595303D01*
X-685997Y13654602D01*
X-691500Y13691432D01*
X-691500Y22511502D01*
X-671498Y22579623D01*
X-656518Y22598633D01*
X-530264Y22730520D01*
X-526119Y22734850D01*
X-411380Y22912548D01*
X-370241Y23014627D01*
X-334558Y23103168D01*
X-334557Y23103171D01*
X-332314Y23108737D01*
X-291772Y23316337D01*
X-291500Y23321899D01*
X-291500Y24027846D01*
X-306548Y24185566D01*
X-366092Y24388534D01*
X-371123Y24398303D01*
X-460196Y24571249D01*
X-460198Y24571252D01*
X-462942Y24576580D01*
X-593604Y24742920D01*
X-598135Y24746852D01*
X-598138Y24746855D01*
X-748833Y24877621D01*
X-753363Y24881552D01*
X-758549Y24884552D01*
X-758553Y24884555D01*
X-929004Y24983163D01*
X-936454Y24987473D01*
X-1136271Y25056861D01*
X-1142206Y25057722D01*
X-1142208Y25057722D01*
X-1339664Y25086352D01*
X-1339667Y25086352D01*
X-1345604Y25087213D01*
X-1556899Y25077433D01*
X-1688077Y25045819D01*
X-1756701Y25029281D01*
X-1756703Y25029280D01*
X-1762534Y25027875D01*
X-1767992Y25025393D01*
X-1767996Y25025392D01*
X-1863485Y24981975D01*
X-1955087Y24940326D01*
X-2037943Y24881552D01*
X-2118646Y24824305D01*
X-2127611Y24817946D01*
X-2131753Y24813619D01*
X-2131759Y24813614D01*
X-2218806Y24722683D01*
X-2280361Y24687306D01*
X-2351270Y24690825D01*
X-2409021Y24732121D01*
X-2416968Y24743509D01*
X-2451522Y24799348D01*
X-2471342Y24819134D01*
X-2533869Y24881552D01*
X-2576697Y24924305D01*
X-2582928Y24928146D01*
X-2721032Y25013275D01*
X-2721034Y25013276D01*
X-2727262Y25017115D01*
X-2887746Y25070345D01*
X-2888611Y25070632D01*
X-2888613Y25070632D01*
X-2895139Y25072797D01*
X-2901975Y25073497D01*
X-2901978Y25073498D01*
X-2945031Y25077909D01*
X-2999600Y25083500D01*
X-3800400Y25083500D01*
X-3803646Y25083163D01*
X-3803650Y25083163D01*
X-3899308Y25073238D01*
X-3899312Y25073237D01*
X-3906166Y25072526D01*
X-3912702Y25070345D01*
X-3912704Y25070345D01*
X-4035787Y25029281D01*
X-4073946Y25016550D01*
X-4224348Y24923478D01*
X-4349305Y24798303D01*
X-4353145Y24792073D01*
X-4353146Y24792072D01*
X-4426835Y24672526D01*
X-4442115Y24647738D01*
X-4497797Y24479861D01*
X-4498497Y24473025D01*
X-4498498Y24473022D01*
X-4502909Y24429969D01*
X-4508500Y24375400D01*
X-4508500Y23024600D01*
X-4508163Y23021354D01*
X-4508163Y23021350D01*
X-4498463Y22927866D01*
X-4497526Y22918834D01*
X-4495345Y22912298D01*
X-4495345Y22912296D01*
X-4474758Y22850591D01*
X-4441550Y22751054D01*
X-4348478Y22600652D01*
X-4223303Y22475695D01*
X-4217075Y22471856D01*
X-4217070Y22471852D01*
X-4168383Y22441841D01*
X-4120890Y22389069D01*
X-4108500Y22334582D01*
X-4108500Y13379613D01*
X-4128502Y13311492D01*
X-4151920Y13284447D01*
X-4270302Y13181721D01*
X-4277445Y13175523D01*
X-4294128Y13155177D01*
X-4420240Y13001373D01*
X-4420244Y13001367D01*
X-4423624Y12997245D01*
X-4426262Y12992610D01*
X-4426265Y12992606D01*
X-4485767Y12888075D01*
X-4537675Y12796886D01*
X-4616337Y12580175D01*
X-4617286Y12574926D01*
X-4617287Y12574923D01*
X-4656623Y12357392D01*
X-4656624Y12357385D01*
X-4657361Y12353308D01*
X-4658500Y12329156D01*
X-4658500Y12288924D01*
X-4678502Y12220803D01*
X-4732158Y12174310D01*
X-4802432Y12164206D01*
X-4867012Y12193700D01*
X-4873595Y12199829D01*
X-7654595Y14980829D01*
X-7688621Y15043141D01*
X-7691500Y15069924D01*
X-7691500Y19065500D01*
X-7671498Y19133621D01*
X-7617842Y19180114D01*
X-7565500Y19191500D01*
X-7451866Y19191500D01*
X-7389684Y19198255D01*
X-7253295Y19249385D01*
X-7136739Y19336739D01*
X-7049385Y19453295D01*
X-6998255Y19589684D01*
X-6991500Y19651866D01*
X-6991500Y22148134D01*
X-6998255Y22210316D01*
X-7049385Y22346705D01*
X-7136739Y22463261D01*
X-7253295Y22550615D01*
X-7389684Y22601745D01*
X-7445560Y22607815D01*
X-7448469Y22608131D01*
X-7451866Y22608500D01*
X-9948134Y22608500D01*
X-9951531Y22608131D01*
X-9954440Y22607815D01*
X-10010316Y22601745D01*
X-10146705Y22550615D01*
X-10263261Y22463261D01*
X-10350615Y22346705D01*
X-10401745Y22210316D01*
X-10408500Y22148134D01*
X-10408500Y21678948D01*
X-10428502Y21610827D01*
X-10482158Y21564334D01*
X-10552432Y21554230D01*
X-10617012Y21583724D01*
X-10649171Y21629361D01*
X-10649901Y21629013D01*
X-10651916Y21633238D01*
X-10653609Y21637591D01*
X-10655927Y21641647D01*
X-10777298Y21854003D01*
X-10777300Y21854005D01*
X-10779617Y21858060D01*
X-10936829Y22057483D01*
X-11036805Y22151531D01*
X-11118390Y22228278D01*
X-11118392Y22228280D01*
X-11121791Y22231477D01*
X-11170939Y22265572D01*
X-11326607Y22373563D01*
X-11326610Y22373565D01*
X-11330439Y22376221D01*
X-11334616Y22378281D01*
X-11334623Y22378285D01*
X-11554004Y22486472D01*
X-11554008Y22486473D01*
X-11558190Y22488536D01*
X-11800040Y22565953D01*
X-11815667Y22568498D01*
X-12046065Y22606020D01*
X-12046066Y22606020D01*
X-12050677Y22606771D01*
X-12177635Y22608433D01*
X-12299917Y22610034D01*
X-12299920Y22610034D01*
X-12304594Y22610095D01*
X-12556213Y22575851D01*
X-12560699Y22574543D01*
X-12560701Y22574543D01*
X-12620614Y22557080D01*
X-12800007Y22504792D01*
X-12804260Y22502832D01*
X-12804261Y22502831D01*
X-12824625Y22493443D01*
X-13030620Y22398478D01*
X-13057483Y22380866D01*
X-13239072Y22261811D01*
X-13239077Y22261807D01*
X-13242985Y22259245D01*
X-13290523Y22216816D01*
X-13406219Y22113553D01*
X-13432438Y22090152D01*
X-13594817Y21894913D01*
X-13726553Y21677818D01*
X-13728362Y21673504D01*
X-13728363Y21673502D01*
X-13763168Y21590500D01*
X-13824754Y21443635D01*
X-13887262Y21197510D01*
X-13912704Y20944849D01*
X-13900520Y20691202D01*
X-13850979Y20442143D01*
X-13849400Y20437745D01*
X-13849398Y20437738D01*
X-13766752Y20207551D01*
X-13765169Y20203142D01*
X-13644975Y19979449D01*
X-13642180Y19975706D01*
X-13642178Y19975703D01*
X-13495829Y19779718D01*
X-13495824Y19779712D01*
X-13493037Y19775980D01*
X-13489728Y19772700D01*
X-13489723Y19772694D01*
X-13335040Y19619356D01*
X-13312693Y19597203D01*
X-13308931Y19594445D01*
X-13308928Y19594442D01*
X-13259995Y19558563D01*
X-13216887Y19502152D01*
X-13208500Y19456951D01*
X-13208500Y16285371D01*
X-13228502Y16217250D01*
X-13282158Y16170757D01*
X-13352432Y16160653D01*
X-13417012Y16190147D01*
X-13423595Y16196276D01*
X-16604595Y19377276D01*
X-16638621Y19439588D01*
X-16641500Y19466371D01*
X-16641500Y22463734D01*
X-16621498Y22531855D01*
X-16606523Y22550858D01*
X-16526119Y22634850D01*
X-16517107Y22648806D01*
X-16464345Y22730520D01*
X-16411380Y22812548D01*
X-16332314Y23008737D01*
X-16291772Y23216337D01*
X-16291500Y23221899D01*
X-16291500Y23927846D01*
X-16306548Y24085566D01*
X-16366092Y24288534D01*
X-16414635Y24382786D01*
X-16460196Y24471249D01*
X-16460198Y24471252D01*
X-16462942Y24476580D01*
X-16593604Y24642920D01*
X-16598135Y24646852D01*
X-16598138Y24646855D01*
X-16748833Y24777621D01*
X-16753363Y24781552D01*
X-16758549Y24784552D01*
X-16758553Y24784555D01*
X-16931258Y24884467D01*
X-16936454Y24887473D01*
X-17136271Y24956861D01*
X-17142206Y24957722D01*
X-17142208Y24957722D01*
X-17339664Y24986352D01*
X-17339667Y24986352D01*
X-17345604Y24987213D01*
X-17556899Y24977433D01*
X-17688077Y24945819D01*
X-17756701Y24929281D01*
X-17756703Y24929280D01*
X-17762534Y24927875D01*
X-17767992Y24925393D01*
X-17767996Y24925392D01*
X-17864416Y24881552D01*
X-17955087Y24840326D01*
X-18127611Y24717946D01*
X-18131753Y24713619D01*
X-18131759Y24713614D01*
X-18218806Y24622683D01*
X-18280361Y24587306D01*
X-18351270Y24590825D01*
X-18409021Y24632121D01*
X-18416968Y24643509D01*
X-18451522Y24699348D01*
X-18576697Y24824305D01*
X-18679174Y24887473D01*
X-18721032Y24913275D01*
X-18721034Y24913276D01*
X-18727262Y24917115D01*
X-18849689Y24957722D01*
X-18888611Y24970632D01*
X-18888613Y24970632D01*
X-18895139Y24972797D01*
X-18901975Y24973497D01*
X-18901978Y24973498D01*
X-18945031Y24977909D01*
X-18999600Y24983500D01*
X-19800400Y24983500D01*
X-19803646Y24983163D01*
X-19803650Y24983163D01*
X-19899308Y24973238D01*
X-19899312Y24973237D01*
X-19906166Y24972526D01*
X-19912702Y24970345D01*
X-19912704Y24970345D01*
X-20002681Y24940326D01*
X-20073946Y24916550D01*
X-20224348Y24823478D01*
X-20349305Y24698303D01*
X-20353145Y24692073D01*
X-20353146Y24692072D01*
X-20424336Y24576580D01*
X-20442115Y24547738D01*
X-20451602Y24519134D01*
X-20494920Y24388534D01*
X-20497797Y24379861D01*
X-20498497Y24373025D01*
X-20498498Y24373022D01*
X-20501253Y24346135D01*
X-20508500Y24275400D01*
X-20508500Y22924600D01*
X-20508163Y22921354D01*
X-20508163Y22921350D01*
X-20499734Y22840119D01*
X-20497526Y22818834D01*
X-20495345Y22812298D01*
X-20495345Y22812296D01*
X-20469507Y22734850D01*
X-20441550Y22651054D01*
X-20348478Y22500652D01*
X-20343296Y22495479D01*
X-20324425Y22476641D01*
X-20223303Y22375695D01*
X-20217072Y22371854D01*
X-20211327Y22367317D01*
X-20212377Y22365987D01*
X-20170892Y22319893D01*
X-20158500Y22265403D01*
X-20158500Y19667070D01*
X-20159933Y19648120D01*
X-20163199Y19626651D01*
X-20162606Y19619359D01*
X-20162606Y19619356D01*
X-20158915Y19573982D01*
X-20158500Y19563767D01*
X-20158500Y19555707D01*
X-20158075Y19552063D01*
X-20155211Y19527493D01*
X-20154778Y19523118D01*
X-20149782Y19461703D01*
X-20148860Y19450363D01*
X-20146604Y19443399D01*
X-20145413Y19437440D01*
X-20144029Y19431585D01*
X-20143182Y19424319D01*
X-20118265Y19355673D01*
X-20116848Y19351545D01*
X-20112051Y19336739D01*
X-20094351Y19282101D01*
X-20090555Y19275846D01*
X-20088049Y19270372D01*
X-20085330Y19264942D01*
X-20082833Y19258063D01*
X-20078820Y19251943D01*
X-20078820Y19251942D01*
X-20042814Y19197024D01*
X-20040477Y19193320D01*
X-20002595Y19130893D01*
X-19998879Y19126685D01*
X-19998878Y19126684D01*
X-19995197Y19122516D01*
X-19995224Y19122492D01*
X-19992571Y19119500D01*
X-19989868Y19116267D01*
X-19985856Y19110148D01*
X-19980544Y19105116D01*
X-19929617Y19056872D01*
X-19927175Y19054494D01*
X-11495405Y10622724D01*
X-11461379Y10560412D01*
X-11458500Y10533629D01*
X-11458500Y8472808D01*
X-11478502Y8404687D01*
X-11504103Y8377529D01*
X-11503317Y8376623D01*
X-11646134Y8252693D01*
X-11677445Y8225523D01*
X-11697248Y8201372D01*
X-11820240Y8051373D01*
X-11820244Y8051367D01*
X-11823624Y8047245D01*
X-11826262Y8042610D01*
X-11826265Y8042606D01*
X-11863037Y7978006D01*
X-11937675Y7846886D01*
X-12016337Y7630175D01*
X-12017286Y7624926D01*
X-12017287Y7624923D01*
X-12056623Y7407392D01*
X-12056624Y7407385D01*
X-12057361Y7403308D01*
X-12058500Y7379156D01*
X-12058500Y6967110D01*
X-12043920Y6795280D01*
X-12042582Y6790125D01*
X-12042581Y6790119D01*
X-11987343Y6577297D01*
X-11986001Y6572128D01*
X-11891312Y6361925D01*
X-11762559Y6170681D01*
X-11758880Y6166824D01*
X-11758878Y6166822D01*
X-11699652Y6104738D01*
X-11603424Y6003865D01*
X-11418458Y5866246D01*
X-11413707Y5863830D01*
X-11413703Y5863828D01*
X-11340327Y5826522D01*
X-11212949Y5761760D01*
X-11190636Y5754831D01*
X-11131513Y5715530D01*
X-11103022Y5650501D01*
X-11114212Y5580391D01*
X-11161529Y5527461D01*
X-11228002Y5508500D01*
X-13954809Y5508500D01*
X-13972554Y5509756D01*
X-13983060Y5511250D01*
X-13991596Y5512465D01*
X-13991597Y5512465D01*
X-14000482Y5513729D01*
X-14009368Y5512448D01*
X-14009371Y5512448D01*
X-14014785Y5511668D01*
X-14040787Y5510635D01*
X-14128716Y5516249D01*
X-14154518Y5517896D01*
X-14173688Y5520611D01*
X-14308857Y5550497D01*
X-14327379Y5556116D01*
X-14456355Y5606355D01*
X-14473806Y5614749D01*
X-14566226Y5668316D01*
X-14579916Y5678529D01*
X-14579982Y5678436D01*
X-14587316Y5683610D01*
X-14593844Y5689773D01*
X-14613693Y5699910D01*
X-14630811Y5710453D01*
X-23091089Y11904052D01*
X-23093994Y11906244D01*
X-23138286Y11940677D01*
X-23145376Y11946189D01*
X-23163342Y11953289D01*
X-23183575Y11963475D01*
X-23457247Y12133701D01*
X-23467611Y12140891D01*
X-23746060Y12355497D01*
X-23755656Y12363691D01*
X-24011233Y12605061D01*
X-24019961Y12614173D01*
X-24182239Y12801529D01*
X-24250118Y12879898D01*
X-24257888Y12889833D01*
X-24266867Y12902583D01*
X-24460314Y13177247D01*
X-24467054Y13187914D01*
X-24497708Y13242278D01*
X-24639720Y13494135D01*
X-24645356Y13505416D01*
X-24667802Y13556607D01*
X-24786528Y13827371D01*
X-24791009Y13839162D01*
X-24795612Y13853384D01*
X-24899271Y14173619D01*
X-24902551Y14185802D01*
X-24976817Y14529405D01*
X-24978862Y14541856D01*
X-25018391Y14891170D01*
X-25019180Y14903764D01*
X-25023572Y15255272D01*
X-25023098Y15267881D01*
X-24992311Y15618074D01*
X-24990578Y15630572D01*
X-24924919Y15975930D01*
X-24921944Y15988193D01*
X-24832454Y16290215D01*
X-24822664Y16314009D01*
X-24821728Y16315752D01*
X-24821726Y16315757D01*
X-24817482Y16323664D01*
X-24808473Y16366325D01*
X-24805506Y16377714D01*
X-23748487Y19775980D01*
X-22151053Y24911655D01*
X-22145610Y24926007D01*
X-22131461Y24957392D01*
X-22129826Y24969075D01*
X-22122846Y24996315D01*
X-22082379Y25102958D01*
X-22072005Y25124093D01*
X-22000976Y25239976D01*
X-21986843Y25258819D01*
X-21980752Y25265528D01*
X-21895492Y25359449D01*
X-21878101Y25375332D01*
X-21769612Y25457208D01*
X-21749567Y25469577D01*
X-21627744Y25529826D01*
X-21605747Y25538249D01*
X-21474835Y25574772D01*
X-21451655Y25578954D01*
X-21344663Y25588056D01*
X-21328611Y25587428D01*
X-21328598Y25588029D01*
X-21319616Y25587841D01*
X-21310763Y25586383D01*
X-21276379Y25590574D01*
X-21261135Y25591500D01*
X21249488Y25591500D01*
X21269323Y25589929D01*
G37*
G04 #@! TD.AperFunction*
G04 #@! TD*
M02*
