G04 #@! TF.GenerationSoftware,KiCad,Pcbnew,(6.0.11-0)*
G04 #@! TF.CreationDate,2023-05-22T21:08:55+12:00*
G04 #@! TF.ProjectId,head-interface,68656164-2d69-46e7-9465-72666163652e,rev?*
G04 #@! TF.SameCoordinates,PX5f5e100PY5f5e100*
G04 #@! TF.FileFunction,Legend,Bot*
G04 #@! TF.FilePolarity,Positive*
%FSLAX46Y46*%
G04 Gerber Fmt 4.6, Leading zero omitted, Abs format (unit mm)*
G04 Created by KiCad (PCBNEW (6.0.11-0)) date 2023-05-22 21:08:55*
%MOMM*%
%LPD*%
G01*
G04 APERTURE LIST*
%ADD10C,0.150000*%
G04 APERTURE END LIST*
D10*
X-8530953Y14597620D02*
X-8530953Y13883334D01*
X-8483334Y13740477D01*
X-8388096Y13645239D01*
X-8245239Y13597620D01*
X-8150000Y13597620D01*
X-9483334Y13597620D02*
X-9007143Y13597620D01*
X-9007143Y14597620D01*
X-10388096Y13692858D02*
X-10340477Y13645239D01*
X-10197620Y13597620D01*
X-10102381Y13597620D01*
X-9959524Y13645239D01*
X-9864286Y13740477D01*
X-9816667Y13835715D01*
X-9769048Y14026191D01*
X-9769048Y14169048D01*
X-9816667Y14359524D01*
X-9864286Y14454762D01*
X-9959524Y14550000D01*
X-10102381Y14597620D01*
X-10197620Y14597620D01*
X-10340477Y14550000D01*
X-10388096Y14502381D01*
X-11102381Y14597620D02*
X-11102381Y13883334D01*
X-11054762Y13740477D01*
X-10959524Y13645239D01*
X-10816667Y13597620D01*
X-10721429Y13597620D01*
X-12054762Y13597620D02*
X-11578572Y13597620D01*
X-11578572Y14597620D01*
X-12959524Y13692858D02*
X-12911905Y13645239D01*
X-12769048Y13597620D01*
X-12673810Y13597620D01*
X-12530953Y13645239D01*
X-12435715Y13740477D01*
X-12388096Y13835715D01*
X-12340477Y14026191D01*
X-12340477Y14169048D01*
X-12388096Y14359524D01*
X-12435715Y14454762D01*
X-12530953Y14550000D01*
X-12673810Y14597620D01*
X-12769048Y14597620D01*
X-12911905Y14550000D01*
X-12959524Y14502381D01*
X-13673810Y14597620D02*
X-13673810Y13883334D01*
X-13626191Y13740477D01*
X-13530953Y13645239D01*
X-13388096Y13597620D01*
X-13292858Y13597620D01*
X-14626191Y13597620D02*
X-14150000Y13597620D01*
X-14150000Y14597620D01*
X-15530953Y13692858D02*
X-15483334Y13645239D01*
X-15340477Y13597620D01*
X-15245239Y13597620D01*
X-15102381Y13645239D01*
X-15007143Y13740477D01*
X-14959524Y13835715D01*
X-14911905Y14026191D01*
X-14911905Y14169048D01*
X-14959524Y14359524D01*
X-15007143Y14454762D01*
X-15102381Y14550000D01*
X-15245239Y14597620D01*
X-15340477Y14597620D01*
X-15483334Y14550000D01*
X-15530953Y14502381D01*
X-16245239Y14597620D02*
X-16245239Y13883334D01*
X-16197620Y13740477D01*
X-16102381Y13645239D01*
X-15959524Y13597620D01*
X-15864286Y13597620D01*
X-17197620Y13597620D02*
X-16721429Y13597620D01*
X-16721429Y14597620D01*
X-18102381Y13692858D02*
X-18054762Y13645239D01*
X-17911905Y13597620D01*
X-17816667Y13597620D01*
X-17673810Y13645239D01*
X-17578572Y13740477D01*
X-17530953Y13835715D01*
X-17483334Y14026191D01*
X-17483334Y14169048D01*
X-17530953Y14359524D01*
X-17578572Y14454762D01*
X-17673810Y14550000D01*
X-17816667Y14597620D01*
X-17911905Y14597620D01*
X-18054762Y14550000D01*
X-18102381Y14502381D01*
M02*
