G04 #@! TF.GenerationSoftware,KiCad,Pcbnew,(6.0.11-0)*
G04 #@! TF.CreationDate,2023-05-22T15:58:53+12:00*
G04 #@! TF.ProjectId,head-interface,68656164-2d69-46e7-9465-72666163652e,rev?*
G04 #@! TF.SameCoordinates,PX5f5e100PY5f5e100*
G04 #@! TF.FileFunction,Copper,L2,Bot*
G04 #@! TF.FilePolarity,Positive*
%FSLAX46Y46*%
G04 Gerber Fmt 4.6, Leading zero omitted, Abs format (unit mm)*
G04 Created by KiCad (PCBNEW (6.0.11-0)) date 2023-05-22 15:58:53*
%MOMM*%
%LPD*%
G01*
G04 APERTURE LIST*
G04 Aperture macros list*
%AMRoundRect*
0 Rectangle with rounded corners*
0 $1 Rounding radius*
0 $2 $3 $4 $5 $6 $7 $8 $9 X,Y pos of 4 corners*
0 Add a 4 corners polygon primitive as box body*
4,1,4,$2,$3,$4,$5,$6,$7,$8,$9,$2,$3,0*
0 Add four circle primitives for the rounded corners*
1,1,$1+$1,$2,$3*
1,1,$1+$1,$4,$5*
1,1,$1+$1,$6,$7*
1,1,$1+$1,$8,$9*
0 Add four rect primitives between the rounded corners*
20,1,$1+$1,$2,$3,$4,$5,0*
20,1,$1+$1,$4,$5,$6,$7,0*
20,1,$1+$1,$6,$7,$8,$9,0*
20,1,$1+$1,$8,$9,$2,$3,0*%
G04 Aperture macros list end*
G04 #@! TA.AperFunction,ComponentPad*
%ADD10RoundRect,0.250000X0.600000X0.725000X-0.600000X0.725000X-0.600000X-0.725000X0.600000X-0.725000X0*%
G04 #@! TD*
G04 #@! TA.AperFunction,ComponentPad*
%ADD11O,1.700000X1.950000*%
G04 #@! TD*
G04 #@! TA.AperFunction,ComponentPad*
%ADD12RoundRect,0.316176X0.758824X0.758824X-0.758824X0.758824X-0.758824X-0.758824X0.758824X-0.758824X0*%
G04 #@! TD*
G04 #@! TA.AperFunction,ComponentPad*
%ADD13O,2.000000X2.300000*%
G04 #@! TD*
G04 #@! TA.AperFunction,ComponentPad*
%ADD14RoundRect,0.250000X-0.350000X-0.625000X0.350000X-0.625000X0.350000X0.625000X-0.350000X0.625000X0*%
G04 #@! TD*
G04 #@! TA.AperFunction,ComponentPad*
%ADD15O,1.200000X1.750000*%
G04 #@! TD*
G04 #@! TA.AperFunction,ComponentPad*
%ADD16C,6.000000*%
G04 #@! TD*
G04 #@! TA.AperFunction,ComponentPad*
%ADD17R,2.400000X2.400000*%
G04 #@! TD*
G04 #@! TA.AperFunction,ComponentPad*
%ADD18C,2.400000*%
G04 #@! TD*
G04 #@! TA.AperFunction,ViaPad*
%ADD19C,0.800000*%
G04 #@! TD*
G04 #@! TA.AperFunction,Conductor*
%ADD20C,0.500000*%
G04 #@! TD*
G04 #@! TA.AperFunction,Conductor*
%ADD21C,1.000000*%
G04 #@! TD*
G04 APERTURE END LIST*
D10*
G04 #@! TO.P,J3,1,Pin_1*
G04 #@! TO.N,Net-(J3-Pad1)*
X10825000Y8950000D03*
D11*
G04 #@! TO.P,J3,2,Pin_2*
G04 #@! TO.N,Net-(J3-Pad2)*
X8325000Y8950000D03*
G04 #@! TO.P,J3,3,Pin_3*
G04 #@! TO.N,Net-(J3-Pad3)*
X5825000Y8950000D03*
G04 #@! TO.P,J3,4,Pin_4*
G04 #@! TO.N,Net-(J3-Pad4)*
X3325000Y8950000D03*
G04 #@! TD*
D12*
G04 #@! TO.P,J1,1,Pin_1*
G04 #@! TO.N,Net-(J1-Pad1)*
X-3200000Y8950000D03*
D13*
G04 #@! TO.P,J1,2,Pin_2*
G04 #@! TO.N,Net-(J1-Pad2)*
X-5700000Y8950000D03*
D11*
G04 #@! TO.P,J1,3,Pin_3*
G04 #@! TO.N,Net-(J1-Pad3)*
X-8200000Y8950000D03*
G04 #@! TO.P,J1,4,Pin_4*
G04 #@! TO.N,Net-(J1-Pad4)*
X-10700000Y8950000D03*
G04 #@! TD*
D10*
G04 #@! TO.P,J8,1,Pin_1*
G04 #@! TO.N,Net-(J3-Pad1)*
X19100000Y23200000D03*
D11*
G04 #@! TO.P,J8,2,Pin_2*
G04 #@! TO.N,Net-(J3-Pad2)*
X16600000Y23200000D03*
G04 #@! TO.P,J8,3,Pin_3*
G04 #@! TO.N,Net-(J3-Pad3)*
X14100000Y23200000D03*
G04 #@! TO.P,J8,4,Pin_4*
G04 #@! TO.N,Net-(J3-Pad4)*
X11600000Y23200000D03*
G04 #@! TD*
D14*
G04 #@! TO.P,J6,1,Pin_1*
G04 #@! TO.N,Net-(J2-Pad2)*
X3800000Y23700000D03*
D15*
G04 #@! TO.P,J6,2,Pin_2*
G04 #@! TO.N,Net-(J2-Pad1)*
X5800000Y23700000D03*
G04 #@! TD*
D16*
G04 #@! TO.P,H2,1,1*
G04 #@! TO.N,GND*
X22000000Y15100000D03*
G04 #@! TD*
D14*
G04 #@! TO.P,J7,1,Pin_1*
G04 #@! TO.N,Net-(J2-Pad4)*
X-3400000Y23700000D03*
D15*
G04 #@! TO.P,J7,2,Pin_2*
G04 #@! TO.N,Net-(J2-Pad3)*
X-1400000Y23700000D03*
G04 #@! TD*
D17*
G04 #@! TO.P,J5,1,Pin_1*
G04 #@! TO.N,Net-(J1-Pad1)*
X-8700000Y20900000D03*
D18*
G04 #@! TO.P,J5,2,Pin_2*
G04 #@! TO.N,Net-(J1-Pad2)*
X-12200000Y20900000D03*
G04 #@! TD*
D14*
G04 #@! TO.P,J4,1,Pin_1*
G04 #@! TO.N,Net-(J1-Pad4)*
X-19400000Y23700000D03*
D15*
G04 #@! TO.P,J4,2,Pin_2*
G04 #@! TO.N,Net-(J1-Pad3)*
X-17400000Y23700000D03*
G04 #@! TD*
D16*
G04 #@! TO.P,H1,1,1*
G04 #@! TO.N,GND*
X-22000000Y15100000D03*
G04 #@! TD*
D10*
G04 #@! TO.P,J2,1,Pin_1*
G04 #@! TO.N,Net-(J2-Pad1)*
X4200000Y13900000D03*
D11*
G04 #@! TO.P,J2,2,Pin_2*
G04 #@! TO.N,Net-(J2-Pad2)*
X1700000Y13900000D03*
G04 #@! TO.P,J2,3,Pin_3*
G04 #@! TO.N,Net-(J2-Pad3)*
X-800000Y13900000D03*
G04 #@! TO.P,J2,4,Pin_4*
G04 #@! TO.N,Net-(J2-Pad4)*
X-3300000Y13900000D03*
G04 #@! TD*
D19*
G04 #@! TO.N,GND*
X2650000Y11750000D03*
X21250000Y24775000D03*
X-7125000Y16425000D03*
X-14175000Y7650000D03*
X12900000Y10600000D03*
X14125000Y7650000D03*
X-14550000Y24775000D03*
X9775000Y19000000D03*
X-15400000Y19775000D03*
X-16350000Y15000000D03*
X-2525000Y11725000D03*
X-13650000Y18250000D03*
X8425000Y24775000D03*
X-50000Y16700000D03*
X7550000Y16775000D03*
X2450000Y16700000D03*
X-12775000Y10600000D03*
X-25000Y7650000D03*
X-20950000Y24775000D03*
X-6200000Y24775000D03*
X-5375000Y15425000D03*
G04 #@! TD*
D20*
G04 #@! TO.N,Net-(J2-Pad3)*
X-1400000Y23700000D02*
X-1400000Y14500000D01*
X-1400000Y14500000D02*
X-800000Y13900000D01*
G04 #@! TO.N,Net-(J2-Pad4)*
X-3400000Y14000000D02*
X-3300000Y13900000D01*
X-3400000Y23700000D02*
X-3400000Y14000000D01*
G04 #@! TO.N,Net-(J1-Pad4)*
X-10700000Y11200000D02*
X-19400000Y19900000D01*
X-19400000Y19900000D02*
X-19400000Y23700000D01*
X-10700000Y8950000D02*
X-10700000Y11200000D01*
G04 #@! TO.N,Net-(J1-Pad3)*
X-17400000Y19500000D02*
X-17400000Y23700000D01*
X-8200000Y8950000D02*
X-8200000Y10300000D01*
X-8200000Y10300000D02*
X-17400000Y19500000D01*
D21*
G04 #@! TO.N,Net-(J1-Pad1)*
X-8700000Y15800000D02*
X-8700000Y20900000D01*
X-3200000Y10300000D02*
X-8700000Y15800000D01*
X-3200000Y8950000D02*
X-3200000Y10300000D01*
G04 #@! TO.N,Net-(J1-Pad2)*
X-5700000Y10400000D02*
X-12200000Y16900000D01*
X-5700000Y8950000D02*
X-5700000Y10400000D01*
X-12200000Y16900000D02*
X-12200000Y20900000D01*
G04 #@! TO.N,Net-(J3-Pad1)*
X10825000Y11325000D02*
X19150000Y19650000D01*
X19150000Y19650000D02*
X19150000Y23150000D01*
X10825000Y8950000D02*
X10825000Y11325000D01*
X19150000Y23150000D02*
X19100000Y23200000D01*
G04 #@! TO.N,Net-(J3-Pad2)*
X8325000Y10825000D02*
X16650000Y19150000D01*
X8325000Y8950000D02*
X8325000Y10825000D01*
X16650000Y23150000D02*
X16600000Y23200000D01*
X16650000Y19150000D02*
X16650000Y23150000D01*
G04 #@! TO.N,Net-(J3-Pad3)*
X14150000Y23150000D02*
X14100000Y23200000D01*
X14150000Y18650000D02*
X14150000Y23150000D01*
X5825000Y10325000D02*
X14150000Y18650000D01*
X5825000Y8950000D02*
X5825000Y10325000D01*
G04 #@! TO.N,Net-(J3-Pad4)*
X11650000Y18150000D02*
X11650000Y23150000D01*
X3325000Y9825000D02*
X11650000Y18150000D01*
X3325000Y8950000D02*
X3325000Y9825000D01*
X11650000Y23150000D02*
X11600000Y23200000D01*
D20*
G04 #@! TO.N,Net-(J2-Pad1)*
X5800000Y15500000D02*
X5800000Y23700000D01*
X4200000Y13900000D02*
X5800000Y15500000D01*
G04 #@! TO.N,Net-(J2-Pad2)*
X1800000Y13900000D02*
X3800000Y15900000D01*
X1700000Y13900000D02*
X1800000Y13900000D01*
X3800000Y15900000D02*
X3800000Y23700000D01*
G04 #@! TD*
G04 #@! TA.AperFunction,Conductor*
G04 #@! TO.N,GND*
G36*
X21269323Y25589929D02*
G01*
X21291869Y25586335D01*
X21300769Y25587466D01*
X21300772Y25587466D01*
X21303847Y25587857D01*
X21331740Y25588288D01*
X21446549Y25577296D01*
X21469251Y25572994D01*
X21601407Y25535114D01*
X21622933Y25526739D01*
X21745936Y25465362D01*
X21765579Y25453192D01*
X21875303Y25370379D01*
X21892388Y25354829D01*
X21985139Y25253369D01*
X21999098Y25234959D01*
X22035428Y25176609D01*
X22071755Y25118264D01*
X22082120Y25097606D01*
X22091834Y25072797D01*
X22113858Y25016550D01*
X22121709Y24996498D01*
X22125715Y24980810D01*
X22126242Y24980955D01*
X22128629Y24972299D01*
X22129765Y24963399D01*
X22133352Y24955176D01*
X22133353Y24955174D01*
X22145093Y24928264D01*
X22149919Y24915303D01*
X24804306Y16381570D01*
X24807597Y16368595D01*
X24813511Y16338692D01*
X24813514Y16338683D01*
X24815255Y16329881D01*
X24823514Y16314009D01*
X24824094Y16312894D01*
X24832731Y16291840D01*
X24927698Y15983546D01*
X24930842Y15971122D01*
X24999665Y15626250D01*
X25001531Y15613561D01*
X25034935Y15263496D01*
X25035502Y15250683D01*
X25034926Y15164823D01*
X25033143Y14899027D01*
X25032404Y14886222D01*
X24996864Y14560085D01*
X24994309Y14536642D01*
X24992273Y14523978D01*
X24918829Y14180061D01*
X24915515Y14167671D01*
X24807493Y13833014D01*
X24802941Y13821032D01*
X24664235Y13505416D01*
X24661454Y13499088D01*
X24655703Y13487624D01*
X24654064Y13484734D01*
X24494347Y13203114D01*
X24482214Y13181721D01*
X24475337Y13170917D01*
X24271955Y12884671D01*
X24271654Y12884247D01*
X24263703Y12874183D01*
X24031921Y12609695D01*
X24022987Y12600492D01*
X23970670Y12551815D01*
X23765529Y12360948D01*
X23755722Y12352714D01*
X23594426Y12230724D01*
X23475236Y12140580D01*
X23464626Y12133374D01*
X23195159Y11969757D01*
X23171819Y11958684D01*
X23161609Y11955069D01*
X23132060Y11933759D01*
X23119780Y11925941D01*
X14858212Y7314833D01*
X14588695Y7164405D01*
X14573837Y7157342D01*
X14544446Y7145657D01*
X14537373Y7140135D01*
X14537370Y7140133D01*
X14532391Y7136246D01*
X14510892Y7122711D01*
X14428261Y7081679D01*
X14411493Y7074807D01*
X14299796Y7038169D01*
X14282215Y7033774D01*
X14166423Y7013539D01*
X14148396Y7011711D01*
X14063270Y7009237D01*
X14045871Y7010705D01*
X14037114Y7011188D01*
X14028309Y7012949D01*
X14019366Y7012168D01*
X14019364Y7012168D01*
X13982841Y7008978D01*
X13971878Y7008500D01*
X-13954787Y7008500D01*
X-13972537Y7009756D01*
X-13991581Y7012466D01*
X-13991583Y7012466D01*
X-14000466Y7013730D01*
X-14016892Y7011363D01*
X-14041329Y7010240D01*
X-14124628Y7014526D01*
X-14141098Y7015373D01*
X-14157237Y7017253D01*
X-14281638Y7039948D01*
X-14297403Y7043889D01*
X-14402937Y7077637D01*
X-14417851Y7082406D01*
X-14432976Y7088343D01*
X-14516904Y7127707D01*
X-14537263Y7140135D01*
X-14539734Y7141534D01*
X-14546837Y7147019D01*
X-14574689Y7157920D01*
X-14590173Y7165230D01*
X-23109821Y11920382D01*
X-23125747Y11930929D01*
X-23129396Y11933766D01*
X-23145376Y11946189D01*
X-23163342Y11953289D01*
X-23183575Y11963475D01*
X-23457247Y12133701D01*
X-23467611Y12140891D01*
X-23746060Y12355497D01*
X-23755656Y12363691D01*
X-24011233Y12605061D01*
X-24019961Y12614173D01*
X-24199084Y12820977D01*
X-24250118Y12879898D01*
X-24257888Y12889833D01*
X-24266489Y12902046D01*
X-24460314Y13177247D01*
X-24467054Y13187914D01*
X-24547111Y13329894D01*
X-24639720Y13494135D01*
X-24645356Y13505416D01*
X-24662835Y13545280D01*
X-24786528Y13827371D01*
X-24791009Y13839162D01*
X-24795612Y13853384D01*
X-24899271Y14173619D01*
X-24902551Y14185802D01*
X-24976817Y14529405D01*
X-24978862Y14541856D01*
X-25018391Y14891170D01*
X-25019180Y14903764D01*
X-25019490Y14928616D01*
X-25022639Y15180568D01*
X-25023572Y15255272D01*
X-25023098Y15267881D01*
X-24992311Y15618074D01*
X-24990578Y15630572D01*
X-24924919Y15975930D01*
X-24921944Y15988193D01*
X-24864865Y16180829D01*
X-24832453Y16290217D01*
X-24822664Y16314009D01*
X-24821728Y16315752D01*
X-24821726Y16315757D01*
X-24817482Y16323664D01*
X-24808473Y16366325D01*
X-24805506Y16377714D01*
X-23858431Y19422516D01*
X-22738015Y23024600D01*
X-20508500Y23024600D01*
X-20497526Y22918834D01*
X-20495345Y22912298D01*
X-20495345Y22912296D01*
X-20474758Y22850591D01*
X-20441550Y22751054D01*
X-20348478Y22600652D01*
X-20223303Y22475695D01*
X-20217072Y22471854D01*
X-20211327Y22467317D01*
X-20212377Y22465987D01*
X-20170892Y22419893D01*
X-20158500Y22365403D01*
X-20158500Y19967070D01*
X-20159933Y19948120D01*
X-20163199Y19926651D01*
X-20162606Y19919359D01*
X-20162606Y19919356D01*
X-20158915Y19873982D01*
X-20158500Y19863767D01*
X-20158500Y19855707D01*
X-20158075Y19852063D01*
X-20155211Y19827493D01*
X-20154778Y19823118D01*
X-20150676Y19772694D01*
X-20148860Y19750363D01*
X-20146604Y19743399D01*
X-20145413Y19737440D01*
X-20144029Y19731585D01*
X-20143182Y19724319D01*
X-20118265Y19655673D01*
X-20116848Y19651545D01*
X-20096822Y19589730D01*
X-20094351Y19582101D01*
X-20090555Y19575846D01*
X-20088049Y19570372D01*
X-20085330Y19564942D01*
X-20082833Y19558063D01*
X-20078820Y19551943D01*
X-20078820Y19551942D01*
X-20042814Y19497024D01*
X-20040477Y19493320D01*
X-20002595Y19430893D01*
X-19998879Y19426685D01*
X-19998878Y19426684D01*
X-19995197Y19422516D01*
X-19995224Y19422492D01*
X-19992571Y19419500D01*
X-19989868Y19416267D01*
X-19985856Y19410148D01*
X-19980544Y19405116D01*
X-19929617Y19356872D01*
X-19927175Y19354494D01*
X-11495405Y10922724D01*
X-11461379Y10860412D01*
X-11458500Y10833629D01*
X-11458500Y10272808D01*
X-11478502Y10204687D01*
X-11504103Y10177529D01*
X-11503317Y10176623D01*
X-11671708Y10030501D01*
X-11677445Y10025523D01*
X-11695616Y10003362D01*
X-11820240Y9851373D01*
X-11820244Y9851367D01*
X-11823624Y9847245D01*
X-11826262Y9842610D01*
X-11826265Y9842606D01*
X-11863037Y9778006D01*
X-11937675Y9646886D01*
X-12016337Y9430175D01*
X-12017286Y9424926D01*
X-12017287Y9424923D01*
X-12056623Y9207392D01*
X-12056624Y9207385D01*
X-12057361Y9203308D01*
X-12058500Y9179156D01*
X-12058500Y8767110D01*
X-12043920Y8595280D01*
X-12042582Y8590125D01*
X-12042581Y8590119D01*
X-11987343Y8377297D01*
X-11986001Y8372128D01*
X-11891312Y8161925D01*
X-11762559Y7970681D01*
X-11758880Y7966824D01*
X-11758878Y7966822D01*
X-11699652Y7904738D01*
X-11603424Y7803865D01*
X-11418458Y7666246D01*
X-11413707Y7663830D01*
X-11413703Y7663828D01*
X-11340327Y7626522D01*
X-11212949Y7561760D01*
X-11207855Y7560178D01*
X-11207852Y7560177D01*
X-11007980Y7498115D01*
X-10992773Y7493393D01*
X-10987484Y7492692D01*
X-10769511Y7463802D01*
X-10769506Y7463802D01*
X-10764226Y7463102D01*
X-10758897Y7463302D01*
X-10758895Y7463302D01*
X-10649034Y7467427D01*
X-10533842Y7471751D01*
X-10511198Y7476502D01*
X-10313428Y7517998D01*
X-10308209Y7519093D01*
X-10303250Y7521051D01*
X-10303248Y7521052D01*
X-10098744Y7601815D01*
X-10098742Y7601816D01*
X-10093779Y7603776D01*
X-10083650Y7609922D01*
X-9901243Y7720610D01*
X-9901244Y7720610D01*
X-9896683Y7723377D01*
X-9856866Y7757928D01*
X-9726588Y7870977D01*
X-9726586Y7870979D01*
X-9722555Y7874477D01*
X-9658952Y7952046D01*
X-9579760Y8048627D01*
X-9579756Y8048633D01*
X-9576376Y8052755D01*
X-9558448Y8084250D01*
X-9507368Y8133555D01*
X-9437738Y8147417D01*
X-9371667Y8121434D01*
X-9344427Y8092284D01*
X-9262559Y7970681D01*
X-9258880Y7966824D01*
X-9258878Y7966822D01*
X-9199652Y7904738D01*
X-9103424Y7803865D01*
X-8918458Y7666246D01*
X-8913707Y7663830D01*
X-8913703Y7663828D01*
X-8840327Y7626522D01*
X-8712949Y7561760D01*
X-8707855Y7560178D01*
X-8707852Y7560177D01*
X-8507980Y7498115D01*
X-8492773Y7493393D01*
X-8487484Y7492692D01*
X-8269511Y7463802D01*
X-8269506Y7463802D01*
X-8264226Y7463102D01*
X-8258897Y7463302D01*
X-8258895Y7463302D01*
X-8149034Y7467427D01*
X-8033842Y7471751D01*
X-8011198Y7476502D01*
X-7813428Y7517998D01*
X-7808209Y7519093D01*
X-7803250Y7521051D01*
X-7803248Y7521052D01*
X-7598744Y7601815D01*
X-7598742Y7601816D01*
X-7593779Y7603776D01*
X-7583650Y7609922D01*
X-7401243Y7720610D01*
X-7401244Y7720610D01*
X-7396683Y7723377D01*
X-7356866Y7757928D01*
X-7226588Y7870977D01*
X-7226586Y7870979D01*
X-7222555Y7874477D01*
X-7219169Y7878606D01*
X-7219168Y7878607D01*
X-7170813Y7937581D01*
X-7150930Y7961829D01*
X-7092272Y8001823D01*
X-7021301Y8003755D01*
X-6960553Y7967011D01*
X-6946877Y7949081D01*
X-6914528Y7897712D01*
X-6911833Y7893433D01*
X-6871633Y7847834D01*
X-6754650Y7715142D01*
X-6754647Y7715139D01*
X-6751302Y7711345D01*
X-6747394Y7708135D01*
X-6747393Y7708134D01*
X-6569193Y7561760D01*
X-6563722Y7557266D01*
X-6559354Y7554724D01*
X-6402276Y7463302D01*
X-6353922Y7435159D01*
X-6349199Y7433346D01*
X-6132022Y7349980D01*
X-6132018Y7349979D01*
X-6127298Y7348167D01*
X-6122348Y7347133D01*
X-6122345Y7347132D01*
X-5894631Y7299560D01*
X-5894627Y7299560D01*
X-5889680Y7298526D01*
X-5647183Y7287514D01*
X-5642163Y7288095D01*
X-5642159Y7288095D01*
X-5411071Y7314833D01*
X-5411067Y7314834D01*
X-5406044Y7315415D01*
X-5401180Y7316791D01*
X-5401177Y7316792D01*
X-5239734Y7362476D01*
X-5172468Y7381510D01*
X-5167892Y7383644D01*
X-5167886Y7383646D01*
X-4957046Y7481962D01*
X-4957042Y7481964D01*
X-4952464Y7484099D01*
X-4751693Y7620544D01*
X-4748020Y7624017D01*
X-4748008Y7624027D01*
X-4740989Y7630665D01*
X-4677751Y7662936D01*
X-4607104Y7655894D01*
X-4556221Y7618066D01*
X-4545397Y7604603D01*
X-4540080Y7600328D01*
X-4540079Y7600327D01*
X-4441480Y7521052D01*
X-4405755Y7492329D01*
X-4245262Y7412659D01*
X-4071405Y7369312D01*
X-4050999Y7367921D01*
X-4032304Y7366646D01*
X-4032293Y7366646D01*
X-4030157Y7366500D01*
X-3200387Y7366500D01*
X-2369844Y7366501D01*
X-2338809Y7368616D01*
X-2334141Y7368934D01*
X-2334140Y7368934D01*
X-2328595Y7369312D01*
X-2154738Y7412659D01*
X-1994245Y7492329D01*
X-1916640Y7554724D01*
X-1859915Y7600332D01*
X-1854603Y7604603D01*
X-1840733Y7621854D01*
X-1746603Y7738929D01*
X-1746602Y7738930D01*
X-1742329Y7744245D01*
X-1666981Y7896032D01*
X-1665692Y7898628D01*
X-1662659Y7904738D01*
X-1619312Y8078595D01*
X-1616500Y8119843D01*
X-1616501Y9780156D01*
X-1619312Y9821405D01*
X-1662659Y9995262D01*
X-1742329Y10155755D01*
X-1747015Y10161584D01*
X-1850332Y10290085D01*
X-1854603Y10295397D01*
X-1953228Y10374693D01*
X-1988929Y10403397D01*
X-1988930Y10403398D01*
X-1994245Y10407671D01*
X-2154738Y10487341D01*
X-2154362Y10488099D01*
X-2206888Y10527051D01*
X-2226983Y10566598D01*
X-2232777Y10585788D01*
X-2233150Y10587048D01*
X-2257371Y10670417D01*
X-2257372Y10670420D01*
X-2259091Y10676336D01*
X-2261544Y10681068D01*
X-2263084Y10686169D01*
X-2287851Y10732750D01*
X-2306731Y10768260D01*
X-2307343Y10769426D01*
X-2347271Y10846453D01*
X-2350108Y10851926D01*
X-2353431Y10856089D01*
X-2355934Y10860796D01*
X-2414739Y10932898D01*
X-2415567Y10933925D01*
X-2444531Y10970208D01*
X-2444536Y10970213D01*
X-2446738Y10972972D01*
X-2449239Y10975473D01*
X-2449881Y10976191D01*
X-2453594Y10980539D01*
X-2461358Y10990059D01*
X-2480935Y11014062D01*
X-2485677Y11017985D01*
X-2485679Y11017987D01*
X-2516273Y11043297D01*
X-2525053Y11051287D01*
X-3704490Y12230724D01*
X-3738516Y12293036D01*
X-3733451Y12363851D01*
X-3690904Y12420687D01*
X-3624384Y12445498D01*
X-3592798Y12443203D01*
X-3592773Y12443393D01*
X-3522670Y12434102D01*
X-3369511Y12413802D01*
X-3369506Y12413802D01*
X-3364226Y12413102D01*
X-3358897Y12413302D01*
X-3358895Y12413302D01*
X-3249034Y12417427D01*
X-3133842Y12421751D01*
X-3111198Y12426502D01*
X-2913428Y12467998D01*
X-2908209Y12469093D01*
X-2903250Y12471051D01*
X-2903248Y12471052D01*
X-2698744Y12551815D01*
X-2698742Y12551816D01*
X-2693779Y12553776D01*
X-2657657Y12575695D01*
X-2501243Y12670610D01*
X-2501244Y12670610D01*
X-2496683Y12673377D01*
X-2424289Y12736197D01*
X-2326588Y12820977D01*
X-2326586Y12820979D01*
X-2322555Y12824477D01*
X-2258952Y12902046D01*
X-2179760Y12998627D01*
X-2179756Y12998633D01*
X-2176376Y13002755D01*
X-2158448Y13034250D01*
X-2107368Y13083555D01*
X-2037738Y13097417D01*
X-1971667Y13071434D01*
X-1944427Y13042284D01*
X-1862559Y12920681D01*
X-1858880Y12916824D01*
X-1858878Y12916822D01*
X-1828207Y12884671D01*
X-1703424Y12753865D01*
X-1518458Y12616246D01*
X-1513707Y12613830D01*
X-1513703Y12613828D01*
X-1448871Y12580866D01*
X-1312949Y12511760D01*
X-1307855Y12510178D01*
X-1307852Y12510177D01*
X-1107980Y12448115D01*
X-1092773Y12443393D01*
X-1087484Y12442692D01*
X-869511Y12413802D01*
X-869506Y12413802D01*
X-864226Y12413102D01*
X-858897Y12413302D01*
X-858895Y12413302D01*
X-749034Y12417427D01*
X-633842Y12421751D01*
X-611198Y12426502D01*
X-413428Y12467998D01*
X-408209Y12469093D01*
X-403250Y12471051D01*
X-403248Y12471052D01*
X-198744Y12551815D01*
X-198742Y12551816D01*
X-193779Y12553776D01*
X-157657Y12575695D01*
X-1243Y12670610D01*
X-1244Y12670610D01*
X3317Y12673377D01*
X75711Y12736197D01*
X173412Y12820977D01*
X173414Y12820979D01*
X177445Y12824477D01*
X241048Y12902046D01*
X320240Y12998627D01*
X320244Y12998633D01*
X323624Y13002755D01*
X341552Y13034250D01*
X392632Y13083555D01*
X462262Y13097417D01*
X528333Y13071434D01*
X555573Y13042284D01*
X637441Y12920681D01*
X641120Y12916824D01*
X641122Y12916822D01*
X671793Y12884671D01*
X796576Y12753865D01*
X981542Y12616246D01*
X986293Y12613830D01*
X986297Y12613828D01*
X1051129Y12580866D01*
X1187051Y12511760D01*
X1192145Y12510178D01*
X1192148Y12510177D01*
X1392020Y12448115D01*
X1407227Y12443393D01*
X1412516Y12442692D01*
X1630489Y12413802D01*
X1630494Y12413802D01*
X1635774Y12413102D01*
X1641103Y12413302D01*
X1641105Y12413302D01*
X1750966Y12417427D01*
X1866158Y12421751D01*
X1888802Y12426502D01*
X2086572Y12467998D01*
X2091791Y12469093D01*
X2096750Y12471051D01*
X2096752Y12471052D01*
X2301256Y12551815D01*
X2301258Y12551816D01*
X2306221Y12553776D01*
X2342343Y12575695D01*
X2498757Y12670610D01*
X2498756Y12670610D01*
X2503317Y12673377D01*
X2575711Y12736197D01*
X2673412Y12820977D01*
X2673414Y12820979D01*
X2677445Y12824477D01*
X2706670Y12860120D01*
X2765329Y12900114D01*
X2836299Y12902046D01*
X2897048Y12865302D01*
X2911248Y12846532D01*
X3001522Y12700652D01*
X3126697Y12575695D01*
X3132927Y12571855D01*
X3132928Y12571854D01*
X3226496Y12514178D01*
X3277262Y12482885D01*
X3312938Y12471052D01*
X3438611Y12429368D01*
X3438613Y12429368D01*
X3445139Y12427203D01*
X3451975Y12426503D01*
X3451978Y12426502D01*
X3487663Y12422846D01*
X3549600Y12416500D01*
X4186076Y12416500D01*
X4254197Y12396498D01*
X4300690Y12342842D01*
X4310794Y12272568D01*
X4281300Y12207988D01*
X4275171Y12201405D01*
X2655621Y10581855D01*
X2645478Y10572753D01*
X2615975Y10549032D01*
X2612008Y10544304D01*
X2583709Y10510579D01*
X2580528Y10506931D01*
X2578885Y10505119D01*
X2576691Y10502925D01*
X2549358Y10469651D01*
X2548696Y10468853D01*
X2488846Y10397526D01*
X2486278Y10392856D01*
X2482897Y10388739D01*
X2457101Y10340629D01*
X2439023Y10306914D01*
X2438394Y10305755D01*
X2396538Y10229619D01*
X2396535Y10229611D01*
X2393567Y10224213D01*
X2391955Y10219131D01*
X2389438Y10214437D01*
X2362238Y10125469D01*
X2361918Y10124441D01*
X2333765Y10035694D01*
X2333242Y10031030D01*
X2332991Y10030501D01*
X2331825Y10025994D01*
X2331681Y10025523D01*
X2331601Y10025262D01*
X2330645Y10025555D01*
X2307406Y9976558D01*
X2273779Y9935547D01*
X2204760Y9851373D01*
X2204756Y9851367D01*
X2201376Y9847245D01*
X2198738Y9842610D01*
X2198735Y9842606D01*
X2161963Y9778006D01*
X2087325Y9646886D01*
X2008663Y9430175D01*
X2007714Y9424926D01*
X2007713Y9424923D01*
X1968377Y9207392D01*
X1968376Y9207385D01*
X1967639Y9203308D01*
X1966500Y9179156D01*
X1966500Y8767110D01*
X1981080Y8595280D01*
X1982418Y8590125D01*
X1982419Y8590119D01*
X2037657Y8377297D01*
X2038999Y8372128D01*
X2133688Y8161925D01*
X2262441Y7970681D01*
X2266120Y7966824D01*
X2266122Y7966822D01*
X2325348Y7904738D01*
X2421576Y7803865D01*
X2606542Y7666246D01*
X2611293Y7663830D01*
X2611297Y7663828D01*
X2684673Y7626522D01*
X2812051Y7561760D01*
X2817145Y7560178D01*
X2817148Y7560177D01*
X3017020Y7498115D01*
X3032227Y7493393D01*
X3037516Y7492692D01*
X3255489Y7463802D01*
X3255494Y7463802D01*
X3260774Y7463102D01*
X3266103Y7463302D01*
X3266105Y7463302D01*
X3375966Y7467427D01*
X3491158Y7471751D01*
X3513802Y7476502D01*
X3711572Y7517998D01*
X3716791Y7519093D01*
X3721750Y7521051D01*
X3721752Y7521052D01*
X3926256Y7601815D01*
X3926258Y7601816D01*
X3931221Y7603776D01*
X3941350Y7609922D01*
X4123757Y7720610D01*
X4123756Y7720610D01*
X4128317Y7723377D01*
X4168134Y7757928D01*
X4298412Y7870977D01*
X4298414Y7870979D01*
X4302445Y7874477D01*
X4366048Y7952046D01*
X4445240Y8048627D01*
X4445244Y8048633D01*
X4448624Y8052755D01*
X4466552Y8084250D01*
X4517632Y8133555D01*
X4587262Y8147417D01*
X4653333Y8121434D01*
X4680573Y8092284D01*
X4762441Y7970681D01*
X4766120Y7966824D01*
X4766122Y7966822D01*
X4825348Y7904738D01*
X4921576Y7803865D01*
X5106542Y7666246D01*
X5111293Y7663830D01*
X5111297Y7663828D01*
X5184673Y7626522D01*
X5312051Y7561760D01*
X5317145Y7560178D01*
X5317148Y7560177D01*
X5517020Y7498115D01*
X5532227Y7493393D01*
X5537516Y7492692D01*
X5755489Y7463802D01*
X5755494Y7463802D01*
X5760774Y7463102D01*
X5766103Y7463302D01*
X5766105Y7463302D01*
X5875966Y7467427D01*
X5991158Y7471751D01*
X6013802Y7476502D01*
X6211572Y7517998D01*
X6216791Y7519093D01*
X6221750Y7521051D01*
X6221752Y7521052D01*
X6426256Y7601815D01*
X6426258Y7601816D01*
X6431221Y7603776D01*
X6441350Y7609922D01*
X6623757Y7720610D01*
X6623756Y7720610D01*
X6628317Y7723377D01*
X6668134Y7757928D01*
X6798412Y7870977D01*
X6798414Y7870979D01*
X6802445Y7874477D01*
X6866048Y7952046D01*
X6945240Y8048627D01*
X6945244Y8048633D01*
X6948624Y8052755D01*
X6966552Y8084250D01*
X7017632Y8133555D01*
X7087262Y8147417D01*
X7153333Y8121434D01*
X7180573Y8092284D01*
X7262441Y7970681D01*
X7266120Y7966824D01*
X7266122Y7966822D01*
X7325348Y7904738D01*
X7421576Y7803865D01*
X7606542Y7666246D01*
X7611293Y7663830D01*
X7611297Y7663828D01*
X7684673Y7626522D01*
X7812051Y7561760D01*
X7817145Y7560178D01*
X7817148Y7560177D01*
X8017020Y7498115D01*
X8032227Y7493393D01*
X8037516Y7492692D01*
X8255489Y7463802D01*
X8255494Y7463802D01*
X8260774Y7463102D01*
X8266103Y7463302D01*
X8266105Y7463302D01*
X8375966Y7467427D01*
X8491158Y7471751D01*
X8513802Y7476502D01*
X8711572Y7517998D01*
X8716791Y7519093D01*
X8721750Y7521051D01*
X8721752Y7521052D01*
X8926256Y7601815D01*
X8926258Y7601816D01*
X8931221Y7603776D01*
X8941350Y7609922D01*
X9123757Y7720610D01*
X9123756Y7720610D01*
X9128317Y7723377D01*
X9168134Y7757928D01*
X9298412Y7870977D01*
X9298414Y7870979D01*
X9302445Y7874477D01*
X9331670Y7910120D01*
X9390329Y7950114D01*
X9461299Y7952046D01*
X9522048Y7915302D01*
X9536248Y7896532D01*
X9547341Y7878606D01*
X9626522Y7750652D01*
X9751697Y7625695D01*
X9757927Y7621855D01*
X9757928Y7621854D01*
X9895090Y7537306D01*
X9902262Y7532885D01*
X9937938Y7521052D01*
X10063611Y7479368D01*
X10063613Y7479368D01*
X10070139Y7477203D01*
X10076975Y7476503D01*
X10076978Y7476502D01*
X10112663Y7472846D01*
X10174600Y7466500D01*
X11475400Y7466500D01*
X11478646Y7466837D01*
X11478650Y7466837D01*
X11574308Y7476762D01*
X11574312Y7476763D01*
X11581166Y7477474D01*
X11587702Y7479655D01*
X11587704Y7479655D01*
X11719806Y7523728D01*
X11748946Y7533450D01*
X11899348Y7626522D01*
X12024305Y7751697D01*
X12056462Y7803865D01*
X12113275Y7896032D01*
X12113276Y7896034D01*
X12117115Y7902262D01*
X12167031Y8052755D01*
X12170632Y8063611D01*
X12170632Y8063613D01*
X12172797Y8070139D01*
X12173664Y8078595D01*
X12178110Y8121991D01*
X12183500Y8174600D01*
X12183500Y9725400D01*
X12180680Y9752583D01*
X12173238Y9824308D01*
X12173237Y9824312D01*
X12172526Y9831166D01*
X12168710Y9842606D01*
X12118868Y9991998D01*
X12116550Y9998946D01*
X12023478Y10149348D01*
X11898303Y10274305D01*
X11892072Y10278146D01*
X11886327Y10282683D01*
X11887377Y10284013D01*
X11845892Y10330107D01*
X11833500Y10384597D01*
X11833500Y10855075D01*
X11853502Y10923196D01*
X11870405Y10944170D01*
X19819379Y18893145D01*
X19829522Y18902247D01*
X19854218Y18922103D01*
X19859025Y18925968D01*
X19891292Y18964422D01*
X19894472Y18968069D01*
X19896115Y18969881D01*
X19898309Y18972075D01*
X19925642Y19005349D01*
X19926348Y19006200D01*
X19982195Y19072756D01*
X19986154Y19077474D01*
X19988722Y19082144D01*
X19992103Y19086261D01*
X20035977Y19168086D01*
X20036606Y19169245D01*
X20078462Y19245381D01*
X20078465Y19245389D01*
X20081433Y19250787D01*
X20083045Y19255869D01*
X20085562Y19260563D01*
X20112747Y19349477D01*
X20113139Y19350735D01*
X20139372Y19433433D01*
X20141235Y19439306D01*
X20141829Y19444597D01*
X20143388Y19449698D01*
X20152790Y19542263D01*
X20152925Y19543530D01*
X20153854Y19551804D01*
X20157273Y19582285D01*
X20158108Y19589730D01*
X20158108Y19589735D01*
X20158500Y19593227D01*
X20158500Y19596752D01*
X20158555Y19597737D01*
X20159004Y19603441D01*
X20162752Y19640334D01*
X20162752Y19640339D01*
X20163374Y19646462D01*
X20159059Y19692109D01*
X20158500Y19703967D01*
X20158500Y21808520D01*
X20178502Y21876641D01*
X20195327Y21897538D01*
X20196296Y21898508D01*
X20299305Y22001697D01*
X20392115Y22152262D01*
X20427243Y22258171D01*
X20445632Y22313611D01*
X20445632Y22313613D01*
X20447797Y22320139D01*
X20449658Y22338297D01*
X20453755Y22378285D01*
X20458500Y22424600D01*
X20458500Y23975400D01*
X20455680Y24002583D01*
X20448238Y24074308D01*
X20448237Y24074312D01*
X20447526Y24081166D01*
X20443710Y24092606D01*
X20393868Y24241998D01*
X20391550Y24248946D01*
X20298478Y24399348D01*
X20173303Y24524305D01*
X20167072Y24528146D01*
X20028968Y24613275D01*
X20028966Y24613276D01*
X20022738Y24617115D01*
X19911629Y24653968D01*
X19861389Y24670632D01*
X19861387Y24670632D01*
X19854861Y24672797D01*
X19848025Y24673497D01*
X19848022Y24673498D01*
X19804969Y24677909D01*
X19750400Y24683500D01*
X18449600Y24683500D01*
X18446354Y24683163D01*
X18446350Y24683163D01*
X18350692Y24673238D01*
X18350688Y24673237D01*
X18343834Y24672526D01*
X18337298Y24670345D01*
X18337296Y24670345D01*
X18248713Y24640791D01*
X18176054Y24616550D01*
X18025652Y24523478D01*
X17900695Y24398303D01*
X17827170Y24279023D01*
X17810920Y24252661D01*
X17758148Y24205168D01*
X17688076Y24193744D01*
X17622952Y24222018D01*
X17612490Y24231805D01*
X17507103Y24342278D01*
X17503424Y24346135D01*
X17318458Y24483754D01*
X17313707Y24486170D01*
X17313703Y24486172D01*
X17191731Y24548185D01*
X17112949Y24588240D01*
X17107855Y24589822D01*
X17107852Y24589823D01*
X16897871Y24655024D01*
X16892773Y24656607D01*
X16887484Y24657308D01*
X16669511Y24686198D01*
X16669506Y24686198D01*
X16664226Y24686898D01*
X16658897Y24686698D01*
X16658895Y24686698D01*
X16549034Y24682573D01*
X16433842Y24678249D01*
X16428623Y24677154D01*
X16406566Y24672526D01*
X16208209Y24630907D01*
X16203250Y24628949D01*
X16203248Y24628948D01*
X15998744Y24548185D01*
X15998742Y24548184D01*
X15993779Y24546224D01*
X15989220Y24543457D01*
X15989217Y24543456D01*
X15890832Y24483754D01*
X15796683Y24426623D01*
X15792653Y24423126D01*
X15699484Y24342278D01*
X15622555Y24275523D01*
X15603809Y24252661D01*
X15479760Y24101373D01*
X15479756Y24101367D01*
X15476376Y24097245D01*
X15458448Y24065750D01*
X15407368Y24016445D01*
X15337738Y24002583D01*
X15271667Y24028566D01*
X15244427Y24057716D01*
X15165539Y24174892D01*
X15162559Y24179319D01*
X15003424Y24346135D01*
X14818458Y24483754D01*
X14813707Y24486170D01*
X14813703Y24486172D01*
X14691731Y24548185D01*
X14612949Y24588240D01*
X14607855Y24589822D01*
X14607852Y24589823D01*
X14397871Y24655024D01*
X14392773Y24656607D01*
X14387484Y24657308D01*
X14169511Y24686198D01*
X14169506Y24686198D01*
X14164226Y24686898D01*
X14158897Y24686698D01*
X14158895Y24686698D01*
X14049034Y24682573D01*
X13933842Y24678249D01*
X13928623Y24677154D01*
X13906566Y24672526D01*
X13708209Y24630907D01*
X13703250Y24628949D01*
X13703248Y24628948D01*
X13498744Y24548185D01*
X13498742Y24548184D01*
X13493779Y24546224D01*
X13489220Y24543457D01*
X13489217Y24543456D01*
X13390832Y24483754D01*
X13296683Y24426623D01*
X13292653Y24423126D01*
X13199484Y24342278D01*
X13122555Y24275523D01*
X13103809Y24252661D01*
X12979760Y24101373D01*
X12979756Y24101367D01*
X12976376Y24097245D01*
X12958448Y24065750D01*
X12907368Y24016445D01*
X12837738Y24002583D01*
X12771667Y24028566D01*
X12744427Y24057716D01*
X12665539Y24174892D01*
X12662559Y24179319D01*
X12503424Y24346135D01*
X12318458Y24483754D01*
X12313707Y24486170D01*
X12313703Y24486172D01*
X12191731Y24548185D01*
X12112949Y24588240D01*
X12107855Y24589822D01*
X12107852Y24589823D01*
X11897871Y24655024D01*
X11892773Y24656607D01*
X11887484Y24657308D01*
X11669511Y24686198D01*
X11669506Y24686198D01*
X11664226Y24686898D01*
X11658897Y24686698D01*
X11658895Y24686698D01*
X11549034Y24682573D01*
X11433842Y24678249D01*
X11428623Y24677154D01*
X11406566Y24672526D01*
X11208209Y24630907D01*
X11203250Y24628949D01*
X11203248Y24628948D01*
X10998744Y24548185D01*
X10998742Y24548184D01*
X10993779Y24546224D01*
X10989220Y24543457D01*
X10989217Y24543456D01*
X10890832Y24483754D01*
X10796683Y24426623D01*
X10792653Y24423126D01*
X10699484Y24342278D01*
X10622555Y24275523D01*
X10603809Y24252661D01*
X10479760Y24101373D01*
X10479756Y24101367D01*
X10476376Y24097245D01*
X10473738Y24092610D01*
X10473735Y24092606D01*
X10436872Y24027846D01*
X10362325Y23896886D01*
X10283663Y23680175D01*
X10282714Y23674926D01*
X10282713Y23674923D01*
X10243377Y23457392D01*
X10243376Y23457385D01*
X10242639Y23453308D01*
X10241500Y23429156D01*
X10241500Y23017110D01*
X10241725Y23014461D01*
X10250800Y22907511D01*
X10256080Y22845280D01*
X10257418Y22840125D01*
X10257419Y22840119D01*
X10307285Y22647994D01*
X10313999Y22622128D01*
X10316191Y22617262D01*
X10316192Y22617259D01*
X10334561Y22576481D01*
X10408688Y22411925D01*
X10537441Y22220681D01*
X10541122Y22216823D01*
X10541127Y22216816D01*
X10606670Y22148109D01*
X10639217Y22085013D01*
X10641500Y22061138D01*
X10641500Y18619925D01*
X10621498Y18551804D01*
X10604595Y18530830D01*
X8117466Y16043700D01*
X5773595Y13699829D01*
X5711283Y13665803D01*
X5640468Y13670868D01*
X5583632Y13713415D01*
X5558821Y13779935D01*
X5558500Y13788924D01*
X5558500Y14133629D01*
X5578502Y14201750D01*
X5595405Y14222724D01*
X6288911Y14916230D01*
X6303323Y14928616D01*
X6314918Y14937149D01*
X6314923Y14937154D01*
X6320818Y14941492D01*
X6325557Y14947070D01*
X6325560Y14947073D01*
X6355035Y14981768D01*
X6361965Y14989284D01*
X6367661Y14994980D01*
X6369924Y14997841D01*
X6369929Y14997846D01*
X6385293Y15017266D01*
X6388082Y15020667D01*
X6406442Y15042278D01*
X6435333Y15076285D01*
X6438659Y15082798D01*
X6442020Y15087837D01*
X6445196Y15092979D01*
X6449734Y15098716D01*
X6480655Y15164875D01*
X6482561Y15168775D01*
X6490210Y15183754D01*
X6515769Y15233808D01*
X6517508Y15240917D01*
X6519604Y15246551D01*
X6521523Y15252321D01*
X6524622Y15258950D01*
X6539491Y15330435D01*
X6540461Y15334718D01*
X6551162Y15378449D01*
X6557808Y15405610D01*
X6558500Y15416764D01*
X6558535Y15416762D01*
X6558775Y15420734D01*
X6559152Y15424955D01*
X6560641Y15432115D01*
X6558546Y15509542D01*
X6558500Y15512950D01*
X6558500Y22563734D01*
X6578502Y22631855D01*
X6593477Y22650858D01*
X6673881Y22734850D01*
X6788620Y22912548D01*
X6829692Y23014461D01*
X6865442Y23103168D01*
X6865443Y23103171D01*
X6867686Y23108737D01*
X6908228Y23316337D01*
X6908500Y23321899D01*
X6908500Y24027846D01*
X6893452Y24185566D01*
X6833908Y24388534D01*
X6828877Y24398303D01*
X6739804Y24571249D01*
X6739802Y24571252D01*
X6737058Y24576580D01*
X6606396Y24742920D01*
X6601865Y24746852D01*
X6601862Y24746855D01*
X6451167Y24877621D01*
X6446637Y24881552D01*
X6441451Y24884552D01*
X6441447Y24884555D01*
X6268742Y24984467D01*
X6263546Y24987473D01*
X6063729Y25056861D01*
X6057794Y25057722D01*
X6057792Y25057722D01*
X5860336Y25086352D01*
X5860333Y25086352D01*
X5854396Y25087213D01*
X5643101Y25077433D01*
X5511923Y25045819D01*
X5443299Y25029281D01*
X5443297Y25029280D01*
X5437466Y25027875D01*
X5432008Y25025393D01*
X5432004Y25025392D01*
X5336515Y24981975D01*
X5244913Y24940326D01*
X5072389Y24817946D01*
X5068247Y24813619D01*
X5068241Y24813614D01*
X4981194Y24722683D01*
X4919639Y24687306D01*
X4848730Y24690825D01*
X4790979Y24732121D01*
X4783032Y24743509D01*
X4748478Y24799348D01*
X4623303Y24924305D01*
X4617072Y24928146D01*
X4478968Y25013275D01*
X4478966Y25013276D01*
X4472738Y25017115D01*
X4312254Y25070345D01*
X4311389Y25070632D01*
X4311387Y25070632D01*
X4304861Y25072797D01*
X4298025Y25073497D01*
X4298022Y25073498D01*
X4254969Y25077909D01*
X4200400Y25083500D01*
X3399600Y25083500D01*
X3396354Y25083163D01*
X3396350Y25083163D01*
X3300692Y25073238D01*
X3300688Y25073237D01*
X3293834Y25072526D01*
X3287298Y25070345D01*
X3287296Y25070345D01*
X3164213Y25029281D01*
X3126054Y25016550D01*
X2975652Y24923478D01*
X2850695Y24798303D01*
X2846855Y24792073D01*
X2846854Y24792072D01*
X2773165Y24672526D01*
X2757885Y24647738D01*
X2702203Y24479861D01*
X2691500Y24375400D01*
X2691500Y23024600D01*
X2702474Y22918834D01*
X2704655Y22912298D01*
X2704655Y22912296D01*
X2725242Y22850591D01*
X2758450Y22751054D01*
X2851522Y22600652D01*
X2976697Y22475695D01*
X2982928Y22471854D01*
X2988673Y22467317D01*
X2987623Y22465987D01*
X3029108Y22419893D01*
X3041500Y22365403D01*
X3041500Y16266371D01*
X3021498Y16198250D01*
X3004595Y16177276D01*
X2192433Y15365114D01*
X2130121Y15331088D01*
X2065974Y15333877D01*
X1992773Y15356607D01*
X1967935Y15359899D01*
X1769511Y15386198D01*
X1769506Y15386198D01*
X1764226Y15386898D01*
X1758897Y15386698D01*
X1758895Y15386698D01*
X1649034Y15382574D01*
X1533842Y15378249D01*
X1528623Y15377154D01*
X1434046Y15357310D01*
X1308209Y15330907D01*
X1303250Y15328949D01*
X1303248Y15328948D01*
X1098744Y15248185D01*
X1098742Y15248184D01*
X1093779Y15246224D01*
X1089220Y15243457D01*
X1089217Y15243456D01*
X941724Y15153955D01*
X896683Y15126623D01*
X892653Y15123126D01*
X729752Y14981768D01*
X722555Y14975523D01*
X694651Y14941492D01*
X579760Y14801373D01*
X579756Y14801367D01*
X576376Y14797245D01*
X558448Y14765750D01*
X507368Y14716445D01*
X437738Y14702583D01*
X371667Y14728566D01*
X344427Y14757716D01*
X265539Y14874892D01*
X262559Y14879319D01*
X243759Y14899027D01*
X164827Y14981768D01*
X103424Y15046135D01*
X70396Y15070709D01*
X-77260Y15180568D01*
X-77259Y15180568D01*
X-81542Y15183754D01*
X-86293Y15186170D01*
X-86297Y15186172D01*
X-229442Y15258950D01*
X-287051Y15288240D01*
X-292145Y15289822D01*
X-292148Y15289823D01*
X-502129Y15355024D01*
X-507227Y15356607D01*
X-512516Y15357308D01*
X-512525Y15357310D01*
X-532057Y15359899D01*
X-596958Y15388678D01*
X-635998Y15447978D01*
X-641500Y15484806D01*
X-641500Y22563734D01*
X-621498Y22631855D01*
X-606523Y22650858D01*
X-526119Y22734850D01*
X-411380Y22912548D01*
X-370308Y23014461D01*
X-334558Y23103168D01*
X-334557Y23103171D01*
X-332314Y23108737D01*
X-291772Y23316337D01*
X-291500Y23321899D01*
X-291500Y24027846D01*
X-306548Y24185566D01*
X-366092Y24388534D01*
X-371123Y24398303D01*
X-460196Y24571249D01*
X-460198Y24571252D01*
X-462942Y24576580D01*
X-593604Y24742920D01*
X-598135Y24746852D01*
X-598138Y24746855D01*
X-748833Y24877621D01*
X-753363Y24881552D01*
X-758549Y24884552D01*
X-758553Y24884555D01*
X-931258Y24984467D01*
X-936454Y24987473D01*
X-1136271Y25056861D01*
X-1142206Y25057722D01*
X-1142208Y25057722D01*
X-1339664Y25086352D01*
X-1339667Y25086352D01*
X-1345604Y25087213D01*
X-1556899Y25077433D01*
X-1688077Y25045819D01*
X-1756701Y25029281D01*
X-1756703Y25029280D01*
X-1762534Y25027875D01*
X-1767992Y25025393D01*
X-1767996Y25025392D01*
X-1863485Y24981975D01*
X-1955087Y24940326D01*
X-2127611Y24817946D01*
X-2131753Y24813619D01*
X-2131759Y24813614D01*
X-2218806Y24722683D01*
X-2280361Y24687306D01*
X-2351270Y24690825D01*
X-2409021Y24732121D01*
X-2416968Y24743509D01*
X-2451522Y24799348D01*
X-2576697Y24924305D01*
X-2582928Y24928146D01*
X-2721032Y25013275D01*
X-2721034Y25013276D01*
X-2727262Y25017115D01*
X-2887746Y25070345D01*
X-2888611Y25070632D01*
X-2888613Y25070632D01*
X-2895139Y25072797D01*
X-2901975Y25073497D01*
X-2901978Y25073498D01*
X-2945031Y25077909D01*
X-2999600Y25083500D01*
X-3800400Y25083500D01*
X-3803646Y25083163D01*
X-3803650Y25083163D01*
X-3899308Y25073238D01*
X-3899312Y25073237D01*
X-3906166Y25072526D01*
X-3912702Y25070345D01*
X-3912704Y25070345D01*
X-4035787Y25029281D01*
X-4073946Y25016550D01*
X-4224348Y24923478D01*
X-4349305Y24798303D01*
X-4353145Y24792073D01*
X-4353146Y24792072D01*
X-4426835Y24672526D01*
X-4442115Y24647738D01*
X-4497797Y24479861D01*
X-4508500Y24375400D01*
X-4508500Y23024600D01*
X-4497526Y22918834D01*
X-4495345Y22912298D01*
X-4495345Y22912296D01*
X-4474758Y22850591D01*
X-4441550Y22751054D01*
X-4348478Y22600652D01*
X-4223303Y22475695D01*
X-4217072Y22471854D01*
X-4211327Y22467317D01*
X-4212377Y22465987D01*
X-4170892Y22419893D01*
X-4158500Y22365403D01*
X-4158500Y15136226D01*
X-4178502Y15068105D01*
X-4201920Y15041060D01*
X-4270248Y14981768D01*
X-4277445Y14975523D01*
X-4305349Y14941492D01*
X-4420240Y14801373D01*
X-4420244Y14801367D01*
X-4423624Y14797245D01*
X-4426262Y14792610D01*
X-4426265Y14792606D01*
X-4469618Y14716445D01*
X-4537675Y14596886D01*
X-4616337Y14380175D01*
X-4617286Y14374926D01*
X-4617287Y14374923D01*
X-4656623Y14157392D01*
X-4656624Y14157385D01*
X-4657361Y14153308D01*
X-4658500Y14129156D01*
X-4658500Y13717110D01*
X-4643920Y13545280D01*
X-4642582Y13540123D01*
X-4642581Y13540120D01*
X-4628734Y13486771D01*
X-4630981Y13415810D01*
X-4671236Y13357329D01*
X-4736717Y13329894D01*
X-4806636Y13342217D01*
X-4839788Y13366022D01*
X-7654595Y16180829D01*
X-7688621Y16243141D01*
X-7691500Y16269924D01*
X-7691500Y19065500D01*
X-7671498Y19133621D01*
X-7617842Y19180114D01*
X-7565500Y19191500D01*
X-7451866Y19191500D01*
X-7389684Y19198255D01*
X-7253295Y19249385D01*
X-7136739Y19336739D01*
X-7049385Y19453295D01*
X-6998255Y19589684D01*
X-6991500Y19651866D01*
X-6991500Y22148134D01*
X-6998255Y22210316D01*
X-7049385Y22346705D01*
X-7136739Y22463261D01*
X-7253295Y22550615D01*
X-7389684Y22601745D01*
X-7445560Y22607815D01*
X-7448469Y22608131D01*
X-7451866Y22608500D01*
X-9948134Y22608500D01*
X-9951531Y22608131D01*
X-9954440Y22607815D01*
X-10010316Y22601745D01*
X-10146705Y22550615D01*
X-10263261Y22463261D01*
X-10350615Y22346705D01*
X-10401745Y22210316D01*
X-10408500Y22148134D01*
X-10408500Y21678948D01*
X-10428502Y21610827D01*
X-10482158Y21564334D01*
X-10552432Y21554230D01*
X-10617012Y21583724D01*
X-10649171Y21629361D01*
X-10649901Y21629013D01*
X-10651916Y21633238D01*
X-10653609Y21637591D01*
X-10674134Y21673502D01*
X-10777298Y21854003D01*
X-10777300Y21854005D01*
X-10779617Y21858060D01*
X-10936829Y22057483D01*
X-11036805Y22151531D01*
X-11118390Y22228278D01*
X-11118392Y22228280D01*
X-11121791Y22231477D01*
X-11165517Y22261811D01*
X-11326607Y22373563D01*
X-11326610Y22373565D01*
X-11330439Y22376221D01*
X-11334616Y22378281D01*
X-11334623Y22378285D01*
X-11554004Y22486472D01*
X-11554008Y22486473D01*
X-11558190Y22488536D01*
X-11800040Y22565953D01*
X-11804645Y22566703D01*
X-12046065Y22606020D01*
X-12046066Y22606020D01*
X-12050677Y22606771D01*
X-12177635Y22608433D01*
X-12299917Y22610034D01*
X-12299920Y22610034D01*
X-12304594Y22610095D01*
X-12556213Y22575851D01*
X-12560699Y22574543D01*
X-12560701Y22574543D01*
X-12624816Y22555855D01*
X-12800007Y22504792D01*
X-13030620Y22398478D01*
X-13034529Y22395915D01*
X-13239072Y22261811D01*
X-13239077Y22261807D01*
X-13242985Y22259245D01*
X-13432438Y22090152D01*
X-13594817Y21894913D01*
X-13726553Y21677818D01*
X-13824754Y21443635D01*
X-13887262Y21197510D01*
X-13912704Y20944849D01*
X-13900520Y20691202D01*
X-13850979Y20442143D01*
X-13849400Y20437745D01*
X-13849398Y20437738D01*
X-13769132Y20214181D01*
X-13765169Y20203142D01*
X-13644975Y19979449D01*
X-13642180Y19975706D01*
X-13642178Y19975703D01*
X-13495829Y19779718D01*
X-13495824Y19779712D01*
X-13493037Y19775980D01*
X-13489728Y19772700D01*
X-13489723Y19772694D01*
X-13362384Y19646462D01*
X-13312693Y19597203D01*
X-13308931Y19594445D01*
X-13308928Y19594442D01*
X-13259995Y19558563D01*
X-13216887Y19502152D01*
X-13208500Y19456951D01*
X-13208500Y16961843D01*
X-13209237Y16948236D01*
X-13213324Y16910612D01*
X-13212787Y16904477D01*
X-13208950Y16860612D01*
X-13208621Y16855786D01*
X-13208500Y16853314D01*
X-13208500Y16850231D01*
X-13208199Y16847163D01*
X-13204310Y16807494D01*
X-13204188Y16806181D01*
X-13196087Y16713587D01*
X-13194600Y16708468D01*
X-13194080Y16703167D01*
X-13192297Y16697263D01*
X-13191102Y16691226D01*
X-13193489Y16690753D01*
X-13193031Y16630485D01*
X-13230959Y16570469D01*
X-13295314Y16540486D01*
X-13365663Y16550056D01*
X-13403288Y16575969D01*
X-16604595Y19777276D01*
X-16638621Y19839588D01*
X-16641500Y19866371D01*
X-16641500Y22563734D01*
X-16621498Y22631855D01*
X-16606523Y22650858D01*
X-16526119Y22734850D01*
X-16411380Y22912548D01*
X-16370308Y23014461D01*
X-16334558Y23103168D01*
X-16334557Y23103171D01*
X-16332314Y23108737D01*
X-16291772Y23316337D01*
X-16291500Y23321899D01*
X-16291500Y24027846D01*
X-16306548Y24185566D01*
X-16366092Y24388534D01*
X-16371123Y24398303D01*
X-16460196Y24571249D01*
X-16460198Y24571252D01*
X-16462942Y24576580D01*
X-16593604Y24742920D01*
X-16598135Y24746852D01*
X-16598138Y24746855D01*
X-16748833Y24877621D01*
X-16753363Y24881552D01*
X-16758549Y24884552D01*
X-16758553Y24884555D01*
X-16931258Y24984467D01*
X-16936454Y24987473D01*
X-17136271Y25056861D01*
X-17142206Y25057722D01*
X-17142208Y25057722D01*
X-17339664Y25086352D01*
X-17339667Y25086352D01*
X-17345604Y25087213D01*
X-17556899Y25077433D01*
X-17688077Y25045819D01*
X-17756701Y25029281D01*
X-17756703Y25029280D01*
X-17762534Y25027875D01*
X-17767992Y25025393D01*
X-17767996Y25025392D01*
X-17863485Y24981975D01*
X-17955087Y24940326D01*
X-18127611Y24817946D01*
X-18131753Y24813619D01*
X-18131759Y24813614D01*
X-18218806Y24722683D01*
X-18280361Y24687306D01*
X-18351270Y24690825D01*
X-18409021Y24732121D01*
X-18416968Y24743509D01*
X-18451522Y24799348D01*
X-18576697Y24924305D01*
X-18582928Y24928146D01*
X-18721032Y25013275D01*
X-18721034Y25013276D01*
X-18727262Y25017115D01*
X-18887746Y25070345D01*
X-18888611Y25070632D01*
X-18888613Y25070632D01*
X-18895139Y25072797D01*
X-18901975Y25073497D01*
X-18901978Y25073498D01*
X-18945031Y25077909D01*
X-18999600Y25083500D01*
X-19800400Y25083500D01*
X-19803646Y25083163D01*
X-19803650Y25083163D01*
X-19899308Y25073238D01*
X-19899312Y25073237D01*
X-19906166Y25072526D01*
X-19912702Y25070345D01*
X-19912704Y25070345D01*
X-20035787Y25029281D01*
X-20073946Y25016550D01*
X-20224348Y24923478D01*
X-20349305Y24798303D01*
X-20353145Y24792073D01*
X-20353146Y24792072D01*
X-20426835Y24672526D01*
X-20442115Y24647738D01*
X-20497797Y24479861D01*
X-20508500Y24375400D01*
X-20508500Y23024600D01*
X-22738015Y23024600D01*
X-22151053Y24911655D01*
X-22145610Y24926007D01*
X-22131461Y24957392D01*
X-22129826Y24969075D01*
X-22122846Y24996315D01*
X-22082379Y25102958D01*
X-22072005Y25124093D01*
X-22000976Y25239976D01*
X-21986843Y25258819D01*
X-21980752Y25265528D01*
X-21895492Y25359449D01*
X-21878101Y25375332D01*
X-21769612Y25457208D01*
X-21749567Y25469577D01*
X-21627744Y25529826D01*
X-21605747Y25538249D01*
X-21474835Y25574772D01*
X-21451655Y25578954D01*
X-21344663Y25588056D01*
X-21328611Y25587428D01*
X-21328598Y25588029D01*
X-21319616Y25587841D01*
X-21310763Y25586383D01*
X-21276379Y25590574D01*
X-21261135Y25591500D01*
X21249488Y25591500D01*
X21269323Y25589929D01*
G37*
G04 #@! TD.AperFunction*
G04 #@! TD*
M02*
