G04 #@! TF.GenerationSoftware,KiCad,Pcbnew,(6.0.11-0)*
G04 #@! TF.CreationDate,2023-05-22T15:58:53+12:00*
G04 #@! TF.ProjectId,head-interface,68656164-2d69-46e7-9465-72666163652e,rev?*
G04 #@! TF.SameCoordinates,PX5f5e100PY5f5e100*
G04 #@! TF.FileFunction,Legend,Top*
G04 #@! TF.FilePolarity,Positive*
%FSLAX46Y46*%
G04 Gerber Fmt 4.6, Leading zero omitted, Abs format (unit mm)*
G04 Created by KiCad (PCBNEW (6.0.11-0)) date 2023-05-22 15:58:53*
%MOMM*%
%LPD*%
G01*
G04 APERTURE LIST*
%ADD10C,0.150000*%
%ADD11C,0.120000*%
G04 APERTURE END LIST*
D10*
G04 #@! TO.C,J3*
X14516666Y11222620D02*
X14516666Y10508334D01*
X14469047Y10365477D01*
X14373809Y10270239D01*
X14230952Y10222620D01*
X14135714Y10222620D01*
X14897619Y11222620D02*
X15516666Y11222620D01*
X15183333Y10841667D01*
X15326190Y10841667D01*
X15421428Y10794048D01*
X15469047Y10746429D01*
X15516666Y10651191D01*
X15516666Y10413096D01*
X15469047Y10317858D01*
X15421428Y10270239D01*
X15326190Y10222620D01*
X15040476Y10222620D01*
X14945238Y10270239D01*
X14897619Y10317858D01*
G04 #@! TO.C,J1*
X-15033334Y11222620D02*
X-15033334Y10508334D01*
X-15080953Y10365477D01*
X-15176191Y10270239D01*
X-15319048Y10222620D01*
X-15414286Y10222620D01*
X-14033334Y10222620D02*
X-14604762Y10222620D01*
X-14319048Y10222620D02*
X-14319048Y11222620D01*
X-14414286Y11079762D01*
X-14509524Y10984524D01*
X-14604762Y10936905D01*
G04 #@! TO.C,J8*
X15016666Y19172620D02*
X15016666Y18458334D01*
X14969047Y18315477D01*
X14873809Y18220239D01*
X14730952Y18172620D01*
X14635714Y18172620D01*
X15635714Y18744048D02*
X15540476Y18791667D01*
X15492857Y18839286D01*
X15445238Y18934524D01*
X15445238Y18982143D01*
X15492857Y19077381D01*
X15540476Y19125000D01*
X15635714Y19172620D01*
X15826190Y19172620D01*
X15921428Y19125000D01*
X15969047Y19077381D01*
X16016666Y18982143D01*
X16016666Y18934524D01*
X15969047Y18839286D01*
X15921428Y18791667D01*
X15826190Y18744048D01*
X15635714Y18744048D01*
X15540476Y18696429D01*
X15492857Y18648810D01*
X15445238Y18553572D01*
X15445238Y18363096D01*
X15492857Y18267858D01*
X15540476Y18220239D01*
X15635714Y18172620D01*
X15826190Y18172620D01*
X15921428Y18220239D01*
X15969047Y18267858D01*
X16016666Y18363096D01*
X16016666Y18553572D01*
X15969047Y18648810D01*
X15921428Y18696429D01*
X15826190Y18744048D01*
X13088095Y19797620D02*
X13088095Y20797620D01*
X13421428Y20083334D01*
X13754761Y20797620D01*
X13754761Y19797620D01*
X14421428Y20797620D02*
X14611904Y20797620D01*
X14707142Y20750000D01*
X14802380Y20654762D01*
X14850000Y20464286D01*
X14850000Y20130953D01*
X14802380Y19940477D01*
X14707142Y19845239D01*
X14611904Y19797620D01*
X14421428Y19797620D01*
X14326190Y19845239D01*
X14230952Y19940477D01*
X14183333Y20130953D01*
X14183333Y20464286D01*
X14230952Y20654762D01*
X14326190Y20750000D01*
X14421428Y20797620D01*
X15135714Y20797620D02*
X15707142Y20797620D01*
X15421428Y19797620D02*
X15421428Y20797620D01*
X16230952Y20797620D02*
X16421428Y20797620D01*
X16516666Y20750000D01*
X16611904Y20654762D01*
X16659523Y20464286D01*
X16659523Y20130953D01*
X16611904Y19940477D01*
X16516666Y19845239D01*
X16421428Y19797620D01*
X16230952Y19797620D01*
X16135714Y19845239D01*
X16040476Y19940477D01*
X15992857Y20130953D01*
X15992857Y20464286D01*
X16040476Y20654762D01*
X16135714Y20750000D01*
X16230952Y20797620D01*
X17659523Y19797620D02*
X17326190Y20273810D01*
X17088095Y19797620D02*
X17088095Y20797620D01*
X17469047Y20797620D01*
X17564285Y20750000D01*
X17611904Y20702381D01*
X17659523Y20607143D01*
X17659523Y20464286D01*
X17611904Y20369048D01*
X17564285Y20321429D01*
X17469047Y20273810D01*
X17088095Y20273810D01*
G04 #@! TO.C,J6*
X4666666Y18447620D02*
X4666666Y17733334D01*
X4619047Y17590477D01*
X4523809Y17495239D01*
X4380952Y17447620D01*
X4285714Y17447620D01*
X5571428Y18447620D02*
X5380952Y18447620D01*
X5285714Y18400000D01*
X5238095Y18352381D01*
X5142857Y18209524D01*
X5095238Y18019048D01*
X5095238Y17638096D01*
X5142857Y17542858D01*
X5190476Y17495239D01*
X5285714Y17447620D01*
X5476190Y17447620D01*
X5571428Y17495239D01*
X5619047Y17542858D01*
X5666666Y17638096D01*
X5666666Y17876191D01*
X5619047Y17971429D01*
X5571428Y18019048D01*
X5476190Y18066667D01*
X5285714Y18066667D01*
X5190476Y18019048D01*
X5142857Y17971429D01*
X5095238Y17876191D01*
X1366666Y19047620D02*
X1366666Y20047620D01*
X1747619Y20047620D01*
X1842857Y20000000D01*
X1890476Y19952381D01*
X1938095Y19857143D01*
X1938095Y19714286D01*
X1890476Y19619048D01*
X1842857Y19571429D01*
X1747619Y19523810D01*
X1366666Y19523810D01*
X2319047Y19333334D02*
X2795238Y19333334D01*
X2223809Y19047620D02*
X2557142Y20047620D01*
X2890476Y19047620D01*
X3795238Y19047620D02*
X3461904Y19523810D01*
X3223809Y19047620D02*
X3223809Y20047620D01*
X3604761Y20047620D01*
X3700000Y20000000D01*
X3747619Y19952381D01*
X3795238Y19857143D01*
X3795238Y19714286D01*
X3747619Y19619048D01*
X3700000Y19571429D01*
X3604761Y19523810D01*
X3223809Y19523810D01*
X4080952Y20047620D02*
X4652380Y20047620D01*
X4366666Y19047620D02*
X4366666Y20047620D01*
X4747619Y18952381D02*
X5509523Y18952381D01*
X6080952Y19571429D02*
X5747619Y19571429D01*
X5747619Y19047620D02*
X5747619Y20047620D01*
X6223809Y20047620D01*
X6557142Y19333334D02*
X7033333Y19333334D01*
X6461904Y19047620D02*
X6795238Y20047620D01*
X7128571Y19047620D01*
X7461904Y19047620D02*
X7461904Y20047620D01*
X8033333Y19047620D01*
X8033333Y20047620D01*
G04 #@! TO.C,J7*
X-2933334Y18497620D02*
X-2933334Y17783334D01*
X-2980953Y17640477D01*
X-3076191Y17545239D01*
X-3219048Y17497620D01*
X-3314286Y17497620D01*
X-2552381Y18497620D02*
X-1885715Y18497620D01*
X-2314286Y17497620D01*
X-3197525Y19559429D02*
X-3530859Y19559429D01*
X-3530859Y19035620D02*
X-3530859Y20035620D01*
X-3054668Y20035620D01*
X-2721335Y19321334D02*
X-2245144Y19321334D01*
X-2816573Y19035620D02*
X-2483240Y20035620D01*
X-2149906Y19035620D01*
X-1816573Y19035620D02*
X-1816573Y20035620D01*
X-1245144Y19035620D01*
X-1245144Y20035620D01*
G04 #@! TO.C,J5*
X-10783334Y15447620D02*
X-10783334Y14733334D01*
X-10830953Y14590477D01*
X-10926191Y14495239D01*
X-11069048Y14447620D01*
X-11164286Y14447620D01*
X-9830953Y15447620D02*
X-10307143Y15447620D01*
X-10354762Y14971429D01*
X-10307143Y15019048D01*
X-10211905Y15066667D01*
X-9973810Y15066667D01*
X-9878572Y15019048D01*
X-9830953Y14971429D01*
X-9783334Y14876191D01*
X-9783334Y14638096D01*
X-9830953Y14542858D01*
X-9878572Y14495239D01*
X-9973810Y14447620D01*
X-10211905Y14447620D01*
X-10307143Y14495239D01*
X-10354762Y14542858D01*
X-12950000Y15847620D02*
X-12950000Y16847620D01*
X-12950000Y16371429D02*
X-12378572Y16371429D01*
X-12378572Y15847620D02*
X-12378572Y16847620D01*
X-11902381Y16371429D02*
X-11569048Y16371429D01*
X-11426191Y15847620D02*
X-11902381Y15847620D01*
X-11902381Y16847620D01*
X-11426191Y16847620D01*
X-11045239Y16133334D02*
X-10569048Y16133334D01*
X-11140477Y15847620D02*
X-10807143Y16847620D01*
X-10473810Y15847620D01*
X-10283334Y16847620D02*
X-9711905Y16847620D01*
X-9997620Y15847620D02*
X-9997620Y16847620D01*
X-9378572Y16371429D02*
X-9045239Y16371429D01*
X-8902381Y15847620D02*
X-9378572Y15847620D01*
X-9378572Y16847620D01*
X-8902381Y16847620D01*
X-7902381Y15847620D02*
X-8235715Y16323810D01*
X-8473810Y15847620D02*
X-8473810Y16847620D01*
X-8092858Y16847620D01*
X-7997620Y16800000D01*
X-7950000Y16752381D01*
X-7902381Y16657143D01*
X-7902381Y16514286D01*
X-7950000Y16419048D01*
X-7997620Y16371429D01*
X-8092858Y16323810D01*
X-8473810Y16323810D01*
G04 #@! TO.C,J4*
X-17333334Y18897620D02*
X-17333334Y18183334D01*
X-17380953Y18040477D01*
X-17476191Y17945239D01*
X-17619048Y17897620D01*
X-17714286Y17897620D01*
X-16428572Y18564286D02*
X-16428572Y17897620D01*
X-16666667Y18945239D02*
X-16904762Y18230953D01*
X-16285715Y18230953D01*
X-20733334Y20247620D02*
X-20161905Y20247620D01*
X-20447620Y19247620D02*
X-20447620Y20247620D01*
X-19828572Y19247620D02*
X-19828572Y20247620D01*
X-19828572Y19771429D02*
X-19257143Y19771429D01*
X-19257143Y19247620D02*
X-19257143Y20247620D01*
X-18780953Y19771429D02*
X-18447620Y19771429D01*
X-18304762Y19247620D02*
X-18780953Y19247620D01*
X-18780953Y20247620D01*
X-18304762Y20247620D01*
X-17304762Y19247620D02*
X-17638096Y19723810D01*
X-17876191Y19247620D02*
X-17876191Y20247620D01*
X-17495239Y20247620D01*
X-17400000Y20200000D01*
X-17352381Y20152381D01*
X-17304762Y20057143D01*
X-17304762Y19914286D01*
X-17352381Y19819048D01*
X-17400000Y19771429D01*
X-17495239Y19723810D01*
X-17876191Y19723810D01*
X-16876191Y19247620D02*
X-16876191Y20247620D01*
X-16542858Y19533334D01*
X-16209524Y20247620D01*
X-16209524Y19247620D01*
G04 #@! TO.C,J2*
X7991666Y16172620D02*
X7991666Y15458334D01*
X7944047Y15315477D01*
X7848809Y15220239D01*
X7705952Y15172620D01*
X7610714Y15172620D01*
X8420238Y16077381D02*
X8467857Y16125000D01*
X8563095Y16172620D01*
X8801190Y16172620D01*
X8896428Y16125000D01*
X8944047Y16077381D01*
X8991666Y15982143D01*
X8991666Y15886905D01*
X8944047Y15744048D01*
X8372619Y15172620D01*
X8991666Y15172620D01*
D11*
G04 #@! TO.C,J3*
X1215000Y7740000D02*
X1215000Y8950000D01*
X715000Y7240000D02*
X13435000Y7240000D01*
X13735000Y11560000D02*
X11235000Y11560000D01*
X1215000Y8950000D02*
X715000Y8950000D01*
X715000Y9760000D02*
X1715000Y9760000D01*
X12435000Y9760000D02*
X12435000Y11260000D01*
X12935000Y7740000D02*
X1215000Y7740000D01*
X13435000Y9760000D02*
X12435000Y9760000D01*
X13435000Y11260000D02*
X715000Y11260000D01*
X715000Y11260000D02*
X715000Y7240000D01*
X13735000Y9060000D02*
X13735000Y11560000D01*
X13435000Y7240000D02*
X13435000Y11260000D01*
X12935000Y8950000D02*
X12935000Y7740000D01*
X13435000Y8950000D02*
X12935000Y8950000D01*
X1715000Y9760000D02*
X1715000Y11260000D01*
G04 #@! TO.C,J1*
X-1090000Y8950000D02*
X-1090000Y7740000D01*
X-590000Y8950000D02*
X-1090000Y8950000D01*
X-12310000Y9760000D02*
X-12310000Y11260000D01*
X-590000Y11260000D02*
X-13310000Y11260000D01*
X-13310000Y7240000D02*
X-590000Y7240000D01*
X-590000Y9760000D02*
X-1590000Y9760000D01*
X-590000Y7240000D02*
X-590000Y11260000D01*
X-13310000Y11260000D02*
X-13310000Y7240000D01*
X-1090000Y7740000D02*
X-12810000Y7740000D01*
X-12810000Y8950000D02*
X-13310000Y8950000D01*
X-13310000Y9760000D02*
X-12310000Y9760000D01*
X-1590000Y9760000D02*
X-1590000Y11260000D01*
X-290000Y11560000D02*
X-2790000Y11560000D01*
X-290000Y9060000D02*
X-290000Y11560000D01*
X-12810000Y7740000D02*
X-12810000Y8950000D01*
G04 #@! TO.C,J8*
X9490000Y23200000D02*
X8990000Y23200000D01*
X9990000Y24010000D02*
X9990000Y25510000D01*
X20710000Y24010000D02*
X20710000Y25510000D01*
X22010000Y25810000D02*
X19510000Y25810000D01*
X8990000Y24010000D02*
X9990000Y24010000D01*
X21710000Y23200000D02*
X21210000Y23200000D01*
X22010000Y23310000D02*
X22010000Y25810000D01*
X9490000Y21990000D02*
X9490000Y23200000D01*
X21210000Y21990000D02*
X9490000Y21990000D01*
X8990000Y25510000D02*
X8990000Y21490000D01*
X8990000Y21490000D02*
X21710000Y21490000D01*
X21710000Y21490000D02*
X21710000Y25510000D01*
X21210000Y23200000D02*
X21210000Y21990000D01*
X21710000Y24010000D02*
X20710000Y24010000D01*
X21710000Y25510000D02*
X8990000Y25510000D01*
G04 #@! TO.C,J6*
X4700000Y21400000D02*
X4700000Y21900000D01*
X1740000Y20790000D02*
X7860000Y20790000D01*
X7250000Y21400000D02*
X7250000Y24900000D01*
X3500000Y25510000D02*
X3500000Y25710000D01*
X3200000Y25710000D02*
X3200000Y25510000D01*
X7860000Y20790000D02*
X7860000Y25510000D01*
X1740000Y22900000D02*
X2350000Y22900000D01*
X5300000Y24900000D02*
X5300000Y25510000D01*
X4300000Y25510000D02*
X4300000Y24900000D01*
X7250000Y24900000D02*
X5300000Y24900000D01*
X4900000Y21900000D02*
X4900000Y21400000D01*
X1740000Y24200000D02*
X2350000Y24200000D01*
X4800000Y21400000D02*
X4800000Y21900000D01*
X2350000Y24900000D02*
X2350000Y21400000D01*
X1740000Y25510000D02*
X1740000Y20790000D01*
X2690000Y25810000D02*
X1440000Y25810000D01*
X2350000Y21400000D02*
X7250000Y21400000D01*
X7860000Y25510000D02*
X1740000Y25510000D01*
X3500000Y25610000D02*
X3200000Y25610000D01*
X7860000Y22900000D02*
X7250000Y22900000D01*
X7860000Y24200000D02*
X7250000Y24200000D01*
X3500000Y25710000D02*
X3200000Y25710000D01*
X1440000Y25810000D02*
X1440000Y24560000D01*
X4300000Y24900000D02*
X2350000Y24900000D01*
X4700000Y21900000D02*
X4900000Y21900000D01*
G04 #@! TO.C,J7*
X-4510000Y25810000D02*
X-5760000Y25810000D01*
X660000Y20790000D02*
X660000Y25510000D01*
X-2500000Y21400000D02*
X-2500000Y21900000D01*
X-2400000Y21400000D02*
X-2400000Y21900000D01*
X660000Y22900000D02*
X50000Y22900000D01*
X660000Y24200000D02*
X50000Y24200000D01*
X-4000000Y25710000D02*
X-4000000Y25510000D01*
X-5460000Y24200000D02*
X-4850000Y24200000D01*
X-5760000Y25810000D02*
X-5760000Y24560000D01*
X-3700000Y25510000D02*
X-3700000Y25710000D01*
X-5460000Y20790000D02*
X660000Y20790000D01*
X50000Y24900000D02*
X-1900000Y24900000D01*
X-2900000Y25510000D02*
X-2900000Y24900000D01*
X-3700000Y25610000D02*
X-4000000Y25610000D01*
X-5460000Y25510000D02*
X-5460000Y20790000D01*
X-1900000Y24900000D02*
X-1900000Y25510000D01*
X-5460000Y22900000D02*
X-4850000Y22900000D01*
X-2300000Y21900000D02*
X-2300000Y21400000D01*
X-3700000Y25710000D02*
X-4000000Y25710000D01*
X-4850000Y24900000D02*
X-4850000Y21400000D01*
X-4850000Y21400000D02*
X50000Y21400000D01*
X-2500000Y21900000D02*
X-2300000Y21900000D01*
X660000Y25510000D02*
X-5460000Y25510000D01*
X50000Y21400000D02*
X50000Y24900000D01*
X-2900000Y24900000D02*
X-4850000Y24900000D01*
G04 #@! TO.C,J5*
X-11055000Y21841000D02*
X-10926000Y21969000D01*
X-6890000Y25460000D02*
X-14010000Y25460000D01*
X-13475000Y19831000D02*
X-13346000Y19959000D01*
X-6890000Y17740000D02*
X-14010000Y17740000D01*
X-11225000Y22081000D02*
X-11131000Y22174000D01*
X-6650000Y25700000D02*
X-7050000Y25700000D01*
X-6650000Y25060000D02*
X-6650000Y25700000D01*
X-6890000Y17740000D02*
X-6890000Y25460000D01*
X-6890000Y23900000D02*
X-14010000Y23900000D01*
X-14010000Y17740000D02*
X-14010000Y25460000D01*
X-13270000Y19625000D02*
X-13176000Y19719000D01*
X-6890000Y25000000D02*
X-14010000Y25000000D01*
X-10125000Y21791000D02*
G75*
G03*
X-10125504Y20009807I1425003J-891000D01*
G01*
X-7834000Y22340000D02*
G75*
G03*
X-8728674Y22580099I-866003J-1440014D01*
G01*
X-9566000Y19459999D02*
G75*
G03*
X-7810106Y19474642I866000J1439999D01*
G01*
X-8700000Y22580000D02*
G75*
G03*
X-9590264Y22324721I-3J-1679990D01*
G01*
X-7259999Y20034000D02*
G75*
G03*
X-7274642Y21789894I-1439999J866000D01*
G01*
X-10520000Y20900000D02*
G75*
G03*
X-10520000Y20900000I-1680000J0D01*
G01*
G04 #@! TO.C,J4*
X-18400000Y21400000D02*
X-18400000Y21900000D01*
X-15340000Y20790000D02*
X-15340000Y25510000D01*
X-20510000Y25810000D02*
X-21760000Y25810000D01*
X-15340000Y24200000D02*
X-15950000Y24200000D01*
X-15950000Y21400000D02*
X-15950000Y24900000D01*
X-17900000Y24900000D02*
X-17900000Y25510000D01*
X-19700000Y25510000D02*
X-19700000Y25710000D01*
X-20850000Y21400000D02*
X-15950000Y21400000D01*
X-21460000Y25510000D02*
X-21460000Y20790000D01*
X-19700000Y25610000D02*
X-20000000Y25610000D01*
X-18500000Y21900000D02*
X-18300000Y21900000D01*
X-21460000Y22900000D02*
X-20850000Y22900000D01*
X-20000000Y25710000D02*
X-20000000Y25510000D01*
X-20850000Y24900000D02*
X-20850000Y21400000D01*
X-15950000Y24900000D02*
X-17900000Y24900000D01*
X-15340000Y22900000D02*
X-15950000Y22900000D01*
X-21460000Y20790000D02*
X-15340000Y20790000D01*
X-18900000Y24900000D02*
X-20850000Y24900000D01*
X-18300000Y21900000D02*
X-18300000Y21400000D01*
X-18500000Y21400000D02*
X-18500000Y21900000D01*
X-15340000Y25510000D02*
X-21460000Y25510000D01*
X-21760000Y25810000D02*
X-21760000Y24560000D01*
X-19700000Y25710000D02*
X-20000000Y25710000D01*
X-18900000Y25510000D02*
X-18900000Y24900000D01*
X-21460000Y24200000D02*
X-20850000Y24200000D01*
G04 #@! TO.C,J2*
X6310000Y12690000D02*
X-5410000Y12690000D01*
X-5410000Y13900000D02*
X-5910000Y13900000D01*
X7110000Y14010000D02*
X7110000Y16510000D01*
X7110000Y16510000D02*
X4610000Y16510000D01*
X-5410000Y12690000D02*
X-5410000Y13900000D01*
X6810000Y16210000D02*
X-5910000Y16210000D01*
X6810000Y14710000D02*
X5810000Y14710000D01*
X-5910000Y16210000D02*
X-5910000Y12190000D01*
X6310000Y13900000D02*
X6310000Y12690000D01*
X-5910000Y12190000D02*
X6810000Y12190000D01*
X5810000Y14710000D02*
X5810000Y16210000D01*
X-4910000Y14710000D02*
X-4910000Y16210000D01*
X-5910000Y14710000D02*
X-4910000Y14710000D01*
X6810000Y13900000D02*
X6310000Y13900000D01*
X6810000Y12190000D02*
X6810000Y16210000D01*
G04 #@! TD*
M02*
