G04 #@! TF.GenerationSoftware,KiCad,Pcbnew,(6.0.11-0)*
G04 #@! TF.CreationDate,2023-05-22T16:43:52+12:00*
G04 #@! TF.ProjectId,head-interface,68656164-2d69-46e7-9465-72666163652e,rev?*
G04 #@! TF.SameCoordinates,PX5f5e100PY5f5e100*
G04 #@! TF.FileFunction,Legend,Top*
G04 #@! TF.FilePolarity,Positive*
%FSLAX46Y46*%
G04 Gerber Fmt 4.6, Leading zero omitted, Abs format (unit mm)*
G04 Created by KiCad (PCBNEW (6.0.11-0)) date 2023-05-22 16:43:52*
%MOMM*%
%LPD*%
G01*
G04 APERTURE LIST*
%ADD10C,0.150000*%
%ADD11C,0.120000*%
G04 APERTURE END LIST*
D10*
G04 #@! TO.C,J9*
X8666666Y19547620D02*
X8666666Y18833334D01*
X8619047Y18690477D01*
X8523809Y18595239D01*
X8380952Y18547620D01*
X8285714Y18547620D01*
X9190476Y18547620D02*
X9380952Y18547620D01*
X9476190Y18595239D01*
X9523809Y18642858D01*
X9619047Y18785715D01*
X9666666Y18976191D01*
X9666666Y19357143D01*
X9619047Y19452381D01*
X9571428Y19500000D01*
X9476190Y19547620D01*
X9285714Y19547620D01*
X9190476Y19500000D01*
X9142857Y19452381D01*
X9095238Y19357143D01*
X9095238Y19119048D01*
X9142857Y19023810D01*
X9190476Y18976191D01*
X9285714Y18928572D01*
X9476190Y18928572D01*
X9571428Y18976191D01*
X9619047Y19023810D01*
X9666666Y19119048D01*
G04 #@! TO.C,J3*
X14466666Y8177952D02*
X14466666Y7463666D01*
X14419047Y7320809D01*
X14323809Y7225571D01*
X14180952Y7177952D01*
X14085714Y7177952D01*
X14847619Y8177952D02*
X15466666Y8177952D01*
X15133333Y7796999D01*
X15276190Y7796999D01*
X15371428Y7749380D01*
X15419047Y7701761D01*
X15466666Y7606523D01*
X15466666Y7368428D01*
X15419047Y7273190D01*
X15371428Y7225571D01*
X15276190Y7177952D01*
X14990476Y7177952D01*
X14895238Y7225571D01*
X14847619Y7273190D01*
G04 #@! TO.C,J1*
X-15033334Y8277952D02*
X-15033334Y7563666D01*
X-15080953Y7420809D01*
X-15176191Y7325571D01*
X-15319048Y7277952D01*
X-15414286Y7277952D01*
X-14033334Y7277952D02*
X-14604762Y7277952D01*
X-14319048Y7277952D02*
X-14319048Y8277952D01*
X-14414286Y8135094D01*
X-14509524Y8039856D01*
X-14604762Y7992237D01*
G04 #@! TO.C,J8*
X15266666Y20947620D02*
X15266666Y20233334D01*
X15219047Y20090477D01*
X15123809Y19995239D01*
X14980952Y19947620D01*
X14885714Y19947620D01*
X15885714Y20519048D02*
X15790476Y20566667D01*
X15742857Y20614286D01*
X15695238Y20709524D01*
X15695238Y20757143D01*
X15742857Y20852381D01*
X15790476Y20900000D01*
X15885714Y20947620D01*
X16076190Y20947620D01*
X16171428Y20900000D01*
X16219047Y20852381D01*
X16266666Y20757143D01*
X16266666Y20709524D01*
X16219047Y20614286D01*
X16171428Y20566667D01*
X16076190Y20519048D01*
X15885714Y20519048D01*
X15790476Y20471429D01*
X15742857Y20423810D01*
X15695238Y20328572D01*
X15695238Y20138096D01*
X15742857Y20042858D01*
X15790476Y19995239D01*
X15885714Y19947620D01*
X16076190Y19947620D01*
X16171428Y19995239D01*
X16219047Y20042858D01*
X16266666Y20138096D01*
X16266666Y20328572D01*
X16219047Y20423810D01*
X16171428Y20471429D01*
X16076190Y20519048D01*
X17038095Y19972620D02*
X17038095Y20972620D01*
X17371428Y20258334D01*
X17704761Y20972620D01*
X17704761Y19972620D01*
X18371428Y20972620D02*
X18561904Y20972620D01*
X18657142Y20925000D01*
X18752380Y20829762D01*
X18800000Y20639286D01*
X18800000Y20305953D01*
X18752380Y20115477D01*
X18657142Y20020239D01*
X18561904Y19972620D01*
X18371428Y19972620D01*
X18276190Y20020239D01*
X18180952Y20115477D01*
X18133333Y20305953D01*
X18133333Y20639286D01*
X18180952Y20829762D01*
X18276190Y20925000D01*
X18371428Y20972620D01*
X19085714Y20972620D02*
X19657142Y20972620D01*
X19371428Y19972620D02*
X19371428Y20972620D01*
X20180952Y20972620D02*
X20371428Y20972620D01*
X20466666Y20925000D01*
X20561904Y20829762D01*
X20609523Y20639286D01*
X20609523Y20305953D01*
X20561904Y20115477D01*
X20466666Y20020239D01*
X20371428Y19972620D01*
X20180952Y19972620D01*
X20085714Y20020239D01*
X19990476Y20115477D01*
X19942857Y20305953D01*
X19942857Y20639286D01*
X19990476Y20829762D01*
X20085714Y20925000D01*
X20180952Y20972620D01*
X21609523Y19972620D02*
X21276190Y20448810D01*
X21038095Y19972620D02*
X21038095Y20972620D01*
X21419047Y20972620D01*
X21514285Y20925000D01*
X21561904Y20877381D01*
X21609523Y20782143D01*
X21609523Y20639286D01*
X21561904Y20544048D01*
X21514285Y20496429D01*
X21419047Y20448810D01*
X21038095Y20448810D01*
G04 #@! TO.C,J6*
X8766666Y20947620D02*
X8766666Y20233334D01*
X8719047Y20090477D01*
X8623809Y19995239D01*
X8480952Y19947620D01*
X8385714Y19947620D01*
X9671428Y20947620D02*
X9480952Y20947620D01*
X9385714Y20900000D01*
X9338095Y20852381D01*
X9242857Y20709524D01*
X9195238Y20519048D01*
X9195238Y20138096D01*
X9242857Y20042858D01*
X9290476Y19995239D01*
X9385714Y19947620D01*
X9576190Y19947620D01*
X9671428Y19995239D01*
X9719047Y20042858D01*
X9766666Y20138096D01*
X9766666Y20376191D01*
X9719047Y20471429D01*
X9671428Y20519048D01*
X9576190Y20566667D01*
X9385714Y20566667D01*
X9290476Y20519048D01*
X9242857Y20471429D01*
X9195238Y20376191D01*
X8390476Y17147620D02*
X8390476Y18147620D01*
X8771428Y18147620D01*
X8866666Y18100000D01*
X8914285Y18052381D01*
X8961904Y17957143D01*
X8961904Y17814286D01*
X8914285Y17719048D01*
X8866666Y17671429D01*
X8771428Y17623810D01*
X8390476Y17623810D01*
X9342857Y17433334D02*
X9819047Y17433334D01*
X9247619Y17147620D02*
X9580952Y18147620D01*
X9914285Y17147620D01*
X10819047Y17147620D02*
X10485714Y17623810D01*
X10247619Y17147620D02*
X10247619Y18147620D01*
X10628571Y18147620D01*
X10723809Y18100000D01*
X10771428Y18052381D01*
X10819047Y17957143D01*
X10819047Y17814286D01*
X10771428Y17719048D01*
X10723809Y17671429D01*
X10628571Y17623810D01*
X10247619Y17623810D01*
X11104761Y18147620D02*
X11676190Y18147620D01*
X11390476Y17147620D02*
X11390476Y18147620D01*
X13104761Y17671429D02*
X12771428Y17671429D01*
X12771428Y17147620D02*
X12771428Y18147620D01*
X13247619Y18147620D01*
X13580952Y17433334D02*
X14057142Y17433334D01*
X13485714Y17147620D02*
X13819047Y18147620D01*
X14152380Y17147620D01*
X14485714Y17147620D02*
X14485714Y18147620D01*
X15057142Y17147620D01*
X15057142Y18147620D01*
X15485714Y17195239D02*
X15628571Y17147620D01*
X15866666Y17147620D01*
X15961904Y17195239D01*
X16009523Y17242858D01*
X16057142Y17338096D01*
X16057142Y17433334D01*
X16009523Y17528572D01*
X15961904Y17576191D01*
X15866666Y17623810D01*
X15676190Y17671429D01*
X15580952Y17719048D01*
X15533333Y17766667D01*
X15485714Y17861905D01*
X15485714Y17957143D01*
X15533333Y18052381D01*
X15580952Y18100000D01*
X15676190Y18147620D01*
X15914285Y18147620D01*
X16057142Y18100000D01*
G04 #@! TO.C,J7*
X-5533334Y20047620D02*
X-5533334Y19333334D01*
X-5580953Y19190477D01*
X-5676191Y19095239D01*
X-5819048Y19047620D01*
X-5914286Y19047620D01*
X-5152381Y20047620D02*
X-4485715Y20047620D01*
X-4914286Y19047620D01*
X-3209524Y19559429D02*
X-3542858Y19559429D01*
X-3542858Y19035620D02*
X-3542858Y20035620D01*
X-3066667Y20035620D01*
X-2733334Y19321334D02*
X-2257143Y19321334D01*
X-2828572Y19035620D02*
X-2495239Y20035620D01*
X-2161905Y19035620D01*
X-1828572Y19035620D02*
X-1828572Y20035620D01*
X-1257143Y19035620D01*
X-1257143Y20035620D01*
G04 #@! TO.C,J5*
X-10783334Y15747620D02*
X-10783334Y15033334D01*
X-10830953Y14890477D01*
X-10926191Y14795239D01*
X-11069048Y14747620D01*
X-11164286Y14747620D01*
X-9830953Y15747620D02*
X-10307143Y15747620D01*
X-10354762Y15271429D01*
X-10307143Y15319048D01*
X-10211905Y15366667D01*
X-9973810Y15366667D01*
X-9878572Y15319048D01*
X-9830953Y15271429D01*
X-9783334Y15176191D01*
X-9783334Y14938096D01*
X-9830953Y14842858D01*
X-9878572Y14795239D01*
X-9973810Y14747620D01*
X-10211905Y14747620D01*
X-10307143Y14795239D01*
X-10354762Y14842858D01*
X-12950000Y16147620D02*
X-12950000Y17147620D01*
X-12950000Y16671429D02*
X-12378572Y16671429D01*
X-12378572Y16147620D02*
X-12378572Y17147620D01*
X-11902381Y16671429D02*
X-11569048Y16671429D01*
X-11426191Y16147620D02*
X-11902381Y16147620D01*
X-11902381Y17147620D01*
X-11426191Y17147620D01*
X-11045239Y16433334D02*
X-10569048Y16433334D01*
X-11140477Y16147620D02*
X-10807143Y17147620D01*
X-10473810Y16147620D01*
X-10283334Y17147620D02*
X-9711905Y17147620D01*
X-9997620Y16147620D02*
X-9997620Y17147620D01*
X-9378572Y16671429D02*
X-9045239Y16671429D01*
X-8902381Y16147620D02*
X-9378572Y16147620D01*
X-9378572Y17147620D01*
X-8902381Y17147620D01*
X-7902381Y16147620D02*
X-8235715Y16623810D01*
X-8473810Y16147620D02*
X-8473810Y17147620D01*
X-8092858Y17147620D01*
X-7997620Y17100000D01*
X-7950000Y17052381D01*
X-7902381Y16957143D01*
X-7902381Y16814286D01*
X-7950000Y16719048D01*
X-7997620Y16671429D01*
X-8092858Y16623810D01*
X-8473810Y16623810D01*
G04 #@! TO.C,J4*
X-21733334Y20247620D02*
X-21733334Y19533334D01*
X-21780953Y19390477D01*
X-21876191Y19295239D01*
X-22019048Y19247620D01*
X-22114286Y19247620D01*
X-20828572Y19914286D02*
X-20828572Y19247620D01*
X-21066667Y20295239D02*
X-21304762Y19580953D01*
X-20685715Y19580953D01*
X-19933334Y20247620D02*
X-19361905Y20247620D01*
X-19647620Y19247620D02*
X-19647620Y20247620D01*
X-19028572Y19247620D02*
X-19028572Y20247620D01*
X-19028572Y19771429D02*
X-18457143Y19771429D01*
X-18457143Y19247620D02*
X-18457143Y20247620D01*
X-17980953Y19771429D02*
X-17647620Y19771429D01*
X-17504762Y19247620D02*
X-17980953Y19247620D01*
X-17980953Y20247620D01*
X-17504762Y20247620D01*
X-16504762Y19247620D02*
X-16838096Y19723810D01*
X-17076191Y19247620D02*
X-17076191Y20247620D01*
X-16695239Y20247620D01*
X-16600000Y20200000D01*
X-16552381Y20152381D01*
X-16504762Y20057143D01*
X-16504762Y19914286D01*
X-16552381Y19819048D01*
X-16600000Y19771429D01*
X-16695239Y19723810D01*
X-17076191Y19723810D01*
X-16076191Y19247620D02*
X-16076191Y20247620D01*
X-15742858Y19533334D01*
X-15409524Y20247620D01*
X-15409524Y19247620D01*
G04 #@! TO.C,J2*
X7766666Y12897620D02*
X7766666Y12183334D01*
X7719047Y12040477D01*
X7623809Y11945239D01*
X7480952Y11897620D01*
X7385714Y11897620D01*
X8195238Y12802381D02*
X8242857Y12850000D01*
X8338095Y12897620D01*
X8576190Y12897620D01*
X8671428Y12850000D01*
X8719047Y12802381D01*
X8766666Y12707143D01*
X8766666Y12611905D01*
X8719047Y12469048D01*
X8147619Y11897620D01*
X8766666Y11897620D01*
D11*
G04 #@! TO.C,J9*
X3200000Y20150000D02*
X3200000Y19950000D01*
X2350000Y15840000D02*
X7250000Y15840000D01*
X7250000Y15840000D02*
X7250000Y19340000D01*
X1740000Y17340000D02*
X2350000Y17340000D01*
X4900000Y16340000D02*
X4900000Y15840000D01*
X4300000Y19950000D02*
X4300000Y19340000D01*
X2350000Y19340000D02*
X2350000Y15840000D01*
X3500000Y19950000D02*
X3500000Y20150000D01*
X1740000Y19950000D02*
X1740000Y15230000D01*
X7860000Y19950000D02*
X1740000Y19950000D01*
X4300000Y19340000D02*
X2350000Y19340000D01*
X7860000Y17340000D02*
X7250000Y17340000D01*
X7250000Y19340000D02*
X5300000Y19340000D01*
X1740000Y18640000D02*
X2350000Y18640000D01*
X4800000Y15840000D02*
X4800000Y16340000D01*
X4700000Y16340000D02*
X4900000Y16340000D01*
X7860000Y15230000D02*
X7860000Y19950000D01*
X3500000Y20050000D02*
X3200000Y20050000D01*
X5300000Y19340000D02*
X5300000Y19950000D01*
X1440000Y20250000D02*
X1440000Y19000000D01*
X2690000Y20250000D02*
X1440000Y20250000D01*
X1740000Y15230000D02*
X7860000Y15230000D01*
X7860000Y18640000D02*
X7250000Y18640000D01*
X3500000Y20150000D02*
X3200000Y20150000D01*
X4700000Y15840000D02*
X4700000Y16340000D01*
G04 #@! TO.C,J3*
X1215000Y5940000D02*
X1215000Y7150000D01*
X715000Y5440000D02*
X13435000Y5440000D01*
X13735000Y9760000D02*
X11235000Y9760000D01*
X1215000Y7150000D02*
X715000Y7150000D01*
X715000Y7960000D02*
X1715000Y7960000D01*
X12435000Y7960000D02*
X12435000Y9460000D01*
X12935000Y5940000D02*
X1215000Y5940000D01*
X13435000Y7960000D02*
X12435000Y7960000D01*
X13435000Y9460000D02*
X715000Y9460000D01*
X715000Y9460000D02*
X715000Y5440000D01*
X13735000Y7260000D02*
X13735000Y9760000D01*
X13435000Y5440000D02*
X13435000Y9460000D01*
X12935000Y7150000D02*
X12935000Y5940000D01*
X13435000Y7150000D02*
X12935000Y7150000D01*
X1715000Y7960000D02*
X1715000Y9460000D01*
G04 #@! TO.C,J1*
X-1090000Y7150000D02*
X-1090000Y5940000D01*
X-590000Y7150000D02*
X-1090000Y7150000D01*
X-12310000Y7960000D02*
X-12310000Y9460000D01*
X-590000Y9460000D02*
X-13310000Y9460000D01*
X-13310000Y5440000D02*
X-590000Y5440000D01*
X-590000Y7960000D02*
X-1590000Y7960000D01*
X-590000Y5440000D02*
X-590000Y9460000D01*
X-13310000Y9460000D02*
X-13310000Y5440000D01*
X-1090000Y5940000D02*
X-12810000Y5940000D01*
X-12810000Y7150000D02*
X-13310000Y7150000D01*
X-13310000Y7960000D02*
X-12310000Y7960000D01*
X-1590000Y7960000D02*
X-1590000Y9460000D01*
X-290000Y9760000D02*
X-2790000Y9760000D01*
X-290000Y7260000D02*
X-290000Y9760000D01*
X-12810000Y5940000D02*
X-12810000Y7150000D01*
G04 #@! TO.C,J8*
X9490000Y23200000D02*
X8990000Y23200000D01*
X9990000Y24010000D02*
X9990000Y25510000D01*
X20710000Y24010000D02*
X20710000Y25510000D01*
X22010000Y25810000D02*
X19510000Y25810000D01*
X8990000Y24010000D02*
X9990000Y24010000D01*
X21710000Y23200000D02*
X21210000Y23200000D01*
X22010000Y23310000D02*
X22010000Y25810000D01*
X9490000Y21990000D02*
X9490000Y23200000D01*
X21210000Y21990000D02*
X9490000Y21990000D01*
X8990000Y25510000D02*
X8990000Y21490000D01*
X8990000Y21490000D02*
X21710000Y21490000D01*
X21710000Y21490000D02*
X21710000Y25510000D01*
X21210000Y23200000D02*
X21210000Y21990000D01*
X21710000Y24010000D02*
X20710000Y24010000D01*
X21710000Y25510000D02*
X8990000Y25510000D01*
G04 #@! TO.C,J6*
X4700000Y21400000D02*
X4700000Y21900000D01*
X1740000Y20790000D02*
X7860000Y20790000D01*
X7250000Y21400000D02*
X7250000Y24900000D01*
X3500000Y25510000D02*
X3500000Y25710000D01*
X3200000Y25710000D02*
X3200000Y25510000D01*
X7860000Y20790000D02*
X7860000Y25510000D01*
X1740000Y22900000D02*
X2350000Y22900000D01*
X5300000Y24900000D02*
X5300000Y25510000D01*
X4300000Y25510000D02*
X4300000Y24900000D01*
X7250000Y24900000D02*
X5300000Y24900000D01*
X4900000Y21900000D02*
X4900000Y21400000D01*
X1740000Y24200000D02*
X2350000Y24200000D01*
X4800000Y21400000D02*
X4800000Y21900000D01*
X2350000Y24900000D02*
X2350000Y21400000D01*
X1740000Y25510000D02*
X1740000Y20790000D01*
X2690000Y25810000D02*
X1440000Y25810000D01*
X2350000Y21400000D02*
X7250000Y21400000D01*
X7860000Y25510000D02*
X1740000Y25510000D01*
X3500000Y25610000D02*
X3200000Y25610000D01*
X7860000Y22900000D02*
X7250000Y22900000D01*
X7860000Y24200000D02*
X7250000Y24200000D01*
X3500000Y25710000D02*
X3200000Y25710000D01*
X1440000Y25810000D02*
X1440000Y24560000D01*
X4300000Y24900000D02*
X2350000Y24900000D01*
X4700000Y21900000D02*
X4900000Y21900000D01*
G04 #@! TO.C,J7*
X-4510000Y25810000D02*
X-5760000Y25810000D01*
X660000Y20790000D02*
X660000Y25510000D01*
X-2500000Y21400000D02*
X-2500000Y21900000D01*
X-2400000Y21400000D02*
X-2400000Y21900000D01*
X660000Y22900000D02*
X50000Y22900000D01*
X660000Y24200000D02*
X50000Y24200000D01*
X-4000000Y25710000D02*
X-4000000Y25510000D01*
X-5460000Y24200000D02*
X-4850000Y24200000D01*
X-5760000Y25810000D02*
X-5760000Y24560000D01*
X-3700000Y25510000D02*
X-3700000Y25710000D01*
X-5460000Y20790000D02*
X660000Y20790000D01*
X50000Y24900000D02*
X-1900000Y24900000D01*
X-2900000Y25510000D02*
X-2900000Y24900000D01*
X-3700000Y25610000D02*
X-4000000Y25610000D01*
X-5460000Y25510000D02*
X-5460000Y20790000D01*
X-1900000Y24900000D02*
X-1900000Y25510000D01*
X-5460000Y22900000D02*
X-4850000Y22900000D01*
X-2300000Y21900000D02*
X-2300000Y21400000D01*
X-3700000Y25710000D02*
X-4000000Y25710000D01*
X-4850000Y24900000D02*
X-4850000Y21400000D01*
X-4850000Y21400000D02*
X50000Y21400000D01*
X-2500000Y21900000D02*
X-2300000Y21900000D01*
X660000Y25510000D02*
X-5460000Y25510000D01*
X50000Y21400000D02*
X50000Y24900000D01*
X-2900000Y24900000D02*
X-4850000Y24900000D01*
G04 #@! TO.C,J5*
X-11055000Y21841000D02*
X-10926000Y21969000D01*
X-6890000Y25460000D02*
X-14010000Y25460000D01*
X-13475000Y19831000D02*
X-13346000Y19959000D01*
X-6890000Y17740000D02*
X-14010000Y17740000D01*
X-11225000Y22081000D02*
X-11131000Y22174000D01*
X-6650000Y25700000D02*
X-7050000Y25700000D01*
X-6650000Y25060000D02*
X-6650000Y25700000D01*
X-6890000Y17740000D02*
X-6890000Y25460000D01*
X-6890000Y23900000D02*
X-14010000Y23900000D01*
X-14010000Y17740000D02*
X-14010000Y25460000D01*
X-13270000Y19625000D02*
X-13176000Y19719000D01*
X-6890000Y25000000D02*
X-14010000Y25000000D01*
X-10125000Y21791000D02*
G75*
G03*
X-10125504Y20009807I1425003J-891000D01*
G01*
X-7834000Y22340000D02*
G75*
G03*
X-8728674Y22580099I-866003J-1440014D01*
G01*
X-9566000Y19459999D02*
G75*
G03*
X-7810106Y19474642I866000J1439999D01*
G01*
X-8700000Y22580000D02*
G75*
G03*
X-9590264Y22324721I-3J-1679990D01*
G01*
X-7259999Y20034000D02*
G75*
G03*
X-7274642Y21789894I-1439999J866000D01*
G01*
X-10520000Y20900000D02*
G75*
G03*
X-10520000Y20900000I-1680000J0D01*
G01*
G04 #@! TO.C,J4*
X-18400000Y21300000D02*
X-18400000Y21800000D01*
X-15340000Y20690000D02*
X-15340000Y25410000D01*
X-20510000Y25710000D02*
X-21760000Y25710000D01*
X-15340000Y24100000D02*
X-15950000Y24100000D01*
X-15950000Y21300000D02*
X-15950000Y24800000D01*
X-17900000Y24800000D02*
X-17900000Y25410000D01*
X-19700000Y25410000D02*
X-19700000Y25610000D01*
X-20850000Y21300000D02*
X-15950000Y21300000D01*
X-21460000Y25410000D02*
X-21460000Y20690000D01*
X-19700000Y25510000D02*
X-20000000Y25510000D01*
X-18500000Y21800000D02*
X-18300000Y21800000D01*
X-21460000Y22800000D02*
X-20850000Y22800000D01*
X-20000000Y25610000D02*
X-20000000Y25410000D01*
X-20850000Y24800000D02*
X-20850000Y21300000D01*
X-15950000Y24800000D02*
X-17900000Y24800000D01*
X-15340000Y22800000D02*
X-15950000Y22800000D01*
X-21460000Y20690000D02*
X-15340000Y20690000D01*
X-18900000Y24800000D02*
X-20850000Y24800000D01*
X-18300000Y21800000D02*
X-18300000Y21300000D01*
X-18500000Y21300000D02*
X-18500000Y21800000D01*
X-15340000Y25410000D02*
X-21460000Y25410000D01*
X-21760000Y25710000D02*
X-21760000Y24460000D01*
X-19700000Y25610000D02*
X-20000000Y25610000D01*
X-18900000Y25410000D02*
X-18900000Y24800000D01*
X-21460000Y24100000D02*
X-20850000Y24100000D01*
G04 #@! TO.C,J2*
X6310000Y10890000D02*
X-5410000Y10890000D01*
X-5410000Y12100000D02*
X-5910000Y12100000D01*
X7110000Y12210000D02*
X7110000Y14710000D01*
X7110000Y14710000D02*
X4610000Y14710000D01*
X-5410000Y10890000D02*
X-5410000Y12100000D01*
X6810000Y14410000D02*
X-5910000Y14410000D01*
X6810000Y12910000D02*
X5810000Y12910000D01*
X-5910000Y14410000D02*
X-5910000Y10390000D01*
X6310000Y12100000D02*
X6310000Y10890000D01*
X-5910000Y10390000D02*
X6810000Y10390000D01*
X5810000Y12910000D02*
X5810000Y14410000D01*
X-4910000Y12910000D02*
X-4910000Y14410000D01*
X-5910000Y12910000D02*
X-4910000Y12910000D01*
X6810000Y12100000D02*
X6310000Y12100000D01*
X6810000Y10390000D02*
X6810000Y14410000D01*
G04 #@! TD*
M02*
