%TF.GenerationSoftware,KiCad,Pcbnew,(6.0.11-0)*%
%TF.CreationDate,2023-05-17T22:42:14+12:00*%
%TF.ProjectId,head-interface,68656164-2d69-46e7-9465-72666163652e,rev?*%
%TF.SameCoordinates,PX3135a80PY23aadc0*%
%TF.FileFunction,Copper,L2,Bot*%
%TF.FilePolarity,Positive*%
%FSLAX46Y46*%
G04 Gerber Fmt 4.6, Leading zero omitted, Abs format (unit mm)*
G04 Created by KiCad (PCBNEW (6.0.11-0)) date 2023-05-17 22:42:14*
%MOMM*%
%LPD*%
G01*
G04 APERTURE LIST*
G04 Aperture macros list*
%AMRoundRect*
0 Rectangle with rounded corners*
0 $1 Rounding radius*
0 $2 $3 $4 $5 $6 $7 $8 $9 X,Y pos of 4 corners*
0 Add a 4 corners polygon primitive as box body*
4,1,4,$2,$3,$4,$5,$6,$7,$8,$9,$2,$3,0*
0 Add four circle primitives for the rounded corners*
1,1,$1+$1,$2,$3*
1,1,$1+$1,$4,$5*
1,1,$1+$1,$6,$7*
1,1,$1+$1,$8,$9*
0 Add four rect primitives between the rounded corners*
20,1,$1+$1,$2,$3,$4,$5,0*
20,1,$1+$1,$4,$5,$6,$7,0*
20,1,$1+$1,$6,$7,$8,$9,0*
20,1,$1+$1,$8,$9,$2,$3,0*%
G04 Aperture macros list end*
%TA.AperFunction,ComponentPad*%
%ADD10RoundRect,0.250000X0.600000X0.725000X-0.600000X0.725000X-0.600000X-0.725000X0.600000X-0.725000X0*%
%TD*%
%TA.AperFunction,ComponentPad*%
%ADD11O,1.700000X1.950000*%
%TD*%
%TA.AperFunction,ComponentPad*%
%ADD12RoundRect,0.250000X-0.350000X-0.625000X0.350000X-0.625000X0.350000X0.625000X-0.350000X0.625000X0*%
%TD*%
%TA.AperFunction,ComponentPad*%
%ADD13O,1.200000X1.750000*%
%TD*%
%TA.AperFunction,ComponentPad*%
%ADD14C,6.000000*%
%TD*%
%TA.AperFunction,ComponentPad*%
%ADD15R,2.400000X2.400000*%
%TD*%
%TA.AperFunction,ComponentPad*%
%ADD16C,2.400000*%
%TD*%
%TA.AperFunction,ViaPad*%
%ADD17C,0.800000*%
%TD*%
%TA.AperFunction,Conductor*%
%ADD18C,0.500000*%
%TD*%
%TA.AperFunction,Conductor*%
%ADD19C,1.000000*%
%TD*%
G04 APERTURE END LIST*
D10*
%TO.P,J3,1,Pin_1*%
%TO.N,Net-(J3-Pad1)*%
X39225000Y-19750000D03*
D11*
%TO.P,J3,2,Pin_2*%
%TO.N,Net-(J3-Pad2)*%
X36725000Y-19750000D03*
%TO.P,J3,3,Pin_3*%
%TO.N,Net-(J3-Pad3)*%
X34225000Y-19750000D03*
%TO.P,J3,4,Pin_4*%
%TO.N,Net-(J3-Pad4)*%
X31725000Y-19750000D03*
%TD*%
D10*
%TO.P,J1,1,Pin_1*%
%TO.N,Net-(J1-Pad1)*%
X25200000Y-19750000D03*
D11*
%TO.P,J1,2,Pin_2*%
%TO.N,Net-(J1-Pad2)*%
X22700000Y-19750000D03*
%TO.P,J1,3,Pin_3*%
%TO.N,Net-(J1-Pad3)*%
X20200000Y-19750000D03*
%TO.P,J1,4,Pin_4*%
%TO.N,Net-(J1-Pad4)*%
X17700000Y-19750000D03*
%TD*%
D10*
%TO.P,J8,1,Pin_1*%
%TO.N,Net-(J3-Pad1)*%
X47500000Y-5500000D03*
D11*
%TO.P,J8,2,Pin_2*%
%TO.N,Net-(J3-Pad2)*%
X45000000Y-5500000D03*
%TO.P,J8,3,Pin_3*%
%TO.N,Net-(J3-Pad3)*%
X42500000Y-5500000D03*
%TO.P,J8,4,Pin_4*%
%TO.N,Net-(J3-Pad4)*%
X40000000Y-5500000D03*
%TD*%
D12*
%TO.P,J6,1,Pin_1*%
%TO.N,Net-(J2-Pad2)*%
X32200000Y-5000000D03*
D13*
%TO.P,J6,2,Pin_2*%
%TO.N,Net-(J2-Pad1)*%
X34200000Y-5000000D03*
%TD*%
D14*
%TO.P,H2,1,1*%
%TO.N,GND*%
X50400000Y-13600000D03*
%TD*%
D12*
%TO.P,J7,1,Pin_1*%
%TO.N,Net-(J2-Pad4)*%
X25000000Y-5000000D03*
D13*
%TO.P,J7,2,Pin_2*%
%TO.N,Net-(J2-Pad3)*%
X27000000Y-5000000D03*
%TD*%
D15*
%TO.P,J5,1,Pin_1*%
%TO.N,Net-(J1-Pad1)*%
X19700000Y-7800000D03*
D16*
%TO.P,J5,2,Pin_2*%
%TO.N,Net-(J1-Pad2)*%
X16200000Y-7800000D03*
%TD*%
D12*
%TO.P,J4,1,Pin_1*%
%TO.N,Net-(J1-Pad4)*%
X9000000Y-5000000D03*
D13*
%TO.P,J4,2,Pin_2*%
%TO.N,Net-(J1-Pad3)*%
X11000000Y-5000000D03*
%TD*%
D14*
%TO.P,H1,1,1*%
%TO.N,GND*%
X6400000Y-13600000D03*
%TD*%
D10*
%TO.P,J2,1,Pin_1*%
%TO.N,Net-(J2-Pad1)*%
X32600000Y-14800000D03*
D11*
%TO.P,J2,2,Pin_2*%
%TO.N,Net-(J2-Pad2)*%
X30100000Y-14800000D03*
%TO.P,J2,3,Pin_3*%
%TO.N,Net-(J2-Pad3)*%
X27600000Y-14800000D03*
%TO.P,J2,4,Pin_4*%
%TO.N,Net-(J2-Pad4)*%
X25100000Y-14800000D03*
%TD*%
D17*
%TO.N,GND*%
X21275000Y-12275000D03*
X15625000Y-18100000D03*
X12050000Y-13700000D03*
X13000000Y-8925000D03*
X30850000Y-12000000D03*
X38175000Y-9700000D03*
X41300000Y-18100000D03*
X42525000Y-21050000D03*
X28375000Y-21050000D03*
X14225000Y-21050000D03*
X7450000Y-3925000D03*
X49650000Y-3925000D03*
X36825000Y-3925000D03*
X22200000Y-3925000D03*
X13850000Y-3925000D03*
X31050000Y-16950000D03*
X25875000Y-16975000D03*
X14750000Y-10450000D03*
X35950000Y-11925000D03*
X28350000Y-12000000D03*
X23025000Y-13275000D03*
%TD*%
D18*
%TO.N,Net-(J2-Pad3)*%
X27000000Y-5000000D02*
X27000000Y-14200000D01*
X27000000Y-14200000D02*
X27600000Y-14800000D01*
%TO.N,Net-(J2-Pad4)*%
X25000000Y-14700000D02*
X25100000Y-14800000D01*
X25000000Y-5000000D02*
X25000000Y-14700000D01*
%TO.N,Net-(J1-Pad4)*%
X17700000Y-17500000D02*
X9000000Y-8800000D01*
X9000000Y-8800000D02*
X9000000Y-5000000D01*
X17700000Y-19750000D02*
X17700000Y-17500000D01*
%TO.N,Net-(J1-Pad3)*%
X11000000Y-9200000D02*
X11000000Y-5000000D01*
X20200000Y-19750000D02*
X20200000Y-18400000D01*
X20200000Y-18400000D02*
X11000000Y-9200000D01*
D19*
%TO.N,Net-(J1-Pad1)*%
X19700000Y-12900000D02*
X19700000Y-7800000D01*
X25200000Y-18400000D02*
X19700000Y-12900000D01*
X25200000Y-19750000D02*
X25200000Y-18400000D01*
%TO.N,Net-(J1-Pad2)*%
X22700000Y-18300000D02*
X16200000Y-11800000D01*
X22700000Y-19750000D02*
X22700000Y-18300000D01*
X16200000Y-11800000D02*
X16200000Y-7800000D01*
%TO.N,Net-(J3-Pad1)*%
X39225000Y-17375000D02*
X47550000Y-9050000D01*
X47550000Y-9050000D02*
X47550000Y-5550000D01*
X39225000Y-19750000D02*
X39225000Y-17375000D01*
X47550000Y-5550000D02*
X47500000Y-5500000D01*
%TO.N,Net-(J3-Pad2)*%
X36725000Y-17875000D02*
X45050000Y-9550000D01*
X36725000Y-19750000D02*
X36725000Y-17875000D01*
X45050000Y-5550000D02*
X45000000Y-5500000D01*
X45050000Y-9550000D02*
X45050000Y-5550000D01*
%TO.N,Net-(J3-Pad3)*%
X42550000Y-5550000D02*
X42500000Y-5500000D01*
X42550000Y-10050000D02*
X42550000Y-5550000D01*
X34225000Y-18375000D02*
X42550000Y-10050000D01*
X34225000Y-19750000D02*
X34225000Y-18375000D01*
%TO.N,Net-(J3-Pad4)*%
X40050000Y-10550000D02*
X40050000Y-5550000D01*
X31725000Y-18875000D02*
X40050000Y-10550000D01*
X31725000Y-19750000D02*
X31725000Y-18875000D01*
X40050000Y-5550000D02*
X40000000Y-5500000D01*
D18*
%TO.N,Net-(J2-Pad1)*%
X34200000Y-13200000D02*
X34200000Y-5000000D01*
X32600000Y-14800000D02*
X34200000Y-13200000D01*
%TO.N,Net-(J2-Pad2)*%
X30200000Y-14800000D02*
X32200000Y-12800000D01*
X30100000Y-14800000D02*
X30200000Y-14800000D01*
X32200000Y-12800000D02*
X32200000Y-5000000D01*
%TD*%
%TA.AperFunction,Conductor*%
%TO.N,GND*%
G36*
X49669323Y-3110071D02*
G01*
X49691869Y-3113665D01*
X49700769Y-3112534D01*
X49700772Y-3112534D01*
X49703847Y-3112143D01*
X49731740Y-3111712D01*
X49846549Y-3122704D01*
X49869251Y-3127006D01*
X50001407Y-3164886D01*
X50022933Y-3173261D01*
X50145936Y-3234638D01*
X50165579Y-3246808D01*
X50275303Y-3329621D01*
X50292388Y-3345171D01*
X50385139Y-3446631D01*
X50399098Y-3465041D01*
X50435428Y-3523390D01*
X50471755Y-3581736D01*
X50482120Y-3602394D01*
X50491834Y-3627203D01*
X50513858Y-3683450D01*
X50521709Y-3703502D01*
X50525715Y-3719190D01*
X50526242Y-3719045D01*
X50528629Y-3727701D01*
X50529765Y-3736601D01*
X50533352Y-3744824D01*
X50533353Y-3744826D01*
X50545093Y-3771736D01*
X50549919Y-3784697D01*
X53204306Y-12318430D01*
X53207597Y-12331405D01*
X53213511Y-12361308D01*
X53213514Y-12361317D01*
X53215255Y-12370119D01*
X53223514Y-12385991D01*
X53224094Y-12387106D01*
X53232731Y-12408160D01*
X53327698Y-12716454D01*
X53330842Y-12728878D01*
X53399665Y-13073750D01*
X53401531Y-13086439D01*
X53434935Y-13436504D01*
X53435502Y-13449317D01*
X53434926Y-13535177D01*
X53433143Y-13800973D01*
X53432404Y-13813778D01*
X53396864Y-14139915D01*
X53394309Y-14163358D01*
X53392273Y-14176022D01*
X53318829Y-14519939D01*
X53315515Y-14532329D01*
X53207493Y-14866986D01*
X53202941Y-14878968D01*
X53064235Y-15194584D01*
X53061454Y-15200912D01*
X53055703Y-15212376D01*
X53054064Y-15215266D01*
X52894347Y-15496886D01*
X52882214Y-15518279D01*
X52875337Y-15529083D01*
X52671955Y-15815329D01*
X52671654Y-15815753D01*
X52663703Y-15825817D01*
X52431921Y-16090305D01*
X52422987Y-16099508D01*
X52370670Y-16148185D01*
X52165529Y-16339052D01*
X52155722Y-16347286D01*
X51994426Y-16469276D01*
X51875236Y-16559420D01*
X51864626Y-16566626D01*
X51595159Y-16730243D01*
X51571819Y-16741316D01*
X51561609Y-16744931D01*
X51532060Y-16766241D01*
X51519780Y-16774059D01*
X43525115Y-21236198D01*
X42988695Y-21535595D01*
X42973837Y-21542658D01*
X42944446Y-21554343D01*
X42937373Y-21559865D01*
X42937370Y-21559867D01*
X42932391Y-21563754D01*
X42910892Y-21577289D01*
X42828261Y-21618321D01*
X42811493Y-21625193D01*
X42699796Y-21661831D01*
X42682215Y-21666226D01*
X42566423Y-21686461D01*
X42548396Y-21688289D01*
X42463270Y-21690763D01*
X42445871Y-21689295D01*
X42437114Y-21688812D01*
X42428309Y-21687051D01*
X42419366Y-21687832D01*
X42419364Y-21687832D01*
X42382841Y-21691022D01*
X42371878Y-21691500D01*
X14445213Y-21691500D01*
X14427463Y-21690244D01*
X14408419Y-21687534D01*
X14408417Y-21687534D01*
X14399534Y-21686270D01*
X14383108Y-21688637D01*
X14358671Y-21689760D01*
X14275372Y-21685474D01*
X14258902Y-21684627D01*
X14242763Y-21682747D01*
X14118362Y-21660052D01*
X14102597Y-21656111D01*
X13997063Y-21622363D01*
X13982149Y-21617594D01*
X13967024Y-21611657D01*
X13883096Y-21572293D01*
X13862737Y-21559865D01*
X13860266Y-21558466D01*
X13853163Y-21552981D01*
X13825311Y-21542080D01*
X13809827Y-21534770D01*
X5290179Y-16779618D01*
X5274253Y-16769071D01*
X5270604Y-16766234D01*
X5254624Y-16753811D01*
X5236658Y-16746711D01*
X5216425Y-16736525D01*
X4942753Y-16566299D01*
X4932389Y-16559109D01*
X4653940Y-16344503D01*
X4644344Y-16336309D01*
X4388767Y-16094939D01*
X4380039Y-16085827D01*
X4200916Y-15879023D01*
X4149882Y-15820102D01*
X4142112Y-15810167D01*
X4133511Y-15797954D01*
X3939686Y-15522753D01*
X3932946Y-15512086D01*
X3852889Y-15370106D01*
X3760280Y-15205865D01*
X3754644Y-15194584D01*
X3737165Y-15154720D01*
X3613472Y-14872629D01*
X3608991Y-14860838D01*
X3604388Y-14846616D01*
X3500729Y-14526381D01*
X3497449Y-14514198D01*
X3423183Y-14170595D01*
X3421138Y-14158144D01*
X3381609Y-13808830D01*
X3380820Y-13796236D01*
X3380510Y-13771384D01*
X3377361Y-13519432D01*
X3376428Y-13444728D01*
X3376902Y-13432119D01*
X3407689Y-13081926D01*
X3409422Y-13069428D01*
X3475081Y-12724070D01*
X3478056Y-12711807D01*
X3535135Y-12519171D01*
X3567547Y-12409783D01*
X3577336Y-12385991D01*
X3578272Y-12384248D01*
X3578274Y-12384243D01*
X3582518Y-12376336D01*
X3591527Y-12333675D01*
X3594494Y-12322286D01*
X4541569Y-9277484D01*
X5661985Y-5675400D01*
X7891500Y-5675400D01*
X7902474Y-5781166D01*
X7904655Y-5787702D01*
X7904655Y-5787704D01*
X7925242Y-5849409D01*
X7958450Y-5948946D01*
X8051522Y-6099348D01*
X8176697Y-6224305D01*
X8182928Y-6228146D01*
X8188673Y-6232683D01*
X8187623Y-6234013D01*
X8229108Y-6280107D01*
X8241500Y-6334597D01*
X8241500Y-8732930D01*
X8240067Y-8751880D01*
X8236801Y-8773349D01*
X8237394Y-8780641D01*
X8237394Y-8780644D01*
X8241085Y-8826018D01*
X8241500Y-8836233D01*
X8241500Y-8844293D01*
X8241925Y-8847937D01*
X8244789Y-8872507D01*
X8245222Y-8876882D01*
X8249324Y-8927306D01*
X8251140Y-8949637D01*
X8253396Y-8956601D01*
X8254587Y-8962560D01*
X8255971Y-8968415D01*
X8256818Y-8975681D01*
X8281735Y-9044327D01*
X8283152Y-9048455D01*
X8303178Y-9110270D01*
X8305649Y-9117899D01*
X8309445Y-9124154D01*
X8311951Y-9129628D01*
X8314670Y-9135058D01*
X8317167Y-9141937D01*
X8321180Y-9148057D01*
X8321180Y-9148058D01*
X8357186Y-9202976D01*
X8359523Y-9206680D01*
X8397405Y-9269107D01*
X8401121Y-9273315D01*
X8401122Y-9273316D01*
X8404803Y-9277484D01*
X8404776Y-9277508D01*
X8407429Y-9280500D01*
X8410132Y-9283733D01*
X8414144Y-9289852D01*
X8419456Y-9294884D01*
X8470383Y-9343128D01*
X8472825Y-9345506D01*
X16904595Y-17777276D01*
X16938621Y-17839588D01*
X16941500Y-17866371D01*
X16941500Y-18427192D01*
X16921498Y-18495313D01*
X16895897Y-18522471D01*
X16896683Y-18523377D01*
X16728292Y-18669499D01*
X16722555Y-18674477D01*
X16704384Y-18696638D01*
X16579760Y-18848627D01*
X16579756Y-18848633D01*
X16576376Y-18852755D01*
X16573738Y-18857390D01*
X16573735Y-18857394D01*
X16530382Y-18933555D01*
X16462325Y-19053114D01*
X16383663Y-19269825D01*
X16382714Y-19275074D01*
X16382713Y-19275077D01*
X16343377Y-19492608D01*
X16343376Y-19492615D01*
X16342639Y-19496692D01*
X16341500Y-19520844D01*
X16341500Y-19932890D01*
X16356080Y-20104720D01*
X16357418Y-20109875D01*
X16357419Y-20109881D01*
X16412657Y-20322703D01*
X16413999Y-20327872D01*
X16508688Y-20538075D01*
X16637441Y-20729319D01*
X16641120Y-20733176D01*
X16641122Y-20733178D01*
X16702710Y-20797738D01*
X16796576Y-20896135D01*
X16981542Y-21033754D01*
X16986293Y-21036170D01*
X16986297Y-21036172D01*
X17049481Y-21068296D01*
X17187051Y-21138240D01*
X17192145Y-21139822D01*
X17192148Y-21139823D01*
X17392020Y-21201885D01*
X17407227Y-21206607D01*
X17412516Y-21207308D01*
X17630489Y-21236198D01*
X17630494Y-21236198D01*
X17635774Y-21236898D01*
X17641103Y-21236698D01*
X17641105Y-21236698D01*
X17750966Y-21232574D01*
X17866158Y-21228249D01*
X17888802Y-21223498D01*
X18086572Y-21182002D01*
X18091791Y-21180907D01*
X18096750Y-21178949D01*
X18096752Y-21178948D01*
X18301256Y-21098185D01*
X18301258Y-21098184D01*
X18306221Y-21096224D01*
X18342343Y-21074305D01*
X18498757Y-20979390D01*
X18498756Y-20979390D01*
X18503317Y-20976623D01*
X18543134Y-20942072D01*
X18673412Y-20829023D01*
X18673414Y-20829021D01*
X18677445Y-20825523D01*
X18741048Y-20747954D01*
X18820240Y-20651373D01*
X18820244Y-20651367D01*
X18823624Y-20647245D01*
X18841552Y-20615750D01*
X18892632Y-20566445D01*
X18962262Y-20552583D01*
X19028333Y-20578566D01*
X19055573Y-20607716D01*
X19137441Y-20729319D01*
X19141120Y-20733176D01*
X19141122Y-20733178D01*
X19202710Y-20797738D01*
X19296576Y-20896135D01*
X19481542Y-21033754D01*
X19486293Y-21036170D01*
X19486297Y-21036172D01*
X19549481Y-21068296D01*
X19687051Y-21138240D01*
X19692145Y-21139822D01*
X19692148Y-21139823D01*
X19892020Y-21201885D01*
X19907227Y-21206607D01*
X19912516Y-21207308D01*
X20130489Y-21236198D01*
X20130494Y-21236198D01*
X20135774Y-21236898D01*
X20141103Y-21236698D01*
X20141105Y-21236698D01*
X20250966Y-21232574D01*
X20366158Y-21228249D01*
X20388802Y-21223498D01*
X20586572Y-21182002D01*
X20591791Y-21180907D01*
X20596750Y-21178949D01*
X20596752Y-21178948D01*
X20801256Y-21098185D01*
X20801258Y-21098184D01*
X20806221Y-21096224D01*
X20842343Y-21074305D01*
X20998757Y-20979390D01*
X20998756Y-20979390D01*
X21003317Y-20976623D01*
X21043134Y-20942072D01*
X21173412Y-20829023D01*
X21173414Y-20829021D01*
X21177445Y-20825523D01*
X21241048Y-20747954D01*
X21320240Y-20651373D01*
X21320244Y-20651367D01*
X21323624Y-20647245D01*
X21341552Y-20615750D01*
X21392632Y-20566445D01*
X21462262Y-20552583D01*
X21528333Y-20578566D01*
X21555573Y-20607716D01*
X21637441Y-20729319D01*
X21641120Y-20733176D01*
X21641122Y-20733178D01*
X21702710Y-20797738D01*
X21796576Y-20896135D01*
X21981542Y-21033754D01*
X21986293Y-21036170D01*
X21986297Y-21036172D01*
X22049481Y-21068296D01*
X22187051Y-21138240D01*
X22192145Y-21139822D01*
X22192148Y-21139823D01*
X22392020Y-21201885D01*
X22407227Y-21206607D01*
X22412516Y-21207308D01*
X22630489Y-21236198D01*
X22630494Y-21236198D01*
X22635774Y-21236898D01*
X22641103Y-21236698D01*
X22641105Y-21236698D01*
X22750966Y-21232574D01*
X22866158Y-21228249D01*
X22888802Y-21223498D01*
X23086572Y-21182002D01*
X23091791Y-21180907D01*
X23096750Y-21178949D01*
X23096752Y-21178948D01*
X23301256Y-21098185D01*
X23301258Y-21098184D01*
X23306221Y-21096224D01*
X23342343Y-21074305D01*
X23498757Y-20979390D01*
X23498756Y-20979390D01*
X23503317Y-20976623D01*
X23543134Y-20942072D01*
X23673412Y-20829023D01*
X23673414Y-20829021D01*
X23677445Y-20825523D01*
X23706670Y-20789880D01*
X23765329Y-20749886D01*
X23836299Y-20747954D01*
X23897048Y-20784698D01*
X23911248Y-20803468D01*
X23922340Y-20821392D01*
X24001522Y-20949348D01*
X24126697Y-21074305D01*
X24132927Y-21078145D01*
X24132928Y-21078146D01*
X24270090Y-21162694D01*
X24277262Y-21167115D01*
X24312938Y-21178948D01*
X24438611Y-21220632D01*
X24438613Y-21220632D01*
X24445139Y-21222797D01*
X24451975Y-21223497D01*
X24451978Y-21223498D01*
X24487663Y-21227154D01*
X24549600Y-21233500D01*
X25850400Y-21233500D01*
X25853646Y-21233163D01*
X25853650Y-21233163D01*
X25949308Y-21223238D01*
X25949312Y-21223237D01*
X25956166Y-21222526D01*
X25962702Y-21220345D01*
X25962704Y-21220345D01*
X26094806Y-21176272D01*
X26123946Y-21166550D01*
X26274348Y-21073478D01*
X26399305Y-20948303D01*
X26431462Y-20896135D01*
X26488275Y-20803968D01*
X26488276Y-20803966D01*
X26492115Y-20797738D01*
X26542031Y-20647245D01*
X26545632Y-20636389D01*
X26545632Y-20636387D01*
X26547797Y-20629861D01*
X26558500Y-20525400D01*
X26558500Y-18974600D01*
X26555680Y-18947417D01*
X26548238Y-18875692D01*
X26548237Y-18875688D01*
X26547526Y-18868834D01*
X26543710Y-18857394D01*
X26493868Y-18708002D01*
X26491550Y-18701054D01*
X26398478Y-18550652D01*
X26273303Y-18425695D01*
X26265391Y-18420818D01*
X26264484Y-18419811D01*
X26261327Y-18417317D01*
X26261754Y-18416776D01*
X26217899Y-18368045D01*
X26206110Y-18325855D01*
X26204313Y-18307529D01*
X26204191Y-18306215D01*
X26199783Y-18255830D01*
X26196087Y-18213587D01*
X26194600Y-18208468D01*
X26194080Y-18203167D01*
X26191072Y-18193202D01*
X26180001Y-18156537D01*
X26167199Y-18114133D01*
X26166857Y-18112978D01*
X26142629Y-18029585D01*
X26140909Y-18023664D01*
X26138456Y-18018932D01*
X26136916Y-18013831D01*
X26112149Y-17967250D01*
X26093269Y-17931740D01*
X26092657Y-17930574D01*
X26052729Y-17853547D01*
X26049892Y-17848074D01*
X26046569Y-17843911D01*
X26044066Y-17839204D01*
X25985261Y-17767102D01*
X25984433Y-17766075D01*
X25955469Y-17729792D01*
X25955464Y-17729787D01*
X25953262Y-17727028D01*
X25950761Y-17724527D01*
X25950119Y-17723809D01*
X25946406Y-17719461D01*
X25938642Y-17709941D01*
X25919065Y-17685938D01*
X25914323Y-17682015D01*
X25914321Y-17682013D01*
X25883727Y-17656703D01*
X25874947Y-17648713D01*
X24695510Y-16469276D01*
X24661484Y-16406964D01*
X24666549Y-16336149D01*
X24709096Y-16279313D01*
X24775616Y-16254502D01*
X24807202Y-16256797D01*
X24807227Y-16256607D01*
X24877330Y-16265898D01*
X25030489Y-16286198D01*
X25030494Y-16286198D01*
X25035774Y-16286898D01*
X25041103Y-16286698D01*
X25041105Y-16286698D01*
X25150966Y-16282574D01*
X25266158Y-16278249D01*
X25288802Y-16273498D01*
X25486572Y-16232002D01*
X25491791Y-16230907D01*
X25496750Y-16228949D01*
X25496752Y-16228948D01*
X25701256Y-16148185D01*
X25701258Y-16148184D01*
X25706221Y-16146224D01*
X25742343Y-16124305D01*
X25898757Y-16029390D01*
X25898756Y-16029390D01*
X25903317Y-16026623D01*
X25975711Y-15963803D01*
X26073412Y-15879023D01*
X26073414Y-15879021D01*
X26077445Y-15875523D01*
X26141048Y-15797954D01*
X26220240Y-15701373D01*
X26220244Y-15701367D01*
X26223624Y-15697245D01*
X26241552Y-15665750D01*
X26292632Y-15616445D01*
X26362262Y-15602583D01*
X26428333Y-15628566D01*
X26455573Y-15657716D01*
X26537441Y-15779319D01*
X26541120Y-15783176D01*
X26541122Y-15783178D01*
X26571793Y-15815329D01*
X26696576Y-15946135D01*
X26881542Y-16083754D01*
X26886293Y-16086170D01*
X26886297Y-16086172D01*
X26951129Y-16119134D01*
X27087051Y-16188240D01*
X27092145Y-16189822D01*
X27092148Y-16189823D01*
X27292020Y-16251885D01*
X27307227Y-16256607D01*
X27312516Y-16257308D01*
X27530489Y-16286198D01*
X27530494Y-16286198D01*
X27535774Y-16286898D01*
X27541103Y-16286698D01*
X27541105Y-16286698D01*
X27650966Y-16282574D01*
X27766158Y-16278249D01*
X27788802Y-16273498D01*
X27986572Y-16232002D01*
X27991791Y-16230907D01*
X27996750Y-16228949D01*
X27996752Y-16228948D01*
X28201256Y-16148185D01*
X28201258Y-16148184D01*
X28206221Y-16146224D01*
X28242343Y-16124305D01*
X28398757Y-16029390D01*
X28398756Y-16029390D01*
X28403317Y-16026623D01*
X28475711Y-15963803D01*
X28573412Y-15879023D01*
X28573414Y-15879021D01*
X28577445Y-15875523D01*
X28641048Y-15797954D01*
X28720240Y-15701373D01*
X28720244Y-15701367D01*
X28723624Y-15697245D01*
X28741552Y-15665750D01*
X28792632Y-15616445D01*
X28862262Y-15602583D01*
X28928333Y-15628566D01*
X28955573Y-15657716D01*
X29037441Y-15779319D01*
X29041120Y-15783176D01*
X29041122Y-15783178D01*
X29071793Y-15815329D01*
X29196576Y-15946135D01*
X29381542Y-16083754D01*
X29386293Y-16086170D01*
X29386297Y-16086172D01*
X29451129Y-16119134D01*
X29587051Y-16188240D01*
X29592145Y-16189822D01*
X29592148Y-16189823D01*
X29792020Y-16251885D01*
X29807227Y-16256607D01*
X29812516Y-16257308D01*
X30030489Y-16286198D01*
X30030494Y-16286198D01*
X30035774Y-16286898D01*
X30041103Y-16286698D01*
X30041105Y-16286698D01*
X30150966Y-16282574D01*
X30266158Y-16278249D01*
X30288802Y-16273498D01*
X30486572Y-16232002D01*
X30491791Y-16230907D01*
X30496750Y-16228949D01*
X30496752Y-16228948D01*
X30701256Y-16148185D01*
X30701258Y-16148184D01*
X30706221Y-16146224D01*
X30742343Y-16124305D01*
X30898757Y-16029390D01*
X30898756Y-16029390D01*
X30903317Y-16026623D01*
X30975711Y-15963803D01*
X31073412Y-15879023D01*
X31073414Y-15879021D01*
X31077445Y-15875523D01*
X31106670Y-15839880D01*
X31165329Y-15799886D01*
X31236299Y-15797954D01*
X31297048Y-15834698D01*
X31311248Y-15853468D01*
X31401522Y-15999348D01*
X31526697Y-16124305D01*
X31532927Y-16128145D01*
X31532928Y-16128146D01*
X31626496Y-16185822D01*
X31677262Y-16217115D01*
X31712938Y-16228948D01*
X31838611Y-16270632D01*
X31838613Y-16270632D01*
X31845139Y-16272797D01*
X31851975Y-16273497D01*
X31851978Y-16273498D01*
X31887663Y-16277154D01*
X31949600Y-16283500D01*
X32586076Y-16283500D01*
X32654197Y-16303502D01*
X32700690Y-16357158D01*
X32710794Y-16427432D01*
X32681300Y-16492012D01*
X32675171Y-16498595D01*
X31055621Y-18118145D01*
X31045478Y-18127247D01*
X31015975Y-18150968D01*
X31012008Y-18155696D01*
X30983709Y-18189421D01*
X30980528Y-18193069D01*
X30978885Y-18194881D01*
X30976691Y-18197075D01*
X30949358Y-18230349D01*
X30948696Y-18231147D01*
X30888846Y-18302474D01*
X30886278Y-18307144D01*
X30882897Y-18311261D01*
X30857101Y-18359371D01*
X30839023Y-18393086D01*
X30838394Y-18394245D01*
X30796538Y-18470381D01*
X30796535Y-18470389D01*
X30793567Y-18475787D01*
X30791955Y-18480869D01*
X30789438Y-18485563D01*
X30762238Y-18574531D01*
X30761918Y-18575559D01*
X30733765Y-18664306D01*
X30733242Y-18668970D01*
X30732991Y-18669499D01*
X30731825Y-18674006D01*
X30731681Y-18674477D01*
X30731601Y-18674738D01*
X30730645Y-18674445D01*
X30707406Y-18723442D01*
X30671837Y-18766822D01*
X30604760Y-18848627D01*
X30604756Y-18848633D01*
X30601376Y-18852755D01*
X30598738Y-18857390D01*
X30598735Y-18857394D01*
X30555382Y-18933555D01*
X30487325Y-19053114D01*
X30408663Y-19269825D01*
X30407714Y-19275074D01*
X30407713Y-19275077D01*
X30368377Y-19492608D01*
X30368376Y-19492615D01*
X30367639Y-19496692D01*
X30366500Y-19520844D01*
X30366500Y-19932890D01*
X30381080Y-20104720D01*
X30382418Y-20109875D01*
X30382419Y-20109881D01*
X30437657Y-20322703D01*
X30438999Y-20327872D01*
X30533688Y-20538075D01*
X30662441Y-20729319D01*
X30666120Y-20733176D01*
X30666122Y-20733178D01*
X30727710Y-20797738D01*
X30821576Y-20896135D01*
X31006542Y-21033754D01*
X31011293Y-21036170D01*
X31011297Y-21036172D01*
X31074481Y-21068296D01*
X31212051Y-21138240D01*
X31217145Y-21139822D01*
X31217148Y-21139823D01*
X31417020Y-21201885D01*
X31432227Y-21206607D01*
X31437516Y-21207308D01*
X31655489Y-21236198D01*
X31655494Y-21236198D01*
X31660774Y-21236898D01*
X31666103Y-21236698D01*
X31666105Y-21236698D01*
X31775966Y-21232574D01*
X31891158Y-21228249D01*
X31913802Y-21223498D01*
X32111572Y-21182002D01*
X32116791Y-21180907D01*
X32121750Y-21178949D01*
X32121752Y-21178948D01*
X32326256Y-21098185D01*
X32326258Y-21098184D01*
X32331221Y-21096224D01*
X32367343Y-21074305D01*
X32523757Y-20979390D01*
X32523756Y-20979390D01*
X32528317Y-20976623D01*
X32568134Y-20942072D01*
X32698412Y-20829023D01*
X32698414Y-20829021D01*
X32702445Y-20825523D01*
X32766048Y-20747954D01*
X32845240Y-20651373D01*
X32845244Y-20651367D01*
X32848624Y-20647245D01*
X32866552Y-20615750D01*
X32917632Y-20566445D01*
X32987262Y-20552583D01*
X33053333Y-20578566D01*
X33080573Y-20607716D01*
X33162441Y-20729319D01*
X33166120Y-20733176D01*
X33166122Y-20733178D01*
X33227710Y-20797738D01*
X33321576Y-20896135D01*
X33506542Y-21033754D01*
X33511293Y-21036170D01*
X33511297Y-21036172D01*
X33574481Y-21068296D01*
X33712051Y-21138240D01*
X33717145Y-21139822D01*
X33717148Y-21139823D01*
X33917020Y-21201885D01*
X33932227Y-21206607D01*
X33937516Y-21207308D01*
X34155489Y-21236198D01*
X34155494Y-21236198D01*
X34160774Y-21236898D01*
X34166103Y-21236698D01*
X34166105Y-21236698D01*
X34275966Y-21232574D01*
X34391158Y-21228249D01*
X34413802Y-21223498D01*
X34611572Y-21182002D01*
X34616791Y-21180907D01*
X34621750Y-21178949D01*
X34621752Y-21178948D01*
X34826256Y-21098185D01*
X34826258Y-21098184D01*
X34831221Y-21096224D01*
X34867343Y-21074305D01*
X35023757Y-20979390D01*
X35023756Y-20979390D01*
X35028317Y-20976623D01*
X35068134Y-20942072D01*
X35198412Y-20829023D01*
X35198414Y-20829021D01*
X35202445Y-20825523D01*
X35266048Y-20747954D01*
X35345240Y-20651373D01*
X35345244Y-20651367D01*
X35348624Y-20647245D01*
X35366552Y-20615750D01*
X35417632Y-20566445D01*
X35487262Y-20552583D01*
X35553333Y-20578566D01*
X35580573Y-20607716D01*
X35662441Y-20729319D01*
X35666120Y-20733176D01*
X35666122Y-20733178D01*
X35727710Y-20797738D01*
X35821576Y-20896135D01*
X36006542Y-21033754D01*
X36011293Y-21036170D01*
X36011297Y-21036172D01*
X36074481Y-21068296D01*
X36212051Y-21138240D01*
X36217145Y-21139822D01*
X36217148Y-21139823D01*
X36417020Y-21201885D01*
X36432227Y-21206607D01*
X36437516Y-21207308D01*
X36655489Y-21236198D01*
X36655494Y-21236198D01*
X36660774Y-21236898D01*
X36666103Y-21236698D01*
X36666105Y-21236698D01*
X36775966Y-21232574D01*
X36891158Y-21228249D01*
X36913802Y-21223498D01*
X37111572Y-21182002D01*
X37116791Y-21180907D01*
X37121750Y-21178949D01*
X37121752Y-21178948D01*
X37326256Y-21098185D01*
X37326258Y-21098184D01*
X37331221Y-21096224D01*
X37367343Y-21074305D01*
X37523757Y-20979390D01*
X37523756Y-20979390D01*
X37528317Y-20976623D01*
X37568134Y-20942072D01*
X37698412Y-20829023D01*
X37698414Y-20829021D01*
X37702445Y-20825523D01*
X37731670Y-20789880D01*
X37790329Y-20749886D01*
X37861299Y-20747954D01*
X37922048Y-20784698D01*
X37936248Y-20803468D01*
X37947340Y-20821392D01*
X38026522Y-20949348D01*
X38151697Y-21074305D01*
X38157927Y-21078145D01*
X38157928Y-21078146D01*
X38295090Y-21162694D01*
X38302262Y-21167115D01*
X38337938Y-21178948D01*
X38463611Y-21220632D01*
X38463613Y-21220632D01*
X38470139Y-21222797D01*
X38476975Y-21223497D01*
X38476978Y-21223498D01*
X38512663Y-21227154D01*
X38574600Y-21233500D01*
X39875400Y-21233500D01*
X39878646Y-21233163D01*
X39878650Y-21233163D01*
X39974308Y-21223238D01*
X39974312Y-21223237D01*
X39981166Y-21222526D01*
X39987702Y-21220345D01*
X39987704Y-21220345D01*
X40119806Y-21176272D01*
X40148946Y-21166550D01*
X40299348Y-21073478D01*
X40424305Y-20948303D01*
X40456462Y-20896135D01*
X40513275Y-20803968D01*
X40513276Y-20803966D01*
X40517115Y-20797738D01*
X40567031Y-20647245D01*
X40570632Y-20636389D01*
X40570632Y-20636387D01*
X40572797Y-20629861D01*
X40583500Y-20525400D01*
X40583500Y-18974600D01*
X40580680Y-18947417D01*
X40573238Y-18875692D01*
X40573237Y-18875688D01*
X40572526Y-18868834D01*
X40568710Y-18857394D01*
X40518868Y-18708002D01*
X40516550Y-18701054D01*
X40423478Y-18550652D01*
X40298303Y-18425695D01*
X40292072Y-18421854D01*
X40286327Y-18417317D01*
X40287377Y-18415987D01*
X40245892Y-18369893D01*
X40233500Y-18315403D01*
X40233500Y-17844925D01*
X40253502Y-17776804D01*
X40270405Y-17755830D01*
X48219379Y-9806855D01*
X48229522Y-9797753D01*
X48254218Y-9777897D01*
X48259025Y-9774032D01*
X48291292Y-9735578D01*
X48294472Y-9731931D01*
X48296115Y-9730119D01*
X48298309Y-9727925D01*
X48325642Y-9694651D01*
X48326348Y-9693800D01*
X48382195Y-9627244D01*
X48386154Y-9622526D01*
X48388722Y-9617856D01*
X48392103Y-9613739D01*
X48435977Y-9531914D01*
X48436606Y-9530755D01*
X48478462Y-9454619D01*
X48478465Y-9454611D01*
X48481433Y-9449213D01*
X48483045Y-9444131D01*
X48485562Y-9439437D01*
X48512747Y-9350523D01*
X48513139Y-9349265D01*
X48539372Y-9266567D01*
X48541235Y-9260694D01*
X48541829Y-9255403D01*
X48543388Y-9250302D01*
X48552790Y-9157737D01*
X48552925Y-9156470D01*
X48553854Y-9148196D01*
X48557273Y-9117715D01*
X48558108Y-9110270D01*
X48558108Y-9110265D01*
X48558500Y-9106773D01*
X48558500Y-9103248D01*
X48558555Y-9102263D01*
X48559004Y-9096559D01*
X48562752Y-9059666D01*
X48562752Y-9059661D01*
X48563374Y-9053538D01*
X48559059Y-9007891D01*
X48558500Y-8996033D01*
X48558500Y-6891480D01*
X48578502Y-6823359D01*
X48595327Y-6802462D01*
X48596296Y-6801492D01*
X48699305Y-6698303D01*
X48792115Y-6547738D01*
X48827243Y-6441829D01*
X48845632Y-6386389D01*
X48845632Y-6386387D01*
X48847797Y-6379861D01*
X48849658Y-6361703D01*
X48853755Y-6321715D01*
X48858500Y-6275400D01*
X48858500Y-4724600D01*
X48855680Y-4697417D01*
X48848238Y-4625692D01*
X48848237Y-4625688D01*
X48847526Y-4618834D01*
X48843710Y-4607394D01*
X48793868Y-4458002D01*
X48791550Y-4451054D01*
X48698478Y-4300652D01*
X48573303Y-4175695D01*
X48567072Y-4171854D01*
X48428968Y-4086725D01*
X48428966Y-4086724D01*
X48422738Y-4082885D01*
X48311629Y-4046032D01*
X48261389Y-4029368D01*
X48261387Y-4029368D01*
X48254861Y-4027203D01*
X48248025Y-4026503D01*
X48248022Y-4026502D01*
X48204969Y-4022091D01*
X48150400Y-4016500D01*
X46849600Y-4016500D01*
X46846354Y-4016837D01*
X46846350Y-4016837D01*
X46750692Y-4026762D01*
X46750688Y-4026763D01*
X46743834Y-4027474D01*
X46737298Y-4029655D01*
X46737296Y-4029655D01*
X46648713Y-4059209D01*
X46576054Y-4083450D01*
X46425652Y-4176522D01*
X46300695Y-4301697D01*
X46227170Y-4420977D01*
X46210920Y-4447339D01*
X46158148Y-4494832D01*
X46088076Y-4506256D01*
X46022952Y-4477982D01*
X46012490Y-4468195D01*
X45907103Y-4357722D01*
X45903424Y-4353865D01*
X45718458Y-4216246D01*
X45713707Y-4213830D01*
X45713703Y-4213828D01*
X45591731Y-4151815D01*
X45512949Y-4111760D01*
X45507855Y-4110178D01*
X45507852Y-4110177D01*
X45297871Y-4044976D01*
X45292773Y-4043393D01*
X45287484Y-4042692D01*
X45069511Y-4013802D01*
X45069506Y-4013802D01*
X45064226Y-4013102D01*
X45058897Y-4013302D01*
X45058895Y-4013302D01*
X44949034Y-4017426D01*
X44833842Y-4021751D01*
X44828623Y-4022846D01*
X44806566Y-4027474D01*
X44608209Y-4069093D01*
X44603250Y-4071051D01*
X44603248Y-4071052D01*
X44398744Y-4151815D01*
X44398742Y-4151816D01*
X44393779Y-4153776D01*
X44389220Y-4156543D01*
X44389217Y-4156544D01*
X44290832Y-4216246D01*
X44196683Y-4273377D01*
X44192653Y-4276874D01*
X44099484Y-4357722D01*
X44022555Y-4424477D01*
X44003809Y-4447339D01*
X43879760Y-4598627D01*
X43879756Y-4598633D01*
X43876376Y-4602755D01*
X43858448Y-4634250D01*
X43807368Y-4683555D01*
X43737738Y-4697417D01*
X43671667Y-4671434D01*
X43644427Y-4642284D01*
X43565539Y-4525108D01*
X43562559Y-4520681D01*
X43403424Y-4353865D01*
X43218458Y-4216246D01*
X43213707Y-4213830D01*
X43213703Y-4213828D01*
X43091731Y-4151815D01*
X43012949Y-4111760D01*
X43007855Y-4110178D01*
X43007852Y-4110177D01*
X42797871Y-4044976D01*
X42792773Y-4043393D01*
X42787484Y-4042692D01*
X42569511Y-4013802D01*
X42569506Y-4013802D01*
X42564226Y-4013102D01*
X42558897Y-4013302D01*
X42558895Y-4013302D01*
X42449034Y-4017426D01*
X42333842Y-4021751D01*
X42328623Y-4022846D01*
X42306566Y-4027474D01*
X42108209Y-4069093D01*
X42103250Y-4071051D01*
X42103248Y-4071052D01*
X41898744Y-4151815D01*
X41898742Y-4151816D01*
X41893779Y-4153776D01*
X41889220Y-4156543D01*
X41889217Y-4156544D01*
X41790832Y-4216246D01*
X41696683Y-4273377D01*
X41692653Y-4276874D01*
X41599484Y-4357722D01*
X41522555Y-4424477D01*
X41503809Y-4447339D01*
X41379760Y-4598627D01*
X41379756Y-4598633D01*
X41376376Y-4602755D01*
X41358448Y-4634250D01*
X41307368Y-4683555D01*
X41237738Y-4697417D01*
X41171667Y-4671434D01*
X41144427Y-4642284D01*
X41065539Y-4525108D01*
X41062559Y-4520681D01*
X40903424Y-4353865D01*
X40718458Y-4216246D01*
X40713707Y-4213830D01*
X40713703Y-4213828D01*
X40591731Y-4151815D01*
X40512949Y-4111760D01*
X40507855Y-4110178D01*
X40507852Y-4110177D01*
X40297871Y-4044976D01*
X40292773Y-4043393D01*
X40287484Y-4042692D01*
X40069511Y-4013802D01*
X40069506Y-4013802D01*
X40064226Y-4013102D01*
X40058897Y-4013302D01*
X40058895Y-4013302D01*
X39949034Y-4017426D01*
X39833842Y-4021751D01*
X39828623Y-4022846D01*
X39806566Y-4027474D01*
X39608209Y-4069093D01*
X39603250Y-4071051D01*
X39603248Y-4071052D01*
X39398744Y-4151815D01*
X39398742Y-4151816D01*
X39393779Y-4153776D01*
X39389220Y-4156543D01*
X39389217Y-4156544D01*
X39290832Y-4216246D01*
X39196683Y-4273377D01*
X39192653Y-4276874D01*
X39099484Y-4357722D01*
X39022555Y-4424477D01*
X39003809Y-4447339D01*
X38879760Y-4598627D01*
X38879756Y-4598633D01*
X38876376Y-4602755D01*
X38873738Y-4607390D01*
X38873735Y-4607394D01*
X38836872Y-4672154D01*
X38762325Y-4803114D01*
X38683663Y-5019825D01*
X38682714Y-5025074D01*
X38682713Y-5025077D01*
X38643377Y-5242608D01*
X38643376Y-5242615D01*
X38642639Y-5246692D01*
X38641500Y-5270844D01*
X38641500Y-5682890D01*
X38641725Y-5685539D01*
X38650800Y-5792489D01*
X38656080Y-5854720D01*
X38657418Y-5859875D01*
X38657419Y-5859881D01*
X38707285Y-6052006D01*
X38713999Y-6077872D01*
X38716191Y-6082738D01*
X38716192Y-6082741D01*
X38734561Y-6123519D01*
X38808688Y-6288075D01*
X38937441Y-6479319D01*
X38941122Y-6483177D01*
X38941127Y-6483184D01*
X39006670Y-6551891D01*
X39039217Y-6614987D01*
X39041500Y-6638862D01*
X39041500Y-10080075D01*
X39021498Y-10148196D01*
X39004595Y-10169170D01*
X36517466Y-12656300D01*
X34173595Y-15000171D01*
X34111283Y-15034197D01*
X34040468Y-15029132D01*
X33983632Y-14986585D01*
X33958821Y-14920065D01*
X33958500Y-14911076D01*
X33958500Y-14566371D01*
X33978502Y-14498250D01*
X33995405Y-14477276D01*
X34688911Y-13783770D01*
X34703323Y-13771384D01*
X34714918Y-13762851D01*
X34714923Y-13762846D01*
X34720818Y-13758508D01*
X34725557Y-13752930D01*
X34725560Y-13752927D01*
X34755035Y-13718232D01*
X34761965Y-13710716D01*
X34767661Y-13705020D01*
X34769924Y-13702159D01*
X34769929Y-13702154D01*
X34785293Y-13682734D01*
X34788082Y-13679333D01*
X34806442Y-13657722D01*
X34835333Y-13623715D01*
X34838659Y-13617202D01*
X34842020Y-13612163D01*
X34845196Y-13607021D01*
X34849734Y-13601284D01*
X34880655Y-13535125D01*
X34882561Y-13531225D01*
X34890210Y-13516246D01*
X34915769Y-13466192D01*
X34917508Y-13459083D01*
X34919604Y-13453449D01*
X34921523Y-13447679D01*
X34924622Y-13441050D01*
X34939491Y-13369565D01*
X34940461Y-13365282D01*
X34951162Y-13321551D01*
X34957808Y-13294390D01*
X34958500Y-13283236D01*
X34958535Y-13283238D01*
X34958775Y-13279266D01*
X34959152Y-13275045D01*
X34960641Y-13267885D01*
X34958546Y-13190458D01*
X34958500Y-13187050D01*
X34958500Y-6136266D01*
X34978502Y-6068145D01*
X34993477Y-6049142D01*
X35073881Y-5965150D01*
X35188620Y-5787452D01*
X35229692Y-5685539D01*
X35265442Y-5596832D01*
X35265443Y-5596829D01*
X35267686Y-5591263D01*
X35308228Y-5383663D01*
X35308500Y-5378101D01*
X35308500Y-4672154D01*
X35293452Y-4514434D01*
X35233908Y-4311466D01*
X35228877Y-4301697D01*
X35139804Y-4128751D01*
X35139802Y-4128748D01*
X35137058Y-4123420D01*
X35006396Y-3957080D01*
X35001865Y-3953148D01*
X35001862Y-3953145D01*
X34851167Y-3822379D01*
X34846637Y-3818448D01*
X34841451Y-3815448D01*
X34841447Y-3815445D01*
X34668742Y-3715533D01*
X34663546Y-3712527D01*
X34463729Y-3643139D01*
X34457794Y-3642278D01*
X34457792Y-3642278D01*
X34260336Y-3613648D01*
X34260333Y-3613648D01*
X34254396Y-3612787D01*
X34043101Y-3622567D01*
X33911923Y-3654181D01*
X33843299Y-3670719D01*
X33843297Y-3670720D01*
X33837466Y-3672125D01*
X33832008Y-3674607D01*
X33832004Y-3674608D01*
X33736515Y-3718025D01*
X33644913Y-3759674D01*
X33472389Y-3882054D01*
X33468247Y-3886381D01*
X33468241Y-3886386D01*
X33381194Y-3977317D01*
X33319639Y-4012694D01*
X33248730Y-4009175D01*
X33190979Y-3967879D01*
X33183032Y-3956491D01*
X33148478Y-3900652D01*
X33023303Y-3775695D01*
X33017072Y-3771854D01*
X32878968Y-3686725D01*
X32878966Y-3686724D01*
X32872738Y-3682885D01*
X32712254Y-3629655D01*
X32711389Y-3629368D01*
X32711387Y-3629368D01*
X32704861Y-3627203D01*
X32698025Y-3626503D01*
X32698022Y-3626502D01*
X32654969Y-3622091D01*
X32600400Y-3616500D01*
X31799600Y-3616500D01*
X31796354Y-3616837D01*
X31796350Y-3616837D01*
X31700692Y-3626762D01*
X31700688Y-3626763D01*
X31693834Y-3627474D01*
X31687298Y-3629655D01*
X31687296Y-3629655D01*
X31564213Y-3670719D01*
X31526054Y-3683450D01*
X31375652Y-3776522D01*
X31250695Y-3901697D01*
X31246855Y-3907927D01*
X31246854Y-3907928D01*
X31173165Y-4027474D01*
X31157885Y-4052262D01*
X31102203Y-4220139D01*
X31091500Y-4324600D01*
X31091500Y-5675400D01*
X31102474Y-5781166D01*
X31104655Y-5787702D01*
X31104655Y-5787704D01*
X31125242Y-5849409D01*
X31158450Y-5948946D01*
X31251522Y-6099348D01*
X31376697Y-6224305D01*
X31382928Y-6228146D01*
X31388673Y-6232683D01*
X31387623Y-6234013D01*
X31429108Y-6280107D01*
X31441500Y-6334597D01*
X31441500Y-12433629D01*
X31421498Y-12501750D01*
X31404595Y-12522724D01*
X30592433Y-13334886D01*
X30530121Y-13368912D01*
X30465974Y-13366123D01*
X30392773Y-13343393D01*
X30367935Y-13340101D01*
X30169511Y-13313802D01*
X30169506Y-13313802D01*
X30164226Y-13313102D01*
X30158897Y-13313302D01*
X30158895Y-13313302D01*
X30049034Y-13317426D01*
X29933842Y-13321751D01*
X29928623Y-13322846D01*
X29834046Y-13342690D01*
X29708209Y-13369093D01*
X29703250Y-13371051D01*
X29703248Y-13371052D01*
X29498744Y-13451815D01*
X29498742Y-13451816D01*
X29493779Y-13453776D01*
X29489220Y-13456543D01*
X29489217Y-13456544D01*
X29341724Y-13546045D01*
X29296683Y-13573377D01*
X29292653Y-13576874D01*
X29129752Y-13718232D01*
X29122555Y-13724477D01*
X29094651Y-13758508D01*
X28979760Y-13898627D01*
X28979756Y-13898633D01*
X28976376Y-13902755D01*
X28958448Y-13934250D01*
X28907368Y-13983555D01*
X28837738Y-13997417D01*
X28771667Y-13971434D01*
X28744427Y-13942284D01*
X28665539Y-13825108D01*
X28662559Y-13820681D01*
X28643759Y-13800973D01*
X28564827Y-13718232D01*
X28503424Y-13653865D01*
X28470396Y-13629291D01*
X28322740Y-13519432D01*
X28322741Y-13519432D01*
X28318458Y-13516246D01*
X28313707Y-13513830D01*
X28313703Y-13513828D01*
X28170558Y-13441050D01*
X28112949Y-13411760D01*
X28107855Y-13410178D01*
X28107852Y-13410177D01*
X27897871Y-13344976D01*
X27892773Y-13343393D01*
X27887484Y-13342692D01*
X27887475Y-13342690D01*
X27867943Y-13340101D01*
X27803042Y-13311322D01*
X27764002Y-13252022D01*
X27758500Y-13215194D01*
X27758500Y-6136266D01*
X27778502Y-6068145D01*
X27793477Y-6049142D01*
X27873881Y-5965150D01*
X27988620Y-5787452D01*
X28029692Y-5685539D01*
X28065442Y-5596832D01*
X28065443Y-5596829D01*
X28067686Y-5591263D01*
X28108228Y-5383663D01*
X28108500Y-5378101D01*
X28108500Y-4672154D01*
X28093452Y-4514434D01*
X28033908Y-4311466D01*
X28028877Y-4301697D01*
X27939804Y-4128751D01*
X27939802Y-4128748D01*
X27937058Y-4123420D01*
X27806396Y-3957080D01*
X27801865Y-3953148D01*
X27801862Y-3953145D01*
X27651167Y-3822379D01*
X27646637Y-3818448D01*
X27641451Y-3815448D01*
X27641447Y-3815445D01*
X27468742Y-3715533D01*
X27463546Y-3712527D01*
X27263729Y-3643139D01*
X27257794Y-3642278D01*
X27257792Y-3642278D01*
X27060336Y-3613648D01*
X27060333Y-3613648D01*
X27054396Y-3612787D01*
X26843101Y-3622567D01*
X26711923Y-3654181D01*
X26643299Y-3670719D01*
X26643297Y-3670720D01*
X26637466Y-3672125D01*
X26632008Y-3674607D01*
X26632004Y-3674608D01*
X26536515Y-3718025D01*
X26444913Y-3759674D01*
X26272389Y-3882054D01*
X26268247Y-3886381D01*
X26268241Y-3886386D01*
X26181194Y-3977317D01*
X26119639Y-4012694D01*
X26048730Y-4009175D01*
X25990979Y-3967879D01*
X25983032Y-3956491D01*
X25948478Y-3900652D01*
X25823303Y-3775695D01*
X25817072Y-3771854D01*
X25678968Y-3686725D01*
X25678966Y-3686724D01*
X25672738Y-3682885D01*
X25512254Y-3629655D01*
X25511389Y-3629368D01*
X25511387Y-3629368D01*
X25504861Y-3627203D01*
X25498025Y-3626503D01*
X25498022Y-3626502D01*
X25454969Y-3622091D01*
X25400400Y-3616500D01*
X24599600Y-3616500D01*
X24596354Y-3616837D01*
X24596350Y-3616837D01*
X24500692Y-3626762D01*
X24500688Y-3626763D01*
X24493834Y-3627474D01*
X24487298Y-3629655D01*
X24487296Y-3629655D01*
X24364213Y-3670719D01*
X24326054Y-3683450D01*
X24175652Y-3776522D01*
X24050695Y-3901697D01*
X24046855Y-3907927D01*
X24046854Y-3907928D01*
X23973165Y-4027474D01*
X23957885Y-4052262D01*
X23902203Y-4220139D01*
X23891500Y-4324600D01*
X23891500Y-5675400D01*
X23902474Y-5781166D01*
X23904655Y-5787702D01*
X23904655Y-5787704D01*
X23925242Y-5849409D01*
X23958450Y-5948946D01*
X24051522Y-6099348D01*
X24176697Y-6224305D01*
X24182928Y-6228146D01*
X24188673Y-6232683D01*
X24187623Y-6234013D01*
X24229108Y-6280107D01*
X24241500Y-6334597D01*
X24241500Y-13563774D01*
X24221498Y-13631895D01*
X24198080Y-13658940D01*
X24129752Y-13718232D01*
X24122555Y-13724477D01*
X24094651Y-13758508D01*
X23979760Y-13898627D01*
X23979756Y-13898633D01*
X23976376Y-13902755D01*
X23973738Y-13907390D01*
X23973735Y-13907394D01*
X23930382Y-13983555D01*
X23862325Y-14103114D01*
X23783663Y-14319825D01*
X23782714Y-14325074D01*
X23782713Y-14325077D01*
X23743377Y-14542608D01*
X23743376Y-14542615D01*
X23742639Y-14546692D01*
X23741500Y-14570844D01*
X23741500Y-14982890D01*
X23756080Y-15154720D01*
X23757418Y-15159877D01*
X23757419Y-15159880D01*
X23771266Y-15213229D01*
X23769019Y-15284190D01*
X23728764Y-15342671D01*
X23663283Y-15370106D01*
X23593364Y-15357783D01*
X23560212Y-15333978D01*
X20745405Y-12519171D01*
X20711379Y-12456859D01*
X20708500Y-12430076D01*
X20708500Y-9634500D01*
X20728502Y-9566379D01*
X20782158Y-9519886D01*
X20834500Y-9508500D01*
X20948134Y-9508500D01*
X21010316Y-9501745D01*
X21146705Y-9450615D01*
X21263261Y-9363261D01*
X21350615Y-9246705D01*
X21401745Y-9110316D01*
X21408500Y-9048134D01*
X21408500Y-6551866D01*
X21401745Y-6489684D01*
X21350615Y-6353295D01*
X21263261Y-6236739D01*
X21146705Y-6149385D01*
X21010316Y-6098255D01*
X20954440Y-6092185D01*
X20951531Y-6091869D01*
X20948134Y-6091500D01*
X18451866Y-6091500D01*
X18448469Y-6091869D01*
X18445560Y-6092185D01*
X18389684Y-6098255D01*
X18253295Y-6149385D01*
X18136739Y-6236739D01*
X18049385Y-6353295D01*
X17998255Y-6489684D01*
X17991500Y-6551866D01*
X17991500Y-7021052D01*
X17971498Y-7089173D01*
X17917842Y-7135666D01*
X17847568Y-7145770D01*
X17782988Y-7116276D01*
X17750829Y-7070639D01*
X17750099Y-7070987D01*
X17748084Y-7066762D01*
X17746391Y-7062409D01*
X17725866Y-7026498D01*
X17622702Y-6845997D01*
X17622700Y-6845995D01*
X17620383Y-6841940D01*
X17463171Y-6642517D01*
X17363195Y-6548469D01*
X17281610Y-6471722D01*
X17281608Y-6471720D01*
X17278209Y-6468523D01*
X17234483Y-6438189D01*
X17073393Y-6326437D01*
X17073390Y-6326435D01*
X17069561Y-6323779D01*
X17065384Y-6321719D01*
X17065377Y-6321715D01*
X16845996Y-6213528D01*
X16845992Y-6213527D01*
X16841810Y-6211464D01*
X16599960Y-6134047D01*
X16595355Y-6133297D01*
X16353935Y-6093980D01*
X16353934Y-6093980D01*
X16349323Y-6093229D01*
X16222364Y-6091567D01*
X16100083Y-6089966D01*
X16100080Y-6089966D01*
X16095406Y-6089905D01*
X15843787Y-6124149D01*
X15839301Y-6125457D01*
X15839299Y-6125457D01*
X15775184Y-6144145D01*
X15599993Y-6195208D01*
X15369380Y-6301522D01*
X15365471Y-6304085D01*
X15160928Y-6438189D01*
X15160923Y-6438193D01*
X15157015Y-6440755D01*
X14967562Y-6609848D01*
X14805183Y-6805087D01*
X14673447Y-7022182D01*
X14575246Y-7256365D01*
X14512738Y-7502490D01*
X14487296Y-7755151D01*
X14499480Y-8008798D01*
X14549021Y-8257857D01*
X14550600Y-8262255D01*
X14550602Y-8262262D01*
X14630868Y-8485819D01*
X14634831Y-8496858D01*
X14755025Y-8720551D01*
X14757820Y-8724294D01*
X14757822Y-8724297D01*
X14904171Y-8920282D01*
X14904176Y-8920288D01*
X14906963Y-8924020D01*
X14910272Y-8927300D01*
X14910277Y-8927306D01*
X15037616Y-9053538D01*
X15087307Y-9102797D01*
X15091069Y-9105555D01*
X15091072Y-9105558D01*
X15140005Y-9141437D01*
X15183113Y-9197848D01*
X15191500Y-9243049D01*
X15191500Y-11738157D01*
X15190763Y-11751764D01*
X15186676Y-11789388D01*
X15187213Y-11795523D01*
X15191050Y-11839388D01*
X15191379Y-11844214D01*
X15191500Y-11846686D01*
X15191500Y-11849769D01*
X15191801Y-11852837D01*
X15195690Y-11892506D01*
X15195812Y-11893819D01*
X15203913Y-11986413D01*
X15205400Y-11991532D01*
X15205920Y-11996833D01*
X15207703Y-12002737D01*
X15208898Y-12008774D01*
X15206511Y-12009247D01*
X15206969Y-12069515D01*
X15169041Y-12129531D01*
X15104686Y-12159514D01*
X15034337Y-12149944D01*
X14996712Y-12124031D01*
X11795405Y-8922724D01*
X11761379Y-8860412D01*
X11758500Y-8833629D01*
X11758500Y-6136266D01*
X11778502Y-6068145D01*
X11793477Y-6049142D01*
X11873881Y-5965150D01*
X11988620Y-5787452D01*
X12029692Y-5685539D01*
X12065442Y-5596832D01*
X12065443Y-5596829D01*
X12067686Y-5591263D01*
X12108228Y-5383663D01*
X12108500Y-5378101D01*
X12108500Y-4672154D01*
X12093452Y-4514434D01*
X12033908Y-4311466D01*
X12028877Y-4301697D01*
X11939804Y-4128751D01*
X11939802Y-4128748D01*
X11937058Y-4123420D01*
X11806396Y-3957080D01*
X11801865Y-3953148D01*
X11801862Y-3953145D01*
X11651167Y-3822379D01*
X11646637Y-3818448D01*
X11641451Y-3815448D01*
X11641447Y-3815445D01*
X11468742Y-3715533D01*
X11463546Y-3712527D01*
X11263729Y-3643139D01*
X11257794Y-3642278D01*
X11257792Y-3642278D01*
X11060336Y-3613648D01*
X11060333Y-3613648D01*
X11054396Y-3612787D01*
X10843101Y-3622567D01*
X10711923Y-3654181D01*
X10643299Y-3670719D01*
X10643297Y-3670720D01*
X10637466Y-3672125D01*
X10632008Y-3674607D01*
X10632004Y-3674608D01*
X10536515Y-3718025D01*
X10444913Y-3759674D01*
X10272389Y-3882054D01*
X10268247Y-3886381D01*
X10268241Y-3886386D01*
X10181194Y-3977317D01*
X10119639Y-4012694D01*
X10048730Y-4009175D01*
X9990979Y-3967879D01*
X9983032Y-3956491D01*
X9948478Y-3900652D01*
X9823303Y-3775695D01*
X9817072Y-3771854D01*
X9678968Y-3686725D01*
X9678966Y-3686724D01*
X9672738Y-3682885D01*
X9512254Y-3629655D01*
X9511389Y-3629368D01*
X9511387Y-3629368D01*
X9504861Y-3627203D01*
X9498025Y-3626503D01*
X9498022Y-3626502D01*
X9454969Y-3622091D01*
X9400400Y-3616500D01*
X8599600Y-3616500D01*
X8596354Y-3616837D01*
X8596350Y-3616837D01*
X8500692Y-3626762D01*
X8500688Y-3626763D01*
X8493834Y-3627474D01*
X8487298Y-3629655D01*
X8487296Y-3629655D01*
X8364213Y-3670719D01*
X8326054Y-3683450D01*
X8175652Y-3776522D01*
X8050695Y-3901697D01*
X8046855Y-3907927D01*
X8046854Y-3907928D01*
X7973165Y-4027474D01*
X7957885Y-4052262D01*
X7902203Y-4220139D01*
X7891500Y-4324600D01*
X7891500Y-5675400D01*
X5661985Y-5675400D01*
X6248947Y-3788345D01*
X6254390Y-3773993D01*
X6268539Y-3742608D01*
X6270174Y-3730925D01*
X6277154Y-3703685D01*
X6317621Y-3597042D01*
X6327995Y-3575907D01*
X6399024Y-3460024D01*
X6413157Y-3441181D01*
X6419248Y-3434472D01*
X6504508Y-3340551D01*
X6521899Y-3324668D01*
X6630388Y-3242792D01*
X6650433Y-3230423D01*
X6772256Y-3170174D01*
X6794253Y-3161751D01*
X6925165Y-3125228D01*
X6948345Y-3121046D01*
X7055337Y-3111944D01*
X7071389Y-3112572D01*
X7071402Y-3111971D01*
X7080384Y-3112159D01*
X7089237Y-3113617D01*
X7123621Y-3109426D01*
X7138865Y-3108500D01*
X49649488Y-3108500D01*
X49669323Y-3110071D01*
G37*
%TD.AperFunction*%
%TD*%
M02*
