G04 #@! TF.GenerationSoftware,KiCad,Pcbnew,(6.0.11-0)*
G04 #@! TF.CreationDate,2023-05-22T21:08:55+12:00*
G04 #@! TF.ProjectId,head-interface,68656164-2d69-46e7-9465-72666163652e,rev?*
G04 #@! TF.SameCoordinates,PX5f5e100PY5f5e100*
G04 #@! TF.FileFunction,Legend,Top*
G04 #@! TF.FilePolarity,Positive*
%FSLAX46Y46*%
G04 Gerber Fmt 4.6, Leading zero omitted, Abs format (unit mm)*
G04 Created by KiCad (PCBNEW (6.0.11-0)) date 2023-05-22 21:08:55*
%MOMM*%
%LPD*%
G01*
G04 APERTURE LIST*
%ADD10C,0.150000*%
%ADD11C,0.120000*%
G04 APERTURE END LIST*
D10*
G04 #@! TO.C,*
G04 #@! TO.C,J3*
X14516666Y9327952D02*
X14516666Y8613666D01*
X14469047Y8470809D01*
X14373809Y8375571D01*
X14230952Y8327952D01*
X14135714Y8327952D01*
X14897619Y9327952D02*
X15516666Y9327952D01*
X15183333Y8946999D01*
X15326190Y8946999D01*
X15421428Y8899380D01*
X15469047Y8851761D01*
X15516666Y8756523D01*
X15516666Y8518428D01*
X15469047Y8423190D01*
X15421428Y8375571D01*
X15326190Y8327952D01*
X15040476Y8327952D01*
X14945238Y8375571D01*
X14897619Y8423190D01*
G04 #@! TO.C,J1*
X-14983334Y9427952D02*
X-14983334Y8713666D01*
X-15030953Y8570809D01*
X-15126191Y8475571D01*
X-15269048Y8427952D01*
X-15364286Y8427952D01*
X-13983334Y8427952D02*
X-14554762Y8427952D01*
X-14269048Y8427952D02*
X-14269048Y9427952D01*
X-14364286Y9285094D01*
X-14459524Y9189856D01*
X-14554762Y9142237D01*
G04 #@! TO.C,J8*
X15316666Y22097620D02*
X15316666Y21383334D01*
X15269047Y21240477D01*
X15173809Y21145239D01*
X15030952Y21097620D01*
X14935714Y21097620D01*
X15935714Y21669048D02*
X15840476Y21716667D01*
X15792857Y21764286D01*
X15745238Y21859524D01*
X15745238Y21907143D01*
X15792857Y22002381D01*
X15840476Y22050000D01*
X15935714Y22097620D01*
X16126190Y22097620D01*
X16221428Y22050000D01*
X16269047Y22002381D01*
X16316666Y21907143D01*
X16316666Y21859524D01*
X16269047Y21764286D01*
X16221428Y21716667D01*
X16126190Y21669048D01*
X15935714Y21669048D01*
X15840476Y21621429D01*
X15792857Y21573810D01*
X15745238Y21478572D01*
X15745238Y21288096D01*
X15792857Y21192858D01*
X15840476Y21145239D01*
X15935714Y21097620D01*
X16126190Y21097620D01*
X16221428Y21145239D01*
X16269047Y21192858D01*
X16316666Y21288096D01*
X16316666Y21478572D01*
X16269047Y21573810D01*
X16221428Y21621429D01*
X16126190Y21669048D01*
X17088095Y21122620D02*
X17088095Y22122620D01*
X17421428Y21408334D01*
X17754761Y22122620D01*
X17754761Y21122620D01*
X18421428Y22122620D02*
X18611904Y22122620D01*
X18707142Y22075000D01*
X18802380Y21979762D01*
X18850000Y21789286D01*
X18850000Y21455953D01*
X18802380Y21265477D01*
X18707142Y21170239D01*
X18611904Y21122620D01*
X18421428Y21122620D01*
X18326190Y21170239D01*
X18230952Y21265477D01*
X18183333Y21455953D01*
X18183333Y21789286D01*
X18230952Y21979762D01*
X18326190Y22075000D01*
X18421428Y22122620D01*
X19135714Y22122620D02*
X19707142Y22122620D01*
X19421428Y21122620D02*
X19421428Y22122620D01*
X20230952Y22122620D02*
X20421428Y22122620D01*
X20516666Y22075000D01*
X20611904Y21979762D01*
X20659523Y21789286D01*
X20659523Y21455953D01*
X20611904Y21265477D01*
X20516666Y21170239D01*
X20421428Y21122620D01*
X20230952Y21122620D01*
X20135714Y21170239D01*
X20040476Y21265477D01*
X19992857Y21455953D01*
X19992857Y21789286D01*
X20040476Y21979762D01*
X20135714Y22075000D01*
X20230952Y22122620D01*
X21659523Y21122620D02*
X21326190Y21598810D01*
X21088095Y21122620D02*
X21088095Y22122620D01*
X21469047Y22122620D01*
X21564285Y22075000D01*
X21611904Y22027381D01*
X21659523Y21932143D01*
X21659523Y21789286D01*
X21611904Y21694048D01*
X21564285Y21646429D01*
X21469047Y21598810D01*
X21088095Y21598810D01*
G04 #@! TO.C,J6*
X8816666Y22097620D02*
X8816666Y21383334D01*
X8769047Y21240477D01*
X8673809Y21145239D01*
X8530952Y21097620D01*
X8435714Y21097620D01*
X9721428Y22097620D02*
X9530952Y22097620D01*
X9435714Y22050000D01*
X9388095Y22002381D01*
X9292857Y21859524D01*
X9245238Y21669048D01*
X9245238Y21288096D01*
X9292857Y21192858D01*
X9340476Y21145239D01*
X9435714Y21097620D01*
X9626190Y21097620D01*
X9721428Y21145239D01*
X9769047Y21192858D01*
X9816666Y21288096D01*
X9816666Y21526191D01*
X9769047Y21621429D01*
X9721428Y21669048D01*
X9626190Y21716667D01*
X9435714Y21716667D01*
X9340476Y21669048D01*
X9292857Y21621429D01*
X9245238Y21526191D01*
X8440476Y18297620D02*
X8440476Y19297620D01*
X8821428Y19297620D01*
X8916666Y19250000D01*
X8964285Y19202381D01*
X9011904Y19107143D01*
X9011904Y18964286D01*
X8964285Y18869048D01*
X8916666Y18821429D01*
X8821428Y18773810D01*
X8440476Y18773810D01*
X9392857Y18583334D02*
X9869047Y18583334D01*
X9297619Y18297620D02*
X9630952Y19297620D01*
X9964285Y18297620D01*
X10869047Y18297620D02*
X10535714Y18773810D01*
X10297619Y18297620D02*
X10297619Y19297620D01*
X10678571Y19297620D01*
X10773809Y19250000D01*
X10821428Y19202381D01*
X10869047Y19107143D01*
X10869047Y18964286D01*
X10821428Y18869048D01*
X10773809Y18821429D01*
X10678571Y18773810D01*
X10297619Y18773810D01*
X11154761Y19297620D02*
X11726190Y19297620D01*
X11440476Y18297620D02*
X11440476Y19297620D01*
X13154761Y18821429D02*
X12821428Y18821429D01*
X12821428Y18297620D02*
X12821428Y19297620D01*
X13297619Y19297620D01*
X13630952Y18583334D02*
X14107142Y18583334D01*
X13535714Y18297620D02*
X13869047Y19297620D01*
X14202380Y18297620D01*
X14535714Y18297620D02*
X14535714Y19297620D01*
X15107142Y18297620D01*
X15107142Y19297620D01*
X15535714Y18345239D02*
X15678571Y18297620D01*
X15916666Y18297620D01*
X16011904Y18345239D01*
X16059523Y18392858D01*
X16107142Y18488096D01*
X16107142Y18583334D01*
X16059523Y18678572D01*
X16011904Y18726191D01*
X15916666Y18773810D01*
X15726190Y18821429D01*
X15630952Y18869048D01*
X15583333Y18916667D01*
X15535714Y19011905D01*
X15535714Y19107143D01*
X15583333Y19202381D01*
X15630952Y19250000D01*
X15726190Y19297620D01*
X15964285Y19297620D01*
X16107142Y19250000D01*
G04 #@! TO.C,J7*
X-5483334Y21197620D02*
X-5483334Y20483334D01*
X-5530953Y20340477D01*
X-5626191Y20245239D01*
X-5769048Y20197620D01*
X-5864286Y20197620D01*
X-5102381Y21197620D02*
X-4435715Y21197620D01*
X-4864286Y20197620D01*
X-3159524Y20709429D02*
X-3492858Y20709429D01*
X-3492858Y20185620D02*
X-3492858Y21185620D01*
X-3016667Y21185620D01*
X-2683334Y20471334D02*
X-2207143Y20471334D01*
X-2778572Y20185620D02*
X-2445239Y21185620D01*
X-2111905Y20185620D01*
X-1778572Y20185620D02*
X-1778572Y21185620D01*
X-1207143Y20185620D01*
X-1207143Y21185620D01*
G04 #@! TO.C,J5*
X-10733334Y16897620D02*
X-10733334Y16183334D01*
X-10780953Y16040477D01*
X-10876191Y15945239D01*
X-11019048Y15897620D01*
X-11114286Y15897620D01*
X-9780953Y16897620D02*
X-10257143Y16897620D01*
X-10304762Y16421429D01*
X-10257143Y16469048D01*
X-10161905Y16516667D01*
X-9923810Y16516667D01*
X-9828572Y16469048D01*
X-9780953Y16421429D01*
X-9733334Y16326191D01*
X-9733334Y16088096D01*
X-9780953Y15992858D01*
X-9828572Y15945239D01*
X-9923810Y15897620D01*
X-10161905Y15897620D01*
X-10257143Y15945239D01*
X-10304762Y15992858D01*
X-12900000Y17297620D02*
X-12900000Y18297620D01*
X-12900000Y17821429D02*
X-12328572Y17821429D01*
X-12328572Y17297620D02*
X-12328572Y18297620D01*
X-11852381Y17821429D02*
X-11519048Y17821429D01*
X-11376191Y17297620D02*
X-11852381Y17297620D01*
X-11852381Y18297620D01*
X-11376191Y18297620D01*
X-10995239Y17583334D02*
X-10519048Y17583334D01*
X-11090477Y17297620D02*
X-10757143Y18297620D01*
X-10423810Y17297620D01*
X-10233334Y18297620D02*
X-9661905Y18297620D01*
X-9947620Y17297620D02*
X-9947620Y18297620D01*
X-9328572Y17821429D02*
X-8995239Y17821429D01*
X-8852381Y17297620D02*
X-9328572Y17297620D01*
X-9328572Y18297620D01*
X-8852381Y18297620D01*
X-7852381Y17297620D02*
X-8185715Y17773810D01*
X-8423810Y17297620D02*
X-8423810Y18297620D01*
X-8042858Y18297620D01*
X-7947620Y18250000D01*
X-7900000Y18202381D01*
X-7852381Y18107143D01*
X-7852381Y17964286D01*
X-7900000Y17869048D01*
X-7947620Y17821429D01*
X-8042858Y17773810D01*
X-8423810Y17773810D01*
G04 #@! TO.C,J4*
X-21683334Y21397620D02*
X-21683334Y20683334D01*
X-21730953Y20540477D01*
X-21826191Y20445239D01*
X-21969048Y20397620D01*
X-22064286Y20397620D01*
X-20778572Y21064286D02*
X-20778572Y20397620D01*
X-21016667Y21445239D02*
X-21254762Y20730953D01*
X-20635715Y20730953D01*
X-19883334Y21397620D02*
X-19311905Y21397620D01*
X-19597620Y20397620D02*
X-19597620Y21397620D01*
X-18978572Y20397620D02*
X-18978572Y21397620D01*
X-18978572Y20921429D02*
X-18407143Y20921429D01*
X-18407143Y20397620D02*
X-18407143Y21397620D01*
X-17930953Y20921429D02*
X-17597620Y20921429D01*
X-17454762Y20397620D02*
X-17930953Y20397620D01*
X-17930953Y21397620D01*
X-17454762Y21397620D01*
X-16454762Y20397620D02*
X-16788096Y20873810D01*
X-17026191Y20397620D02*
X-17026191Y21397620D01*
X-16645239Y21397620D01*
X-16550000Y21350000D01*
X-16502381Y21302381D01*
X-16454762Y21207143D01*
X-16454762Y21064286D01*
X-16502381Y20969048D01*
X-16550000Y20921429D01*
X-16645239Y20873810D01*
X-17026191Y20873810D01*
X-16026191Y20397620D02*
X-16026191Y21397620D01*
X-15692858Y20683334D01*
X-15359524Y21397620D01*
X-15359524Y20397620D01*
G04 #@! TO.C,J9*
X8716666Y20697620D02*
X8716666Y19983334D01*
X8669047Y19840477D01*
X8573809Y19745239D01*
X8430952Y19697620D01*
X8335714Y19697620D01*
X9240476Y19697620D02*
X9430952Y19697620D01*
X9526190Y19745239D01*
X9573809Y19792858D01*
X9669047Y19935715D01*
X9716666Y20126191D01*
X9716666Y20507143D01*
X9669047Y20602381D01*
X9621428Y20650000D01*
X9526190Y20697620D01*
X9335714Y20697620D01*
X9240476Y20650000D01*
X9192857Y20602381D01*
X9145238Y20507143D01*
X9145238Y20269048D01*
X9192857Y20173810D01*
X9240476Y20126191D01*
X9335714Y20078572D01*
X9526190Y20078572D01*
X9621428Y20126191D01*
X9669047Y20173810D01*
X9716666Y20269048D01*
G04 #@! TO.C,J2*
X7816666Y14047620D02*
X7816666Y13333334D01*
X7769047Y13190477D01*
X7673809Y13095239D01*
X7530952Y13047620D01*
X7435714Y13047620D01*
X8245238Y13952381D02*
X8292857Y14000000D01*
X8388095Y14047620D01*
X8626190Y14047620D01*
X8721428Y14000000D01*
X8769047Y13952381D01*
X8816666Y13857143D01*
X8816666Y13761905D01*
X8769047Y13619048D01*
X8197619Y13047620D01*
X8816666Y13047620D01*
D11*
G04 #@! TO.C,J3*
X1765000Y9110000D02*
X1765000Y10610000D01*
X13485000Y8300000D02*
X12985000Y8300000D01*
X12985000Y8300000D02*
X12985000Y7090000D01*
X13485000Y6590000D02*
X13485000Y10610000D01*
X13785000Y8410000D02*
X13785000Y10910000D01*
X765000Y10610000D02*
X765000Y6590000D01*
X13485000Y10610000D02*
X765000Y10610000D01*
X13485000Y9110000D02*
X12485000Y9110000D01*
X12985000Y7090000D02*
X1265000Y7090000D01*
X12485000Y9110000D02*
X12485000Y10610000D01*
X765000Y9110000D02*
X1765000Y9110000D01*
X1265000Y8300000D02*
X765000Y8300000D01*
X13785000Y10910000D02*
X11285000Y10910000D01*
X765000Y6590000D02*
X13485000Y6590000D01*
X1265000Y7090000D02*
X1265000Y8300000D01*
G04 #@! TO.C,J1*
X-12760000Y7090000D02*
X-12760000Y8300000D01*
X-240000Y8410000D02*
X-240000Y10910000D01*
X-240000Y10910000D02*
X-2740000Y10910000D01*
X-1540000Y9110000D02*
X-1540000Y10610000D01*
X-13260000Y9110000D02*
X-12260000Y9110000D01*
X-12760000Y8300000D02*
X-13260000Y8300000D01*
X-1040000Y7090000D02*
X-12760000Y7090000D01*
X-13260000Y10610000D02*
X-13260000Y6590000D01*
X-540000Y6590000D02*
X-540000Y10610000D01*
X-540000Y9110000D02*
X-1540000Y9110000D01*
X-13260000Y6590000D02*
X-540000Y6590000D01*
X-540000Y10610000D02*
X-13260000Y10610000D01*
X-12260000Y9110000D02*
X-12260000Y10610000D01*
X-540000Y8300000D02*
X-1040000Y8300000D01*
X-1040000Y8300000D02*
X-1040000Y7090000D01*
G04 #@! TO.C,J8*
X21760000Y26660000D02*
X9040000Y26660000D01*
X21760000Y25160000D02*
X20760000Y25160000D01*
X21260000Y24350000D02*
X21260000Y23140000D01*
X21760000Y22640000D02*
X21760000Y26660000D01*
X9040000Y22640000D02*
X21760000Y22640000D01*
X9040000Y26660000D02*
X9040000Y22640000D01*
X21260000Y23140000D02*
X9540000Y23140000D01*
X9540000Y23140000D02*
X9540000Y24350000D01*
X22060000Y24460000D02*
X22060000Y26960000D01*
X21760000Y24350000D02*
X21260000Y24350000D01*
X9040000Y25160000D02*
X10040000Y25160000D01*
X22060000Y26960000D02*
X19560000Y26960000D01*
X20760000Y25160000D02*
X20760000Y26660000D01*
X10040000Y25160000D02*
X10040000Y26660000D01*
X9540000Y24350000D02*
X9040000Y24350000D01*
G04 #@! TO.C,J6*
X4750000Y23050000D02*
X4950000Y23050000D01*
X4350000Y26050000D02*
X2400000Y26050000D01*
X1490000Y26960000D02*
X1490000Y25710000D01*
X3550000Y26860000D02*
X3250000Y26860000D01*
X7910000Y25350000D02*
X7300000Y25350000D01*
X7910000Y24050000D02*
X7300000Y24050000D01*
X3550000Y26760000D02*
X3250000Y26760000D01*
X7910000Y26660000D02*
X1790000Y26660000D01*
X2400000Y22550000D02*
X7300000Y22550000D01*
X2740000Y26960000D02*
X1490000Y26960000D01*
X1790000Y26660000D02*
X1790000Y21940000D01*
X2400000Y26050000D02*
X2400000Y22550000D01*
X4850000Y22550000D02*
X4850000Y23050000D01*
X1790000Y25350000D02*
X2400000Y25350000D01*
X4950000Y23050000D02*
X4950000Y22550000D01*
X7300000Y26050000D02*
X5350000Y26050000D01*
X4350000Y26660000D02*
X4350000Y26050000D01*
X5350000Y26050000D02*
X5350000Y26660000D01*
X1790000Y24050000D02*
X2400000Y24050000D01*
X7910000Y21940000D02*
X7910000Y26660000D01*
X3250000Y26860000D02*
X3250000Y26660000D01*
X3550000Y26660000D02*
X3550000Y26860000D01*
X7300000Y22550000D02*
X7300000Y26050000D01*
X1790000Y21940000D02*
X7910000Y21940000D01*
X4750000Y22550000D02*
X4750000Y23050000D01*
G04 #@! TO.C,J7*
X-2850000Y26050000D02*
X-4800000Y26050000D01*
X100000Y22550000D02*
X100000Y26050000D01*
X710000Y26660000D02*
X-5410000Y26660000D01*
X-2450000Y23050000D02*
X-2250000Y23050000D01*
X-4800000Y22550000D02*
X100000Y22550000D01*
X-4800000Y26050000D02*
X-4800000Y22550000D01*
X-3650000Y26860000D02*
X-3950000Y26860000D01*
X-2250000Y23050000D02*
X-2250000Y22550000D01*
X-5410000Y24050000D02*
X-4800000Y24050000D01*
X-1850000Y26050000D02*
X-1850000Y26660000D01*
X-5410000Y26660000D02*
X-5410000Y21940000D01*
X-3650000Y26760000D02*
X-3950000Y26760000D01*
X-2850000Y26660000D02*
X-2850000Y26050000D01*
X100000Y26050000D02*
X-1850000Y26050000D01*
X-5410000Y21940000D02*
X710000Y21940000D01*
X-3650000Y26660000D02*
X-3650000Y26860000D01*
X-5710000Y26960000D02*
X-5710000Y25710000D01*
X-5410000Y25350000D02*
X-4800000Y25350000D01*
X-3950000Y26860000D02*
X-3950000Y26660000D01*
X710000Y25350000D02*
X100000Y25350000D01*
X710000Y24050000D02*
X100000Y24050000D01*
X-2350000Y22550000D02*
X-2350000Y23050000D01*
X-2450000Y22550000D02*
X-2450000Y23050000D01*
X710000Y21940000D02*
X710000Y26660000D01*
X-4460000Y26960000D02*
X-5710000Y26960000D01*
G04 #@! TO.C,J5*
X-10470000Y22050000D02*
G75*
G03*
X-10470000Y22050000I-1680000J0D01*
G01*
X-7209999Y21184000D02*
G75*
G03*
X-7224642Y22939894I-1439999J866000D01*
G01*
X-8650000Y23730000D02*
G75*
G03*
X-9540264Y23474721I-3J-1679990D01*
G01*
X-9516000Y20609999D02*
G75*
G03*
X-7760106Y20624642I866000J1439999D01*
G01*
X-7784000Y23490000D02*
G75*
G03*
X-8678674Y23730099I-866003J-1440014D01*
G01*
X-10075000Y22941000D02*
G75*
G03*
X-10075504Y21159807I1425003J-891000D01*
G01*
X-6840000Y26150000D02*
X-13960000Y26150000D01*
X-13220000Y20775000D02*
X-13126000Y20869000D01*
X-13960000Y18890000D02*
X-13960000Y26610000D01*
X-6840000Y25050000D02*
X-13960000Y25050000D01*
X-6840000Y18890000D02*
X-6840000Y26610000D01*
X-6600000Y26210000D02*
X-6600000Y26850000D01*
X-6600000Y26850000D02*
X-7000000Y26850000D01*
X-11175000Y23231000D02*
X-11081000Y23324000D01*
X-6840000Y18890000D02*
X-13960000Y18890000D01*
X-13425000Y20981000D02*
X-13296000Y21109000D01*
X-6840000Y26610000D02*
X-13960000Y26610000D01*
X-11005000Y22991000D02*
X-10876000Y23119000D01*
G04 #@! TO.C,J4*
X-21410000Y25250000D02*
X-20800000Y25250000D01*
X-18850000Y26560000D02*
X-18850000Y25950000D01*
X-19650000Y26760000D02*
X-19950000Y26760000D01*
X-21710000Y26860000D02*
X-21710000Y25610000D01*
X-15290000Y26560000D02*
X-21410000Y26560000D01*
X-18450000Y22450000D02*
X-18450000Y22950000D01*
X-18250000Y22950000D02*
X-18250000Y22450000D01*
X-18850000Y25950000D02*
X-20800000Y25950000D01*
X-21410000Y21840000D02*
X-15290000Y21840000D01*
X-15290000Y23950000D02*
X-15900000Y23950000D01*
X-15900000Y25950000D02*
X-17850000Y25950000D01*
X-20800000Y25950000D02*
X-20800000Y22450000D01*
X-19950000Y26760000D02*
X-19950000Y26560000D01*
X-21410000Y23950000D02*
X-20800000Y23950000D01*
X-18450000Y22950000D02*
X-18250000Y22950000D01*
X-19650000Y26660000D02*
X-19950000Y26660000D01*
X-21410000Y26560000D02*
X-21410000Y21840000D01*
X-20800000Y22450000D02*
X-15900000Y22450000D01*
X-19650000Y26560000D02*
X-19650000Y26760000D01*
X-17850000Y25950000D02*
X-17850000Y26560000D01*
X-15900000Y22450000D02*
X-15900000Y25950000D01*
X-15290000Y25250000D02*
X-15900000Y25250000D01*
X-20460000Y26860000D02*
X-21710000Y26860000D01*
X-15290000Y21840000D02*
X-15290000Y26560000D01*
X-18350000Y22450000D02*
X-18350000Y22950000D01*
G04 #@! TO.C,J9*
X4750000Y17490000D02*
X4950000Y17490000D01*
X1790000Y21100000D02*
X1790000Y16380000D01*
X3550000Y21100000D02*
X3550000Y21300000D01*
X7910000Y18490000D02*
X7300000Y18490000D01*
X1790000Y18490000D02*
X2400000Y18490000D01*
X2400000Y16990000D02*
X7300000Y16990000D01*
X1490000Y21400000D02*
X1490000Y20150000D01*
X7300000Y16990000D02*
X7300000Y20490000D01*
X3550000Y21200000D02*
X3250000Y21200000D01*
X4750000Y16990000D02*
X4750000Y17490000D01*
X7910000Y21100000D02*
X1790000Y21100000D01*
X4350000Y20490000D02*
X2400000Y20490000D01*
X5350000Y20490000D02*
X5350000Y21100000D01*
X2740000Y21400000D02*
X1490000Y21400000D01*
X3250000Y21300000D02*
X3250000Y21100000D01*
X4350000Y21100000D02*
X4350000Y20490000D01*
X7910000Y16380000D02*
X7910000Y21100000D01*
X1790000Y19790000D02*
X2400000Y19790000D01*
X3550000Y21300000D02*
X3250000Y21300000D01*
X4850000Y16990000D02*
X4850000Y17490000D01*
X7300000Y20490000D02*
X5350000Y20490000D01*
X2400000Y20490000D02*
X2400000Y16990000D01*
X4950000Y17490000D02*
X4950000Y16990000D01*
X1790000Y16380000D02*
X7910000Y16380000D01*
X7910000Y19790000D02*
X7300000Y19790000D01*
G04 #@! TO.C,J2*
X6860000Y11540000D02*
X6860000Y15560000D01*
X6860000Y13250000D02*
X6360000Y13250000D01*
X-5860000Y14060000D02*
X-4860000Y14060000D01*
X-4860000Y14060000D02*
X-4860000Y15560000D01*
X5860000Y14060000D02*
X5860000Y15560000D01*
X-5860000Y11540000D02*
X6860000Y11540000D01*
X6360000Y13250000D02*
X6360000Y12040000D01*
X-5860000Y15560000D02*
X-5860000Y11540000D01*
X6860000Y14060000D02*
X5860000Y14060000D01*
X6860000Y15560000D02*
X-5860000Y15560000D01*
X-5360000Y12040000D02*
X-5360000Y13250000D01*
X7160000Y15860000D02*
X4660000Y15860000D01*
X7160000Y13360000D02*
X7160000Y15860000D01*
X-5360000Y13250000D02*
X-5860000Y13250000D01*
X6360000Y12040000D02*
X-5360000Y12040000D01*
G04 #@! TD*
M02*
