G04 #@! TF.GenerationSoftware,KiCad,Pcbnew,(6.0.11-0)*
G04 #@! TF.CreationDate,2023-05-22T15:58:53+12:00*
G04 #@! TF.ProjectId,head-interface,68656164-2d69-46e7-9465-72666163652e,rev?*
G04 #@! TF.SameCoordinates,PX5f5e100PY5f5e100*
G04 #@! TF.FileFunction,Legend,Bot*
G04 #@! TF.FilePolarity,Positive*
%FSLAX46Y46*%
G04 Gerber Fmt 4.6, Leading zero omitted, Abs format (unit mm)*
G04 Created by KiCad (PCBNEW (6.0.11-0)) date 2023-05-22 15:58:53*
%MOMM*%
%LPD*%
G01*
G04 APERTURE LIST*
%ADD10C,0.150000*%
G04 APERTURE END LIST*
D10*
X-8580953Y13447620D02*
X-8580953Y12733334D01*
X-8533334Y12590477D01*
X-8438096Y12495239D01*
X-8295239Y12447620D01*
X-8200000Y12447620D01*
X-9533334Y12447620D02*
X-9057143Y12447620D01*
X-9057143Y13447620D01*
X-10438096Y12542858D02*
X-10390477Y12495239D01*
X-10247620Y12447620D01*
X-10152381Y12447620D01*
X-10009524Y12495239D01*
X-9914286Y12590477D01*
X-9866667Y12685715D01*
X-9819048Y12876191D01*
X-9819048Y13019048D01*
X-9866667Y13209524D01*
X-9914286Y13304762D01*
X-10009524Y13400000D01*
X-10152381Y13447620D01*
X-10247620Y13447620D01*
X-10390477Y13400000D01*
X-10438096Y13352381D01*
X-11152381Y13447620D02*
X-11152381Y12733334D01*
X-11104762Y12590477D01*
X-11009524Y12495239D01*
X-10866667Y12447620D01*
X-10771429Y12447620D01*
X-12104762Y12447620D02*
X-11628572Y12447620D01*
X-11628572Y13447620D01*
X-13009524Y12542858D02*
X-12961905Y12495239D01*
X-12819048Y12447620D01*
X-12723810Y12447620D01*
X-12580953Y12495239D01*
X-12485715Y12590477D01*
X-12438096Y12685715D01*
X-12390477Y12876191D01*
X-12390477Y13019048D01*
X-12438096Y13209524D01*
X-12485715Y13304762D01*
X-12580953Y13400000D01*
X-12723810Y13447620D01*
X-12819048Y13447620D01*
X-12961905Y13400000D01*
X-13009524Y13352381D01*
X-13723810Y13447620D02*
X-13723810Y12733334D01*
X-13676191Y12590477D01*
X-13580953Y12495239D01*
X-13438096Y12447620D01*
X-13342858Y12447620D01*
X-14676191Y12447620D02*
X-14200000Y12447620D01*
X-14200000Y13447620D01*
X-15580953Y12542858D02*
X-15533334Y12495239D01*
X-15390477Y12447620D01*
X-15295239Y12447620D01*
X-15152381Y12495239D01*
X-15057143Y12590477D01*
X-15009524Y12685715D01*
X-14961905Y12876191D01*
X-14961905Y13019048D01*
X-15009524Y13209524D01*
X-15057143Y13304762D01*
X-15152381Y13400000D01*
X-15295239Y13447620D01*
X-15390477Y13447620D01*
X-15533334Y13400000D01*
X-15580953Y13352381D01*
X-16295239Y13447620D02*
X-16295239Y12733334D01*
X-16247620Y12590477D01*
X-16152381Y12495239D01*
X-16009524Y12447620D01*
X-15914286Y12447620D01*
X-17247620Y12447620D02*
X-16771429Y12447620D01*
X-16771429Y13447620D01*
X-18152381Y12542858D02*
X-18104762Y12495239D01*
X-17961905Y12447620D01*
X-17866667Y12447620D01*
X-17723810Y12495239D01*
X-17628572Y12590477D01*
X-17580953Y12685715D01*
X-17533334Y12876191D01*
X-17533334Y13019048D01*
X-17580953Y13209524D01*
X-17628572Y13304762D01*
X-17723810Y13400000D01*
X-17866667Y13447620D01*
X-17961905Y13447620D01*
X-18104762Y13400000D01*
X-18152381Y13352381D01*
M02*
