G04 #@! TF.GenerationSoftware,KiCad,Pcbnew,(6.0.11-0)*
G04 #@! TF.CreationDate,2023-05-22T21:08:54+12:00*
G04 #@! TF.ProjectId,head-interface,68656164-2d69-46e7-9465-72666163652e,rev?*
G04 #@! TF.SameCoordinates,PX5f5e100PY5f5e100*
G04 #@! TF.FileFunction,Copper,L2,Bot*
G04 #@! TF.FilePolarity,Positive*
%FSLAX46Y46*%
G04 Gerber Fmt 4.6, Leading zero omitted, Abs format (unit mm)*
G04 Created by KiCad (PCBNEW (6.0.11-0)) date 2023-05-22 21:08:54*
%MOMM*%
%LPD*%
G01*
G04 APERTURE LIST*
G04 Aperture macros list*
%AMRoundRect*
0 Rectangle with rounded corners*
0 $1 Rounding radius*
0 $2 $3 $4 $5 $6 $7 $8 $9 X,Y pos of 4 corners*
0 Add a 4 corners polygon primitive as box body*
4,1,4,$2,$3,$4,$5,$6,$7,$8,$9,$2,$3,0*
0 Add four circle primitives for the rounded corners*
1,1,$1+$1,$2,$3*
1,1,$1+$1,$4,$5*
1,1,$1+$1,$6,$7*
1,1,$1+$1,$8,$9*
0 Add four rect primitives between the rounded corners*
20,1,$1+$1,$2,$3,$4,$5,0*
20,1,$1+$1,$4,$5,$6,$7,0*
20,1,$1+$1,$6,$7,$8,$9,0*
20,1,$1+$1,$8,$9,$2,$3,0*%
G04 Aperture macros list end*
G04 #@! TA.AperFunction,WasherPad*
%ADD10C,5.020000*%
G04 #@! TD*
G04 #@! TA.AperFunction,ComponentPad*
%ADD11O,1.700000X1.950000*%
G04 #@! TD*
G04 #@! TA.AperFunction,ComponentPad*
%ADD12RoundRect,0.250000X0.600000X0.725000X-0.600000X0.725000X-0.600000X-0.725000X0.600000X-0.725000X0*%
G04 #@! TD*
G04 #@! TA.AperFunction,ComponentPad*
%ADD13O,2.000000X2.300000*%
G04 #@! TD*
G04 #@! TA.AperFunction,ComponentPad*
%ADD14RoundRect,0.316176X0.758824X0.758824X-0.758824X0.758824X-0.758824X-0.758824X0.758824X-0.758824X0*%
G04 #@! TD*
G04 #@! TA.AperFunction,ComponentPad*
%ADD15O,1.200000X1.750000*%
G04 #@! TD*
G04 #@! TA.AperFunction,ComponentPad*
%ADD16RoundRect,0.250000X-0.350000X-0.625000X0.350000X-0.625000X0.350000X0.625000X-0.350000X0.625000X0*%
G04 #@! TD*
G04 #@! TA.AperFunction,ComponentPad*
%ADD17C,6.000000*%
G04 #@! TD*
G04 #@! TA.AperFunction,ComponentPad*
%ADD18C,2.400000*%
G04 #@! TD*
G04 #@! TA.AperFunction,ComponentPad*
%ADD19R,2.400000X2.400000*%
G04 #@! TD*
G04 #@! TA.AperFunction,ViaPad*
%ADD20C,0.800000*%
G04 #@! TD*
G04 #@! TA.AperFunction,Conductor*
%ADD21C,0.500000*%
G04 #@! TD*
G04 #@! TA.AperFunction,Conductor*
%ADD22C,1.000000*%
G04 #@! TD*
G04 APERTURE END LIST*
D10*
G04 #@! TO.P,,*
G04 #@! TO.N,*
X0Y0D03*
G04 #@! TD*
G04 #@! TO.P,,*
G04 #@! TO.N,*
X0Y32600000D03*
G04 #@! TD*
D11*
G04 #@! TO.P,J3,4,Pin_4*
G04 #@! TO.N,Net-(J3-Pad4)*
X3375000Y8300000D03*
G04 #@! TO.P,J3,3,Pin_3*
G04 #@! TO.N,Net-(J3-Pad3)*
X5875000Y8300000D03*
G04 #@! TO.P,J3,2,Pin_2*
G04 #@! TO.N,Net-(J3-Pad2)*
X8375000Y8300000D03*
D12*
G04 #@! TO.P,J3,1,Pin_1*
G04 #@! TO.N,Net-(J3-Pad1)*
X10875000Y8300000D03*
G04 #@! TD*
D11*
G04 #@! TO.P,J1,4,Pin_4*
G04 #@! TO.N,Net-(J1-Pad4)*
X-10650000Y8300000D03*
G04 #@! TO.P,J1,3,Pin_3*
G04 #@! TO.N,Net-(J1-Pad3)*
X-8150000Y8300000D03*
D13*
G04 #@! TO.P,J1,2,Pin_2*
G04 #@! TO.N,Net-(J1-Pad2)*
X-5650000Y8300000D03*
D14*
G04 #@! TO.P,J1,1,Pin_1*
G04 #@! TO.N,Net-(J1-Pad1)*
X-3150000Y8300000D03*
G04 #@! TD*
D11*
G04 #@! TO.P,J8,4,Pin_4*
G04 #@! TO.N,Net-(J3-Pad4)*
X11650000Y24350000D03*
G04 #@! TO.P,J8,3,Pin_3*
G04 #@! TO.N,Net-(J3-Pad3)*
X14150000Y24350000D03*
G04 #@! TO.P,J8,2,Pin_2*
G04 #@! TO.N,Net-(J3-Pad2)*
X16650000Y24350000D03*
D12*
G04 #@! TO.P,J8,1,Pin_1*
G04 #@! TO.N,Net-(J3-Pad1)*
X19150000Y24350000D03*
G04 #@! TD*
D15*
G04 #@! TO.P,J6,2,Pin_2*
G04 #@! TO.N,Net-(J2-Pad1)*
X5850000Y24850000D03*
D16*
G04 #@! TO.P,J6,1,Pin_1*
G04 #@! TO.N,Net-(J2-Pad2)*
X3850000Y24850000D03*
G04 #@! TD*
D17*
G04 #@! TO.P,H2,1,1*
G04 #@! TO.N,GND*
X22050000Y16250000D03*
G04 #@! TD*
D15*
G04 #@! TO.P,J7,2,Pin_2*
G04 #@! TO.N,Net-(J2-Pad3)*
X-1350000Y24850000D03*
D16*
G04 #@! TO.P,J7,1,Pin_1*
G04 #@! TO.N,Net-(J2-Pad4)*
X-3350000Y24850000D03*
G04 #@! TD*
D18*
G04 #@! TO.P,J5,2,Pin_2*
G04 #@! TO.N,Net-(J1-Pad2)*
X-12150000Y22050000D03*
D19*
G04 #@! TO.P,J5,1,Pin_1*
G04 #@! TO.N,Net-(J1-Pad1)*
X-8650000Y22050000D03*
G04 #@! TD*
D15*
G04 #@! TO.P,J4,2,Pin_2*
G04 #@! TO.N,Net-(J1-Pad3)*
X-17350000Y24750000D03*
D16*
G04 #@! TO.P,J4,1,Pin_1*
G04 #@! TO.N,Net-(J1-Pad4)*
X-19350000Y24750000D03*
G04 #@! TD*
D17*
G04 #@! TO.P,H1,1,1*
G04 #@! TO.N,GND*
X-21950000Y16250000D03*
G04 #@! TD*
D15*
G04 #@! TO.P,J9,2,Pin_2*
G04 #@! TO.N,Net-(J2-Pad1)*
X5850000Y19290000D03*
D16*
G04 #@! TO.P,J9,1,Pin_1*
G04 #@! TO.N,Net-(J2-Pad2)*
X3850000Y19290000D03*
G04 #@! TD*
D11*
G04 #@! TO.P,J2,4,Pin_4*
G04 #@! TO.N,Net-(J2-Pad4)*
X-3250000Y13250000D03*
G04 #@! TO.P,J2,3,Pin_3*
G04 #@! TO.N,Net-(J2-Pad3)*
X-750000Y13250000D03*
G04 #@! TO.P,J2,2,Pin_2*
G04 #@! TO.N,Net-(J2-Pad2)*
X1750000Y13250000D03*
D12*
G04 #@! TO.P,J2,1,Pin_1*
G04 #@! TO.N,Net-(J2-Pad1)*
X4250000Y13250000D03*
G04 #@! TD*
D20*
G04 #@! TO.N,GND*
X3450000Y11100000D03*
X21300000Y25925000D03*
X-7050000Y16550000D03*
X-150000Y21050000D03*
X-14250000Y7300000D03*
X12900000Y9850000D03*
X14350000Y7300000D03*
X-14500000Y25925000D03*
X6300000Y14650000D03*
X-15250000Y19950000D03*
X-16450000Y15850000D03*
X-2350000Y11200000D03*
X-13600000Y18200000D03*
X8475000Y25925000D03*
X500000Y14850000D03*
X9550000Y17650000D03*
X2500000Y17100000D03*
X-12650000Y12050000D03*
X150000Y7300000D03*
X-20900000Y25925000D03*
X-6150000Y25925000D03*
X-5350000Y14750000D03*
G04 #@! TD*
D21*
G04 #@! TO.N,Net-(J2-Pad3)*
X-1400000Y13900000D02*
X-750000Y13250000D01*
X-1400000Y24800000D02*
X-1400000Y13900000D01*
X-1350000Y24850000D02*
X-1400000Y24800000D01*
G04 #@! TO.N,Net-(J2-Pad4)*
X-3350000Y24850000D02*
X-3300000Y24800000D01*
X-3300000Y24800000D02*
X-3300000Y13300000D01*
X-3300000Y13300000D02*
X-3250000Y13250000D01*
G04 #@! TO.N,Net-(J1-Pad4)*
X-19350000Y20750000D02*
X-19350000Y24750000D01*
X-10650000Y12050000D02*
X-19350000Y20750000D01*
X-10650000Y8300000D02*
X-10650000Y12050000D01*
G04 #@! TO.N,Net-(J1-Pad3)*
X-17350000Y20250000D02*
X-17350000Y24750000D01*
X-8150000Y8300000D02*
X-8150000Y11050000D01*
X-8150000Y11050000D02*
X-17350000Y20250000D01*
D22*
G04 #@! TO.N,Net-(J1-Pad1)*
X-3150000Y10250000D02*
X-8650000Y15750000D01*
X-8650000Y15750000D02*
X-8650000Y22050000D01*
X-3150000Y8300000D02*
X-3150000Y10250000D01*
G04 #@! TO.N,Net-(J1-Pad2)*
X-5650000Y10550000D02*
X-12150000Y17050000D01*
X-5650000Y8300000D02*
X-5650000Y10550000D01*
X-12150000Y17050000D02*
X-12150000Y22050000D01*
G04 #@! TO.N,Net-(J3-Pad1)*
X18600000Y18300000D02*
X18600000Y23800000D01*
X10875000Y10575000D02*
X18600000Y18300000D01*
X18600000Y23800000D02*
X19150000Y24350000D01*
X10875000Y8300000D02*
X10875000Y10575000D01*
G04 #@! TO.N,Net-(J3-Pad2)*
X8375000Y10025000D02*
X16650000Y18300000D01*
X8375000Y8300000D02*
X8375000Y10025000D01*
X16650000Y18300000D02*
X16650000Y24350000D01*
G04 #@! TO.N,Net-(J3-Pad3)*
X5875000Y8300000D02*
X5875000Y9525000D01*
X14150000Y17800000D02*
X14150000Y24350000D01*
X5875000Y9525000D02*
X14150000Y17800000D01*
G04 #@! TO.N,Net-(J3-Pad4)*
X3375000Y8300000D02*
X3375000Y8975000D01*
X3375000Y8975000D02*
X11650000Y17250000D01*
X11650000Y17250000D02*
X11650000Y24350000D01*
D21*
G04 #@! TO.N,Net-(J2-Pad1)*
X4250000Y13250000D02*
X4250000Y14450000D01*
X4250000Y14450000D02*
X5850000Y16050000D01*
X5850000Y16050000D02*
X5850000Y24850000D01*
G04 #@! TO.N,Net-(J2-Pad2)*
X3850000Y15950000D02*
X3850000Y24850000D01*
X1750000Y13850000D02*
X3850000Y15950000D01*
X1750000Y13250000D02*
X1750000Y13850000D01*
G04 #@! TD*
G04 #@! TA.AperFunction,Conductor*
G04 #@! TO.N,GND*
G36*
X578333Y12421434D02*
G01*
X605573Y12392284D01*
X687441Y12270681D01*
X691120Y12266824D01*
X691122Y12266822D01*
X753862Y12201054D01*
X846576Y12103865D01*
X1031542Y11966246D01*
X1036293Y11963830D01*
X1036297Y11963828D01*
X1101129Y11930866D01*
X1237051Y11861760D01*
X1242145Y11860178D01*
X1242148Y11860177D01*
X1442020Y11798115D01*
X1457227Y11793393D01*
X1462516Y11792692D01*
X1680489Y11763802D01*
X1680494Y11763802D01*
X1685774Y11763102D01*
X1691103Y11763302D01*
X1691105Y11763302D01*
X1800966Y11767426D01*
X1916158Y11771751D01*
X1938802Y11776502D01*
X2136572Y11817998D01*
X2141791Y11819093D01*
X2146750Y11821051D01*
X2146752Y11821052D01*
X2351256Y11901815D01*
X2351258Y11901816D01*
X2356221Y11903776D01*
X2392343Y11925695D01*
X2548757Y12020610D01*
X2548756Y12020610D01*
X2553317Y12023377D01*
X2591926Y12056880D01*
X2723412Y12170977D01*
X2723414Y12170979D01*
X2727445Y12174477D01*
X2756670Y12210120D01*
X2815329Y12250114D01*
X2886299Y12252046D01*
X2947048Y12215302D01*
X2961248Y12196532D01*
X3051522Y12050652D01*
X3176697Y11925695D01*
X3182927Y11921855D01*
X3182928Y11921854D01*
X3276496Y11864178D01*
X3327262Y11832885D01*
X3362938Y11821052D01*
X3488611Y11779368D01*
X3488613Y11779368D01*
X3495139Y11777203D01*
X3501975Y11776503D01*
X3501978Y11776502D01*
X3537663Y11772846D01*
X3599600Y11766500D01*
X4436076Y11766500D01*
X4504197Y11746498D01*
X4550690Y11692842D01*
X4560794Y11622568D01*
X4531300Y11557988D01*
X4525171Y11551405D01*
X2705621Y9731855D01*
X2695478Y9722753D01*
X2665975Y9699032D01*
X2662008Y9694304D01*
X2633709Y9660579D01*
X2630528Y9656931D01*
X2628885Y9655119D01*
X2626691Y9652925D01*
X2599358Y9619651D01*
X2598696Y9618853D01*
X2538846Y9547526D01*
X2536278Y9542856D01*
X2532897Y9538739D01*
X2497952Y9473566D01*
X2469492Y9437946D01*
X2397555Y9375523D01*
X2377752Y9351372D01*
X2254760Y9201373D01*
X2254756Y9201367D01*
X2251376Y9197245D01*
X2248738Y9192610D01*
X2248735Y9192606D01*
X2211963Y9128006D01*
X2137325Y8996886D01*
X2058663Y8780175D01*
X2057714Y8774926D01*
X2057713Y8774923D01*
X2018377Y8557392D01*
X2018376Y8557385D01*
X2017639Y8553308D01*
X2016500Y8529156D01*
X2016500Y8117110D01*
X2031080Y7945280D01*
X2032418Y7940125D01*
X2032419Y7940119D01*
X2087657Y7727297D01*
X2088999Y7722128D01*
X2183688Y7511925D01*
X2312441Y7320681D01*
X2316120Y7316824D01*
X2316122Y7316822D01*
X2375348Y7254738D01*
X2471576Y7153865D01*
X2656542Y7016246D01*
X2661293Y7013830D01*
X2661297Y7013828D01*
X2734673Y6976522D01*
X2862051Y6911760D01*
X2884364Y6904831D01*
X2943487Y6865530D01*
X2971978Y6800501D01*
X2960788Y6730391D01*
X2913471Y6677461D01*
X2846998Y6658500D01*
X-1815085Y6658500D01*
X-1883206Y6678502D01*
X-1929699Y6732158D01*
X-1939803Y6802432D01*
X-1910309Y6867012D01*
X-1894037Y6882697D01*
X-1809915Y6950332D01*
X-1804603Y6954603D01*
X-1790733Y6971854D01*
X-1696603Y7088929D01*
X-1696602Y7088930D01*
X-1692329Y7094245D01*
X-1616981Y7246032D01*
X-1615692Y7248628D01*
X-1612659Y7254738D01*
X-1569312Y7428595D01*
X-1566500Y7469843D01*
X-1566501Y9130156D01*
X-1569312Y9171405D01*
X-1612659Y9345262D01*
X-1692329Y9505755D01*
X-1709835Y9527529D01*
X-1800332Y9640085D01*
X-1804603Y9645397D01*
X-1818569Y9656626D01*
X-1938929Y9753397D01*
X-1938930Y9753398D01*
X-1944245Y9757671D01*
X-2071525Y9820854D01*
X-2123647Y9869058D01*
X-2141500Y9933713D01*
X-2141500Y10188150D01*
X-2140763Y10201758D01*
X-2137341Y10233261D01*
X-2136675Y10239388D01*
X-2141053Y10289430D01*
X-2141379Y10294212D01*
X-2141500Y10296690D01*
X-2141500Y10299769D01*
X-2141799Y10302823D01*
X-2141800Y10302834D01*
X-2145687Y10342471D01*
X-2145809Y10343785D01*
X-2153377Y10430282D01*
X-2153913Y10436413D01*
X-2155400Y10441532D01*
X-2155920Y10446833D01*
X-2182791Y10535834D01*
X-2183126Y10536967D01*
X-2207370Y10620414D01*
X-2207372Y10620418D01*
X-2209091Y10626336D01*
X-2211544Y10631068D01*
X-2213084Y10636169D01*
X-2220529Y10650171D01*
X-2256731Y10718260D01*
X-2257343Y10719426D01*
X-2297271Y10796453D01*
X-2300108Y10801926D01*
X-2303431Y10806089D01*
X-2305934Y10810796D01*
X-2364739Y10882898D01*
X-2365567Y10883925D01*
X-2394531Y10920208D01*
X-2394536Y10920213D01*
X-2396738Y10922972D01*
X-2399239Y10925473D01*
X-2399881Y10926191D01*
X-2403594Y10930539D01*
X-2411358Y10940059D01*
X-2430935Y10964062D01*
X-2435677Y10967985D01*
X-2435679Y10967987D01*
X-2466273Y10993297D01*
X-2475053Y11001287D01*
X-3052870Y11579104D01*
X-3086896Y11641416D01*
X-3081831Y11712231D01*
X-3039284Y11769067D01*
X-2989649Y11791514D01*
X-2863428Y11817998D01*
X-2858209Y11819093D01*
X-2853250Y11821051D01*
X-2853248Y11821052D01*
X-2648744Y11901815D01*
X-2648742Y11901816D01*
X-2643779Y11903776D01*
X-2607657Y11925695D01*
X-2451243Y12020610D01*
X-2451244Y12020610D01*
X-2446683Y12023377D01*
X-2408074Y12056880D01*
X-2276588Y12170977D01*
X-2276586Y12170979D01*
X-2272555Y12174477D01*
X-2208952Y12252046D01*
X-2129760Y12348627D01*
X-2129756Y12348633D01*
X-2126376Y12352755D01*
X-2108448Y12384250D01*
X-2057368Y12433555D01*
X-1987738Y12447417D01*
X-1921667Y12421434D01*
X-1894427Y12392284D01*
X-1812559Y12270681D01*
X-1808880Y12266824D01*
X-1808878Y12266822D01*
X-1746138Y12201054D01*
X-1653424Y12103865D01*
X-1468458Y11966246D01*
X-1463707Y11963830D01*
X-1463703Y11963828D01*
X-1398871Y11930866D01*
X-1262949Y11861760D01*
X-1257855Y11860178D01*
X-1257852Y11860177D01*
X-1057980Y11798115D01*
X-1042773Y11793393D01*
X-1037484Y11792692D01*
X-819511Y11763802D01*
X-819506Y11763802D01*
X-814226Y11763102D01*
X-808897Y11763302D01*
X-808895Y11763302D01*
X-699034Y11767426D01*
X-583842Y11771751D01*
X-561198Y11776502D01*
X-363428Y11817998D01*
X-358209Y11819093D01*
X-353250Y11821051D01*
X-353248Y11821052D01*
X-148744Y11901815D01*
X-148742Y11901816D01*
X-143779Y11903776D01*
X-107657Y11925695D01*
X48757Y12020610D01*
X48756Y12020610D01*
X53317Y12023377D01*
X91926Y12056880D01*
X223412Y12170977D01*
X223414Y12170979D01*
X227445Y12174477D01*
X291048Y12252046D01*
X370240Y12348627D01*
X370244Y12348633D01*
X373624Y12352755D01*
X391552Y12384250D01*
X442632Y12433555D01*
X512262Y12447417D01*
X578333Y12421434D01*
G37*
G04 #@! TD.AperFunction*
G04 #@! TA.AperFunction,Conductor*
G36*
X21319323Y26739929D02*
G01*
X21341869Y26736335D01*
X21350769Y26737466D01*
X21350773Y26737466D01*
X21353839Y26737856D01*
X21381732Y26738289D01*
X21496566Y26727295D01*
X21519266Y26722993D01*
X21651417Y26685116D01*
X21672954Y26676739D01*
X21795963Y26615362D01*
X21815608Y26603191D01*
X21925341Y26520379D01*
X21942430Y26504827D01*
X22030221Y26408801D01*
X22035188Y26403368D01*
X22049152Y26384953D01*
X22121822Y26268253D01*
X22132188Y26247596D01*
X22165210Y26163275D01*
X22171678Y26146758D01*
X22175757Y26130786D01*
X22176249Y26130922D01*
X22178638Y26122265D01*
X22179774Y26113364D01*
X22188745Y26092806D01*
X22195095Y26078253D01*
X22199925Y26065283D01*
X23555110Y21708425D01*
X24815683Y17655743D01*
X24854308Y17531564D01*
X24857598Y17518591D01*
X24865255Y17479881D01*
X24874097Y17462888D01*
X24882735Y17441831D01*
X24977697Y17133547D01*
X24980844Y17121113D01*
X25049665Y16776250D01*
X25051531Y16763561D01*
X25084935Y16413495D01*
X25085502Y16400681D01*
X25083143Y16049026D01*
X25082404Y16036221D01*
X25047811Y15718775D01*
X25044309Y15686641D01*
X25042274Y15673984D01*
X24984322Y15402605D01*
X24968829Y15330056D01*
X24965515Y15317666D01*
X24857495Y14983015D01*
X24852939Y14971025D01*
X24711695Y14649631D01*
X24711452Y14649079D01*
X24705702Y14637617D01*
X24532213Y14331719D01*
X24525336Y14320913D01*
X24321655Y14034245D01*
X24313704Y14024181D01*
X24081927Y13759697D01*
X24073005Y13750504D01*
X23815520Y13510935D01*
X23805723Y13502710D01*
X23569841Y13324310D01*
X23525236Y13290575D01*
X23514626Y13283369D01*
X23245181Y13119765D01*
X23221845Y13108693D01*
X23220931Y13108369D01*
X23211608Y13105068D01*
X23204331Y13099820D01*
X23204329Y13099819D01*
X23183599Y13084869D01*
X23182758Y13084306D01*
X23181590Y13083702D01*
X23178771Y13081638D01*
X23156101Y13065042D01*
X23155373Y13064513D01*
X23093468Y13019869D01*
X23092474Y13018592D01*
X23091283Y13017590D01*
X14679429Y6859441D01*
X14662910Y6849206D01*
X14641580Y6838167D01*
X14635084Y6831967D01*
X14632002Y6829026D01*
X14610620Y6812606D01*
X14519760Y6757191D01*
X14500766Y6747704D01*
X14380280Y6699732D01*
X14359958Y6693567D01*
X14233128Y6666511D01*
X14212060Y6663846D01*
X14178335Y6662448D01*
X14112668Y6659726D01*
X14096109Y6661021D01*
X14096091Y6660692D01*
X14087129Y6661187D01*
X14078326Y6662948D01*
X14032839Y6658977D01*
X14021883Y6658500D01*
X11878490Y6658500D01*
X11810369Y6678502D01*
X11763876Y6732158D01*
X11753772Y6802432D01*
X11783266Y6867012D01*
X11812187Y6891644D01*
X11812375Y6891760D01*
X11949348Y6976522D01*
X12074305Y7101697D01*
X12106462Y7153865D01*
X12163275Y7246032D01*
X12163276Y7246034D01*
X12167115Y7252262D01*
X12217031Y7402755D01*
X12220632Y7413611D01*
X12220632Y7413613D01*
X12222797Y7420139D01*
X12223664Y7428595D01*
X12228110Y7471991D01*
X12233500Y7524600D01*
X12233500Y9075400D01*
X12230680Y9102583D01*
X12223238Y9174308D01*
X12223237Y9174312D01*
X12222526Y9181166D01*
X12218710Y9192606D01*
X12168868Y9341998D01*
X12166550Y9348946D01*
X12073478Y9499348D01*
X11948303Y9624305D01*
X11942072Y9628146D01*
X11936327Y9632683D01*
X11937377Y9634013D01*
X11895892Y9680107D01*
X11883500Y9734597D01*
X11883500Y10105075D01*
X11903502Y10173196D01*
X11920405Y10194170D01*
X19269379Y17543145D01*
X19279522Y17552247D01*
X19304218Y17572103D01*
X19309025Y17575968D01*
X19341292Y17614422D01*
X19344472Y17618069D01*
X19346115Y17619881D01*
X19348309Y17622075D01*
X19375642Y17655349D01*
X19376348Y17656200D01*
X19432195Y17722756D01*
X19436154Y17727474D01*
X19438722Y17732144D01*
X19442103Y17736261D01*
X19486015Y17818158D01*
X19486624Y17819280D01*
X19528466Y17895389D01*
X19528468Y17895394D01*
X19531433Y17900787D01*
X19533044Y17905865D01*
X19535563Y17910563D01*
X19562753Y17999498D01*
X19563136Y18000728D01*
X19572402Y18029936D01*
X19591235Y18089306D01*
X19591828Y18094597D01*
X19593388Y18099698D01*
X19602795Y18192311D01*
X19602915Y18193431D01*
X19608500Y18243227D01*
X19608500Y18246756D01*
X19608555Y18247739D01*
X19609004Y18253444D01*
X19612752Y18290336D01*
X19612752Y18290339D01*
X19613374Y18296463D01*
X19609059Y18342112D01*
X19608500Y18353969D01*
X19608500Y22740500D01*
X19628502Y22808621D01*
X19682158Y22855114D01*
X19734500Y22866500D01*
X19800400Y22866500D01*
X19803646Y22866837D01*
X19803650Y22866837D01*
X19899308Y22876762D01*
X19899312Y22876763D01*
X19906166Y22877474D01*
X19912702Y22879655D01*
X19912704Y22879655D01*
X20066998Y22931132D01*
X20073946Y22933450D01*
X20224348Y23026522D01*
X20349305Y23151697D01*
X20405751Y23243269D01*
X20438275Y23296032D01*
X20438276Y23296034D01*
X20442115Y23302262D01*
X20476566Y23406128D01*
X20495632Y23463611D01*
X20495632Y23463613D01*
X20497797Y23470139D01*
X20499397Y23485750D01*
X20504105Y23531704D01*
X20508500Y23574600D01*
X20508500Y25125400D01*
X20505680Y25152583D01*
X20498238Y25224308D01*
X20498237Y25224312D01*
X20497526Y25231166D01*
X20494138Y25241323D01*
X20443868Y25391998D01*
X20441550Y25398946D01*
X20348478Y25549348D01*
X20223303Y25674305D01*
X20196558Y25690791D01*
X20078968Y25763275D01*
X20078966Y25763276D01*
X20072738Y25767115D01*
X19961629Y25803968D01*
X19911389Y25820632D01*
X19911387Y25820632D01*
X19904861Y25822797D01*
X19898025Y25823497D01*
X19898022Y25823498D01*
X19854969Y25827909D01*
X19800400Y25833500D01*
X18499600Y25833500D01*
X18496354Y25833163D01*
X18496350Y25833163D01*
X18400692Y25823238D01*
X18400688Y25823237D01*
X18393834Y25822526D01*
X18387298Y25820345D01*
X18387296Y25820345D01*
X18305094Y25792920D01*
X18226054Y25766550D01*
X18075652Y25673478D01*
X17950695Y25548303D01*
X17946855Y25542073D01*
X17946854Y25542072D01*
X17934594Y25522183D01*
X17872954Y25422183D01*
X17860920Y25402661D01*
X17808148Y25355168D01*
X17738076Y25343744D01*
X17672952Y25372018D01*
X17662490Y25381805D01*
X17557103Y25492278D01*
X17553424Y25496135D01*
X17368458Y25633754D01*
X17363707Y25636170D01*
X17363703Y25636172D01*
X17245588Y25696224D01*
X17162949Y25738240D01*
X17157855Y25739822D01*
X17157852Y25739823D01*
X16947871Y25805024D01*
X16942773Y25806607D01*
X16937484Y25807308D01*
X16719511Y25836198D01*
X16719506Y25836198D01*
X16714226Y25836898D01*
X16708897Y25836698D01*
X16708895Y25836698D01*
X16599034Y25832573D01*
X16483842Y25828249D01*
X16478623Y25827154D01*
X16456566Y25822526D01*
X16258209Y25780907D01*
X16253250Y25778949D01*
X16253248Y25778948D01*
X16048744Y25698185D01*
X16048742Y25698184D01*
X16043779Y25696224D01*
X16039220Y25693457D01*
X16039217Y25693456D01*
X15935581Y25630568D01*
X15846683Y25576623D01*
X15842653Y25573126D01*
X15680925Y25432786D01*
X15672555Y25425523D01*
X15653809Y25402661D01*
X15529760Y25251373D01*
X15529756Y25251367D01*
X15526376Y25247245D01*
X15508448Y25215750D01*
X15457368Y25166445D01*
X15387738Y25152583D01*
X15321667Y25178566D01*
X15294427Y25207716D01*
X15215539Y25324892D01*
X15212559Y25329319D01*
X15053424Y25496135D01*
X14868458Y25633754D01*
X14863707Y25636170D01*
X14863703Y25636172D01*
X14745588Y25696224D01*
X14662949Y25738240D01*
X14657855Y25739822D01*
X14657852Y25739823D01*
X14447871Y25805024D01*
X14442773Y25806607D01*
X14437484Y25807308D01*
X14219511Y25836198D01*
X14219506Y25836198D01*
X14214226Y25836898D01*
X14208897Y25836698D01*
X14208895Y25836698D01*
X14099034Y25832573D01*
X13983842Y25828249D01*
X13978623Y25827154D01*
X13956566Y25822526D01*
X13758209Y25780907D01*
X13753250Y25778949D01*
X13753248Y25778948D01*
X13548744Y25698185D01*
X13548742Y25698184D01*
X13543779Y25696224D01*
X13539220Y25693457D01*
X13539217Y25693456D01*
X13435581Y25630568D01*
X13346683Y25576623D01*
X13342653Y25573126D01*
X13180925Y25432786D01*
X13172555Y25425523D01*
X13153809Y25402661D01*
X13029760Y25251373D01*
X13029756Y25251367D01*
X13026376Y25247245D01*
X13008448Y25215750D01*
X12957368Y25166445D01*
X12887738Y25152583D01*
X12821667Y25178566D01*
X12794427Y25207716D01*
X12715539Y25324892D01*
X12712559Y25329319D01*
X12553424Y25496135D01*
X12368458Y25633754D01*
X12363707Y25636170D01*
X12363703Y25636172D01*
X12245588Y25696224D01*
X12162949Y25738240D01*
X12157855Y25739822D01*
X12157852Y25739823D01*
X11947871Y25805024D01*
X11942773Y25806607D01*
X11937484Y25807308D01*
X11719511Y25836198D01*
X11719506Y25836198D01*
X11714226Y25836898D01*
X11708897Y25836698D01*
X11708895Y25836698D01*
X11599034Y25832573D01*
X11483842Y25828249D01*
X11478623Y25827154D01*
X11456566Y25822526D01*
X11258209Y25780907D01*
X11253250Y25778949D01*
X11253248Y25778948D01*
X11048744Y25698185D01*
X11048742Y25698184D01*
X11043779Y25696224D01*
X11039220Y25693457D01*
X11039217Y25693456D01*
X10935581Y25630568D01*
X10846683Y25576623D01*
X10842653Y25573126D01*
X10680925Y25432786D01*
X10672555Y25425523D01*
X10653809Y25402661D01*
X10529760Y25251373D01*
X10529756Y25251367D01*
X10526376Y25247245D01*
X10523738Y25242610D01*
X10523735Y25242606D01*
X10486872Y25177846D01*
X10412325Y25046886D01*
X10333663Y24830175D01*
X10332714Y24824926D01*
X10332713Y24824923D01*
X10293377Y24607392D01*
X10293376Y24607385D01*
X10292639Y24603308D01*
X10291500Y24579156D01*
X10291500Y24167110D01*
X10292683Y24153168D01*
X10300800Y24057511D01*
X10306080Y23995280D01*
X10307418Y23990125D01*
X10307419Y23990119D01*
X10362657Y23777297D01*
X10363999Y23772128D01*
X10366191Y23767262D01*
X10366192Y23767259D01*
X10381229Y23733879D01*
X10458688Y23561925D01*
X10497759Y23503891D01*
X10584458Y23375111D01*
X10584461Y23375107D01*
X10587441Y23370681D01*
X10591128Y23366816D01*
X10606669Y23350525D01*
X10639217Y23287429D01*
X10641500Y23263553D01*
X10641500Y17719925D01*
X10621498Y17651804D01*
X10604595Y17630830D01*
X5823595Y12849829D01*
X5761283Y12815803D01*
X5690468Y12820868D01*
X5633632Y12863415D01*
X5608821Y12929935D01*
X5608500Y12938924D01*
X5608500Y14025400D01*
X5607185Y14038075D01*
X5598238Y14124308D01*
X5598237Y14124312D01*
X5597526Y14131166D01*
X5593710Y14142606D01*
X5543868Y14291998D01*
X5541550Y14298946D01*
X5483729Y14392384D01*
X5452645Y14442615D01*
X5433807Y14511067D01*
X5454968Y14578837D01*
X5470694Y14598013D01*
X6338911Y15466230D01*
X6353323Y15478616D01*
X6364918Y15487149D01*
X6364923Y15487154D01*
X6370818Y15491492D01*
X6375557Y15497070D01*
X6375560Y15497073D01*
X6405035Y15531768D01*
X6411965Y15539284D01*
X6417661Y15544980D01*
X6419924Y15547841D01*
X6419929Y15547846D01*
X6435293Y15567266D01*
X6438082Y15570667D01*
X6439743Y15572622D01*
X6485333Y15626285D01*
X6488659Y15632798D01*
X6492020Y15637837D01*
X6495196Y15642979D01*
X6499734Y15648716D01*
X6530655Y15714875D01*
X6532561Y15718775D01*
X6565769Y15783808D01*
X6567508Y15790917D01*
X6569604Y15796551D01*
X6571523Y15802321D01*
X6574622Y15808950D01*
X6589491Y15880435D01*
X6590461Y15884718D01*
X6606473Y15950156D01*
X6607808Y15955610D01*
X6608500Y15966764D01*
X6608535Y15966762D01*
X6608775Y15970734D01*
X6609152Y15974955D01*
X6610641Y15982115D01*
X6608546Y16059542D01*
X6608500Y16062950D01*
X6608500Y18153734D01*
X6628502Y18221855D01*
X6643477Y18240858D01*
X6723881Y18324850D01*
X6838620Y18502548D01*
X6885094Y18617866D01*
X6915442Y18693168D01*
X6915443Y18693171D01*
X6917686Y18698737D01*
X6958228Y18906337D01*
X6958500Y18911899D01*
X6958500Y19617846D01*
X6943452Y19775566D01*
X6883908Y19978534D01*
X6836872Y20069861D01*
X6789804Y20161249D01*
X6789802Y20161252D01*
X6787058Y20166580D01*
X6656396Y20332920D01*
X6651865Y20336852D01*
X6647730Y20341194D01*
X6648582Y20342006D01*
X6613579Y20396557D01*
X6608500Y20431970D01*
X6608500Y23713734D01*
X6628502Y23781855D01*
X6643477Y23800858D01*
X6723881Y23884850D01*
X6838620Y24062548D01*
X6879759Y24164627D01*
X6915442Y24253168D01*
X6915443Y24253171D01*
X6917686Y24258737D01*
X6958228Y24466337D01*
X6958500Y24471899D01*
X6958500Y25177846D01*
X6943452Y25335566D01*
X6883908Y25538534D01*
X6878877Y25548303D01*
X6789804Y25721249D01*
X6789802Y25721252D01*
X6787058Y25726580D01*
X6656396Y25892920D01*
X6651865Y25896852D01*
X6651862Y25896855D01*
X6501167Y26027621D01*
X6496637Y26031552D01*
X6491451Y26034552D01*
X6491447Y26034555D01*
X6320996Y26133163D01*
X6313546Y26137473D01*
X6113729Y26206861D01*
X6107794Y26207722D01*
X6107792Y26207722D01*
X5910336Y26236352D01*
X5910333Y26236352D01*
X5904396Y26237213D01*
X5693101Y26227433D01*
X5561923Y26195819D01*
X5493299Y26179281D01*
X5493297Y26179280D01*
X5487466Y26177875D01*
X5482008Y26175393D01*
X5482004Y26175392D01*
X5384199Y26130922D01*
X5294913Y26090326D01*
X5212057Y26031552D01*
X5131354Y25974305D01*
X5122389Y25967946D01*
X5118247Y25963619D01*
X5118241Y25963614D01*
X5031194Y25872683D01*
X4969639Y25837306D01*
X4898730Y25840825D01*
X4840979Y25882121D01*
X4833032Y25893509D01*
X4798478Y25949348D01*
X4778658Y25969134D01*
X4716131Y26031552D01*
X4673303Y26074305D01*
X4666898Y26078253D01*
X4528968Y26163275D01*
X4528966Y26163276D01*
X4522738Y26167115D01*
X4362254Y26220345D01*
X4361389Y26220632D01*
X4361387Y26220632D01*
X4354861Y26222797D01*
X4348025Y26223497D01*
X4348022Y26223498D01*
X4304969Y26227909D01*
X4250400Y26233500D01*
X3449600Y26233500D01*
X3446354Y26233163D01*
X3446350Y26233163D01*
X3350692Y26223238D01*
X3350688Y26223237D01*
X3343834Y26222526D01*
X3337298Y26220345D01*
X3337296Y26220345D01*
X3214213Y26179281D01*
X3176054Y26166550D01*
X3025652Y26073478D01*
X2900695Y25948303D01*
X2896855Y25942073D01*
X2896854Y25942072D01*
X2823165Y25822526D01*
X2807885Y25797738D01*
X2752203Y25629861D01*
X2751503Y25623025D01*
X2751502Y25623022D01*
X2747091Y25579969D01*
X2741500Y25525400D01*
X2741500Y24174600D01*
X2741837Y24171354D01*
X2741837Y24171350D01*
X2751537Y24077866D01*
X2752474Y24068834D01*
X2754655Y24062298D01*
X2754655Y24062296D01*
X2775242Y24000591D01*
X2808450Y23901054D01*
X2901522Y23750652D01*
X3026697Y23625695D01*
X3032928Y23621854D01*
X3038673Y23617317D01*
X3037623Y23615987D01*
X3079108Y23569893D01*
X3091500Y23515403D01*
X3091500Y20624428D01*
X3071498Y20556307D01*
X3037112Y20522505D01*
X3037612Y20521875D01*
X3031880Y20517332D01*
X3025652Y20513478D01*
X2900695Y20388303D01*
X2896855Y20382073D01*
X2896854Y20382072D01*
X2829323Y20272516D01*
X2807885Y20237738D01*
X2752203Y20069861D01*
X2741500Y19965400D01*
X2741500Y18614600D01*
X2741837Y18611354D01*
X2741837Y18611350D01*
X2750285Y18529936D01*
X2752474Y18508834D01*
X2754655Y18502298D01*
X2754655Y18502296D01*
X2783511Y18415804D01*
X2808450Y18341054D01*
X2901522Y18190652D01*
X3026697Y18065695D01*
X3032928Y18061854D01*
X3038673Y18057317D01*
X3037623Y18055987D01*
X3079108Y18009893D01*
X3091500Y17955403D01*
X3091500Y16316371D01*
X3071498Y16248250D01*
X3054595Y16227276D01*
X1574579Y14747260D01*
X1511357Y14713040D01*
X1363430Y14682003D01*
X1363424Y14682001D01*
X1358209Y14680907D01*
X1353250Y14678949D01*
X1353248Y14678948D01*
X1148744Y14598185D01*
X1148742Y14598184D01*
X1143779Y14596224D01*
X1139220Y14593457D01*
X1139217Y14593456D01*
X1040832Y14533754D01*
X946683Y14476623D01*
X942653Y14473126D01*
X780493Y14332411D01*
X772555Y14325523D01*
X755872Y14305177D01*
X629760Y14151373D01*
X629756Y14151367D01*
X626376Y14147245D01*
X608448Y14115750D01*
X557368Y14066445D01*
X487738Y14052583D01*
X421667Y14078566D01*
X394427Y14107716D01*
X315539Y14224892D01*
X312559Y14229319D01*
X153424Y14396135D01*
X-31542Y14533754D01*
X-36293Y14536170D01*
X-36297Y14536172D01*
X-158269Y14598185D01*
X-237051Y14638240D01*
X-242145Y14639822D01*
X-242148Y14639823D01*
X-452129Y14705024D01*
X-457227Y14706607D01*
X-532055Y14716524D01*
X-596956Y14745303D01*
X-635997Y14804602D01*
X-641500Y14841432D01*
X-641500Y23661502D01*
X-621498Y23729623D01*
X-606518Y23748633D01*
X-480264Y23880520D01*
X-476119Y23884850D01*
X-361380Y24062548D01*
X-320241Y24164627D01*
X-284558Y24253168D01*
X-284557Y24253171D01*
X-282314Y24258737D01*
X-241772Y24466337D01*
X-241500Y24471899D01*
X-241500Y25177846D01*
X-256548Y25335566D01*
X-316092Y25538534D01*
X-321123Y25548303D01*
X-410196Y25721249D01*
X-410198Y25721252D01*
X-412942Y25726580D01*
X-543604Y25892920D01*
X-548135Y25896852D01*
X-548138Y25896855D01*
X-698833Y26027621D01*
X-703363Y26031552D01*
X-708549Y26034552D01*
X-708553Y26034555D01*
X-879004Y26133163D01*
X-886454Y26137473D01*
X-1086271Y26206861D01*
X-1092206Y26207722D01*
X-1092208Y26207722D01*
X-1289664Y26236352D01*
X-1289667Y26236352D01*
X-1295604Y26237213D01*
X-1506899Y26227433D01*
X-1638077Y26195819D01*
X-1706701Y26179281D01*
X-1706703Y26179280D01*
X-1712534Y26177875D01*
X-1717992Y26175393D01*
X-1717996Y26175392D01*
X-1815801Y26130922D01*
X-1905087Y26090326D01*
X-1987943Y26031552D01*
X-2068646Y25974305D01*
X-2077611Y25967946D01*
X-2081753Y25963619D01*
X-2081759Y25963614D01*
X-2168806Y25872683D01*
X-2230361Y25837306D01*
X-2301270Y25840825D01*
X-2359021Y25882121D01*
X-2366968Y25893509D01*
X-2401522Y25949348D01*
X-2421342Y25969134D01*
X-2483869Y26031552D01*
X-2526697Y26074305D01*
X-2533102Y26078253D01*
X-2671032Y26163275D01*
X-2671034Y26163276D01*
X-2677262Y26167115D01*
X-2837746Y26220345D01*
X-2838611Y26220632D01*
X-2838613Y26220632D01*
X-2845139Y26222797D01*
X-2851975Y26223497D01*
X-2851978Y26223498D01*
X-2895031Y26227909D01*
X-2949600Y26233500D01*
X-3750400Y26233500D01*
X-3753646Y26233163D01*
X-3753650Y26233163D01*
X-3849308Y26223238D01*
X-3849312Y26223237D01*
X-3856166Y26222526D01*
X-3862702Y26220345D01*
X-3862704Y26220345D01*
X-3985787Y26179281D01*
X-4023946Y26166550D01*
X-4174348Y26073478D01*
X-4299305Y25948303D01*
X-4303145Y25942073D01*
X-4303146Y25942072D01*
X-4376835Y25822526D01*
X-4392115Y25797738D01*
X-4447797Y25629861D01*
X-4448497Y25623025D01*
X-4448498Y25623022D01*
X-4452909Y25579969D01*
X-4458500Y25525400D01*
X-4458500Y24174600D01*
X-4458163Y24171354D01*
X-4458163Y24171350D01*
X-4448463Y24077866D01*
X-4447526Y24068834D01*
X-4445345Y24062298D01*
X-4445345Y24062296D01*
X-4424758Y24000591D01*
X-4391550Y23901054D01*
X-4298478Y23750652D01*
X-4173303Y23625695D01*
X-4167075Y23621856D01*
X-4167070Y23621852D01*
X-4118383Y23591841D01*
X-4070890Y23539069D01*
X-4058500Y23484582D01*
X-4058500Y14529613D01*
X-4078502Y14461492D01*
X-4101920Y14434447D01*
X-4219507Y14332411D01*
X-4227445Y14325523D01*
X-4244128Y14305177D01*
X-4370240Y14151373D01*
X-4370244Y14151367D01*
X-4373624Y14147245D01*
X-4376262Y14142610D01*
X-4376265Y14142606D01*
X-4435767Y14038075D01*
X-4487675Y13946886D01*
X-4566337Y13730175D01*
X-4567286Y13724926D01*
X-4567287Y13724923D01*
X-4606623Y13507392D01*
X-4606624Y13507385D01*
X-4607361Y13503308D01*
X-4608500Y13479156D01*
X-4608500Y13438924D01*
X-4628502Y13370803D01*
X-4682158Y13324310D01*
X-4752432Y13314206D01*
X-4817012Y13343700D01*
X-4823595Y13349829D01*
X-7604595Y16130829D01*
X-7638621Y16193141D01*
X-7641500Y16219924D01*
X-7641500Y20215500D01*
X-7621498Y20283621D01*
X-7567842Y20330114D01*
X-7515500Y20341500D01*
X-7401866Y20341500D01*
X-7339684Y20348255D01*
X-7203295Y20399385D01*
X-7086739Y20486739D01*
X-6999385Y20603295D01*
X-6948255Y20739684D01*
X-6941500Y20801866D01*
X-6941500Y23298134D01*
X-6948255Y23360316D01*
X-6999385Y23496705D01*
X-7086739Y23613261D01*
X-7203295Y23700615D01*
X-7339684Y23751745D01*
X-7395560Y23757815D01*
X-7398469Y23758131D01*
X-7401866Y23758500D01*
X-9898134Y23758500D01*
X-9901531Y23758131D01*
X-9904440Y23757815D01*
X-9960316Y23751745D01*
X-10096705Y23700615D01*
X-10213261Y23613261D01*
X-10300615Y23496705D01*
X-10351745Y23360316D01*
X-10358500Y23298134D01*
X-10358500Y22828948D01*
X-10378502Y22760827D01*
X-10432158Y22714334D01*
X-10502432Y22704230D01*
X-10567012Y22733724D01*
X-10599171Y22779361D01*
X-10599901Y22779013D01*
X-10601916Y22783238D01*
X-10603609Y22787591D01*
X-10605927Y22791647D01*
X-10727298Y23004003D01*
X-10727300Y23004005D01*
X-10729617Y23008060D01*
X-10886829Y23207483D01*
X-10986805Y23301531D01*
X-11068390Y23378278D01*
X-11068392Y23378280D01*
X-11071791Y23381477D01*
X-11120939Y23415572D01*
X-11276607Y23523563D01*
X-11276610Y23523565D01*
X-11280439Y23526221D01*
X-11284616Y23528281D01*
X-11284623Y23528285D01*
X-11504004Y23636472D01*
X-11504008Y23636473D01*
X-11508190Y23638536D01*
X-11750040Y23715953D01*
X-11765667Y23718498D01*
X-11996065Y23756020D01*
X-11996066Y23756020D01*
X-12000677Y23756771D01*
X-12127636Y23758433D01*
X-12249917Y23760034D01*
X-12249920Y23760034D01*
X-12254594Y23760095D01*
X-12506213Y23725851D01*
X-12510699Y23724543D01*
X-12510701Y23724543D01*
X-12570614Y23707080D01*
X-12750007Y23654792D01*
X-12754260Y23652832D01*
X-12754261Y23652831D01*
X-12774625Y23643443D01*
X-12980620Y23548478D01*
X-13007483Y23530866D01*
X-13189072Y23411811D01*
X-13189077Y23411807D01*
X-13192985Y23409245D01*
X-13240523Y23366816D01*
X-13356219Y23263553D01*
X-13382438Y23240152D01*
X-13544817Y23044913D01*
X-13676553Y22827818D01*
X-13678362Y22823504D01*
X-13678363Y22823502D01*
X-13713168Y22740500D01*
X-13774754Y22593635D01*
X-13837262Y22347510D01*
X-13862704Y22094849D01*
X-13850520Y21841202D01*
X-13800979Y21592143D01*
X-13799400Y21587745D01*
X-13799398Y21587738D01*
X-13716752Y21357551D01*
X-13715169Y21353142D01*
X-13594975Y21129449D01*
X-13592180Y21125706D01*
X-13592178Y21125703D01*
X-13445829Y20929718D01*
X-13445824Y20929712D01*
X-13443037Y20925980D01*
X-13439728Y20922700D01*
X-13439723Y20922694D01*
X-13285040Y20769356D01*
X-13262693Y20747203D01*
X-13258931Y20744445D01*
X-13258928Y20744442D01*
X-13209995Y20708563D01*
X-13166887Y20652152D01*
X-13158500Y20606951D01*
X-13158500Y17435371D01*
X-13178502Y17367250D01*
X-13232158Y17320757D01*
X-13302432Y17310653D01*
X-13367012Y17340147D01*
X-13373595Y17346276D01*
X-16554595Y20527276D01*
X-16588621Y20589588D01*
X-16591500Y20616371D01*
X-16591500Y23613734D01*
X-16571498Y23681855D01*
X-16556523Y23700858D01*
X-16476119Y23784850D01*
X-16467107Y23798806D01*
X-16414345Y23880520D01*
X-16361380Y23962548D01*
X-16282314Y24158737D01*
X-16241772Y24366337D01*
X-16241500Y24371899D01*
X-16241500Y25077846D01*
X-16256548Y25235566D01*
X-16316092Y25438534D01*
X-16364635Y25532786D01*
X-16410196Y25621249D01*
X-16410198Y25621252D01*
X-16412942Y25626580D01*
X-16543604Y25792920D01*
X-16548135Y25796852D01*
X-16548138Y25796855D01*
X-16698833Y25927621D01*
X-16703363Y25931552D01*
X-16708549Y25934552D01*
X-16708553Y25934555D01*
X-16881258Y26034467D01*
X-16886454Y26037473D01*
X-17086271Y26106861D01*
X-17092206Y26107722D01*
X-17092208Y26107722D01*
X-17289664Y26136352D01*
X-17289667Y26136352D01*
X-17295604Y26137213D01*
X-17506899Y26127433D01*
X-17624123Y26099182D01*
X-17706701Y26079281D01*
X-17706703Y26079280D01*
X-17712534Y26077875D01*
X-17717992Y26075393D01*
X-17717996Y26075392D01*
X-17814416Y26031552D01*
X-17905087Y25990326D01*
X-18077611Y25867946D01*
X-18081753Y25863619D01*
X-18081759Y25863614D01*
X-18168806Y25772683D01*
X-18230361Y25737306D01*
X-18301270Y25740825D01*
X-18359021Y25782121D01*
X-18366968Y25793509D01*
X-18401522Y25849348D01*
X-18526697Y25974305D01*
X-18629174Y26037473D01*
X-18671032Y26063275D01*
X-18671034Y26063276D01*
X-18677262Y26067115D01*
X-18757005Y26093564D01*
X-18838611Y26120632D01*
X-18838613Y26120632D01*
X-18845139Y26122797D01*
X-18851975Y26123497D01*
X-18851978Y26123498D01*
X-18895031Y26127909D01*
X-18949600Y26133500D01*
X-19750400Y26133500D01*
X-19753646Y26133163D01*
X-19753650Y26133163D01*
X-19849308Y26123238D01*
X-19849312Y26123237D01*
X-19856166Y26122526D01*
X-19862702Y26120345D01*
X-19862704Y26120345D01*
X-19952681Y26090326D01*
X-20023946Y26066550D01*
X-20174348Y25973478D01*
X-20299305Y25848303D01*
X-20303145Y25842073D01*
X-20303146Y25842072D01*
X-20374336Y25726580D01*
X-20392115Y25697738D01*
X-20401602Y25669134D01*
X-20444920Y25538534D01*
X-20447797Y25529861D01*
X-20448497Y25523025D01*
X-20448498Y25523022D01*
X-20451253Y25496135D01*
X-20458500Y25425400D01*
X-20458500Y24074600D01*
X-20458163Y24071354D01*
X-20458163Y24071350D01*
X-20449734Y23990119D01*
X-20447526Y23968834D01*
X-20445345Y23962298D01*
X-20445345Y23962296D01*
X-20419507Y23884850D01*
X-20391550Y23801054D01*
X-20298478Y23650652D01*
X-20293296Y23645479D01*
X-20274425Y23626641D01*
X-20173303Y23525695D01*
X-20167072Y23521854D01*
X-20161327Y23517317D01*
X-20162377Y23515987D01*
X-20120892Y23469893D01*
X-20108500Y23415403D01*
X-20108500Y20817070D01*
X-20109933Y20798120D01*
X-20113199Y20776651D01*
X-20112606Y20769359D01*
X-20112606Y20769356D01*
X-20108915Y20723982D01*
X-20108500Y20713767D01*
X-20108500Y20705707D01*
X-20108075Y20702063D01*
X-20105211Y20677493D01*
X-20104778Y20673118D01*
X-20099782Y20611703D01*
X-20098860Y20600363D01*
X-20096604Y20593399D01*
X-20095413Y20587440D01*
X-20094029Y20581585D01*
X-20093182Y20574319D01*
X-20068265Y20505673D01*
X-20066848Y20501545D01*
X-20062051Y20486739D01*
X-20044351Y20432101D01*
X-20040555Y20425846D01*
X-20038049Y20420372D01*
X-20035330Y20414942D01*
X-20032833Y20408063D01*
X-20028820Y20401943D01*
X-20028820Y20401942D01*
X-19992814Y20347024D01*
X-19990477Y20343320D01*
X-19952595Y20280893D01*
X-19948879Y20276685D01*
X-19948878Y20276684D01*
X-19945197Y20272516D01*
X-19945224Y20272492D01*
X-19942571Y20269500D01*
X-19939868Y20266267D01*
X-19935856Y20260148D01*
X-19930544Y20255116D01*
X-19879617Y20206872D01*
X-19877175Y20204494D01*
X-11445405Y11772724D01*
X-11411379Y11710412D01*
X-11408500Y11683629D01*
X-11408500Y9622808D01*
X-11428502Y9554687D01*
X-11454103Y9527529D01*
X-11453317Y9526623D01*
X-11596134Y9402693D01*
X-11627445Y9375523D01*
X-11647248Y9351372D01*
X-11770240Y9201373D01*
X-11770244Y9201367D01*
X-11773624Y9197245D01*
X-11776262Y9192610D01*
X-11776265Y9192606D01*
X-11813037Y9128006D01*
X-11887675Y8996886D01*
X-11966337Y8780175D01*
X-11967286Y8774926D01*
X-11967287Y8774923D01*
X-12006623Y8557392D01*
X-12006624Y8557385D01*
X-12007361Y8553308D01*
X-12008500Y8529156D01*
X-12008500Y8117110D01*
X-11993920Y7945280D01*
X-11992582Y7940125D01*
X-11992581Y7940119D01*
X-11937343Y7727297D01*
X-11936001Y7722128D01*
X-11841312Y7511925D01*
X-11712559Y7320681D01*
X-11708880Y7316824D01*
X-11708878Y7316822D01*
X-11649652Y7254738D01*
X-11553424Y7153865D01*
X-11368458Y7016246D01*
X-11363707Y7013830D01*
X-11363703Y7013828D01*
X-11290327Y6976522D01*
X-11162949Y6911760D01*
X-11140636Y6904831D01*
X-11081513Y6865530D01*
X-11053022Y6800501D01*
X-11064212Y6730391D01*
X-11111529Y6677461D01*
X-11178002Y6658500D01*
X-13904809Y6658500D01*
X-13922554Y6659756D01*
X-13941595Y6662465D01*
X-13941598Y6662465D01*
X-13950483Y6663729D01*
X-13959369Y6662448D01*
X-13959370Y6662448D01*
X-13964784Y6661668D01*
X-13990788Y6660635D01*
X-14085510Y6666683D01*
X-14104508Y6667896D01*
X-14123683Y6670612D01*
X-14125053Y6670915D01*
X-14258831Y6700498D01*
X-14277350Y6706116D01*
X-14406321Y6756360D01*
X-14423771Y6764755D01*
X-14516306Y6818396D01*
X-14529876Y6828521D01*
X-14529952Y6828413D01*
X-14537288Y6833590D01*
X-14543813Y6839751D01*
X-14551803Y6843832D01*
X-14551807Y6843835D01*
X-14563682Y6849900D01*
X-14580797Y6860442D01*
X-14611196Y6882697D01*
X-17978371Y9347738D01*
X-23041089Y13054052D01*
X-23043994Y13056244D01*
X-23088286Y13090677D01*
X-23095376Y13096189D01*
X-23113342Y13103289D01*
X-23133575Y13113475D01*
X-23407247Y13283701D01*
X-23417611Y13290891D01*
X-23696060Y13505497D01*
X-23705656Y13513691D01*
X-23961233Y13755061D01*
X-23969961Y13764173D01*
X-24132239Y13951529D01*
X-24200118Y14029898D01*
X-24207888Y14039833D01*
X-24216867Y14052583D01*
X-24410314Y14327247D01*
X-24417054Y14337914D01*
X-24447708Y14392278D01*
X-24589720Y14644135D01*
X-24595356Y14655416D01*
X-24617802Y14706607D01*
X-24736528Y14977371D01*
X-24741009Y14989162D01*
X-24745612Y15003384D01*
X-24849271Y15323619D01*
X-24852551Y15335802D01*
X-24926817Y15679405D01*
X-24928862Y15691856D01*
X-24968391Y16041170D01*
X-24969180Y16053764D01*
X-24973572Y16405272D01*
X-24973098Y16417881D01*
X-24942311Y16768074D01*
X-24940578Y16780572D01*
X-24874919Y17125930D01*
X-24871944Y17138193D01*
X-24782454Y17440215D01*
X-24772664Y17464009D01*
X-24771728Y17465752D01*
X-24771726Y17465757D01*
X-24767482Y17473664D01*
X-24758473Y17516325D01*
X-24755506Y17527714D01*
X-22101060Y26061632D01*
X-22095611Y26075998D01*
X-22085158Y26099182D01*
X-22081468Y26107366D01*
X-22080222Y26116262D01*
X-22079830Y26119058D01*
X-22072850Y26146290D01*
X-22032378Y26252934D01*
X-22022000Y26274075D01*
X-21950966Y26389959D01*
X-21936835Y26408801D01*
X-21849668Y26504823D01*
X-21845473Y26509444D01*
X-21828090Y26525319D01*
X-21719592Y26607204D01*
X-21699551Y26619571D01*
X-21640469Y26648793D01*
X-21577710Y26679833D01*
X-21555730Y26688250D01*
X-21424793Y26724788D01*
X-21401625Y26728968D01*
X-21294721Y26738069D01*
X-21278570Y26737439D01*
X-21278558Y26738028D01*
X-21269583Y26737841D01*
X-21260725Y26736383D01*
X-21251812Y26737470D01*
X-21226370Y26740573D01*
X-21211116Y26741500D01*
X21299488Y26741500D01*
X21319323Y26739929D01*
G37*
G04 #@! TD.AperFunction*
G04 #@! TD*
M02*
