G04 #@! TF.GenerationSoftware,KiCad,Pcbnew,(6.0.1-0)*
G04 #@! TF.CreationDate,2023-05-18T22:16:49+12:00*
G04 #@! TF.ProjectId,head-interface,68656164-2d69-46e7-9465-72666163652e,rev?*
G04 #@! TF.SameCoordinates,PX3135a80PY23aadc0*
G04 #@! TF.FileFunction,Legend,Top*
G04 #@! TF.FilePolarity,Positive*
%FSLAX46Y46*%
G04 Gerber Fmt 4.6, Leading zero omitted, Abs format (unit mm)*
G04 Created by KiCad (PCBNEW (6.0.1-0)) date 2023-05-18 22:16:49*
%MOMM*%
%LPD*%
G01*
G04 APERTURE LIST*
%ADD10C,0.150000*%
%ADD11C,0.120000*%
G04 APERTURE END LIST*
D10*
G04 #@! TO.C,J3*
X42916666Y-17477380D02*
X42916666Y-18191666D01*
X42869047Y-18334523D01*
X42773809Y-18429761D01*
X42630952Y-18477380D01*
X42535714Y-18477380D01*
X43297619Y-17477380D02*
X43916666Y-17477380D01*
X43583333Y-17858333D01*
X43726190Y-17858333D01*
X43821428Y-17905952D01*
X43869047Y-17953571D01*
X43916666Y-18048809D01*
X43916666Y-18286904D01*
X43869047Y-18382142D01*
X43821428Y-18429761D01*
X43726190Y-18477380D01*
X43440476Y-18477380D01*
X43345238Y-18429761D01*
X43297619Y-18382142D01*
G04 #@! TO.C,J1*
X13366666Y-17477380D02*
X13366666Y-18191666D01*
X13319047Y-18334523D01*
X13223809Y-18429761D01*
X13080952Y-18477380D01*
X12985714Y-18477380D01*
X14366666Y-18477380D02*
X13795238Y-18477380D01*
X14080952Y-18477380D02*
X14080952Y-17477380D01*
X13985714Y-17620238D01*
X13890476Y-17715476D01*
X13795238Y-17763095D01*
G04 #@! TO.C,J8*
X43416666Y-9527380D02*
X43416666Y-10241666D01*
X43369047Y-10384523D01*
X43273809Y-10479761D01*
X43130952Y-10527380D01*
X43035714Y-10527380D01*
X44035714Y-9955952D02*
X43940476Y-9908333D01*
X43892857Y-9860714D01*
X43845238Y-9765476D01*
X43845238Y-9717857D01*
X43892857Y-9622619D01*
X43940476Y-9575000D01*
X44035714Y-9527380D01*
X44226190Y-9527380D01*
X44321428Y-9575000D01*
X44369047Y-9622619D01*
X44416666Y-9717857D01*
X44416666Y-9765476D01*
X44369047Y-9860714D01*
X44321428Y-9908333D01*
X44226190Y-9955952D01*
X44035714Y-9955952D01*
X43940476Y-10003571D01*
X43892857Y-10051190D01*
X43845238Y-10146428D01*
X43845238Y-10336904D01*
X43892857Y-10432142D01*
X43940476Y-10479761D01*
X44035714Y-10527380D01*
X44226190Y-10527380D01*
X44321428Y-10479761D01*
X44369047Y-10432142D01*
X44416666Y-10336904D01*
X44416666Y-10146428D01*
X44369047Y-10051190D01*
X44321428Y-10003571D01*
X44226190Y-9955952D01*
X41488095Y-8902380D02*
X41488095Y-7902380D01*
X41821428Y-8616666D01*
X42154761Y-7902380D01*
X42154761Y-8902380D01*
X42821428Y-7902380D02*
X43011904Y-7902380D01*
X43107142Y-7950000D01*
X43202380Y-8045238D01*
X43250000Y-8235714D01*
X43250000Y-8569047D01*
X43202380Y-8759523D01*
X43107142Y-8854761D01*
X43011904Y-8902380D01*
X42821428Y-8902380D01*
X42726190Y-8854761D01*
X42630952Y-8759523D01*
X42583333Y-8569047D01*
X42583333Y-8235714D01*
X42630952Y-8045238D01*
X42726190Y-7950000D01*
X42821428Y-7902380D01*
X43535714Y-7902380D02*
X44107142Y-7902380D01*
X43821428Y-8902380D02*
X43821428Y-7902380D01*
X44630952Y-7902380D02*
X44821428Y-7902380D01*
X44916666Y-7950000D01*
X45011904Y-8045238D01*
X45059523Y-8235714D01*
X45059523Y-8569047D01*
X45011904Y-8759523D01*
X44916666Y-8854761D01*
X44821428Y-8902380D01*
X44630952Y-8902380D01*
X44535714Y-8854761D01*
X44440476Y-8759523D01*
X44392857Y-8569047D01*
X44392857Y-8235714D01*
X44440476Y-8045238D01*
X44535714Y-7950000D01*
X44630952Y-7902380D01*
X46059523Y-8902380D02*
X45726190Y-8426190D01*
X45488095Y-8902380D02*
X45488095Y-7902380D01*
X45869047Y-7902380D01*
X45964285Y-7950000D01*
X46011904Y-7997619D01*
X46059523Y-8092857D01*
X46059523Y-8235714D01*
X46011904Y-8330952D01*
X45964285Y-8378571D01*
X45869047Y-8426190D01*
X45488095Y-8426190D01*
G04 #@! TO.C,J6*
X33066666Y-10252380D02*
X33066666Y-10966666D01*
X33019047Y-11109523D01*
X32923809Y-11204761D01*
X32780952Y-11252380D01*
X32685714Y-11252380D01*
X33971428Y-10252380D02*
X33780952Y-10252380D01*
X33685714Y-10300000D01*
X33638095Y-10347619D01*
X33542857Y-10490476D01*
X33495238Y-10680952D01*
X33495238Y-11061904D01*
X33542857Y-11157142D01*
X33590476Y-11204761D01*
X33685714Y-11252380D01*
X33876190Y-11252380D01*
X33971428Y-11204761D01*
X34019047Y-11157142D01*
X34066666Y-11061904D01*
X34066666Y-10823809D01*
X34019047Y-10728571D01*
X33971428Y-10680952D01*
X33876190Y-10633333D01*
X33685714Y-10633333D01*
X33590476Y-10680952D01*
X33542857Y-10728571D01*
X33495238Y-10823809D01*
X29766666Y-9652380D02*
X29766666Y-8652380D01*
X30147619Y-8652380D01*
X30242857Y-8700000D01*
X30290476Y-8747619D01*
X30338095Y-8842857D01*
X30338095Y-8985714D01*
X30290476Y-9080952D01*
X30242857Y-9128571D01*
X30147619Y-9176190D01*
X29766666Y-9176190D01*
X30719047Y-9366666D02*
X31195238Y-9366666D01*
X30623809Y-9652380D02*
X30957142Y-8652380D01*
X31290476Y-9652380D01*
X32195238Y-9652380D02*
X31861904Y-9176190D01*
X31623809Y-9652380D02*
X31623809Y-8652380D01*
X32004761Y-8652380D01*
X32100000Y-8700000D01*
X32147619Y-8747619D01*
X32195238Y-8842857D01*
X32195238Y-8985714D01*
X32147619Y-9080952D01*
X32100000Y-9128571D01*
X32004761Y-9176190D01*
X31623809Y-9176190D01*
X32480952Y-8652380D02*
X33052380Y-8652380D01*
X32766666Y-9652380D02*
X32766666Y-8652380D01*
X33147619Y-9747619D02*
X33909523Y-9747619D01*
X34480952Y-9128571D02*
X34147619Y-9128571D01*
X34147619Y-9652380D02*
X34147619Y-8652380D01*
X34623809Y-8652380D01*
X34957142Y-9366666D02*
X35433333Y-9366666D01*
X34861904Y-9652380D02*
X35195238Y-8652380D01*
X35528571Y-9652380D01*
X35861904Y-9652380D02*
X35861904Y-8652380D01*
X36433333Y-9652380D01*
X36433333Y-8652380D01*
G04 #@! TO.C,J7*
X25466666Y-10202380D02*
X25466666Y-10916666D01*
X25419047Y-11059523D01*
X25323809Y-11154761D01*
X25180952Y-11202380D01*
X25085714Y-11202380D01*
X25847619Y-10202380D02*
X26514285Y-10202380D01*
X26085714Y-11202380D01*
X25202475Y-9140571D02*
X24869141Y-9140571D01*
X24869141Y-9664380D02*
X24869141Y-8664380D01*
X25345332Y-8664380D01*
X25678665Y-9378666D02*
X26154856Y-9378666D01*
X25583427Y-9664380D02*
X25916760Y-8664380D01*
X26250094Y-9664380D01*
X26583427Y-9664380D02*
X26583427Y-8664380D01*
X27154856Y-9664380D01*
X27154856Y-8664380D01*
G04 #@! TO.C,J5*
X17616666Y-13252380D02*
X17616666Y-13966666D01*
X17569047Y-14109523D01*
X17473809Y-14204761D01*
X17330952Y-14252380D01*
X17235714Y-14252380D01*
X18569047Y-13252380D02*
X18092857Y-13252380D01*
X18045238Y-13728571D01*
X18092857Y-13680952D01*
X18188095Y-13633333D01*
X18426190Y-13633333D01*
X18521428Y-13680952D01*
X18569047Y-13728571D01*
X18616666Y-13823809D01*
X18616666Y-14061904D01*
X18569047Y-14157142D01*
X18521428Y-14204761D01*
X18426190Y-14252380D01*
X18188095Y-14252380D01*
X18092857Y-14204761D01*
X18045238Y-14157142D01*
X15450000Y-12852380D02*
X15450000Y-11852380D01*
X15450000Y-12328571D02*
X16021428Y-12328571D01*
X16021428Y-12852380D02*
X16021428Y-11852380D01*
X16497619Y-12328571D02*
X16830952Y-12328571D01*
X16973809Y-12852380D02*
X16497619Y-12852380D01*
X16497619Y-11852380D01*
X16973809Y-11852380D01*
X17354761Y-12566666D02*
X17830952Y-12566666D01*
X17259523Y-12852380D02*
X17592857Y-11852380D01*
X17926190Y-12852380D01*
X18116666Y-11852380D02*
X18688095Y-11852380D01*
X18402380Y-12852380D02*
X18402380Y-11852380D01*
X19021428Y-12328571D02*
X19354761Y-12328571D01*
X19497619Y-12852380D02*
X19021428Y-12852380D01*
X19021428Y-11852380D01*
X19497619Y-11852380D01*
X20497619Y-12852380D02*
X20164285Y-12376190D01*
X19926190Y-12852380D02*
X19926190Y-11852380D01*
X20307142Y-11852380D01*
X20402380Y-11900000D01*
X20450000Y-11947619D01*
X20497619Y-12042857D01*
X20497619Y-12185714D01*
X20450000Y-12280952D01*
X20402380Y-12328571D01*
X20307142Y-12376190D01*
X19926190Y-12376190D01*
G04 #@! TO.C,J4*
X11066666Y-9802380D02*
X11066666Y-10516666D01*
X11019047Y-10659523D01*
X10923809Y-10754761D01*
X10780952Y-10802380D01*
X10685714Y-10802380D01*
X11971428Y-10135714D02*
X11971428Y-10802380D01*
X11733333Y-9754761D02*
X11495238Y-10469047D01*
X12114285Y-10469047D01*
X7666666Y-8452380D02*
X8238095Y-8452380D01*
X7952380Y-9452380D02*
X7952380Y-8452380D01*
X8571428Y-9452380D02*
X8571428Y-8452380D01*
X8571428Y-8928571D02*
X9142857Y-8928571D01*
X9142857Y-9452380D02*
X9142857Y-8452380D01*
X9619047Y-8928571D02*
X9952380Y-8928571D01*
X10095238Y-9452380D02*
X9619047Y-9452380D01*
X9619047Y-8452380D01*
X10095238Y-8452380D01*
X11095238Y-9452380D02*
X10761904Y-8976190D01*
X10523809Y-9452380D02*
X10523809Y-8452380D01*
X10904761Y-8452380D01*
X11000000Y-8500000D01*
X11047619Y-8547619D01*
X11095238Y-8642857D01*
X11095238Y-8785714D01*
X11047619Y-8880952D01*
X11000000Y-8928571D01*
X10904761Y-8976190D01*
X10523809Y-8976190D01*
X11523809Y-9452380D02*
X11523809Y-8452380D01*
X11857142Y-9166666D01*
X12190476Y-8452380D01*
X12190476Y-9452380D01*
G04 #@! TO.C,J2*
X36391666Y-12527380D02*
X36391666Y-13241666D01*
X36344047Y-13384523D01*
X36248809Y-13479761D01*
X36105952Y-13527380D01*
X36010714Y-13527380D01*
X36820238Y-12622619D02*
X36867857Y-12575000D01*
X36963095Y-12527380D01*
X37201190Y-12527380D01*
X37296428Y-12575000D01*
X37344047Y-12622619D01*
X37391666Y-12717857D01*
X37391666Y-12813095D01*
X37344047Y-12955952D01*
X36772619Y-13527380D01*
X37391666Y-13527380D01*
D11*
G04 #@! TO.C,J3*
X29615000Y-20960000D02*
X29615000Y-19750000D01*
X29115000Y-21460000D02*
X41835000Y-21460000D01*
X42135000Y-17140000D02*
X39635000Y-17140000D01*
X29615000Y-19750000D02*
X29115000Y-19750000D01*
X29115000Y-18940000D02*
X30115000Y-18940000D01*
X40835000Y-18940000D02*
X40835000Y-17440000D01*
X41335000Y-20960000D02*
X29615000Y-20960000D01*
X41835000Y-18940000D02*
X40835000Y-18940000D01*
X41835000Y-17440000D02*
X29115000Y-17440000D01*
X29115000Y-17440000D02*
X29115000Y-21460000D01*
X42135000Y-19640000D02*
X42135000Y-17140000D01*
X41835000Y-21460000D02*
X41835000Y-17440000D01*
X41335000Y-19750000D02*
X41335000Y-20960000D01*
X41835000Y-19750000D02*
X41335000Y-19750000D01*
X30115000Y-18940000D02*
X30115000Y-17440000D01*
G04 #@! TO.C,J1*
X27310000Y-19750000D02*
X27310000Y-20960000D01*
X27810000Y-19750000D02*
X27310000Y-19750000D01*
X16090000Y-18940000D02*
X16090000Y-17440000D01*
X27810000Y-17440000D02*
X15090000Y-17440000D01*
X15090000Y-21460000D02*
X27810000Y-21460000D01*
X27810000Y-18940000D02*
X26810000Y-18940000D01*
X27810000Y-21460000D02*
X27810000Y-17440000D01*
X15090000Y-17440000D02*
X15090000Y-21460000D01*
X27310000Y-20960000D02*
X15590000Y-20960000D01*
X15590000Y-19750000D02*
X15090000Y-19750000D01*
X15090000Y-18940000D02*
X16090000Y-18940000D01*
X26810000Y-18940000D02*
X26810000Y-17440000D01*
X28110000Y-17140000D02*
X25610000Y-17140000D01*
X28110000Y-19640000D02*
X28110000Y-17140000D01*
X15590000Y-20960000D02*
X15590000Y-19750000D01*
G04 #@! TO.C,J8*
X37890000Y-5500000D02*
X37390000Y-5500000D01*
X38390000Y-4690000D02*
X38390000Y-3190000D01*
X49110000Y-4690000D02*
X49110000Y-3190000D01*
X50410000Y-2890000D02*
X47910000Y-2890000D01*
X37390000Y-4690000D02*
X38390000Y-4690000D01*
X50110000Y-5500000D02*
X49610000Y-5500000D01*
X50410000Y-5390000D02*
X50410000Y-2890000D01*
X37890000Y-6710000D02*
X37890000Y-5500000D01*
X49610000Y-6710000D02*
X37890000Y-6710000D01*
X37390000Y-3190000D02*
X37390000Y-7210000D01*
X37390000Y-7210000D02*
X50110000Y-7210000D01*
X50110000Y-7210000D02*
X50110000Y-3190000D01*
X49610000Y-5500000D02*
X49610000Y-6710000D01*
X50110000Y-4690000D02*
X49110000Y-4690000D01*
X50110000Y-3190000D02*
X37390000Y-3190000D01*
G04 #@! TO.C,J6*
X33100000Y-7300000D02*
X33100000Y-6800000D01*
X30140000Y-7910000D02*
X36260000Y-7910000D01*
X35650000Y-7300000D02*
X35650000Y-3800000D01*
X31900000Y-3190000D02*
X31900000Y-2990000D01*
X31600000Y-2990000D02*
X31600000Y-3190000D01*
X36260000Y-7910000D02*
X36260000Y-3190000D01*
X30140000Y-5800000D02*
X30750000Y-5800000D01*
X33700000Y-3800000D02*
X33700000Y-3190000D01*
X32700000Y-3190000D02*
X32700000Y-3800000D01*
X35650000Y-3800000D02*
X33700000Y-3800000D01*
X33300000Y-6800000D02*
X33300000Y-7300000D01*
X30140000Y-4500000D02*
X30750000Y-4500000D01*
X33200000Y-7300000D02*
X33200000Y-6800000D01*
X30750000Y-3800000D02*
X30750000Y-7300000D01*
X30140000Y-3190000D02*
X30140000Y-7910000D01*
X31090000Y-2890000D02*
X29840000Y-2890000D01*
X30750000Y-7300000D02*
X35650000Y-7300000D01*
X36260000Y-3190000D02*
X30140000Y-3190000D01*
X31900000Y-3090000D02*
X31600000Y-3090000D01*
X36260000Y-5800000D02*
X35650000Y-5800000D01*
X36260000Y-4500000D02*
X35650000Y-4500000D01*
X31900000Y-2990000D02*
X31600000Y-2990000D01*
X29840000Y-2890000D02*
X29840000Y-4140000D01*
X32700000Y-3800000D02*
X30750000Y-3800000D01*
X33100000Y-6800000D02*
X33300000Y-6800000D01*
G04 #@! TO.C,J7*
X23890000Y-2890000D02*
X22640000Y-2890000D01*
X29060000Y-7910000D02*
X29060000Y-3190000D01*
X25900000Y-7300000D02*
X25900000Y-6800000D01*
X26000000Y-7300000D02*
X26000000Y-6800000D01*
X29060000Y-5800000D02*
X28450000Y-5800000D01*
X29060000Y-4500000D02*
X28450000Y-4500000D01*
X24400000Y-2990000D02*
X24400000Y-3190000D01*
X22940000Y-4500000D02*
X23550000Y-4500000D01*
X22640000Y-2890000D02*
X22640000Y-4140000D01*
X24700000Y-3190000D02*
X24700000Y-2990000D01*
X22940000Y-7910000D02*
X29060000Y-7910000D01*
X28450000Y-3800000D02*
X26500000Y-3800000D01*
X25500000Y-3190000D02*
X25500000Y-3800000D01*
X24700000Y-3090000D02*
X24400000Y-3090000D01*
X22940000Y-3190000D02*
X22940000Y-7910000D01*
X26500000Y-3800000D02*
X26500000Y-3190000D01*
X22940000Y-5800000D02*
X23550000Y-5800000D01*
X26100000Y-6800000D02*
X26100000Y-7300000D01*
X24700000Y-2990000D02*
X24400000Y-2990000D01*
X23550000Y-3800000D02*
X23550000Y-7300000D01*
X23550000Y-7300000D02*
X28450000Y-7300000D01*
X25900000Y-6800000D02*
X26100000Y-6800000D01*
X29060000Y-3190000D02*
X22940000Y-3190000D01*
X28450000Y-7300000D02*
X28450000Y-3800000D01*
X25500000Y-3800000D02*
X23550000Y-3800000D01*
G04 #@! TO.C,J5*
X17345000Y-6859000D02*
X17474000Y-6731000D01*
X21510000Y-3240000D02*
X14390000Y-3240000D01*
X14925000Y-8869000D02*
X15054000Y-8741000D01*
X21510000Y-10960000D02*
X14390000Y-10960000D01*
X17175000Y-6619000D02*
X17269000Y-6526000D01*
X21750000Y-3000000D02*
X21350000Y-3000000D01*
X21750000Y-3640000D02*
X21750000Y-3000000D01*
X21510000Y-10960000D02*
X21510000Y-3240000D01*
X21510000Y-4800000D02*
X14390000Y-4800000D01*
X14390000Y-10960000D02*
X14390000Y-3240000D01*
X15130000Y-9075000D02*
X15224000Y-8981000D01*
X21510000Y-3700000D02*
X14390000Y-3700000D01*
X18275000Y-6909000D02*
G75*
G03*
X18274496Y-8690193I1425003J-891000D01*
G01*
X20566000Y-6360000D02*
G75*
G03*
X19671326Y-6119901I-866003J-1440014D01*
G01*
X18834000Y-9240001D02*
G75*
G03*
X20589894Y-9225358I866000J1439999D01*
G01*
X19700000Y-6120000D02*
G75*
G03*
X18809736Y-6375279I-3J-1679990D01*
G01*
X21140001Y-8666000D02*
G75*
G03*
X21125358Y-6910106I-1439999J866000D01*
G01*
X17880000Y-7800000D02*
G75*
G03*
X17880000Y-7800000I-1680000J0D01*
G01*
G04 #@! TO.C,J4*
X10000000Y-7300000D02*
X10000000Y-6800000D01*
X13060000Y-7910000D02*
X13060000Y-3190000D01*
X7890000Y-2890000D02*
X6640000Y-2890000D01*
X13060000Y-4500000D02*
X12450000Y-4500000D01*
X12450000Y-7300000D02*
X12450000Y-3800000D01*
X10500000Y-3800000D02*
X10500000Y-3190000D01*
X8700000Y-3190000D02*
X8700000Y-2990000D01*
X7550000Y-7300000D02*
X12450000Y-7300000D01*
X6940000Y-3190000D02*
X6940000Y-7910000D01*
X8700000Y-3090000D02*
X8400000Y-3090000D01*
X9900000Y-6800000D02*
X10100000Y-6800000D01*
X6940000Y-5800000D02*
X7550000Y-5800000D01*
X8400000Y-2990000D02*
X8400000Y-3190000D01*
X7550000Y-3800000D02*
X7550000Y-7300000D01*
X12450000Y-3800000D02*
X10500000Y-3800000D01*
X13060000Y-5800000D02*
X12450000Y-5800000D01*
X6940000Y-7910000D02*
X13060000Y-7910000D01*
X9500000Y-3800000D02*
X7550000Y-3800000D01*
X10100000Y-6800000D02*
X10100000Y-7300000D01*
X9900000Y-7300000D02*
X9900000Y-6800000D01*
X13060000Y-3190000D02*
X6940000Y-3190000D01*
X6640000Y-2890000D02*
X6640000Y-4140000D01*
X8700000Y-2990000D02*
X8400000Y-2990000D01*
X9500000Y-3190000D02*
X9500000Y-3800000D01*
X6940000Y-4500000D02*
X7550000Y-4500000D01*
G04 #@! TO.C,J2*
X34710000Y-16010000D02*
X22990000Y-16010000D01*
X22990000Y-14800000D02*
X22490000Y-14800000D01*
X35510000Y-14690000D02*
X35510000Y-12190000D01*
X35510000Y-12190000D02*
X33010000Y-12190000D01*
X22990000Y-16010000D02*
X22990000Y-14800000D01*
X35210000Y-12490000D02*
X22490000Y-12490000D01*
X35210000Y-13990000D02*
X34210000Y-13990000D01*
X22490000Y-12490000D02*
X22490000Y-16510000D01*
X34710000Y-14800000D02*
X34710000Y-16010000D01*
X22490000Y-16510000D02*
X35210000Y-16510000D01*
X34210000Y-13990000D02*
X34210000Y-12490000D01*
X23490000Y-13990000D02*
X23490000Y-12490000D01*
X22490000Y-13990000D02*
X23490000Y-13990000D01*
X35210000Y-14800000D02*
X34710000Y-14800000D01*
X35210000Y-16510000D02*
X35210000Y-12490000D01*
G04 #@! TD*
M02*
