M48
; DRILL file {KiCad (6.0.11-0)} date Monday, 22 May 2023 at 04:43:57 pm
; FORMAT={-:-/ absolute / metric / decimal}
; #@! TF.CreationDate,2023-05-22T16:43:57+12:00
; #@! TF.GenerationSoftware,Kicad,Pcbnew,(6.0.11-0)
; #@! TF.FileFunction,MixedPlating,1,2
FMAT,2
METRIC
; #@! TA.AperFunction,Plated,PTH,ViaDrill
T1C0.400
; #@! TA.AperFunction,Plated,PTH,ComponentDrill
T2C0.750
; #@! TA.AperFunction,Plated,PTH,ComponentDrill
T3C0.950
; #@! TA.AperFunction,Plated,PTH,ComponentDrill
T4C1.200
; #@! TA.AperFunction,Plated,PTH,ComponentDrill
T5C3.200
%
G90
G05
T1
X-20.95Y24.775
X-16.5Y14.7
X-15.3Y18.8
X-14.55Y24.775
X-14.3Y6.15
X-13.65Y17.05
X-12.7Y10.9
X-7.1Y15.4
X-6.2Y24.775
X-5.4Y13.6
X-2.4Y10.05
X-0.2Y19.9
X0.1Y6.15
X0.45Y13.7
X2.45Y15.95
X3.4Y9.95
X6.25Y13.5
X8.425Y24.775
X9.5Y16.5
X12.85Y8.7
X14.3Y6.15
X21.25Y24.775
T2
X-19.4Y23.6
X-17.4Y23.6
X-3.4Y23.7
X-1.4Y23.7
X3.8Y23.7
X3.8Y18.14
X5.8Y23.7
X5.8Y18.14
T3
X-10.7Y7.15
X-8.2Y7.15
X-3.3Y12.1
X-0.8Y12.1
X1.7Y12.1
X3.325Y7.15
X4.2Y12.1
X5.825Y7.15
X8.325Y7.15
X10.825Y7.15
X11.6Y23.2
X14.1Y23.2
X16.6Y23.2
X19.1Y23.2
T4
X-12.2Y20.9
X-8.7Y20.9
X-5.7Y7.15
X-3.2Y7.15
T5
X-22.0Y15.1
X22.0Y15.1
T0
M30
