M48
; DRILL file {KiCad (6.0.11-0)} date Monday, 22 May 2023 at 03:58:56 pm
; FORMAT={-:-/ absolute / metric / decimal}
; #@! TF.CreationDate,2023-05-22T15:58:56+12:00
; #@! TF.GenerationSoftware,Kicad,Pcbnew,(6.0.11-0)
; #@! TF.FileFunction,MixedPlating,1,2
FMAT,2
METRIC
; #@! TA.AperFunction,Plated,PTH,ViaDrill
T1C0.400
; #@! TA.AperFunction,Plated,PTH,ComponentDrill
T2C0.750
; #@! TA.AperFunction,Plated,PTH,ComponentDrill
T3C0.950
; #@! TA.AperFunction,Plated,PTH,ComponentDrill
T4C1.200
; #@! TA.AperFunction,Plated,PTH,ComponentDrill
T5C3.200
%
G90
G05
T1
X-20.95Y24.775
X-16.35Y15.0
X-15.4Y19.775
X-14.55Y24.775
X-14.175Y7.65
X-13.65Y18.25
X-12.775Y10.6
X-7.125Y16.425
X-6.2Y24.775
X-5.375Y15.425
X-2.525Y11.725
X-0.05Y16.7
X-0.025Y7.65
X2.45Y16.7
X2.65Y11.75
X7.55Y16.775
X8.425Y24.775
X9.775Y19.0
X12.9Y10.6
X14.125Y7.65
X21.25Y24.775
T2
X-19.4Y23.7
X-17.4Y23.7
X-3.4Y23.7
X-1.4Y23.7
X3.8Y23.7
X5.8Y23.7
T3
X-10.7Y8.95
X-8.2Y8.95
X-3.3Y13.9
X-0.8Y13.9
X1.7Y13.9
X3.325Y8.95
X4.2Y13.9
X5.825Y8.95
X8.325Y8.95
X10.825Y8.95
X11.6Y23.2
X14.1Y23.2
X16.6Y23.2
X19.1Y23.2
T4
X-12.2Y20.9
X-8.7Y20.9
X-5.7Y8.95
X-3.2Y8.95
T5
X-22.0Y15.1
X22.0Y15.1
T0
M30
